<svg width="512" height="420" viewBox="0 0 512 420" fill="none" xmlns="http://www.w3.org/2000/svg">
<path fill-rule="evenodd" clip-rule="evenodd" d="M60 45V90H30H0V255V420H226H452V375V330H482H512V165V0H286H60V45ZM482 165V300H467H452V195V90H271H90V60V30H286H482V165ZM422 255V390H226H30V255V120H226H422V255ZM119.5 151.893C82.479 162.697 64.511 202.377 81.17 236.544C88.697 251.98 104.307 264.534 120.788 268.405C126.151 269.665 126.317 269.79 123.5 270.45C101.671 275.563 86.497 284.634 75.536 299.124C64.779 313.343 60 328.272 60 347.66V360H135H210V347.66C210 328.272 205.221 313.343 194.464 299.124C183.503 284.634 168.329 275.563 146.5 270.45C143.682 269.789 143.846 269.666 149.2 268.408C165.896 264.486 181.241 252.108 188.913 236.374C205.642 202.064 186.544 161.125 149.356 151.577C141.253 149.497 127.201 149.646 119.5 151.893ZM147.259 183.261C162.068 190.041 168.657 207.482 161.897 222.006C148.354 251.102 105.297 241.541 105.576 209.5C105.624 203.98 106.195 201.416 108.274 197.372C116.059 182.229 132.225 176.378 147.259 183.261ZM240 195V210H255H270V195V180H255H240V195ZM300 195V210H346H392V195V180H346H300V195ZM240 255V270H255H270V255V240H255H240V255ZM300 255V270H346H392V255V240H346H300V255ZM144.28 301.471C152.684 303.252 159.941 307.114 166.054 313.059C170.158 317.05 176.964 327.127 176.991 329.25C176.996 329.663 158.1 330 135 330C111.9 330 93.004 329.663 93.009 329.25C93.015 328.837 94.414 326.066 96.12 323.092C102.442 312.067 113.133 304.149 125.251 301.516C133.392 299.748 136.116 299.741 144.28 301.471ZM240 315V330H255H270V315V300H255H240V315ZM300 315V330H346H392V315V300H346H300V315Z" fill="url(#paint0_linear_839_286)"/>
<defs>
<linearGradient id="paint0_linear_839_286" x1="511.922" y1="44.9691" x2="203.175" y2="522.166" gradientUnits="userSpaceOnUse">
<stop stop-color="#BA6203"/>
<stop offset="1" stop-color="#EDCA92"/>
</linearGradient>
</defs>
</svg>
