<svg width="512" height="513" viewBox="0 0 512 513" fill="none" xmlns="http://www.w3.org/2000/svg">
<path d="M468.971 277.333C468.884 226.35 450.552 177.081 417.292 138.441C384.032 99.8002 338.04 74.3401 287.637 66.6667V0H223.637V66.6667C186.242 72.2749 151.015 87.7395 121.575 111.471C92.1358 135.202 69.5465 166.345 56.1287 201.698C42.7109 237.051 38.9487 275.339 45.2286 312.627C51.5086 349.915 67.6042 384.859 91.8613 413.867L40.2987 468.779L86.976 512.555L139.819 456.235C174.268 478.703 214.509 490.666 255.637 490.666C296.766 490.666 337.007 478.703 371.456 456.235L424.299 512.555L470.976 468.779L419.413 413.867C451.464 375.594 469.01 327.254 468.971 277.333ZM106.304 277.333C106.304 247.798 115.062 218.926 131.471 194.368C147.88 169.81 171.203 150.67 198.49 139.367C225.777 128.065 255.803 125.107 284.771 130.869C313.739 136.631 340.347 150.854 361.232 171.739C382.117 192.623 396.339 219.232 402.101 248.2C407.863 277.168 404.906 307.194 393.603 334.481C382.301 361.768 363.16 385.091 338.602 401.5C314.045 417.908 285.173 426.667 255.637 426.667C216.046 426.622 178.088 410.874 150.093 382.878C122.097 354.882 106.349 316.925 106.304 277.333ZM287.637 235.84L339.008 267.008L305.045 321.259L223.637 271.253V170.667H287.637V235.84ZM53.2053 121.045L0 85.568C25.6921 51.4727 57.8763 22.7977 94.6987 1.19467L128.832 55.168C99.5345 71.9378 73.8347 94.3246 53.2053 121.045ZM382.485 55.168L416.619 1.19467C453.441 22.7977 485.625 51.4727 511.317 85.568L458.069 121.045C437.453 94.3289 411.767 71.9424 382.485 55.168Z" fill="url(#paint0_linear_839_188)"/>
<defs>
<linearGradient id="paint0_linear_839_188" x1="511.24" y1="54.8789" x2="109.313" y2="563.239" gradientUnits="userSpaceOnUse">
<stop stop-color="#BA6203"/>
<stop stop-color="#BA6203"/>
<stop stop-color="#BA6203"/>
<stop offset="0.0001" stop-color="#BA6203"/>
<stop offset="1" stop-color="#EDCA92"/>
</linearGradient>
</defs>
</svg>
