<svg width="484" height="512" viewBox="0 0 484 512" fill="none" xmlns="http://www.w3.org/2000/svg">
<path fill-rule="evenodd" clip-rule="evenodd" d="M366.958 1.9708C361.975 3.9038 356.635 8.9098 310.144 55.2288C270.533 94.6928 258.993 105.669 259.548 103.353C259.942 101.703 262.512 93.1528 265.257 84.3528C271.259 65.1158 271.741 58.4268 267.752 49.7148C264.457 42.5158 260.267 37.8948 253.777 34.2988C248.936 31.6178 247.605 31.3528 238.958 31.3528C230.295 31.3528 228.986 31.6148 224.099 34.3208C221.152 35.9538 217.327 38.9448 215.599 40.9678C211.022 46.3278 165.571 130.825 160.426 143.54C155.178 156.508 151.77 169.289 148.977 186.475C143.902 217.696 135.087 241.806 122.871 257.875L117.723 264.647L114.59 262.823C112.868 261.82 109.658 260.674 107.458 260.275C104.449 259.731 101.724 257.943 96.4578 253.058C88.5528 245.725 83.2878 242.904 77.4578 242.881C67.9748 242.842 66.9088 243.601 42.5968 267.696C28.0468 282.115 19.0558 291.807 17.8688 294.353C15.5998 299.214 15.4048 307.594 17.4468 312.48C18.2648 314.439 22.0898 319.297 25.9468 323.274C31.3458 328.842 32.9628 331.177 32.9798 333.429C32.9918 335.037 33.9098 338.355 35.0198 340.802L37.0388 345.251L20.0968 362.302C10.7788 371.68 2.43575 380.793 1.55675 382.553C-0.272247 386.215 -0.535247 393.405 1.01075 397.538C2.34975 401.12 109.348 508.336 113.594 510.351C117.729 512.313 125.229 512.267 129.258 510.255C131.018 509.376 141.33 499.833 152.174 489.048L171.89 469.44L185.217 482.542C199.272 496.361 201.725 497.847 210.458 497.838C218.537 497.829 223.151 494.399 245.593 471.715C257.217 459.966 267.462 448.898 268.359 447.12C271.014 441.862 271.409 435.728 269.47 429.889C268.036 425.573 265.594 422.471 255.105 411.645L242.467 398.601L259.031 382.477C277.433 364.564 294.668 350.04 314.958 335.345C356.462 305.286 364.366 298.591 399.208 263.977C422.742 240.598 425.958 237.03 425.958 234.302C425.958 230.447 422.383 226.853 418.549 226.853C416.266 226.853 411.353 231.174 391.113 250.979C355.631 285.7 347.881 292.206 302.336 325.497C283.004 339.628 265.928 354.12 247.309 372.197L231.391 387.652L220.259 376.752C210.496 367.193 208.708 365.853 205.717 365.853C201.489 365.853 197.958 369.286 197.958 373.395C197.958 375.876 202.184 380.543 226.458 404.87C252.826 431.296 254.958 433.692 254.958 436.902C254.958 440.084 253.227 442.1 234.032 461.279C215.642 479.654 212.725 482.186 209.95 482.186C207.116 482.186 201.526 476.918 155.128 430.52L103.462 378.854L127.704 354.612L151.946 330.37L164.716 343.112C175.62 353.992 177.942 355.853 180.611 355.853C185.861 355.853 188.451 352.604 188.073 346.492C188.01 345.469 181.64 338.219 173.918 330.382C161.861 318.145 159.793 315.582 159.277 312.242C158.268 305.71 156.207 302.86 142.354 288.83L129.001 275.308L135.046 267.33C138.37 262.943 143.721 253.953 146.936 247.353C155.645 229.477 159.71 215.373 165.397 183.3C168.285 167.007 172.252 154.186 178.456 141.089C187.173 122.686 226.206 51.8028 228.704 49.8378C240.022 40.9348 256.397 49.6408 254.714 63.6678C254.47 65.6948 251.722 75.6778 248.606 85.8528C239.633 115.155 239.317 118.366 244.859 123.908C247.919 126.968 253.386 128.454 257.701 127.399C259.552 126.947 278.53 108.711 315.458 71.9028C374.545 13.0068 373.463 13.9218 382.229 15.3948C387.76 16.3238 394.479 22.7818 395.483 28.1348C397.21 37.3388 399.12 35.0368 343.451 90.8528C308.102 126.295 291.87 143.238 291.392 145.19C290.356 149.421 293.563 153.261 298.477 153.673L302.297 153.994L368.377 87.9748C405.023 51.3628 435.712 21.4868 437.273 20.9038C445.054 17.9988 454.708 21.3058 458.203 28.0748C460.368 32.2678 460.722 39.4978 458.935 43.0128C458.28 44.2998 428.092 75.0608 391.851 111.371C328.689 174.652 325.958 177.54 325.958 181.048C325.958 183.811 326.604 185.216 328.593 186.78C334.267 191.244 332.655 192.584 387.926 137.433C433.267 92.1908 439.963 85.8798 443.662 84.9068C456.273 81.5888 467.813 93.3608 463.928 105.582C462.984 108.553 451.944 120.176 411.908 160.353C377.879 194.502 360.864 212.264 360.412 214.11C359.116 219.408 365.225 224.893 370.208 222.906C371.446 222.413 387.758 206.654 406.458 187.886C425.158 169.118 441.945 152.831 443.763 151.692C447.786 149.172 455.293 148.941 459.665 151.202C466.973 154.981 470.217 162.862 467.815 171.001C466.775 174.526 463.626 178.315 451.244 190.94C438.036 204.408 435.958 206.956 435.958 209.69C435.958 213.854 439.02 216.853 443.271 216.853C446.232 216.853 448.343 215.071 463.123 200.103C477.741 185.298 479.922 182.656 481.907 177.353C484.955 169.213 484.454 158.641 480.669 151.23C477.535 145.093 470.45 138.588 464.37 136.266L459.947 134.577L467.82 126.376C477.83 115.95 480.369 110.077 479.72 98.8528C478.99 86.2508 471.437 75.4928 460.345 71.2568L455.898 69.5578L463.438 61.8098C472.161 52.8468 475.066 47.1778 475.707 37.8688C476.318 29.0128 473.367 21.2228 466.754 14.2308C460.17 7.2688 453.743 4.5048 443.94 4.4188C437.421 4.3618 435.559 4.7788 429.94 7.5548C425.829 9.5848 421.111 13.1308 417.044 17.2468L410.63 23.7378L408.235 18.5448C405.212 11.9918 399.878 6.4138 393.458 3.0958C386.41 -0.547202 374.729 -1.0432 366.958 1.9708ZM85.2778 263.669L88.9238 267.402L64.6288 291.682L40.3338 315.962L35.6458 310.95C30.5898 305.545 30.1888 304.203 32.3908 300.053C34.4548 296.162 70.9838 260.109 73.9528 259.032C77.4098 257.779 80.9358 259.222 85.2778 263.669ZM125.743 294.164C136.861 305.341 143.955 313.231 143.95 314.414C143.938 317.307 90.5678 370.853 87.6978 370.853C84.3148 370.853 48.9578 335.245 48.9578 331.838C48.9578 328.182 101.374 275.853 105.036 275.853C106.939 275.853 111.837 280.184 125.743 294.164ZM90.8228 317.718C83.0848 325.456 81.9578 327.023 81.9578 330.044C81.9578 334.368 85.3628 337.853 89.5878 337.853C92.0558 337.853 94.2228 336.188 101.774 328.488C108.739 321.385 110.958 318.475 110.958 316.442C110.958 312.708 106.848 308.853 102.868 308.853C100.2 308.853 98.2598 310.281 90.8228 317.718ZM81.4578 385.746C83.6578 386.349 86.3558 386.844 87.4528 386.847C88.7378 386.851 102.168 399.569 125.201 422.596L160.954 458.338L141.716 477.596C131.134 488.187 122.024 496.853 121.471 496.853C120.164 496.853 14.9578 391.674 14.9578 390.367C14.9578 389.821 22.4838 381.839 31.6818 372.629L48.4058 355.883L62.9318 370.267C74.3868 381.609 78.3038 384.882 81.4578 385.746ZM143.694 369.103C139.22 372.5 140.067 379.434 145.475 383.688C150.045 387.282 155.098 386.233 157.819 381.124C161.43 374.344 149.812 364.457 143.694 369.103ZM172.132 399.167C168.79 402.725 169.251 407.346 173.358 411.453C178.964 417.059 186.177 415.363 187.579 408.109C188.128 405.266 187.71 404.37 184.199 400.859C179.459 396.119 175.516 395.566 172.132 399.167ZM201.593 427.926C197.644 431.032 197.95 436.045 202.358 440.453C206.58 444.675 210.891 445.011 214.503 441.398C218.099 437.803 217.675 434.334 213.076 429.735C208.639 425.299 205.551 424.812 201.593 427.926Z" fill="url(#paint0_linear_839_236)"/>
<defs>
<linearGradient id="paint0_linear_839_236" x1="483.818" y1="54.7974" x2="78.0481" y2="541.212" gradientUnits="userSpaceOnUse">
<stop stop-color="#BA6203"/>
<stop offset="1" stop-color="#EDCA92"/>
</linearGradient>
</defs>
</svg>
