<svg width="512" height="472" viewBox="0 0 512 472" fill="none" xmlns="http://www.w3.org/2000/svg">
<path fill-rule="evenodd" clip-rule="evenodd" d="M104.44 0.942369C72.6391 6.26637 48.2231 32.3444 44.9671 64.4624C44.1681 72.3484 44.7951 83.7714 46.3721 90.0564C47.0141 92.6114 46.9511 92.6464 42.5861 92.1544C36.2371 91.4384 31.7751 93.9004 22.3031 103.344C6.16807 119.431 -1.04693 137.787 0.122066 159.772C1.02207 176.694 7.32907 191.533 19.0741 204.363L24.7831 210.6L21.1311 212.991C13.7521 217.821 8.65207 233.647 8.59907 251.882C8.52307 278.086 20.0591 299.279 41.9251 313.103C44.9171 314.995 48.1111 316.814 49.0241 317.146C50.3331 317.622 49.1271 319.351 43.3041 325.347C32.2201 336.759 31.7571 340.685 39.4881 357.722C54.5381 390.89 89.2121 408.117 123.365 399.395C130.764 397.505 143.964 391.133 149.866 386.602L154.276 383.217L165.56 388.58C179.101 395.017 196.555 400.933 210.865 403.936C216.64 405.148 222.016 406.327 222.812 406.555C223.732 406.819 216.768 414.503 203.668 427.676C192.343 439.064 182.58 449.365 181.971 450.566C180.377 453.713 180.61 459.543 182.488 463.501C185.842 470.568 195.147 473.843 201.949 470.351C203.828 469.387 216.518 457.637 230.15 444.24C243.782 430.843 255.382 419.882 255.928 419.882C256.474 419.882 268.045 430.847 281.643 444.248C295.24 457.65 307.902 469.4 309.781 470.36C316.592 473.839 325.891 470.562 329.242 463.501C331.12 459.543 331.353 453.713 329.759 450.566C329.15 449.365 319.387 439.064 308.062 427.676C294.962 414.503 287.998 406.819 288.918 406.555C289.714 406.327 295.09 405.148 300.865 403.936C315.166 400.935 332.627 395.018 346.142 388.594L357.397 383.244L361.881 386.627C367.907 391.175 380.996 397.477 388.365 399.379C422.412 408.165 457.191 390.892 472.242 357.722C479.935 340.768 479.492 336.854 468.6 325.552L461.365 318.043L467.143 314.748C484.382 304.918 496.844 288.407 501.523 269.201C506.404 249.162 500.654 219.572 490.599 212.991L486.947 210.6L492.656 204.363C504.735 191.168 510.799 176.598 511.584 158.882C512.206 144.848 510.344 136.269 503.805 123.038C499.468 114.263 497.378 111.373 490.029 103.99C480.048 93.9624 475.595 91.4274 469.223 92.1454C466.826 92.4154 464.876 92.3544 464.889 92.0094C464.903 91.6644 465.39 89.3574 465.972 86.8824C467.539 80.2234 467.224 63.2464 465.387 55.3064C462.038 40.8284 452.254 25.1464 441.107 16.3874C421.773 1.19537 396.416 -3.78563 372.588 2.92737C366.545 4.62937 362.281 9.10837 359.97 16.1774C351.816 41.1264 356.37 66.9284 372.506 87.2024C384.397 102.142 406.389 112.882 425.091 112.882H431.998L427.482 118.632C422.353 125.164 415.757 138.723 413.741 146.882C411.518 155.878 412.007 173.008 414.741 181.882C417.928 192.229 423.954 203.461 429.893 210.124L434.884 215.724L429.125 218.982C421.944 223.043 408.453 236.525 404.044 244.047C396.236 257.369 392.671 274.913 394.746 289.81C395.403 294.525 396.189 299.56 396.494 301.001C396.968 303.243 396.64 303.719 394.206 304.311C388.298 305.749 375.12 312.94 368.817 318.165C358.641 326.6 351.812 336.649 345.001 353.208C344.084 355.436 341.676 357.053 333.602 360.859C287.854 382.424 234.745 384.052 188.266 365.314C174.159 359.627 167.898 356.08 166.703 353.099C156.882 328.59 142.024 313.109 121.198 305.685C115.248 303.564 114.778 303.184 115.26 300.882C115.548 299.507 116.311 294.44 116.956 289.622C118.979 274.517 115.489 257.359 107.686 244.047C103.277 236.525 89.7861 223.043 82.6051 218.982L76.8461 215.724L81.9211 210.053C87.7201 203.574 95.0581 189.433 97.5781 179.882C99.6811 171.911 99.8901 154.672 97.9791 146.882C95.9831 138.746 89.3871 125.177 84.2481 118.632L79.7321 112.882H86.6391C95.3471 112.882 107.184 109.886 116.33 105.367C148.335 89.5534 163.371 51.7034 151.76 16.1774C149.399 8.95337 145.114 4.56537 138.748 2.85037C127.828 -0.0896306 114.899 -0.808631 104.44 0.942369ZM124.704 41.6324C124.364 51.1934 123.969 53.1314 121.134 59.1574C114.256 73.7754 99.1781 82.8824 81.8511 82.8824C75.8521 82.8824 74.8651 81.5084 74.8651 73.1584C74.8651 57.1084 83.2751 42.4284 96.3651 35.6304C103.065 32.1504 107.986 31.0194 116.726 30.9494L125.086 30.8824L124.704 41.6324ZM412.865 34.5394C416.44 36.2414 421.165 39.2134 423.365 41.1454C431.472 48.2614 436.865 61.0494 436.865 73.1584C436.865 81.5084 435.878 82.8824 429.879 82.8824C412.552 82.8824 397.474 73.7754 390.596 59.1574C387.753 53.1154 387.366 51.2054 387.022 41.5114L386.635 30.6404L396.5 31.0424C404.973 31.3884 407.282 31.8814 412.865 34.5394ZM223.14 107.821C215.713 109.659 211.811 114.394 209.957 123.821C207.695 135.318 200.158 142.776 188.054 145.493C177.874 147.779 174.718 149.671 172.022 155.104C170.167 158.843 169.824 160.681 170.374 163.935C171.274 169.261 175.901 174.513 181.054 176.057C186.008 177.541 196.28 176.006 205.022 172.474L210.865 170.114V215.354V260.593L203.336 261.163C194.745 261.812 190.496 263.823 187.118 268.834C182.591 275.552 185.128 285.407 192.469 289.616L196.365 291.849H255.865H315.365L319.261 289.616C326.602 285.407 329.139 275.552 324.612 268.834C321.234 263.823 316.985 261.812 308.394 261.163L300.865 260.593V189.386V118.178L298.612 114.834C297.372 112.995 294.785 110.566 292.862 109.436C289.554 107.493 287.663 107.372 257.865 107.203C240.54 107.104 224.914 107.383 223.14 107.821ZM51.5051 129.201C58.3281 134.23 61.9431 138.68 65.6771 146.647C68.0621 151.736 68.3651 153.571 68.3651 162.934C68.3651 173.078 68.2231 173.774 64.6831 180.934C62.6571 185.03 59.6431 189.681 57.9841 191.269L54.9691 194.157L49.9011 190.905C35.9441 181.949 28.0431 165.014 30.7231 149.799C32.4951 139.738 40.6131 124.882 44.3391 124.882C45.0571 124.882 48.2821 126.826 51.5051 129.201ZM471.797 128.796C476.062 134.181 479.729 142.545 481.007 149.799C483.687 165.014 475.786 181.949 461.829 190.905L456.761 194.157L453.746 191.269C452.087 189.681 449.073 185.03 447.047 180.934C443.507 173.774 443.365 173.078 443.365 162.934C443.365 153.488 443.656 151.76 446.142 146.452C447.67 143.19 450.527 138.559 452.493 136.161C456.061 131.807 465.285 124.882 467.518 124.882C468.166 124.882 470.092 126.643 471.797 128.796ZM270.865 199.382V260.882H255.865H240.865V199.382V137.882H255.865H270.865V199.382ZM52.4311 239.975C76.2001 244.355 90.3251 265.319 86.2231 290.132L85.6031 293.882L80.4841 293.87C56.1671 293.814 37.7621 274.11 39.0531 249.516C39.2901 245.001 39.8211 240.762 40.2341 240.095C41.1621 238.592 44.7361 238.557 52.4311 239.975ZM471.975 241.882C473.427 247.141 472.872 258.65 470.849 265.197C468.769 271.932 463.608 279.752 458.365 284.113C451.505 289.819 440.302 293.849 431.24 293.87C426.297 293.882 426.093 293.771 425.49 290.757C423.517 280.894 425.64 267.559 430.507 259.238C437.467 247.339 453.436 238.657 467.325 239.221C470.634 239.356 471.399 239.793 471.975 241.882ZM107.405 333.434C118.152 336.232 127.601 343.456 133.351 353.269L136.116 357.986L133.761 360.493C132.466 361.872 128.045 364.661 123.937 366.691C116.748 370.244 116.073 370.382 105.865 370.382C95.6351 370.382 94.9951 370.25 87.7051 366.647C79.5661 362.625 74.0311 357.435 69.3341 349.42L66.5011 344.584L69.4331 342.177C80.1441 333.382 94.5061 330.075 107.405 333.434ZM424.365 333.243C430.202 334.805 438.128 338.753 442.297 342.177L445.229 344.584L442.396 349.42C437.699 357.435 432.164 362.625 424.025 366.647C416.735 370.25 416.095 370.382 405.865 370.382C395.657 370.382 394.982 370.244 387.793 366.691C383.685 364.661 379.264 361.872 377.969 360.493L375.614 357.986L378.379 353.269C387.905 337.014 407.143 328.636 424.365 333.243Z" fill="url(#paint0_linear_839_210)"/>
<defs>
<linearGradient id="paint0_linear_839_210" x1="511.619" y1="50.511" x2="149.939" y2="547.893" gradientUnits="userSpaceOnUse">
<stop stop-color="#BA6203"/>
<stop stop-color="#BA6203"/>
<stop stop-color="#BA6203"/>
<stop offset="0.0001" stop-color="#BA6203"/>
<stop offset="1" stop-color="#EDCA92"/>
</linearGradient>
</defs>
</svg>
