<svg width="443" height="512" viewBox="0 0 443 512" fill="none" xmlns="http://www.w3.org/2000/svg">
<path fill-rule="evenodd" clip-rule="evenodd" d="M111.05 62.25C41.316 102.882 3.483 125.48 2.107 127.323L0 130.147V256V381.853L2.107 384.677C3.483 386.519 41.321 409.121 111.05 449.75C198.84 500.903 218.529 512 221.5 512C224.471 512 244.16 500.903 331.95 449.75C401.679 409.121 439.517 386.519 440.893 384.677L443 381.853V256V130.147L440.893 127.323C439.517 125.48 401.684 102.882 331.95 62.25C244.16 11.097 224.471 0 221.5 0C218.529 0 198.84 11.097 111.05 62.25ZM262.613 49.215C284.534 61.984 302.139 72.748 301.735 73.136C301.05 73.794 123.737 177.221 118.704 179.898C116.605 181.015 112.996 179.131 76.704 157.976C54.867 145.247 36.692 134.532 36.316 134.166C35.543 133.414 219.24 26.075 221.378 26.029C222.136 26.013 240.691 36.447 262.613 49.215ZM367.875 110.5C389.599 123.15 407.064 133.804 406.687 134.176C406.309 134.548 364.603 158.966 314.006 188.439C260.438 219.643 221.4 241.792 220.548 241.465C218.171 240.553 143.109 196.845 141.818 195.621C140.93 194.78 163.628 181.096 232.818 140.762C283.518 111.206 325.76 87.131 326.688 87.262C327.617 87.393 346.151 97.85 367.875 110.5ZM117.501 209.01L209.442 262.5L209.471 325.282C209.494 375.984 209.762 388.692 210.864 391.328C214.707 400.526 228.293 400.526 232.136 391.328C233.238 388.692 233.506 375.984 233.529 325.282L233.558 262.5L325.499 209.01C376.067 179.59 417.904 155.365 418.47 155.177C419.172 154.943 419.496 189.289 419.486 263.167L419.473 371.5L327.117 425.25C276.321 454.812 234.477 479 234.13 479C233.784 479 233.5 468.381 233.5 455.401C233.5 435.926 233.223 431.218 231.914 428.46C227.621 419.414 215.379 419.414 211.086 428.46C209.777 431.218 209.5 435.926 209.5 455.401C209.5 468.381 209.216 479 208.87 479C208.523 479 166.679 454.813 115.883 425.25L23.527 371.5L23.514 263.167C23.504 189.289 23.828 154.943 24.53 155.177C25.096 155.365 66.933 179.59 117.501 209.01ZM343.5 245.716C342.675 246.023 331.94 252.13 319.644 259.287C292.956 274.821 290.969 277.006 294.921 286.466C296.717 290.763 301.541 293.394 306.413 292.733C308.555 292.442 318.459 287.298 331 279.964C355.649 265.547 357.006 264.607 358.552 260.875C362.166 252.149 352.466 242.379 343.5 245.716Z" fill="black"/>
</svg>
