<?xml version="1.0" encoding="utf-8"?>
<!-- Generator: Adobe Illustrator 23.1.0, SVG Export Plug-In . SVG Version: 6.00 Build 0)  -->
<svg version="1.1" id="Слой_1" xmlns="http://www.w3.org/2000/svg" xmlns:xlink="http://www.w3.org/1999/xlink" x="0px" y="0px"
	 viewBox="0 0 645.7 141.8" style="enable-background:new 0 0 645.7 141.8;" xml:space="preserve">
<style type="text/css">
	.st0{fill:#EE1750;}
	.st1{fill-rule:evenodd;clip-rule:evenodd;fill:#B0CB1F;}
</style>
<g>
	<path class="st0" d="M645.7,45.8l-1,2.6c-1,2.6-1.7,4.2-2.7,6.3c-0.6,1.3-1.3,2.9-2.3,5.1l-20.5,51.2c-3.6,9.1-10.7,14.3-19.6,14.3
		c-3.1,0-6.7-0.9-8.7-1.8l-1.8-0.8l0.8-1.9c2.9-6.1,4.7-8.1,10.7-8.6c2.3-0.2,4.7-2.9,6.5-7l0.9-2.1l-18.6-43.4
		c-1-2.3-1.7-4.1-2.5-5.9c-0.7-1.7-1.4-3.4-2.3-5.4l-1.2-2.7h9.2c5.3,0,7.6,1.6,9.7,6.8c0,0,10.2,25.5,11,27.4
		c0.7,1.9,1.6,6.4,1.6,6.4l0.5,0c0,0,0.7-4,1.5-6.3c0.8-2.3,9.9-27.3,9.9-27.3c1.9-5.1,4.5-6.9,9.9-6.9H645.7L645.7,45.8z"/>
	<path class="st0" d="M531.2,45.2c-6.2,0-13.9,5.4-15.6,12.3c0-0.1,0-3.3,0-4.1c0-3.6-2.2-7.5-9-7.5h-5.1v59.6H516V80.7
		c0-3.7,0.4-6.8,1.2-9.5c2.2-7.1,7.5-11.7,13.7-11.7c1.5,0,2.7,0.3,2.7,0.3l2.4,0.6V45.7l-1.6-0.2C534.3,45.4,532.8,45.2,531.2,45.2
		L531.2,45.2z"/>
	<path class="st0" d="M573.2,45.2c-6.2,0-13.9,5.4-15.6,12.3c0-0.1,0-3.3,0-4.1c0-3.6-2.1-7.5-9-7.5h-5.1v59.6H558V80.7
		c0-3.7,0.4-6.8,1.2-9.5c2.2-7.1,7.5-11.7,13.7-11.7c1.5,0,2.7,0.3,2.7,0.3l2.4,0.6V45.7l-1.6-0.2C576.3,45.4,574.8,45.2,573.2,45.2
		L573.2,45.2z"/>
	<path class="st0" d="M268.8,46.5c-18.1,0-31.7,13.3-31.7,31c0,17.8,13.6,31.3,31.7,31.3c17.8,0,31.8-13.7,31.8-31.3
		C300.6,59.9,287,46.5,268.8,46.5L268.8,46.5z M268.8,95.7L268.8,95.7c-9.7,0-17-7.8-17-18.1c0-10.2,7.3-17.9,17-17.9
		c9.7,0,17.1,7.7,17.1,17.9C285.9,87.9,278.6,95.7,268.8,95.7L268.8,95.7z"/>
	<path class="st0" d="M203.2,46.5c-8.2,0-13.8,3.3-17.1,6.2h-0.4c0,0,0.4-3.3,0.4-6.6c0-3.3,0-11.3,0-11.3c0-6.1-2.9-9-9-9h-5.5
		v52.2c0.7,19,12.5,30.8,30.7,30.8c16.8,0,29.5-13.4,29.5-31.1C231.8,59.9,219.5,46.5,203.2,46.5L203.2,46.5z M200.8,95.8
		L200.8,95.8c-9.3,0-15.2-9.1-15.2-17.9c0-13.3,8.5-18.1,15.5-18.1c8,0,16.2,6.7,16.2,18C217.2,89,208.9,95.8,200.8,95.8L200.8,95.8
		z"/>
	<path class="st0" d="M398.9,46.5c-8.2,0-13.8,3.3-17.1,6.2h-0.4c0,0,0.4-3.3,0.4-6.6c0-3.3,0-11.3,0-11.3c0-6.1-2.9-9-8.9-9h-5.5
		v52.2c0.7,19,12.5,30.8,30.7,30.8c16.8,0,29.5-13.4,29.5-31.1C427.5,59.9,415.2,46.5,398.9,46.5L398.9,46.5z M396.5,95.8
		L396.5,95.8c-9.3,0-15.2-9.1-15.2-17.9c0-13.3,8.5-18.1,15.5-18.1c8,0,16.2,6.7,16.2,18C412.9,89,404.6,95.8,396.5,95.8L396.5,95.8
		z"/>
	<path class="st0" d="M351.5,94.4l-11.8-18.8l10-15.1c1.8-2.8,3.2-4.7,4.8-6.8c1.1-1.5,2.2-3,3.5-4.8l2.1-3h-10.9
		c-6.1,0-8.4,1.3-11.7,6.8c0,0-4.4,7.3-5,8.4c-0.6,1-2.1,4.4-2.1,4.5h-0.4c0,0-1.4-3.2-2.2-4.5c-0.8-1.4-5.1-8.4-5.1-8.4
		c-3.5-5.4-5.8-6.8-11.7-6.8h-10.9l2.2,3.1c2.6,3.7,4.1,5.9,6.4,9.2l11.7,17.4l-9.9,16.4c-1.8,2.7-3.3,4.7-4.8,6.8
		c-1.1,1.5-2.2,3-3.5,4.8l-2.1,3.1H311c6.1,0,8.4-1.3,11.7-6.8c0,0,4.4-7.3,5-8.4c0.6-1,2.1-4.4,2.2-4.5h0.4c0,0,1.4,3.1,2.2,4.5
		c0.8,1.3,5.1,8.4,5.1,8.4c3.5,5.4,5.8,6.8,11.7,6.8h10.9l-2.2-3.1C355.3,100,353.8,97.8,351.5,94.4L351.5,94.4z"/>
	<path class="st0" d="M482.7,90.5c-1.7,0-3.2,0.7-4.6,1.4l-0.2,0.1c-3.1,1.4-6.8,3.1-11.2,3.1c-7.5,0-17.3-4.7-18.2-14.9
		c0,0,41.2,0,41.7,0c0.3-2,0.4-4.8,0.4-6.3c0-16.8-11.1-28-27.4-28c-17.5,0-29.7,12.8-29.7,31.2c0,18,14.5,31.1,32.7,31.1
		c14.7,0,23-9,23.3-9.4l1-1l-0.6-1.3C488.4,93.7,486.5,90.5,482.7,90.5L482.7,90.5z M464.1,57.2L464.1,57.2
		c6.2,0,12.7,3.8,12.7,11.9h-28.2C449.5,62.9,455.8,57.2,464.1,57.2L464.1,57.2z"/>
</g>
<g>
	<path class="st0" d="M58.9,114c6.3-6.3,16.5-6.3,22.8,0c6.3,6.3,6.3,16.7,0,23c-6.3,6.4-16.5,6.4-22.8,0
		C52.7,130.7,52.7,120.4,58.9,114L58.9,114z"/>
	<path class="st0" d="M86.1,86.7c-6.3,6.3-6.3,16.6,0,23c6.3,6.3,16.5,6.3,22.8,0c6.3-6.4,6.3-16.7,0-23
		C102.6,80.4,92.4,80.4,86.1,86.7L86.1,86.7z"/>
	<path class="st0" d="M113.2,59.4c-6.3,6.3-6.3,16.6,0,23c6.3,6.4,16.5,6.4,22.8,0c6.3-6.3,6.3-16.6,0-23
		C129.7,53.1,119.5,53.1,113.2,59.4L113.2,59.4z"/>
	<path class="st0" d="M31.9,86.7c-6.3,6.3-6.3,16.6,0,23c6.3,6.3,16.5,6.3,22.8,0c6.3-6.4,6.3-16.7,0-23
		C48.4,80.4,38.2,80.4,31.9,86.7L31.9,86.7z"/>
	<path class="st0" d="M4.7,59.4c-6.3,6.4-6.3,16.6,0,23c6.3,6.4,16.5,6.4,22.8,0c6.3-6.3,6.3-16.6,0-23C21.2,53.1,11,53.1,4.7,59.4
		L4.7,59.4z"/>
	<path class="st0" d="M58.9,59.4c-6.3,6.3-6.3,16.6,0,23c6.3,6.4,16.5,6.4,22.8,0c6.3-6.3,6.3-16.6,0-23
		C75.5,53.1,65.3,53.1,58.9,59.4L58.9,59.4z"/>
	<path class="st0" d="M31.9,32.1c-6.3,6.4-6.3,16.6,0,23c6.3,6.3,16.5,6.3,22.8,0c6.3-6.4,6.3-16.6,0-23
		C48.4,25.7,38.2,25.7,31.9,32.1L31.9,32.1z"/>
	<path class="st0" d="M86.1,32.1c-6.3,6.4-6.3,16.6,0,23c6.3,6.3,16.5,6.3,22.8,0c6.3-6.4,6.3-16.6,0-23
		C102.6,25.7,92.4,25.7,86.1,32.1L86.1,32.1z"/>
	<path class="st1" d="M58.9,4.8c6.3-6.4,16.5-6.4,22.8,0c6.3,6.4,6.3,16.6,0,23c-6.3,6.3-16.5,6.3-22.8,0
		C52.7,21.4,52.7,11.1,58.9,4.8L58.9,4.8z"/>
</g>
</svg>
