<svg width="448" height="428" viewBox="0 0 448 428" fill="none" xmlns="http://www.w3.org/2000/svg">
<path fill-rule="evenodd" clip-rule="evenodd" d="M211.96 2.08605C202.747 5.62805 199.967 9.45105 173.735 54.655C151.016 93.807 149.077 96.814 146.235 97.308C144.554 97.599 122.327 102.349 96.8425 107.862C47.7975 118.472 44.8645 119.401 39.2365 126.09C33.6645 132.712 32.2025 136.844 32.2025 145.976C32.2025 152.781 32.6355 155.29 34.3745 158.557C36.3845 162.332 46.8204 174.349 87.8605 220.144L103.542 237.642L98.5515 286.059C95.7585 313.15 93.7614 336.977 94.0174 340.155C95.4724 358.191 114.067 370.716 131.178 365.183C134.478 364.116 156.651 354.637 180.452 344.117L223.726 324.992L249.452 336.347C325.448 369.892 320.58 368.142 330.688 365.552C341.918 362.675 349.661 355.197 352.755 344.242C353.976 339.919 353.624 334.744 348.965 288.551L343.829 237.626L359.504 220.135C400.535 174.35 410.972 162.332 412.982 158.557C416.132 152.639 416.094 139.244 412.91 133.254C409.444 126.734 405.033 122.289 399.36 119.602C395.987 118.005 377.369 113.54 346.034 106.812L297.891 96.476L273.534 54.578C257.433 26.881 247.734 11.229 244.917 8.39605C236.916 0.351046 223.27 -2.26195 211.96 2.08605ZM86.9194 2.30104C82.1854 4.93004 80.0815 10.613 82.0765 15.384C84.1385 20.316 108.466 53.2991 111.46 55.2211C116.521 58.4701 123.666 56.8331 126.253 51.8311C129.419 45.7091 128.508 43.511 115.094 24.918C100.275 4.37905 97.0375 0.962051 92.4435 1.01105C90.6475 1.03105 88.1624 1.61104 86.9194 2.30104ZM348.248 4.22605C346.377 6.01305 339.184 15.325 332.262 24.918C318.848 43.511 317.937 45.7091 321.103 51.8311C323.69 56.8331 330.835 58.4701 335.896 55.2211C338.924 53.2761 363.229 20.29 365.323 15.282C368.167 8.47905 362.603 0.976047 354.713 0.976047C352.62 0.976047 350.57 2.00605 348.248 4.22605ZM228.654 22.963C229.668 23.506 242.31 44.247 256.746 69.054C278.746 106.86 283.494 114.389 286.086 115.581C288.604 116.739 348.14 129.982 380.99 136.69C390.543 138.641 393.678 140.823 393.678 145.523C393.678 149.503 394.781 148.168 353.233 194.476C337.442 212.076 323.822 227.888 322.968 229.615C321.523 232.534 321.774 236.316 326.559 283.615C329.39 311.588 331.699 335.664 331.692 337.115C331.671 341.211 328.529 344.385 324.557 344.324C322.414 344.29 303.982 336.646 274.178 323.43C241.47 308.926 226.114 302.599 223.678 302.623C221.35 302.646 204.445 309.622 173.178 323.464C143.431 336.632 124.938 344.289 122.799 344.323C118.827 344.385 115.685 341.212 115.664 337.115C115.657 335.664 117.966 311.588 120.797 283.615C125.582 236.316 125.833 232.534 124.388 229.615C123.534 227.888 109.914 212.076 94.1235 194.476C52.7164 148.326 53.6785 149.488 53.6785 145.605C53.6785 143.567 54.4425 141.594 55.6595 140.493C57.0515 139.233 72.5775 135.475 107.909 127.846C135.557 121.877 159.562 116.359 161.253 115.584C163.823 114.406 168.55 106.91 190.105 69.826C204.283 45.4331 216.787 24.689 217.891 23.726C220.092 21.809 225.748 21.408 228.654 22.963ZM26.3775 245.585C5.32746 252.519 3.42245 253.34 1.57445 256.286C-2.68655 263.079 2.24146 272.976 9.88546 272.976C14.5215 272.976 55.7665 259.157 58.4135 256.716C63.6275 251.91 61.8215 242.187 55.2005 239.421C53.2985 238.626 51.1655 237.998 50.4605 238.025C49.7555 238.052 38.9185 241.454 26.3775 245.585ZM390.441 239.541C387.438 241.171 384.678 245.689 384.678 248.976C384.678 251.85 387.312 256.71 389.506 257.884C393.568 260.058 434.609 272.976 437.454 272.976C441.638 272.976 446.437 268.778 447.258 264.399C448.038 260.243 446.328 255.632 443.263 253.624C440.353 251.717 398.121 237.964 395.335 238.016C394.149 238.038 391.946 238.724 390.441 239.541ZM221.178 363.836C218.115 364.816 216.219 366.239 214.368 368.949C212.898 371.099 212.678 374.522 212.678 395.248C212.678 414.59 212.964 419.627 214.195 422.009C215.829 425.169 220.29 427.976 223.678 427.976C227.066 427.976 231.527 425.169 233.161 422.009C235.405 417.67 235.381 374.261 233.133 369.522C231.036 365.104 225.479 362.461 221.178 363.836Z" fill="url(#paint0_linear_704_11)"/>
<defs>
<linearGradient id="paint0_linear_704_11" x1="447.378" y1="45.8231" x2="115.73" y2="485.439" gradientUnits="userSpaceOnUse">
<stop stop-color="#BA6203"/>
<stop offset="1" stop-color="#EDCA92"/>
</linearGradient>
</defs>
</svg>
