<svg width="429" height="448" viewBox="0 0 429 448" fill="none" xmlns="http://www.w3.org/2000/svg">
<path fill-rule="evenodd" clip-rule="evenodd" d="M194.45 1.14736C175.262 4.81536 155.459 12.9734 137.003 24.8124C112.932 40.2534 96.322 70.9004 92.952 106.09C91.728 118.874 92.374 131.329 95.106 147.642L97.014 159.031L92.442 163.919C75.579 181.947 77.561 210.038 97.104 229.982C106.018 239.078 114.465 243.13 124.665 243.202L131.882 243.253L135.889 248.973L139.896 254.694L131.698 260.689C113.745 273.818 87.921 284.843 49.5 295.781C36.584 299.458 31.924 301.942 26.106 308.254C20.973 313.823 18.654 318.857 12.686 337.393C5.467 359.81 0 390.69 0 409.042C0 414.93 0.330002 416.174 2.455 418.298C6.171 422.015 12.578 421.278 14.941 416.863C15.484 415.848 16.404 408.996 16.985 401.635C18.282 385.216 20.275 372.816 24.047 357.701C26.958 346.035 33.042 327.505 35.561 322.635C37.747 318.408 42.694 314.891 48.817 313.211C78.942 304.944 92.11 300.182 113.75 289.728L130 281.877V291.091C130 335.366 150.582 381.157 191.282 427.433C205.418 443.505 210.175 447.753 214.038 447.753C217.906 447.753 224.183 441.983 238.363 425.394C262.37 397.307 278.003 371.157 287.82 342.662C293.611 325.853 296.129 312.693 296.748 296.003C297.038 288.166 297.421 281.753 297.598 281.753C297.776 281.753 302.662 284.228 308.456 287.253C320.313 293.443 324.375 294.111 327.826 290.439C330.526 287.564 330.754 281.715 328.25 279.551C327.288 278.719 321.55 275.478 315.5 272.347C303.239 266.004 289 256.374 289 254.427C289 253.729 290.683 250.874 292.739 248.083L296.478 243.009L303.991 243.12C314.021 243.268 320.725 240.041 330.548 230.337C343.7 217.345 349.655 198.98 345.94 182.868C344.415 176.25 340.203 168.357 336.016 164.269L332.273 160.614L334.545 152.801C338.783 138.223 340.379 126.299 340.307 109.753C340.248 96.4044 339.878 92.8794 337.638 84.3504C330.083 55.5834 312.865 38.3104 283.137 29.6774C278.278 28.2664 275.56 26.6864 271.637 22.9944C261.719 13.6574 250.515 7.37336 236.297 3.17236C225.434 -0.0366447 205.654 -0.993642 194.45 1.14736ZM227.077 17.1824C239.684 19.8544 250.126 25.7484 263.892 37.9594C267.501 41.1614 271.679 43.9354 273.412 44.2794C298.614 49.2864 315.214 64.2594 321.735 87.8664C323.113 92.8544 323.49 97.9774 323.453 111.253C323.412 126.158 323.069 129.69 320.674 139.91C319.171 146.322 317.143 153.917 316.167 156.788L314.393 162.007L313.16 155.316C311.486 146.231 307.455 133.709 303.483 125.253C301.134 120.25 299.751 115.196 298.636 107.539C297.76 101.519 296.166 95.0384 294.998 92.7484C291.511 85.9144 285.043 85.1114 280.681 90.9714C278.715 93.6124 278.704 93.8834 280.303 100.508C281.208 104.258 282.48 110.896 283.128 115.259C283.903 120.468 285.802 126.559 288.66 133.005C294.286 145.694 296.707 154.608 298.156 167.961C299.798 183.1 298.051 201.054 293.928 211.435C283.123 238.635 263.491 261.859 242.585 272.173C215.089 285.738 185.03 278.306 159.482 251.626C149.96 241.682 143.571 232.337 137.426 219.366C132.047 208.009 130.427 200.9 128.969 182.249C126.688 153.053 131.552 125.858 142.623 105.92C146.629 98.7034 160.325 84.1534 165.713 81.3894C168.771 79.8204 169.33 79.8574 177.315 82.1714C203.018 89.6204 228.678 87.2634 252.637 75.2534C258.366 72.3814 263.259 70.3644 263.511 70.7704C263.762 71.1774 265.588 72.2794 267.568 73.2184C270.58 74.6484 271.649 74.7274 274.122 73.7024C280.272 71.1554 280.871 64.2544 275.392 59.0864C271.352 55.2764 265.031 51.7534 262.236 51.7534C261.221 51.7534 258.246 53.1144 255.623 54.7774C240.402 64.4304 227.72 68.6484 211.5 69.4524C198.63 70.0904 189.178 68.8314 178.877 65.1074C169.134 61.5854 166.357 61.6864 159.547 65.8144C134.31 81.1094 119.036 106.974 113.676 143.495L112.391 152.253L110.945 143.753C110.015 138.282 109.537 128.838 109.605 117.253C109.698 101.333 110.005 98.1414 112.264 89.6344C118.568 65.8964 130.838 47.7894 147.337 37.8794C178.052 19.4304 204.86 12.4724 227.077 17.1824ZM107.282 189.753C109.759 196.078 114.291 207.035 117.352 214.101C122.894 226.895 122.906 226.946 120.305 226.293C116.752 225.402 109.829 220.524 106.455 216.534C100.183 209.117 96.475 195.944 98.145 187.007C98.919 182.863 101.681 177.057 102.468 177.916C102.638 178.101 104.804 183.428 107.282 189.753ZM330.413 193.33C330.44 199.292 329.946 201.421 327.282 206.83C325.543 210.363 322.567 215.067 320.669 217.285C317.247 221.283 307.406 227.492 306.278 226.365C305.699 225.786 307.148 222.223 318.729 195.753C321.978 188.328 324.979 181.353 325.399 180.253C326.076 178.48 326.402 178.706 328.273 182.253C329.83 185.206 330.391 188.106 330.413 193.33ZM170.273 282.185C173.448 284.197 178.124 286.735 180.664 287.823C183.205 288.912 185.107 289.953 184.892 290.137C184.676 290.32 176.874 297.323 167.554 305.698C148.508 322.812 150.075 322.514 147.963 309.424C146.543 300.623 147.199 277.801 149.066 271.029L150.23 266.805L157.365 272.666C161.289 275.889 167.098 280.173 170.273 282.185ZM279.711 287.01C280.231 300.692 279.202 313.329 277.106 318.997C276.529 320.555 273.741 318.435 259.709 305.764C250.519 297.465 243 290.489 243 290.261C243 290.033 245.04 288.944 247.532 287.842C253.388 285.252 267.238 276.07 273 270.958L277.5 266.966L278.324 269.61C278.778 271.064 279.402 278.894 279.711 287.01ZM351.025 291.728C346.585 296.168 347.495 302.406 352.998 305.252C354.695 306.129 360.573 307.958 366.061 309.316C382.586 313.405 389.452 316.858 392.404 322.567C397.169 331.782 405.496 361.053 408.388 378.753C409.737 387.009 411.959 408.79 411.99 414.048C411.995 415.036 413.105 416.948 414.455 418.298C417.763 421.607 422.296 421.548 425.693 418.151C428.276 415.567 428.291 415.465 427.706 403.901C426.943 388.807 424.675 373.449 420.817 357.253C417.545 343.517 410.281 321.185 406.982 314.717C402.189 305.323 393.3 300.04 371.722 293.762C356.04 289.199 353.776 288.977 351.025 291.728ZM228.594 299.845C231.017 302.224 233 304.423 233 304.733C233 305.042 229.868 307.738 226.039 310.722C222.211 313.707 218.615 317.297 218.047 318.701C217.231 320.722 218.649 330.1 224.858 363.753C231 397.034 232.453 406.616 231.559 407.927C228.923 411.794 214.524 427.758 213.891 427.516C212.253 426.891 195.96 408.061 195.448 406.202C195.137 405.074 198.317 385.547 202.514 362.809C206.711 340.07 209.892 320.461 209.584 319.232C209.276 318.003 205.755 314.39 201.762 311.203C197.768 308.016 194.275 305.218 194 304.985C193.725 304.751 195.779 302.459 198.565 299.89L203.631 295.221L213.91 295.371L224.188 295.522L228.594 299.845ZM186.959 320.302L192.749 324.851L191.493 331.552C190.802 335.238 188.309 348.828 185.953 361.753C183.597 374.678 181.368 385.606 180.999 386.038C178.87 388.535 154.801 342.777 156.156 338.809C156.468 337.897 180.045 315.916 180.834 315.801C181.018 315.775 183.774 317.8 186.959 320.302ZM258.6 326.882C265.42 333.003 271 338.686 271 339.51C271 344.941 248.183 389.269 246.338 387.424C245.764 386.85 234.985 328.119 235.058 325.963C235.103 324.635 244.211 316.063 245.85 315.808C246.042 315.778 251.779 320.761 258.6 326.882Z" fill="url(#paint0_linear_839_246)"/>
<defs>
<linearGradient id="paint0_linear_839_246" x1="427.954" y1="47.9406" x2="73.6766" y2="477.32" gradientUnits="userSpaceOnUse">
<stop stop-color="#BA6203"/>
<stop offset="1" stop-color="#EDCA92"/>
</linearGradient>
</defs>
</svg>
