<svg width="512" height="512" viewBox="0 0 512 512" fill="none" xmlns="http://www.w3.org/2000/svg">
<path d="M0 405.332C0.0338743 433.611 11.2828 460.723 31.2794 480.719C51.2759 500.716 78.3873 511.965 106.667 511.999H405.333C433.613 511.965 460.724 500.716 480.721 480.719C500.717 460.723 511.966 433.611 512 405.332V213.332H0V405.332ZM362.667 309.332C368.996 309.332 375.183 311.209 380.445 314.725C385.707 318.241 389.809 323.239 392.231 329.086C394.653 334.933 395.287 341.368 394.052 347.575C392.817 353.782 389.769 359.484 385.294 363.959C380.819 368.435 375.117 371.482 368.91 372.717C362.702 373.952 356.268 373.318 350.421 370.896C344.574 368.474 339.576 364.373 336.06 359.11C332.543 353.848 330.667 347.661 330.667 341.332C330.667 332.845 334.038 324.706 340.039 318.705C346.04 312.703 354.18 309.332 362.667 309.332ZM256 309.332C262.329 309.332 268.516 311.209 273.778 314.725C279.041 318.241 283.142 323.239 285.564 329.086C287.986 334.933 288.62 341.368 287.385 347.575C286.15 353.782 283.103 359.484 278.627 363.959C274.152 368.435 268.45 371.482 262.243 372.717C256.036 373.952 249.601 373.318 243.754 370.896C237.907 368.474 232.909 364.373 229.393 359.11C225.877 353.848 224 347.661 224 341.332C224 332.845 227.371 324.706 233.373 318.705C239.374 312.703 247.513 309.332 256 309.332ZM149.333 309.332C155.662 309.332 161.849 311.209 167.112 314.725C172.374 318.241 176.475 323.239 178.897 329.086C181.319 334.933 181.953 341.368 180.718 347.575C179.484 353.782 176.436 359.484 171.961 363.959C167.485 368.435 161.784 371.482 155.576 372.717C149.369 373.952 142.935 373.318 137.087 370.896C131.24 368.474 126.243 364.373 122.726 359.11C119.21 353.848 117.333 347.661 117.333 341.332C117.333 332.845 120.705 324.706 126.706 318.705C132.707 312.703 140.846 309.332 149.333 309.332Z" fill="url(#paint0_linear_845_19)"/>
<path d="M405.333 42.6667H384V21.3333C384 15.6754 381.752 10.2492 377.752 6.24839C373.751 2.24761 368.325 0 362.667 0C357.009 0 351.582 2.24761 347.582 6.24839C343.581 10.2492 341.333 15.6754 341.333 21.3333V42.6667H170.667V21.3333C170.667 15.6754 168.419 10.2492 164.418 6.24839C160.418 2.24761 154.991 0 149.333 0C143.675 0 138.249 2.24761 134.248 6.24839C130.248 10.2492 128 15.6754 128 21.3333V42.6667H106.667C78.3873 42.7005 51.2759 53.9495 31.2794 73.946C11.2828 93.9426 0.0338743 121.054 0 149.333L0 170.667H512V149.333C511.966 121.054 500.717 93.9426 480.721 73.946C460.724 53.9495 433.613 42.7005 405.333 42.6667Z" fill="url(#paint1_linear_845_19)"/>
<defs>
<linearGradient id="paint0_linear_845_19" x1="511.922" y1="245.31" x2="329.132" y2="642.602" gradientUnits="userSpaceOnUse">
<stop stop-color="#BA6203"/>
<stop stop-color="#BA6203"/>
<stop stop-color="#BA6203"/>
<stop offset="0.0001" stop-color="#BA6203"/>
<stop offset="1" stop-color="#EDCA92"/>
</linearGradient>
<linearGradient id="paint1_linear_845_19" x1="511.922" y1="18.2732" x2="444.277" y2="275.57" gradientUnits="userSpaceOnUse">
<stop stop-color="#BA6203"/>
<stop stop-color="#BA6203"/>
<stop stop-color="#BA6203"/>
<stop offset="0.0001" stop-color="#BA6203"/>
<stop offset="1" stop-color="#EDCA92"/>
</linearGradient>
</defs>
</svg>
