<svg width="513" height="512" viewBox="0 0 513 512" fill="none" xmlns="http://www.w3.org/2000/svg">
<path fill-rule="evenodd" clip-rule="evenodd" d="M93 1.886C89.975 2.864 85.569 4.658 83.209 5.873C77.197 8.968 67.75 18.739 64.899 24.81L62.5 29.918L50.432 29.959C42.477 29.986 36.511 30.541 32.932 31.585C18.266 35.866 6.438 47.491 1.895 62.091C0.066 67.966 0 74.184 0 240.5C0 406.816 0.066 413.034 1.895 418.909C6.438 433.509 18.266 445.134 32.932 449.415C37.772 450.827 53.18 451 174.521 451H310.679L311.915 453.712C314.353 459.063 323.835 472.616 329.376 478.67C340.533 490.861 357.042 501.412 373.5 506.872C397.799 514.933 426.306 513.311 449.614 502.543C498.629 479.896 523.542 423.75 506.872 373.5C501.412 357.042 490.861 340.533 478.67 329.376C472.616 323.835 459.063 314.353 453.712 311.915L451 310.679V189.521C451 81.873 450.823 67.757 449.415 62.932C445.134 48.266 433.509 36.438 418.909 31.895C414.387 30.487 409.695 29.989 400.661 29.959L388.5 29.918L386.059 24.709C379.283 10.249 362.666 0 346 0C329.334 0 312.717 10.249 305.941 24.709L303.5 29.918H226H148.5L146.059 24.709C141.199 14.339 130.007 5.096 118.068 1.593C110.998 -0.481 99.921 -0.352 93 1.886ZM113.938 32.864C119.341 36.764 120.406 39.414 120.832 50.027L121.233 60H105.616H90L90.022 51.75C90.045 43.188 91.924 36.956 95.332 34.135C100.366 29.97 109.101 29.373 113.938 32.864ZM353.938 32.864C359.341 36.764 360.406 39.414 360.832 50.027L361.233 60H346.116H331L331.006 52.25C331.013 42.509 332.219 38.122 335.848 34.646C340.905 29.801 348.639 29.039 353.938 32.864ZM60.159 70.43C60.542 82.153 61.837 85.07 68.071 88.248C71.136 89.812 75.105 89.997 105.5 89.997C135.895 89.997 139.864 89.812 142.929 88.248C149.163 85.07 150.458 82.153 150.841 70.43L151.182 60H226H300.818L301.159 70.43C301.542 82.153 302.837 85.07 309.071 88.248C312.133 89.81 316.081 89.997 346 89.997C375.919 89.997 379.867 89.81 382.929 88.248C389.178 85.062 390.457 82.164 390.844 70.317L391.189 59.775L401.067 60.172C411.697 60.599 414.121 61.605 418.438 67.383C420.373 69.971 420.519 71.713 420.812 95.571L421.125 121H225.562H30L30.006 97.75C30.009 84.963 30.456 72.899 30.999 70.943C32.162 66.758 36.524 62.259 40.604 61.038C42.197 60.562 47.172 60.133 51.659 60.086L59.818 60L60.159 70.43ZM421 226.257V301.514L409.665 301.154C403.431 300.957 394.994 301.305 390.915 301.93C350.853 308.062 317.182 336.919 305.636 375.017C301.979 387.084 300.741 396.654 301.155 409.68L301.515 421.029L170.831 420.764C40.605 420.501 40.137 420.493 37.385 418.438C35.866 417.304 33.696 415.134 32.562 413.615C30.507 410.864 30.499 410.387 30.235 280.927L29.971 151H225.485H421V226.257ZM68.071 182.752C66.185 183.713 63.71 185.77 62.571 187.323C60.567 190.055 60.5 191.312 60.5 226C60.5 260.688 60.567 261.945 62.571 264.677C67.102 270.853 68.08 270.997 105.5 270.997C142.92 270.997 143.898 270.853 148.429 264.677C150.433 261.945 150.5 260.688 150.5 226C150.5 191.312 150.433 190.055 148.429 187.323C143.898 181.147 142.92 181.003 105.5 181.003C75.105 181.003 71.136 181.188 68.071 182.752ZM189.071 182.752C187.185 183.713 184.71 185.77 183.571 187.323C181.567 190.055 181.5 191.312 181.5 226C181.5 260.688 181.567 261.945 183.571 264.677C188.094 270.842 189.132 270.997 226 270.997C262.868 270.997 263.906 270.842 268.429 264.677C270.433 261.945 270.5 260.688 270.5 226C270.5 191.312 270.433 190.055 268.429 187.323C263.906 181.158 262.868 181.003 226 181.003C196.081 181.003 192.133 181.19 189.071 182.752ZM309.071 182.752C307.185 183.713 304.71 185.77 303.571 187.323C301.567 190.055 301.5 191.312 301.5 226C301.5 260.688 301.567 261.945 303.571 264.677C308.094 270.842 309.132 270.997 346 270.997C382.868 270.997 383.906 270.842 388.429 264.677C390.433 261.945 390.5 260.688 390.5 226C390.5 191.312 390.433 190.055 388.429 187.323C383.906 181.158 382.868 181.003 346 181.003C316.081 181.003 312.133 181.19 309.071 182.752ZM121 226V241H105.5H90V226V211H105.5H121V226ZM241 226V241H226H211V226V211H226H241V226ZM361 226V241H346H331V226V211H346H361V226ZM68.071 302.752C66.185 303.713 63.71 305.77 62.571 307.323C60.567 310.055 60.5 311.312 60.5 346C60.5 380.688 60.567 381.945 62.571 384.677C67.102 390.853 68.08 390.997 105.5 390.997C142.92 390.997 143.898 390.853 148.429 384.677C150.433 381.945 150.5 380.688 150.5 346C150.5 311.312 150.433 310.055 148.429 307.323C143.898 301.147 142.92 301.003 105.5 301.003C75.105 301.003 71.136 301.188 68.071 302.752ZM189.071 302.752C187.185 303.713 184.71 305.77 183.571 307.323C181.567 310.055 181.5 311.312 181.5 346C181.5 380.688 181.567 381.945 183.571 384.677C188.094 390.842 189.132 390.997 226 390.997C262.868 390.997 263.906 390.842 268.429 384.677C270.433 381.945 270.5 380.688 270.5 346C270.5 311.312 270.433 310.055 268.429 307.323C263.906 301.158 262.868 301.003 226 301.003C196.081 301.003 192.133 301.19 189.071 302.752ZM121 346V361H105.5H90V346V331H105.5H121V346ZM241 346V361H226H211V346V331H226H241V346ZM425.45 333.987C439.597 337.605 454.938 347.206 464.03 358.132C489.187 388.361 487.093 431.072 459.083 459.083C417.703 500.463 348.954 481.831 333.822 425.136C331.207 415.338 330.974 398.403 333.322 388.77C338.932 365.75 355.658 346.131 377.33 337.148C383.592 334.552 387.072 333.66 399 331.589C403.616 330.788 418.062 332.098 425.45 333.987ZM399.071 362.695C392.303 366.258 391.536 368.412 391.194 384.819L390.888 399.5L377.052 413.5C369.442 421.2 362.717 428.483 362.108 429.684C360.349 433.152 360.79 440.143 362.995 443.759C366.978 450.292 376.287 453.022 382.8 449.568C386.885 447.401 418.751 414.908 419.951 411.685C420.541 410.101 420.999 400.918 420.998 390.685C420.997 370.765 420.294 367.689 414.824 363.681C411.039 360.907 403.378 360.427 399.071 362.695Z" fill="url(#paint0_linear_834_135)"/>
<defs>
<linearGradient id="paint0_linear_834_135" x1="511.957" y1="54.8135" x2="110.75" y2="563.58" gradientUnits="userSpaceOnUse">
<stop stop-color="#BA6203"/>
<stop offset="1" stop-color="#EDCA92"/>
</linearGradient>
</defs>
</svg>
