<svg width="495" height="512" viewBox="0 0 495 512" fill="none" xmlns="http://www.w3.org/2000/svg">
<path fill-rule="evenodd" clip-rule="evenodd" d="M233.5 1.57929C165.135 10.0453 104.885 47.3423 66.33 105.062C56.527 119.738 45.425 142.739 39.65 160.338L34.802 175.114L29.462 177.838C22.535 181.372 13.123 190.072 8.479 197.234C6.456 200.354 3.721 206.204 2.4 210.234L0 217.562V291.062C0 364.095 0.0140002 364.607 2.208 371.562C7.513 388.377 21.925 402.945 38.428 408.174C47.818 411.149 71.275 412.094 75.01 409.648C78.8 407.164 80.055 403.816 78.554 400.193C76.818 396.002 73.796 395.198 58.5 394.858C45.81 394.577 44.61 394.374 38.497 391.478C30.167 387.533 23.031 380.397 19.082 372.065L16 365.562V291.041V216.52L19.195 210.03C23.261 201.77 30.208 194.824 38.468 190.757L44.957 187.562L158.978 187.28C272.464 186.999 273.031 187.007 279.574 189.098C291.046 192.765 299.997 201.213 304.666 212.78L307 218.562V291.062V363.562L304.666 369.344C301.695 376.704 297.234 382.545 290.955 387.293C281.982 394.08 280.302 394.382 248.16 395.004C219.365 395.561 219.317 395.566 217.41 397.923C215.64 400.11 215.5 402.182 215.5 426.173C215.5 450.729 215.397 452.165 213.5 454.062C212.4 455.162 210.474 456.062 209.22 456.062C207.684 456.062 197.152 447.684 176.97 430.409C160.486 416.299 144.389 402.574 141.198 399.909L135.396 395.062H120.995C105.557 395.062 102.404 395.782 100.61 399.719C98.915 403.44 99.242 404.958 102.423 408.139C105.346 411.062 105.347 411.062 118.002 411.062H130.658L163.629 439.312C181.763 454.85 198.195 468.382 200.143 469.383C204.43 471.588 212.854 471.777 217.641 469.776C221.909 467.993 226.695 463.278 228.853 458.731C230.227 455.834 230.5 451.619 230.5 433.266V411.273L253.75 410.813C272.108 410.45 278.157 409.987 282.5 408.612C301.772 402.512 316.154 387.559 320.982 368.602C323.249 359.702 323.249 222.422 320.982 213.522C316.161 194.594 302.054 179.898 282.5 173.435C277.385 171.744 270.265 171.58 180.768 171.09L84.536 170.562L89.297 159.562C100.932 132.683 119.195 108.229 141.568 89.5723C221.965 22.5323 341.779 34.4783 407.416 116.079C428.832 142.704 441.947 172.727 447 206.699C448.657 217.84 449.056 246.77 447.685 256.338C447.022 260.958 446.931 261.066 444.893 259.632C443.296 258.508 442.657 256.729 442.254 252.283C441.262 241.349 433.891 231.306 423.402 226.599C418.037 224.191 416.337 223.907 409.155 224.223C403.216 224.485 399.724 225.208 396.305 226.885C391.227 229.375 384.167 235.872 382.013 240.037C381.275 241.464 369.971 271.865 356.893 307.596C333.372 371.859 333.114 372.649 333.072 380.562C333.04 386.689 333.532 389.656 335.176 393.238C338.209 399.847 344.766 406.554 351.358 409.792C356.109 412.124 358.264 412.56 365 412.547C374.556 412.529 380.004 410.404 386.982 403.972L391.612 399.704L389.662 404.633C376.818 437.09 375.294 439.715 366.464 444.562C361.012 447.556 360.959 447.563 341.892 447.902L322.783 448.242L317.481 442.635C314.149 439.112 309.76 435.838 305.668 433.824C300.006 431.037 297.909 430.57 289.579 430.247C281.59 429.936 279.047 430.233 274.261 432.036C257.941 438.183 247.954 451.472 246.754 468.641C245.594 485.225 254.852 500.718 270.5 508.379C276.556 511.344 277.721 511.562 287.552 511.562C297.737 511.562 298.368 511.431 305.723 507.796C310.864 505.256 314.801 502.408 317.824 499.046L322.306 494.062L342.153 494.045C363.508 494.026 370.798 493.041 381.465 488.732C395.367 483.117 407.17 473.482 415.168 461.22C417.569 457.539 424.206 442.782 430.99 426.045C442.063 398.722 442.877 397.079 446.517 394.669C452.283 390.854 456.203 384.309 461.597 369.493C466.916 354.884 466.965 352.723 462.052 349.504C459.073 347.552 455.23 348.187 452.794 351.032C451.892 352.085 449.24 358.222 446.899 364.67C442.076 377.956 440.42 380.608 434.906 383.879C431.14 386.113 430.431 386.176 415.104 385.65C406.362 385.35 398.998 384.893 398.74 384.636C398.238 384.133 437.283 275.996 438.357 274.915C439.366 273.9 461.714 291.18 464.184 294.885C467.867 300.41 468.096 305.767 465.04 314.943C462.791 321.695 462.565 323.316 463.599 325.258C466.162 330.068 471.055 331.463 475.195 328.563C479.559 325.507 490.105 286.818 493.596 261.062C495.423 247.581 495.166 217.236 493.102 202.562C485.931 151.602 464.563 107.806 429.009 71.1973C402.482 43.8843 372.613 24.7143 337.944 12.7543C305.469 1.55029 266.986 -2.56671 233.5 1.57929ZM292.383 17.5763C338.456 24.1193 381.083 45.2083 414.096 77.7933C466.369 129.387 488.996 200.941 475.895 273.221L474.326 281.879L467.818 276.721L461.311 271.562L461.961 266.062C462.318 263.037 463.032 256.962 463.548 252.562C464.063 248.162 464.488 239.707 464.492 233.773C464.547 156.379 419.658 84.7313 350 51.0313C321.003 37.0033 294.245 30.9053 261.5 30.8653C228.933 30.8253 201.826 36.9963 173 51.0133C126.434 73.6573 89.785 113.829 71.463 162.312L68.156 171.062H60.328C56.023 171.062 52.5 170.881 52.5 170.659C52.5 170.437 54.113 165.6 56.084 159.909C70.698 117.726 101.798 77.8833 140.155 52.2043C170.196 32.0923 205.378 19.6963 242.636 16.0973C254.561 14.9453 278.969 15.6703 292.383 17.5763ZM416.829 240.426C423.138 243.062 428.356 252.034 427.133 258.145C426.292 262.353 382.845 381.618 379.969 387.615C372.351 403.499 348.5 398.327 348.5 380.791C348.5 377.422 354.287 360.382 371.541 312.949C384.214 278.111 395.361 248.246 396.314 246.584C398.384 242.972 405.624 239.062 410.244 239.062C412.07 239.062 415.033 239.676 416.829 240.426ZM52.135 258.135C47.494 261.785 48.888 268.956 54.628 270.957C58.144 272.182 263.059 272.406 267.41 271.189C273.327 269.533 274.961 262.523 270.475 258.037C268.533 256.095 266.708 256.062 161.635 256.062C55.036 256.062 54.763 256.067 52.135 258.135ZM51.674 295.376C48.786 298.451 48.848 303.101 51.814 305.888L54.129 308.062H161.204C261.71 308.062 268.408 307.955 270.386 306.312C271.545 305.35 272.771 303.129 273.109 301.378C273.605 298.81 273.227 297.698 271.157 295.628L268.591 293.062H161.22H53.849L51.674 295.376ZM53.517 330.348C52.151 331.039 50.601 332.832 50.074 334.333C48.799 337.957 50.334 342.166 53.517 343.776C55.454 344.756 75.528 345.036 144.827 345.047L233.654 345.062L236.577 342.139C240.274 338.442 240.274 335.682 236.577 331.985L233.654 329.062L144.827 329.077C75.528 329.088 55.454 329.368 53.517 330.348ZM423.274 402.502C423.71 402.939 407.964 442.214 405.037 447.989C398.61 460.672 386.103 471.177 372.078 475.673C365.069 477.92 361.668 478.334 346.382 478.802L328.763 479.341V471.279V463.217L346.882 462.89C364.259 462.575 365.242 462.448 370.93 459.785C378.712 456.14 384.867 451 389.009 444.684C390.857 441.867 395.842 430.844 400.087 420.188L407.805 400.814L415.381 401.5C419.549 401.878 423.1 402.329 423.274 402.502ZM299.141 447.879C315.578 456.264 318.28 478.535 304.311 490.491C289.53 503.144 266.713 495.273 262.602 476.102C259.925 463.62 267.46 450.438 279.5 446.539C285.295 444.662 294 445.256 299.141 447.879Z" fill="url(#paint0_linear_832_98)"/>
<defs>
<linearGradient id="paint0_linear_832_98" x1="494.746" y1="54.7726" x2="90.9151" y2="550.022" gradientUnits="userSpaceOnUse">
<stop stop-color="#BA6203"/>
<stop offset="1" stop-color="#EDCA92"/>
</linearGradient>
</defs>
</svg>
