<svg width="513" height="512" viewBox="0 0 513 512" fill="none" xmlns="http://www.w3.org/2000/svg">
<path fill-rule="evenodd" clip-rule="evenodd" d="M242.711 1.39327C214.953 7.48627 194.416 31.1133 192.309 59.3763L191.711 67.4063L146.84 75.6013C122.162 80.1083 101.375 84.0243 100.649 84.3033C99.922 84.5813 98.658 85.8463 97.839 87.1133C97.02 88.3803 74.671 160.742 48.175 247.917L0 406.417L0.565 415.917C3.138 459.191 34.959 496.999 79.036 509.153C90.221 512.238 118.201 512.238 129.386 509.153C173.464 496.999 205.292 459.181 207.855 415.917L208.417 406.417L161.718 252.597C136.033 167.995 115.174 98.6673 115.365 98.5333C115.555 98.3993 132.586 95.2383 153.211 91.5083C173.836 87.7783 191.637 84.5173 192.768 84.2623C194.505 83.8693 195.501 85.1623 199.173 92.5733C209.708 113.833 232.258 127.917 255.761 127.917C289.301 127.917 317.624 101.761 320.113 68.4883L320.711 60.4873L357.949 53.5233C378.429 49.6933 395.424 46.7963 395.714 47.0863C396.004 47.3773 375.5 115.97 350.149 199.515L304.056 351.417L304.6 360.417C307.188 403.235 339.181 441.061 383.036 453.153C394.221 456.238 422.201 456.238 433.386 453.153C477.463 440.999 509.284 403.191 511.857 359.917L512.422 350.417L464.27 191.917C437.786 104.742 415.307 32.2923 414.315 30.9173C413.103 29.2363 411.374 28.3193 409.038 28.1173C407.127 27.9523 385.822 31.4433 361.694 35.8753C337.567 40.3063 317.545 43.5913 317.202 43.1743C316.86 42.7583 315.733 40.3923 314.7 37.9173C303.506 11.1153 271.771 -4.98573 242.711 1.39327ZM271.317 18.7813C285.443 23.6433 296.258 34.3943 301.384 48.6683C304.29 56.7633 304.263 71.1453 301.325 79.3363C294.104 99.4713 276.856 111.538 255.711 111.248C231.967 110.923 214.152 95.6743 209.413 71.6193C207.491 61.8633 208.699 52.7953 213.208 43.1293C219.076 30.5513 233.465 19.3113 246.764 16.9173C253.702 15.6683 264.7 16.5033 271.317 18.7813ZM450.85 204.67L492.99 343.417L477.903 343.694L462.815 343.971L437.219 318.444C416.192 297.475 411.132 292.917 408.874 292.917C405.51 292.917 402.575 295.511 374.675 323.14L353.64 343.971L338.534 343.694L323.428 343.417L365.569 204.67C388.747 128.359 407.936 65.9233 408.211 65.9233C408.486 65.9233 427.674 128.359 450.85 204.67ZM145.621 256.625C168.121 330.712 187.112 393.26 187.823 395.622L189.115 399.917H172.291H155.467L154.853 396.08C153.701 388.873 147.315 377.848 140.279 370.917C129.87 360.664 118.463 355.951 103.999 355.929C94.798 355.915 83.731 359.091 76.245 363.895C65.599 370.727 56.762 382.941 53.982 394.667L52.738 399.917H36.022H19.307L20.736 395.167C44.107 317.475 103.848 121.923 104.211 121.923C104.486 121.923 123.12 182.539 145.621 256.625ZM424.211 328.417L439.687 343.917H408.211H376.735L392.211 328.417C400.723 319.892 407.923 312.917 408.211 312.917C408.499 312.917 415.699 319.892 424.211 328.417ZM495.194 362.167C495.158 366.777 492.262 377.934 489.177 385.345C478.536 410.904 456.805 429.789 429.711 437.02C418.376 440.046 398.046 440.046 386.711 437.02C352.559 427.905 325.805 398.529 321.695 365.631L320.981 359.917H408.096H495.211L495.194 362.167ZM112.358 373.277C124.65 376.171 134.961 385.736 138.65 397.667L139.346 399.917H104.211H69.076L69.772 397.667C73.389 385.969 83.751 376.203 95.595 373.329C102.346 371.69 105.573 371.68 112.358 373.277ZM191.194 418.167C191.158 422.777 188.262 433.934 185.177 441.345C174.536 466.904 152.805 485.789 125.711 493.02C114.376 496.046 94.046 496.046 82.711 493.02C48.559 483.905 21.805 454.529 17.695 421.631L16.981 415.917H104.096H191.211L191.194 418.167Z" fill="black"/>
</svg>
