<svg width="513" height="512" viewBox="0 0 513 512" fill="none" xmlns="http://www.w3.org/2000/svg">
<path fill-rule="evenodd" clip-rule="evenodd" d="M61.747 61.753L0 123.506V317.753V512H199.5H399L399.042 481.25L399.084 450.5L413.792 443.27C421.881 439.294 432.55 433.121 437.5 429.552C501.391 383.488 527.545 303.796 503.021 229.906C491.091 193.961 466.861 161.867 435.394 140.328C426.396 134.169 411.038 125.739 403.25 122.683L399 121.016V60.508V0H261.247H123.494L61.747 61.753ZM368 71.131V112.262L364.25 111.624C362.188 111.273 354.809 110.516 347.854 109.943C313.251 107.089 271.683 117.406 243.216 135.915L236.933 140H209.966H183V155V170H193.043H203.086L197.632 176.751C191.942 183.793 181.518 199.794 180.471 203.092C179.884 204.94 178.069 205 122.433 205H65V220V235H116.067C164.242 235 167.104 235.099 166.596 236.75C165.19 241.311 162.734 253.274 161.623 260.97L160.392 269.5L112.696 269.76L65 270.019V285.01V300H112.481H159.962L160.426 302.25C160.681 303.488 161.377 308.1 161.972 312.5C162.567 316.9 163.896 323.762 164.927 327.75L166.801 335H115.9H65V350V365H121.841H178.682L181.511 370.25C185.309 377.299 193.425 389.417 198.254 395.25L202.186 400H133.593H65V415V430H149.969H234.938L242.033 434.59C272.5 454.299 313.237 464.354 349.75 461.178C357.312 460.52 364.512 459.709 365.75 459.375C367.989 458.77 368 458.823 368 470.383V482H199H30V317V152H91H152V91V30H260H368V71.131ZM121 83.5V121H83.255H45.51L83 83.5C103.619 62.875 120.605 46 120.745 46C120.885 46 121 62.875 121 83.5ZM183 90V105H258.5H334V90V75H258.5H183V90ZM365 142.85C409.554 152.365 446.248 180.55 466.376 220.719C486.82 261.516 486.697 309.848 466.047 350.909C448.806 385.191 418.494 411.575 382.651 423.498C364.801 429.436 357.713 430.5 336 430.5C314.287 430.5 307.199 429.436 289.349 423.498C258.619 413.276 230.697 391.356 212.797 363.402C207.724 355.48 200.764 340.535 197.507 330.569C189.295 305.446 188.15 278.582 194.18 252.5C207.041 196.865 252.186 153.47 308.5 142.611C320.62 140.274 322.262 140.163 339.5 140.505C350.747 140.727 358.322 141.424 365 142.85ZM352.002 230.498L314.515 267.995L295.753 249.254L276.992 230.512L244.995 262.509L212.998 294.506L263.752 345.252L314.506 395.999L384.499 326.001L454.491 256.003L423.002 224.502C405.682 207.176 391.057 193 390.501 193C389.945 193 372.621 209.874 352.002 230.498ZM400.761 246.26L410.987 256.521L362.738 304.762L314.49 353.003L285.239 323.739L255.988 294.476L266.498 284.002L277.008 273.528L295.761 292.262L314.515 310.995L352.002 273.498C372.621 252.874 389.725 236 390.013 236C390.3 236 395.137 240.617 400.761 246.26Z" fill="url(#paint0_linear_839_281)"/>
<defs>
<linearGradient id="paint0_linear_839_281" x1="512.036" y1="54.8195" x2="110.79" y2="563.66" gradientUnits="userSpaceOnUse">
<stop stop-color="#BA6203"/>
<stop offset="1" stop-color="#EDCA92"/>
</linearGradient>
</defs>
</svg>
