<svg width="512" height="512" viewBox="0 0 512 512" fill="none" xmlns="http://www.w3.org/2000/svg">
<path fill-rule="evenodd" clip-rule="evenodd" d="M304 0.689637C302.625 0.933637 298.125 2.72364 294 4.66864C286.686 8.11764 284.303 10.3986 197.976 96.5896L109.453 184.975H74.937C47.567 184.975 39.234 185.284 34.693 186.467C18.612 190.655 6.638 201.826 1.895 217.066C0.0779999 222.904 0 228.287 0 348.475C0 468.416 0.081 474.057 1.884 479.85C4.479 488.188 7.862 493.608 14.227 499.629C20.254 505.328 24.858 507.971 32.932 510.365C37.852 511.824 58.842 511.975 256.092 511.975C466.544 511.975 474.024 511.912 479.875 510.091C488.213 507.496 493.633 504.113 499.654 497.748C505.353 491.721 507.996 487.117 510.39 479.043C511.835 474.17 511.992 460.713 511.923 348.043C511.864 251.349 511.562 221.555 510.61 218.475C509.618 215.265 509.631 213.487 510.675 209.475C513.535 198.486 511.54 184.61 505.684 174.761C502.026 168.608 340.529 7.68864 335.5 5.18564C326.398 0.656637 314.101 -1.09836 304 0.689637ZM318.002 30.9756C320.663 31.7386 329.739 40.2216 356.246 66.7206L391.001 101.465L349.255 143.22L307.509 184.975H230.007H152.505L228.002 109.462C276.707 60.7476 304.92 33.2436 307.5 31.9626C312.069 29.6936 313.172 29.5896 318.002 30.9756ZM413.002 164.473L392.518 184.975H371.515H350.512L381.5 153.975L412.488 122.975L422.987 133.473L433.485 143.972L413.002 164.473ZM465.519 176.111C471.008 181.686 474.676 185.961 473.668 185.611C472.661 185.261 463.67 184.975 453.688 184.975H435.54L445 175.475C450.203 170.25 454.703 165.975 454.999 165.975C455.295 165.975 460.029 170.536 465.519 176.111ZM473.971 217.46C475.55 218.277 477.89 220.414 479.171 222.21L481.5 225.475V348.652C481.5 471.499 481.494 471.836 479.438 474.59C478.304 476.109 476.134 478.279 474.615 479.413L471.853 481.475H256H40.147L37.385 479.413C35.866 478.279 33.696 476.109 32.562 474.59C30.506 471.836 30.5 471.499 30.5 348.652C30.5 228.024 30.541 225.415 32.457 222.584C33.534 220.994 35.784 218.859 37.457 217.838C40.396 216.046 47.85 215.982 255.8 215.979C444.254 215.975 471.457 216.16 473.971 217.46ZM77.293 256.424C71.219 258.322 65.54 263.25 62.579 269.193C60.013 274.342 60 274.493 60.006 299.421C60.009 314.107 60.453 326.067 61.08 328.323C61.733 330.676 64.158 334.234 67.324 337.486C75.381 345.762 77.688 346.179 113.239 345.793L142.5 345.475L147.923 342.475C153.678 339.291 158.061 334.175 160.199 328.146C161.135 325.505 161.499 317.463 161.497 299.475C161.494 275.188 161.426 274.339 159.124 269.698C156.219 263.842 150.279 258.599 144.205 256.529C138.094 254.447 83.891 254.361 77.293 256.424ZM131 300.475V314.975H110.5H90V300.475V285.975H110.5H131V300.475ZM59 421.475V436.975H94H129V421.475V405.975H94H59V421.475ZM167 421.475V436.975H202H237V421.475V405.975H202H167V421.475ZM275 421.475V436.975H310H345V421.475V405.975H310H275V421.475ZM383 421.475V436.975H418H453V421.475V405.975H418H383V421.475Z" fill="url(#paint0_linear_839_266)"/>
<defs>
<linearGradient id="paint0_linear_839_266" x1="511.887" y1="54.8168" x2="110.638" y2="563.538" gradientUnits="userSpaceOnUse">
<stop stop-color="#BA6203"/>
<stop offset="1" stop-color="#EDCA92"/>
</linearGradient>
</defs>
</svg>
