<svg id="Layer_1" data-name="Layer 1" xmlns="http://www.w3.org/2000/svg" viewBox="0 0 362.5 154.8"><defs><style>.cls-1{fill:#00b33c;fill-rule:evenodd;}.cls-2{fill:#fff;}</style></defs><path class="cls-1" d="M34.4,112.9c-15.6,0-22.7,4.3-25.5,13.3L0,154.8H303.2c15.6,0,22.7-4.3,25.5-13.3l8.9-28.6ZM70.9,73h-15c-23.4,0-6.4-49.7,13.3-49.7H92.9c3.8,0,10.5.7,13.8-8.7L111.8,0H79.3C61.7,0,48,6.2,38.1,16.6,21,34.4,15.2,62.2,19.3,75.5c3.9,12.3,14.5,20.4,31.1,20.6l12.9.1H79.2l3.9-11.7C86,76.2,79.5,73,70.9,73ZM253.5,52.4l4.9-15.9H206.1c-8.7,0-12.6,2.4-14.1,7.4l-4.9,15.9h52.3C248.1,59.8,252,57.4,253.5,52.4Zm-74.2,28-4.9,15.9h52.3c8.6,0,12.6-2.4,14.1-7.4L245.7,73H193.4C184.8,73,180.9,75.4,179.3,80.4ZM265.7,16,270.6.1H218.3c-8.7,0-12.6,2.4-14.1,7.4l-4.9,15.9h52.3c8.6,0,12.5-2.4,14.1-7.4Zm-79,3.2C184.5,4.4,176.6.1,157.4.1h-35L102,59.8h12.9c7.7,0,11.6.1,15.7-10.9l8.5-25.6h13c11.1,0,8.6,13.9,3,27.4-5,11.9-13.7,22.4-24.2,22.4H109.2c-8.7,0-12.7,2.4-14.3,7.4L89.5,96.4h15.9l15.6-.1c13.8-.1,25.1-1.1,38.3-13,14-12.7,30.2-45.3,27.4-64.1ZM362.5,0H332.2L303.7,30.3c-3.3,3.5-6.7,7-10,11.1h-.3L307.6,0H282.9L249.6,96.3h24.7L284.9,66l11-9.3,8.7,27.4c2.7,8.5,5.5,12.2,11.5,12.2H335L315.6,42.5,362.5,0Z"/><path class="cls-2" d="M33,136.7v7.9H28.6V122.7h8.7a8.38,8.38,0,0,1,5.9,1.9,6.71,6.71,0,0,1,2.2,5.1,6.39,6.39,0,0,1-2.2,5.1,8.38,8.38,0,0,1-5.9,1.9Zm0-3.4h4.3a3.71,3.71,0,0,0,2.8-1,3.66,3.66,0,0,0,.9-2.5,3.74,3.74,0,0,0-.9-2.6,3.56,3.56,0,0,0-2.8-1H33Zm24.9,6.6H50.2l-1.5,4.7H44.3l7.5-21.9h4.5l7.5,21.9H59.4Zm-6.6-3.5h5.5l-2.7-8.6H54Zm28.6-10.3H70.2v4.3H74a8.86,8.86,0,0,1,6,2,7,7,0,0,1,0,10.2,8.86,8.86,0,0,1-6,2H65.6V122.7H79.9Zm-9.7,7.7v7.4H74a3.61,3.61,0,0,0,2.8-1.1,4.06,4.06,0,0,0,1-2.7,3.54,3.54,0,0,0-1-2.6,3.76,3.76,0,0,0-2.8-1.1H70.2Zm32.6,1.8a9.29,9.29,0,0,1-2.5,6.7,8.59,8.59,0,0,1-6.6,2.6,9,9,0,0,1-6.6-2.6,9.13,9.13,0,0,1-2.5-6.7v-3.9a9.29,9.29,0,0,1,2.5-6.7,8.59,8.59,0,0,1,6.6-2.6,9,9,0,0,1,6.6,2.6,9.2,9.2,0,0,1,2.6,6.7v3.9Zm-4.4-3.9a6.39,6.39,0,0,0-1.3-4.2,4.18,4.18,0,0,0-3.5-1.6,4.06,4.06,0,0,0-3.5,1.6,7,7,0,0,0-1.2,4.2v4a6.76,6.76,0,0,0,1.2,4.2,4.63,4.63,0,0,0,7,0,7,7,0,0,0,1.3-4.2v-4Zm22.4-5.6h-6.2v18.5h-4.4V126.1H104v-3.4h16.7v3.4Zm12.7,13.8h-7.7l-1.5,4.7h-4.4l7.5-21.9h4.5l7.5,21.9H135l-1.5-4.7Zm-6.6-3.5h5.5l-2.7-8.6h-.1ZM155,135h-9.1v6.2h10.6v3.4h-15V122.7h15v3.4H145.9v5.5H155V135Zm9.9-12.3,5.6,16.1h.1l5.6-16.1h5.7v21.9h-4.4v-6.5l.4-9.7h-.1l-5.9,16.2H169l-5.8-16.1h-.1l.4,9.6v6.5h-4.4V122.7Zm28.8,21.9V122.7h7.4a10.23,10.23,0,0,1,6,1.5,5.24,5.24,0,0,1,2.2,4.5,5,5,0,0,1-.8,2.7,4.67,4.67,0,0,1-2.3,1.8,4.81,4.81,0,0,1,4,5,5.74,5.74,0,0,1-2.1,4.8c-1.4,1.1-3.3,1.6-5.9,1.6Zm4.4-12.7h3.2a4.15,4.15,0,0,0,2.7-.7,2.58,2.58,0,0,0,.9-2.1,2.35,2.35,0,0,0-1-2.2,4.46,4.46,0,0,0-2.8-.7h-3v5.7Zm0,3v6.3h4a4.34,4.34,0,0,0,2.7-.8,2.5,2.5,0,0,0,.9-2.2,3.74,3.74,0,0,0-.8-2.5,3,3,0,0,0-2.5-.8Zm31.9,2.2a7,7,0,0,1-2.1,5.7,8.62,8.62,0,0,1-6.2,2.1,8.44,8.44,0,0,1-6.4-2.5,9.23,9.23,0,0,1-2.5-6.5v-4.3a9,9,0,0,1,2.4-6.5,8.29,8.29,0,0,1,6.3-2.6,8.88,8.88,0,0,1,6.3,2.1,7.05,7.05,0,0,1,2.2,5.7v.1h-4.3a4.83,4.83,0,0,0-1-3.3,4,4,0,0,0-3.2-1.1,3.47,3.47,0,0,0-3.1,1.6,6.65,6.65,0,0,0-1.2,4.1v4.4a6.65,6.65,0,0,0,1.2,4.1,3.82,3.82,0,0,0,3.3,1.6,3.78,3.78,0,0,0,3-1.1,4.5,4.5,0,0,0,1-3.3H230Zm16.6-2.1h-9.1v6.2h10.6v3.4h-15V122.7h15v3.4H237.5v5.5h9.1Zm18.5-8.9h-9.9v18.5h-4.4V122.7h14.3ZM285.4,150h-4v-5.4H268V150h-4l-.3-8.8h1.7a8.08,8.08,0,0,0,2.1-3.2,19.38,19.38,0,0,0,1-6.4l.6-9h14.2v18.5h2.6l-.5,8.9Zm-12.7-18.3a26.81,26.81,0,0,1-.8,5.6,11.75,11.75,0,0,1-1.7,3.9h8.6V126.1h-5.7l-.4,5.6Zm27.6,8.2h-7.7l-1.5,4.7h-4.4l7.5-21.9h4.5l7.5,21.9h-4.4l-1.5-4.7Zm-6.6-3.5h5.5l-2.7-8.6h-.1l-2.7,8.6Zm18.9.6h-4.4V122.7h4.4Zm0,7.6h-4.4v-3.8h4.4Z"/></svg>