<svg id="Layer_1" data-name="Layer 1" xmlns="http://www.w3.org/2000/svg" xmlns:xlink="http://www.w3.org/1999/xlink" viewBox="0 0 425.77 186.47"><defs><style>.cls-1{fill-rule:evenodd;fill:url(#linear-gradient);}.cls-2{fill:#3c3d3b;}</style><linearGradient id="linear-gradient" x1="-0.09" y1="138.21" x2="159.2" y2="46.24" gradientUnits="userSpaceOnUse"><stop offset="0" stop-color="#af1e45"/><stop offset="0.02" stop-color="#af1e45"/><stop offset="0.15" stop-color="#af1e45"/><stop offset="0.2" stop-color="#bc213d"/><stop offset="0.29" stop-color="#cd2533"/><stop offset="0.4" stop-color="#d8282c"/><stop offset="0.56" stop-color="#df2a28"/><stop offset="1" stop-color="#e12a27"/></linearGradient></defs><path class="cls-1" d="M77.42.47,4,40.54,85.5,88a2.94,2.94,0,0,1,1.58,2.22v69.86a2.25,2.25,0,0,1-1,1.7l-4.86,2.72a3.08,3.08,0,0,1-3-.15L74,161.91a2.48,2.48,0,0,1-1.18-2.1V98c0-1.09-1.18-1.61-2-2.07L0,54.72v82.66c0,1.83,1.76,3.92,3.24,4.79l73.55,43.39c2.36,1.39,3.77,1.16,7-.47l72.68-42.9c1.7-1,3.35-2.87,3.35-4.94V54.7L111.09,83.2a2.72,2.72,0,0,1-2.36.13l-4.41-2.56a3.28,3.28,0,0,1-1.69-2.58l-.1-5.16a2.76,2.76,0,0,1,1.18-2.18l52.16-30.36L82.42.48a6.85,6.85,0,0,0-5,0Z"/><path class="cls-2" d="M276.24,137.18V39.94H258.06V71.83c-1.69-1-9.12-2.32-15-2.16-19.44.54-33.89,15.89-33.49,34.63.51,24.52,15,34.8,37.63,36.24,11.61.74,25.54-2.8,29-3.36Zm-18.11-13.13c-1.19.26-9.07,1.1-12,.62-12-2-17.75-8.08-17.87-18.74-.13-11.36,4.59-19.61,18.62-20.19,2.39-.1,10.23,1.29,11.19,2.19l.07,36.12Z"/><path class="cls-2" d="M425.77,137.18V39.94H407.59V71.83c-1.7-1-9.13-2.32-15-2.16-19.44.54-33.89,15.89-33.49,34.63.52,24.52,15,34.8,37.63,36.24,11.61.74,25.54-2.8,29-3.36Zm-18.11-13.13c-1.2.26-9.08,1.1-12,.62-12-2-17.74-8.08-17.87-18.74-.13-11.36,4.6-19.61,18.63-20.19,2.38-.1,10.22,1.29,11.19,2.19l.07,36.12Z"/><path class="cls-2" d="M286.45,75.38v91.31h18.4l-.07-79.41a78.74,78.74,0,0,1,12-1.15c12.14.72,17.66,7.49,17.94,18.16.18,6.82-2.09,12.47-6.54,16-3.36,2.66-8,4-13.42,4.19l0,16c8.48.25,17.05-1.54,23.85-5.92,8.81-5.68,15.07-18.27,14.72-30.25-.62-21.64-12.82-34-37.63-34.49-11.63-.25-25.74,3.82-29.27,5.59Z"/></svg>