<svg width="512" height="512" viewBox="0 0 512 512" fill="none" xmlns="http://www.w3.org/2000/svg">
<path fill-rule="evenodd" clip-rule="evenodd" d="M288.126 15.4624C258.773 23.9104 233.664 31.5384 232.328 32.4144C230.992 33.2894 229.004 35.4444 227.912 37.2014C225.986 40.2994 225.936 41.9064 226.292 89.3974C226.638 135.664 226.783 138.955 228.887 148.397C241.532 205.134 279.813 248.894 333.324 267.781C344.34 271.669 347.627 271.671 358.664 267.801C412.175 249.037 450.859 204.679 463.231 147.897C465.131 139.177 465.333 134.374 465.682 89.3974C466.051 41.8944 466.002 40.2994 464.076 37.2014C462.984 35.4444 460.999 33.2914 459.665 32.4174C456.01 30.0224 349.634 -0.119643 345.259 0.000357337C343.188 0.0563573 317.478 7.01536 288.126 15.4624ZM391.213 43.6474L435.982 56.3974L435.988 88.1864C435.991 105.671 435.522 124.346 434.944 129.686C429.698 178.234 398.086 219.726 352.834 237.46C346.706 239.861 346.455 239.879 341.53 238.266C325.752 233.097 309.039 222.177 294.451 207.504C275.402 188.344 264.758 168.782 258.884 142.141C256.954 133.386 256.69 128.541 256.282 94.3974L255.827 56.3974L300.16 43.7194C324.544 36.7464 344.933 31.0094 345.469 30.9694C346.005 30.9294 366.59 36.6344 391.213 43.6474ZM384.494 92.0454C383.394 92.6424 370.909 104.661 356.749 118.752L331.004 144.373L320.249 133.744C314.334 127.898 308.511 122.616 307.31 122.006C306.108 121.396 303.137 120.897 300.708 120.897C290.049 120.897 283.034 132.099 287.382 142.179C288.145 143.949 296.583 153.122 306.132 162.564C332.652 188.787 328.436 189.765 370.815 147.574C388.592 129.877 403.78 114.182 404.565 112.697C408.014 106.177 405.284 96.8734 398.753 92.8924C395.157 90.6994 387.777 90.2614 384.494 92.0454ZM436.844 269.923C428.076 272.08 418.5 276.363 411.826 281.115C409.29 282.92 397.029 293.847 384.579 305.397C372.129 316.947 361.592 326.518 361.162 326.666C360.733 326.813 359.674 325.463 358.807 323.666C354.61 314.952 343.681 306.146 332.903 302.792C327.403 301.08 323.339 300.897 290.777 300.897H254.737L247.943 294.488C236.269 283.475 221.023 275.783 204.067 272.35C192.87 270.083 173.715 270.783 163.111 273.845C153.509 276.619 141.057 282.847 133.375 288.719C130.01 291.292 105.425 314.177 78.743 339.575L30.23 385.753L27.362 382.702C19.821 374.68 8.01002 375.194 2.26402 383.795C-0.386981 387.764 -0.767981 394.562 1.42902 398.697C3.16402 401.96 110.574 509.223 113.678 510.793C114.88 511.4 117.482 511.897 119.46 511.897C133.619 511.897 139.976 496.524 130.263 485.773L126.646 481.769L142.058 466.333L157.47 450.897L258.482 450.892L359.494 450.887L363.109 448.642C368.418 445.344 507.102 312.374 509.728 308.064C512.294 303.851 512.647 298.061 510.581 294.066C508.745 290.515 500.85 283.227 494.389 279.12C478.282 268.88 455.736 265.277 436.844 269.923ZM468.35 300.542C473.074 302.085 473.156 302.179 471.35 303.967C470.329 304.978 442.494 331.68 409.494 363.306L349.494 420.806L248.178 420.852C176.196 420.884 146.23 421.217 144.678 422.004C143.477 422.612 134.055 431.497 123.74 441.747L104.986 460.385L78.392 433.79L51.797 407.195L99.272 362.035C125.384 337.196 148.491 315.469 150.621 313.751C159.115 306.903 175.798 300.96 186.656 300.914C194.135 300.883 205.991 303.756 213.819 307.497C219.745 310.329 223.333 313.015 229.562 319.281C234 323.745 238.456 328.072 239.464 328.897C241.006 330.158 247.925 330.477 282.896 330.897L324.494 331.397L327.857 333.796C336.787 340.165 335.759 353.621 325.958 358.647L321.57 360.897H256.43H191.29L187.892 363.167C183.081 366.381 180.786 371.272 181.299 377.221C181.785 382.863 184.279 386.698 189.065 389.163C192.261 390.809 197.19 390.912 261.494 390.663L330.494 390.397L338.08 386.774C344.896 383.519 349.301 379.766 381.51 349.774C401.225 331.417 420.065 313.968 423.378 310.999C429.772 305.269 438.865 300.436 446.102 298.922C451.716 297.748 462.115 298.505 468.35 300.542Z" fill="url(#paint0_linear_839_220)"/>
<defs>
<linearGradient id="paint0_linear_839_220" x1="511.843" y1="54.8085" x2="110.661" y2="563.478" gradientUnits="userSpaceOnUse">
<stop stop-color="#BA6203"/>
<stop stop-color="#BA6203"/>
<stop stop-color="#BA6203"/>
<stop offset="0.0001" stop-color="#BA6203"/>
<stop offset="1" stop-color="#EDCA92"/>
</linearGradient>
</defs>
</svg>
