<svg width="470" height="470" viewBox="0 0 470 470" fill="none" xmlns="http://www.w3.org/2000/svg">
<path fill-rule="evenodd" clip-rule="evenodd" d="M217.855 0.292112C185.319 3.34011 158.69 10.6891 131.355 24.1661C92.7945 43.1791 62.7535 69.4481 39.3015 104.664C14.6595 141.666 1.4905 182.866 0.135501 227.201C-0.757499 256.38 2.7305 281.01 11.5765 308.007C16.5495 323.186 18.8725 326.914 23.3555 326.914C26.3225 326.914 30.8555 322.873 30.8555 320.228C30.8555 319.499 29.2875 314.572 27.3715 309.278C13.0045 269.588 10.7985 222.867 21.3235 181.164C37.2565 118.034 79.9875 65.4181 138.29 37.1401C158.895 27.1461 178.851 20.8731 202.355 16.9991C217.493 14.5041 251.768 14.4731 267.44 16.9401C312.806 24.0801 355.548 45.0061 386.618 75.2891C393.395 81.8951 394.794 83.6961 392.855 83.3201C391.48 83.0541 380.286 81.8061 367.979 80.5461L345.603 78.2571L343.229 81.0161C340.262 84.4651 340.229 86.8411 343.105 90.1121C345.295 92.6031 346.255 92.7681 378.993 96.3041C397.493 98.3021 413.794 99.6451 415.215 99.2891C416.636 98.9321 418.279 97.7401 418.868 96.6401C420.649 93.3121 427.471 25.8681 426.229 23.8681C423.382 19.2841 416.286 19.1231 413.896 23.5881C413.302 24.7001 411.624 36.5341 410.168 49.8861C408.712 63.2391 407.372 74.3511 407.19 74.5801C407.007 74.8081 402.695 70.9011 397.607 65.8961C380.283 48.8561 361.434 35.5211 339.355 24.6841C315.615 13.0311 292.669 5.81511 267.855 2.19911C256.692 0.572112 226.967 -0.561888 217.855 0.292112ZM169.855 126.006C135.48 142.64 105.951 156.824 104.235 157.525C102.519 158.226 100.606 159.915 99.9855 161.279C98.4045 164.747 98.3835 302.534 99.9625 306C100.838 307.919 112.139 313.749 153.712 333.724C182.666 347.636 212.142 361.863 219.215 365.341C226.288 368.819 233.22 371.664 234.618 371.664C236.017 371.664 239.906 370.356 243.259 368.758C310.821 336.557 368.353 308.38 369.424 306.967C371.354 304.423 371.528 162.954 369.605 160.362C367.818 157.953 238.047 95.6541 234.939 95.7131C233.519 95.7401 204.23 109.371 169.855 126.006ZM258.952 122.024L282.355 133.383L274.355 137.39C269.955 139.594 245.014 151.644 218.93 164.168C173.224 186.114 171.388 186.896 168.24 185.758C162.473 183.673 123.581 164.605 124.079 164.107C124.724 163.462 234.192 110.721 234.952 110.689C235.28 110.675 246.08 115.776 258.952 122.024ZM439.928 143.299C437.278 146.668 437.282 146.721 440.927 156.187C445.208 167.301 449.526 183.097 451.99 196.664C454.998 213.223 455.671 243.763 453.419 261.46C442.192 349.663 380.096 422.059 294.728 446.472C273.722 452.48 260.953 454.108 234.855 454.108C208.362 454.108 195.708 452.45 173.544 446.073C138.73 436.057 103.025 415.199 80.3555 391.635L75.3555 386.438L79.8555 387.031C82.3305 387.358 93.0655 388.555 103.709 389.691C121.338 391.573 123.277 391.618 125.445 390.198C130.254 387.047 129.398 379.854 123.971 377.811C121.243 376.784 64.1525 370.623 57.6055 370.649C53.9605 370.664 49.8555 373.33 49.8555 375.682C49.8555 376.243 48.2805 391.084 46.3555 408.664C44.4305 426.244 42.8555 441.556 42.8555 442.691C42.8555 445.321 47.1525 449.664 49.7545 449.664C50.8485 449.664 52.9125 448.652 54.3405 447.414C56.8425 445.245 57.0295 444.285 59.5525 420.664C60.9915 407.189 62.3135 395.987 62.4895 395.77C62.6665 395.553 67.2315 399.619 72.6355 404.806C109.905 440.578 159.45 463.355 211.747 468.757C227.798 470.415 258.084 469.422 273.355 466.737C339.117 455.174 393.765 419.782 429.921 365.338C471.229 303.137 480.812 226.159 456.005 155.826C453.805 149.59 451.228 143.627 450.276 142.576C447.669 139.695 442.477 140.058 439.928 143.299ZM322.815 152.838C335.516 158.983 345.546 164.374 345.103 164.817C343.945 165.975 236.243 217.664 234.988 217.664C233.904 217.664 189.95 196.841 188.589 195.683C187.95 195.14 296.955 141.881 299.038 141.717C299.414 141.688 310.113 146.692 322.815 152.838ZM171.751 204.149L227.855 231.135V292.338V353.541L217.605 348.644C211.968 345.951 186.431 333.672 160.855 321.358L114.355 298.969L114.098 237.731C113.946 201.581 114.21 176.63 114.743 176.828C115.24 177.013 140.894 189.307 171.751 204.149ZM355.613 237.786L355.355 298.908L310.855 320.351C286.38 332.144 260.843 344.433 254.105 347.66L241.855 353.527L241.857 292.345L241.858 231.164L298.107 204.001C329.044 189.061 354.696 176.798 355.113 176.751C355.529 176.703 355.754 204.169 355.613 237.786ZM145.029 232.978C142.605 235.559 142.208 239.419 144.105 241.947C145.117 243.294 180.186 260.871 185.908 262.899C188.61 263.857 193.73 261.011 194.447 258.153C195.855 252.543 194.038 251.104 172.26 240.594C160.944 235.132 150.677 230.664 149.445 230.664C148.213 230.664 146.225 231.706 145.029 232.978Z" fill="url(#paint0_linear_832_123)"/>
<defs>
<linearGradient id="paint0_linear_832_123" x1="469.482" y1="50.2762" x2="101.469" y2="516.855" gradientUnits="userSpaceOnUse">
<stop stop-color="#BA6203"/>
<stop offset="1" stop-color="#EDCA92"/>
</linearGradient>
</defs>
</svg>
