<svg width="441" height="513" viewBox="0 0 441 513" fill="none" xmlns="http://www.w3.org/2000/svg">
<path fill-rule="evenodd" clip-rule="evenodd" d="M38.112 1.67348C25.208 5.14348 12.395 15.2455 6.232 26.8085C0.556998 37.4555 0.0309994 41.8995 0.0149994 79.3425L0 113.092H39.5H79V282.592V452.092H152.5H226V482.199C226 505.882 226.267 512.2 227.25 511.81C227.938 511.538 241.852 505.415 258.171 498.203C274.49 490.992 288.103 485.092 288.421 485.092C288.74 485.092 302.75 491.167 319.555 498.592C336.36 506.017 350.31 512.092 350.555 512.092C350.8 512.092 351 498.592 351 482.092V452.092H396H441V248.302C441 71.0455 440.806 43.7685 439.511 38.7955C434.816 20.7725 420.429 6.25648 402.5 1.45548C394.75 -0.620524 45.864 -0.411524 38.112 1.67348ZM347 23.4665C347 23.6725 345.894 25.8205 344.541 28.2395C340.054 36.2685 339.031 43.5995 339.015 67.8425L339 90.0925H180.934H22.867L23.184 66.8425C23.49 44.3495 23.581 43.4335 25.991 38.7155C29.009 32.8065 35.664 26.7355 41.324 24.7305C44.936 23.4505 65.86 23.2395 196.25 23.1715C279.163 23.1285 347 23.2605 347 23.4665ZM400.176 25.0675C407.044 27.6775 413.483 34.0935 416.01 40.8475C417.971 46.0905 418 48.9225 418 237.63V429.092H384.5H351V406.061C351 386.34 351.219 382.945 352.525 382.444C354.926 381.523 366.525 367.498 370.968 360.145C400.235 311.706 380.26 247.411 328.517 223.504C314.161 216.872 307.527 215.585 288 215.649C271.841 215.702 269.81 215.918 261.5 218.46C202.371 236.547 174.84 302.769 203.985 356.803C208.602 365.362 214.818 373.656 221.406 380.05L226 384.508V406.8V429.092H164H102V271.092V113.092H231.951H361.902L362.201 78.8425C362.492 45.5215 362.562 44.4565 364.804 39.5925C371.149 25.8185 386.05 19.6995 400.176 25.0675ZM310 241.081C329.458 247.655 343.966 259.844 353 277.208C364.051 298.45 364.022 323.79 352.922 345.126C345.584 359.229 330.896 372.617 316.215 378.583C295.998 386.798 271.667 385.297 252.487 374.651C243.937 369.906 229.703 355.984 225.135 347.898C200.623 304.518 224.16 250.658 272.5 239.509C281.56 237.419 301.656 238.261 310 241.081ZM257.888 402.188C277.43 409.047 301.64 408.488 322.906 400.687C325.329 399.798 327.472 399.231 327.668 399.427C327.864 399.622 327.906 417.125 327.762 438.321L327.5 476.859L308.621 468.475C298.238 463.864 289.199 460.092 288.536 460.092C287.52 460.092 252.081 475.306 249.77 476.734C249.347 476.996 249 459.585 249 438.044C249 401.139 249.101 398.919 250.75 399.588C251.712 399.978 254.925 401.148 257.888 402.188Z" fill="url(#paint0_linear_704_21)"/>
<defs>
<linearGradient id="paint0_linear_704_21" x1="440.933" y1="54.8294" x2="29.8252" y2="503.698" gradientUnits="userSpaceOnUse">
<stop stop-color="#BA6203"/>
<stop offset="1" stop-color="#EDCA92"/>
</linearGradient>
</defs>
</svg>
