<svg width="512" height="512" viewBox="0 0 512 512" fill="none" xmlns="http://www.w3.org/2000/svg">
<path fill-rule="evenodd" clip-rule="evenodd" d="M225.156 1.09978C176.737 7.22578 132.27 26.0018 94.491 56.2708C83.59 65.0058 64.864 83.7318 56.129 94.6328C32.689 123.889 15.332 159.005 6.574 194.891C1.117 217.253 0 227.575 0 255.633C0 283.733 1.116 294.006 6.61 316.52C15.301 352.13 32.811 387.53 56.129 416.633C64.864 427.534 83.59 446.26 94.491 454.995C172.467 517.471 279.16 529.457 367.991 485.721C394.349 472.743 415.766 457.409 436.517 436.659C457.3 415.875 472.652 394.421 485.552 368.133C529.243 279.101 517.283 172.551 454.853 94.6328C446.118 83.7318 427.392 65.0058 416.491 56.2708C394.801 38.8928 364.624 22.0548 340.233 13.7208C326.093 8.88978 307.777 4.33178 293.491 2.08878C279.081 -0.17322 239.721 -0.74322 225.156 1.09978ZM287.964 32.2608C379.601 45.4148 454.367 114.183 475.371 204.633C479.515 222.476 480.781 234.415 480.781 255.633C480.781 282.135 478.106 300.099 470.581 324.133C447.759 397.016 386.359 455.213 312.465 474.002C291.545 479.321 277.926 480.988 255.491 480.973C230.156 480.957 213.454 478.553 189.692 471.505C115.794 449.584 55.891 387.168 37.109 312.519C31.788 291.368 30.138 277.906 30.138 255.633C30.138 217.742 38.277 183.878 55.086 151.827C91.379 82.6298 158.659 37.6738 236.469 30.6298C249.052 29.4908 274.221 30.2878 287.964 32.2608ZM229.175 61.1768C178.01 68.1478 129.595 96.5668 99.127 137.514C72.54 173.244 59.57 211.816 59.511 255.332C59.402 334.287 106.116 404.962 179.007 436.12C201.891 445.903 223.155 450.529 249.026 451.352C287.456 452.575 322.052 443.956 353.868 425.231C414.757 389.396 451.491 325.578 451.491 255.633C451.491 185.628 414.809 121.901 353.868 86.0348C331.728 73.0048 307.081 64.6098 280.627 61.0878C267.521 59.3428 242.312 59.3868 229.175 61.1768ZM281.568 92.0228C339.183 101.442 387.442 139.913 408.957 193.574C417.42 214.681 420.871 232.654 420.871 255.633C420.871 278.657 417.389 296.754 408.944 317.633C396.169 349.216 375.695 374.29 346.991 393.507C326.583 407.169 304.223 415.801 278.991 419.758C268.702 421.372 242.298 421.373 231.991 419.761C158.567 408.278 102.827 352.539 91.361 279.133C89.745 268.789 89.755 242.385 91.378 232.133C100.755 172.906 137.843 125.349 192.475 102.501C207.26 96.3178 222.049 92.7588 243.491 90.2238C249.695 89.4908 272.737 90.5788 281.568 92.0228ZM294.384 151.883C293.737 153.121 269.646 197.426 240.849 250.339C212.052 303.252 188.491 346.916 188.491 347.37C188.491 348.239 212.547 361.636 214.094 361.629C214.848 361.626 320.241 169.11 321.951 164.612C322.382 163.479 319.373 161.374 310.157 156.362C303.353 152.661 297.285 149.633 296.673 149.633C296.062 149.633 295.032 150.645 294.384 151.883ZM175.109 151.745C168.215 153.364 159.633 158.726 153.576 165.201C144.119 175.311 139.491 187.281 139.491 201.633C139.491 216.064 144.116 227.952 153.726 238.225C171.649 257.385 199.423 257.436 217.102 238.34C236.28 217.625 236.28 185.641 217.102 164.926C206.207 153.159 190.324 148.173 175.109 151.745ZM189.773 182.004C204.773 188.396 204.099 216.647 188.826 221.687C177.969 225.27 167.195 210.472 170.36 196.326C171.722 190.244 176.289 184.065 180.913 182.051C184.845 180.339 185.853 180.334 189.773 182.004ZM314.383 260.019C298.431 264.639 285.136 279.315 280.997 296.873C277.997 309.597 279.765 323.736 285.766 335.001C301.107 363.801 335.704 369.304 357.123 346.352C372.502 329.873 375.937 305.627 365.844 284.795C361.811 276.47 352.558 267.27 343.933 263.007C337.521 259.838 335.519 259.345 327.802 259.036C322.375 258.819 317.221 259.197 314.383 260.019ZM329.789 289.984C341.722 294.97 345.072 313.753 335.932 324.43C331.662 329.419 326.877 331.245 322.156 329.687C307.014 324.69 306.189 296.623 320.991 290.045C324.82 288.343 325.844 288.336 329.789 289.984Z" fill="url(#paint0_linear_841_311)"/>
<defs>
<linearGradient id="paint0_linear_841_311" x1="511.523" y1="54.7972" x2="110.383" y2="563.198" gradientUnits="userSpaceOnUse">
<stop stop-color="#BA6203"/>
<stop stop-color="#BA6203"/>
<stop stop-color="#BA6203"/>
<stop offset="0.0001" stop-color="#BA6203"/>
<stop offset="1" stop-color="#EDCA92"/>
</linearGradient>
</defs>
</svg>
