<svg width="479" height="496" viewBox="0 0 479 496" fill="none" xmlns="http://www.w3.org/2000/svg">
<path fill-rule="evenodd" clip-rule="evenodd" d="M90.724 1.77172C87.821 2.81972 83.949 4.60372 82.117 5.73572C76.83 9.00272 69.594 17.3717 66.68 23.5897L64 29.3077L63.697 84.3077L63.394 139.308L39.36 153.308C12.931 168.703 7.592 173.108 2.696 183.555L0 189.308V327.808V466.308L2.696 472.061C6.467 480.108 14.403 488.165 22.426 492.091L29 495.308H239.5H450L455.753 492.612C463.8 488.841 471.857 480.905 475.783 472.882L479 466.308V327.808V189.308L476.304 183.555C471.407 173.107 466.069 168.703 439.64 153.308L415.606 139.308L415.303 84.3077L415 29.3077L411.783 22.7337C407.857 14.7107 399.8 6.77472 391.753 3.00372L386 0.307722L241 0.0867224C100.605 -0.127278 95.832 -0.0732782 90.724 1.77172ZM386 18.4657C390.68 20.9917 394.527 24.9087 397.136 29.8077C398.913 33.1447 399.013 37.9377 399.273 132.884L399.546 232.459L324.273 276.577C272.349 307.01 247.527 321.024 244.25 321.756C240.902 322.503 238.098 322.503 234.75 321.756C231.473 321.024 206.651 307.01 154.727 276.577L79.454 232.459L79.727 132.884C79.987 37.9377 80.087 33.1447 81.864 29.8077C85.512 22.9597 91.096 18.4347 98 16.7347C99.65 16.3277 164.225 16.0657 241.5 16.1517L382 16.3077L386 18.4657ZM219.465 65.6897C181.652 73.9367 152.117 104.319 144.959 142.333C142.72 154.219 143.399 172.964 146.478 184.308C163.403 246.667 234.656 275.098 290.162 241.639C298.547 236.584 300.487 230.795 295.475 225.783C292.675 222.983 288.303 223.333 282.657 226.806C268.571 235.474 255.856 239.108 239.5 239.143C216.189 239.192 196.56 230.471 180.192 212.793C172.631 204.626 164.783 189.832 161.898 178.308C159.513 168.779 159.53 150.721 161.933 141.308C168.137 117.012 184.225 97.6647 206.825 87.3257C218.003 82.2117 226.363 80.4537 239.5 80.4537C252.621 80.4537 260.997 82.2117 272.122 87.3007C290.334 95.6327 303.677 108.968 311.978 127.133C317.075 138.285 318.544 145.606 319.138 162.808C319.65 177.641 319.572 178.502 317.336 182.808C314.824 187.647 308.427 191.808 303.5 191.808C298.553 191.808 292.172 187.649 289.75 182.846C287.562 178.507 287.5 177.537 287.5 147.551V116.717L285.045 114.263C279.82 109.037 271.5 112.83 271.5 120.437V124.157L269.25 122.118C258.367 112.255 237.441 109.001 222.176 114.796C214.013 117.895 204.894 125.151 199.84 132.568C185.454 153.68 190.054 182.637 210.228 197.958C218.377 204.147 225.943 206.907 236.5 207.543C250 208.355 260.229 204.979 271.148 196.105L275.296 192.734L280.679 198.117C290.053 207.491 302.818 210.28 315.181 205.654C323.034 202.716 330.431 195.27 333.437 187.277C335.547 181.667 335.655 180.164 335.233 162.308C334.864 146.735 334.384 141.87 332.57 135.338C324.886 107.661 305.724 84.7387 280.344 72.8607C267.099 66.6627 258.166 64.6477 242 64.2077C230.981 63.9087 226.182 64.2237 219.465 65.6897ZM252.06 130.732C258.358 133.517 265.884 140.97 268.583 147.094C271.703 154.173 271.796 165.328 268.79 171.984C265.817 178.567 259.253 185.292 252.647 188.524C245.15 192.193 234.616 192.342 226.786 188.891C220.572 186.152 213.231 178.674 210.229 172.025C207.218 165.357 207.271 154.148 210.347 147.308C214.326 138.459 222.971 131.164 232.234 128.838C237.457 127.526 246.84 128.422 252.06 130.732ZM63.5 190.867C63.5 208.499 63.162 222.74 62.75 222.513C47.981 214.382 16.506 195.27 16.522 194.443C16.567 192.099 20.331 185.221 22.825 182.924C25.344 180.605 61.251 158.961 62.75 158.859C63.162 158.831 63.5 173.235 63.5 190.867ZM434.794 169.431C444.807 175.274 454.294 181.236 455.876 182.681C458.603 185.172 462.431 191.991 462.478 194.443C462.494 195.27 431.019 214.382 416.25 222.513C415.837 222.74 415.5 208.499 415.5 190.867C415.5 173.235 415.745 158.808 416.044 158.808C416.344 158.808 424.781 163.588 434.794 169.431ZM120.166 275.41C184.985 313.428 224.122 335.805 227.839 336.973C231.051 337.982 236.298 338.808 239.5 338.808C242.702 338.808 247.949 337.982 251.161 336.973C254.878 335.805 294.015 313.428 358.834 275.41C414.843 242.559 461.314 215.433 462.103 215.13C463.346 214.653 463.502 231.165 463.269 338.444C463.011 457.095 462.922 462.455 461.136 465.808C458.527 470.707 454.68 474.624 450 477.15L446 479.308H239.5C39.934 479.308 32.882 479.245 29.5 477.444C24.601 474.835 20.684 470.988 18.158 466.308L16 462.308L15.731 338.444C15.498 231.165 15.654 214.653 16.897 215.13C17.686 215.433 64.157 242.559 120.166 275.41Z" fill="white"/>
</svg>
