<svg width="512" height="400" viewBox="0 0 512 400" fill="none" xmlns="http://www.w3.org/2000/svg">
<path d="M256.001 285.302C303.111 285.302 341.302 247.111 341.302 200.001C341.302 152.89 303.111 114.699 256.001 114.699C208.89 114.699 170.699 152.89 170.699 200.001C170.699 247.111 208.89 285.302 256.001 285.302Z" fill="url(#paint0_linear_845_12)"/>
<path d="M496.358 144.96C463.283 91.0923 388.046 0.714844 256 0.714844C123.953 0.714844 48.7164 91.0923 15.6407 144.96C-5.21357 178.691 -5.21357 221.311 15.6407 255.042C48.7164 308.91 123.953 399.288 256 399.288C388.046 399.288 463.283 308.91 496.358 255.042C517.213 221.311 517.213 178.691 496.358 144.96ZM256 327.953C185.334 327.953 128.047 270.667 128.047 200.001C128.047 129.335 185.334 72.0484 256 72.0484C326.665 72.0484 383.952 129.335 383.952 200.001C383.881 270.638 326.636 327.882 256 327.953Z" fill="url(#paint1_linear_845_12)"/>
<defs>
<linearGradient id="paint0_linear_845_12" x1="341.276" y1="132.966" x2="207.57" y2="302.486" gradientUnits="userSpaceOnUse">
<stop stop-color="#BA6203"/>
<stop stop-color="#BA6203"/>
<stop stop-color="#BA6203"/>
<stop offset="0.0001" stop-color="#BA6203"/>
<stop offset="1" stop-color="#EDCA92"/>
</linearGradient>
<linearGradient id="paint1_linear_845_12" x1="511.921" y1="43.3898" x2="225.468" y2="509.93" gradientUnits="userSpaceOnUse">
<stop stop-color="#BA6203"/>
<stop stop-color="#BA6203"/>
<stop stop-color="#BA6203"/>
<stop offset="0.0001" stop-color="#BA6203"/>
<stop offset="1" stop-color="#EDCA92"/>
</linearGradient>
</defs>
</svg>
