<svg width="512" height="512" viewBox="0 0 512 512" fill="none" xmlns="http://www.w3.org/2000/svg">
<path fill-rule="evenodd" clip-rule="evenodd" d="M0 68V136H15H30V83V30H83H136V15V0H68H0V68ZM376 15V30H429H482V83V136H497H512V68V0H444H376V15ZM60.224 75.224L60.5 90.5H75.5H90.5V75.5V60.5L75.224 60.224L59.948 59.948L60.224 75.224ZM181.66 61.048C153.075 65.845 127.594 84.725 114.915 110.5C106.121 128.376 105.033 136.168 105.063 181C105.085 212.717 105.392 218.514 107.452 226.152C108.091 228.519 107.841 228.876 105.132 229.471C100.644 230.457 90.973 237.051 86.626 242.088C81.781 247.704 77.565 256.019 76.125 262.799C74.68 269.604 74.674 288.352 76.115 295.201C77.821 303.312 81.629 310.485 87.725 317.069C97.191 327.294 109.779 331.875 128.67 331.969L134.841 332L135.486 338.75C138.421 369.447 149.013 393.414 168.879 414.307C185.832 432.137 207.655 444.343 232 449.61C243.809 452.166 268.191 452.166 280 449.61C304.345 444.343 326.168 432.137 343.121 414.307C362.987 393.414 373.579 369.447 376.514 338.75L377.159 332L383.33 331.969C402.398 331.874 414.728 327.381 424.301 317.041C433.929 306.642 437 297.361 437 278.661C437 261.966 433.76 251.92 425.116 241.823C421.043 237.064 411.29 230.442 406.951 229.489C405.328 229.133 404 228.68 404 228.483C404 228.285 404.718 225.059 405.595 221.312C408.035 210.891 407.106 169.598 404.189 158.802C395.409 126.312 370.869 101.669 338.5 92.838C331.001 90.792 327.617 90.617 284.5 90.053C234.629 89.401 235.719 89.522 225.341 83.477C219.233 79.918 210.089 70.529 206.927 64.568L204.503 60L195.502 60.118C190.551 60.182 184.322 60.601 181.66 61.048ZM421.439 61.298C421.165 62.012 421.067 68.875 421.22 76.548L421.5 90.5H436.5H451.5L451.776 75.25L452.052 60H436.995C425.573 60 421.817 60.313 421.439 61.298ZM195.543 98.793C204.822 107.781 217.049 114.724 229.726 118.203C236.952 120.186 240.743 120.38 283.5 120.957C324.428 121.508 330.051 121.776 334.5 123.39C350.033 129.022 362.981 140.047 369.33 153.046C375.269 165.207 376 169.694 375.998 193.96C375.997 219.35 375.555 220.986 367.635 224.911C363.015 227.201 362.396 227.265 355.335 226.167C345.628 224.658 338.291 221.09 330.985 214.325C324.221 208.064 318.487 197.814 317.504 190.233C316.171 179.943 317.911 180.91 301.282 181.223L286.615 181.5L285.35 188.36C281.796 207.639 268.573 221.652 250.28 225.529C244.928 226.663 233.494 226.964 196 226.961C151.301 226.956 148.251 226.843 144.271 225.036C141.829 223.928 139.189 221.718 138.024 219.808C136.098 216.648 136.007 214.84 136.004 179.46C136 138.23 136.236 136.221 142.645 123.098C147.237 113.694 157.75 102.864 167 98.009C172.56 95.09 183.208 91.303 186.5 91.073C187.05 91.034 191.119 94.508 195.543 98.793ZM309.439 235.75C319.035 244.874 325.906 249.159 337.223 253.077L345.5 255.943L345.775 297.221C346.071 341.842 345.659 347.429 341.086 360.722C336.378 374.406 330.686 383.314 319.5 394.5C305.907 408.093 291.76 415.982 274.792 419.433C264.905 421.443 247.095 421.443 237.208 419.433C220.224 415.979 206.082 408.087 192.5 394.485C181.305 383.272 175.592 374.333 170.922 360.722C166.433 347.641 166.016 342.332 166.008 298.25L166 257L207.75 256.983C252.539 256.964 256.767 256.597 268.965 251.67C278.76 247.714 285.838 242.991 293.413 235.358C297.311 231.429 300.677 228.167 300.894 228.108C301.11 228.048 304.955 231.488 309.439 235.75ZM135 279V301L126.25 300.998C116.061 300.997 111.779 299.354 108.27 294.102C106.235 291.056 106 289.503 106.004 279.102C106.007 269.232 106.309 267.006 108.024 264.192C111.033 259.257 116.801 257.048 126.75 257.022L135 257V279ZM397.729 258.964C404.631 262.097 405.992 265.411 405.996 279.102C406 289.503 405.765 291.056 403.73 294.102C400.221 299.354 395.939 300.997 385.75 300.998L377 301V279V257L385.25 257.022C391.213 257.038 394.673 257.576 397.729 258.964ZM0 444V512H68H136V497V482H83H30V429V376H15H0V444ZM482 429V482H429H376V497V512H444H512V444V376H497H482V429ZM60.692 421.641C60.312 422.022 60 429.02 60 437.193V452.052L75.25 451.776L90.5 451.5V436.5V421.5L75.942 421.224C67.936 421.073 61.073 421.26 60.692 421.641ZM421.449 422.271C421.17 423 421.067 429.875 421.22 437.548L421.5 451.5L436.776 451.776L452.052 452.052L451.776 436.776L451.5 421.5L436.729 421.223C425.191 421.007 421.847 421.236 421.449 422.271Z" fill="url(#paint0_linear_839_276)"/>
<defs>
<linearGradient id="paint0_linear_839_276" x1="511.922" y1="54.8195" x2="110.655" y2="563.573" gradientUnits="userSpaceOnUse">
<stop stop-color="#BA6203"/>
<stop offset="1" stop-color="#EDCA92"/>
</linearGradient>
</defs>
</svg>
