<svg width="458" height="512" viewBox="0 0 458 512" fill="none" xmlns="http://www.w3.org/2000/svg">
<path fill-rule="evenodd" clip-rule="evenodd" d="M337 0.253569C323.386 2.43457 306.709 8.77957 295.454 16.0606L288.505 20.5556L158.752 20.8276L29 21.0996L23.215 23.4346C15.108 26.7066 6.585 34.8386 2.901 42.8176L0 49.0996V239.6V430.1L2.68 435.818C6.227 443.385 13.436 450.93 20.375 454.338C25.881 457.042 26.436 457.107 46.634 457.421L67.268 457.742L67.756 470.421C68.068 478.544 68.833 484.717 69.882 487.6C72.179 493.907 78.188 501.517 83.903 505.359C93.782 511.998 84.842 511.648 237.063 511.36L375.043 511.1L381.644 507.85C389.47 503.997 395.615 497.721 399.34 489.775L402 484.1L402.281 409.632C402.489 354.533 402.258 334.429 401.393 332.342C399.815 328.532 396.793 326.6 392.412 326.6C387.712 326.6 383.86 329.641 382.54 334.395C381.879 336.774 381.509 363.555 381.506 409.202L381.5 480.304L379.25 483.61C378.012 485.428 375.73 487.857 374.177 489.008L371.354 491.1L236.667 491.364L101.981 491.628L97.499 489.364C95.033 488.119 92 485.571 90.758 483.702C88.747 480.675 88.5 479.066 88.5 468.969V457.634L198.25 457.367L308 457.1L313.781 454.171C320.912 450.558 327.78 443.371 331.32 435.818L334 430.1L334.271 319.594L334.542 209.087L349.271 209.379C360.593 209.604 366.008 209.249 372.682 207.844L381.364 206.016L381.682 227.605C382.043 252.12 382.453 253.607 389.421 255.694C392.84 256.719 393.782 256.62 396.673 254.931C402.265 251.665 402.467 250.547 402.511 222.6L402.551 197.1L409.705 192.6C418.316 187.184 431.469 174.519 437.745 165.6C460.032 133.928 463.409 93.5966 446.661 59.0996C433.071 31.1056 409.333 11.3386 379.306 3.00957C371.632 0.881569 367.37 0.370569 355 0.100569C346.75 -0.079431 338.65 -0.011431 337 0.253569ZM373.138 22.6016C377.462 23.6896 385.05 26.6066 390 29.0826C410.489 39.3336 424.484 55.4476 432.395 77.8946C435.976 88.0556 435.992 88.1716 435.953 104.6C435.916 119.911 435.712 121.713 433.119 129.6C423.778 158.019 403.686 177.528 374.797 186.232C362.872 189.825 343.274 190.062 331 186.762C307.591 180.469 287.999 164.792 277.049 143.59C269.808 129.57 267.993 121.706 268.048 104.6C268.102 87.9706 269.35 82.0506 275.633 68.6016C292.824 31.8026 333.476 12.6246 373.138 22.6016ZM266.86 42.8496C266.444 43.5366 264.437 46.6876 262.401 49.8506C255.078 61.2266 249.008 78.8056 247.645 92.5826L247 99.0996L160.5 99.5996C92.807 99.9906 73.513 100.378 71.76 101.38C66.792 104.218 66.376 106.796 66.7 132.731L67 156.767L70.266 159.684L73.532 162.6L166.766 162.585C219.319 162.576 260.612 162.182 261.402 161.682C262.445 161.021 263.96 162.372 267.308 166.947C276.82 179.942 293.444 193.564 307.822 200.147L313.5 202.747V314.525V426.304L311.25 429.61C310.013 431.428 307.73 433.857 306.177 435.008L303.353 437.1H167H30.647L27.823 435.008C26.27 433.857 23.984 431.423 22.742 429.599L20.485 426.281L20.742 238.691C20.998 52.8626 21.019 51.0746 23 48.4246C24.1 46.9526 26.575 44.8256 28.5 43.6976C31.975 41.6606 32.837 41.6456 149.809 41.6226C243.798 41.6046 267.465 41.8526 266.86 42.8496ZM345.627 51.6956C342.297 54.7986 341.248 58.3056 342.508 62.1226C343.952 66.5006 346.587 68.6676 351.221 69.2886C358.886 70.3176 364.696 61.7476 361.078 54.7506C359.089 50.9036 356.728 49.5996 351.754 49.5996C349.2 49.5996 347.109 50.3146 345.627 51.6956ZM345.266 84.5166L342 87.4336L341.687 121.767C341.515 140.65 341.649 157.973 341.985 160.262C343.085 167.755 349.633 171.825 356.183 169.088C362.366 166.504 362.5 165.583 362.5 125.584C362.5 100.955 362.145 88.7736 361.383 87.2836C358.158 80.9786 350.667 79.6926 345.266 84.5166ZM246.5 131.6V142.6H167H87.5V131.6V120.6H167H246.5V131.6ZM72.815 198.064C66.253 200.917 64.813 209.727 70.096 214.69L72.661 217.1H167H261.339L263.904 214.69C269.285 209.635 267.736 200.85 260.966 198.021C255.965 195.932 77.623 195.972 72.815 198.064ZM69.9 248C65.035 252.865 65.63 258.729 71.454 263.318C73.609 265.017 258.187 265.156 261.905 263.461C265.212 261.954 267.827 256.365 266.996 252.58C266.642 250.971 265.002 248.517 263.35 247.127L260.347 244.6H166.823H73.3L69.9 248ZM387.829 282.058C384.086 283.686 382.3 286.606 382.3 291.1C382.3 295.731 384.119 298.543 388.223 300.257C399.84 305.112 408.022 289.157 397.275 282.604C393.447 280.27 392.115 280.193 387.829 282.058ZM71.43 293.868C65.069 298.155 65.317 306.688 71.92 310.715C74.874 312.516 78.752 312.593 166.8 312.596C267.575 312.6 262.747 312.891 265.983 306.633C267.888 302.949 267.888 301.251 265.983 297.567C262.747 291.309 267.584 291.6 166.698 291.6H74.796L71.43 293.868ZM70.867 341.372C65.483 345.734 65.112 351.412 69.9 356.2L73.3 359.6H166.823H260.347L263.389 357.04C268.734 352.543 268.372 345.365 262.575 340.882C261.363 339.944 239.35 339.661 167 339.654C79.418 339.645 72.854 339.762 70.867 341.372Z" fill="url(#paint0_linear_838_180)"/>
<defs>
<linearGradient id="paint0_linear_838_180" x1="457.134" y1="54.7642" x2="48.1354" y2="518.289" gradientUnits="userSpaceOnUse">
<stop stop-color="#BA6203"/>
<stop stop-color="#BA6203"/>
<stop stop-color="#BA6203"/>
<stop offset="0.0001" stop-color="#BA6203"/>
<stop offset="1" stop-color="#EDCA92"/>
</linearGradient>
</defs>
</svg>
