<svg width="478" height="478" viewBox="0 0 478 478" fill="none" xmlns="http://www.w3.org/2000/svg">
<path fill-rule="evenodd" clip-rule="evenodd" d="M218.483 1.51251C216.824 2.33151 214.894 3.91751 214.195 5.03651C213.496 6.15651 211.133 19.0885 208.943 33.7745C203.972 67.1175 204.528 64.8245 201.235 65.5485C199.731 65.8785 194.778 67.1825 190.229 68.4465L181.958 70.7435L164.877 49.1105C155.483 37.2125 146.604 26.4675 145.148 25.2325C140.473 21.2685 137.355 22.1295 119.824 32.2275C110.992 37.3145 103.098 42.4795 102.282 43.7045C101.467 44.9295 100.82 47.4045 100.845 49.2045C100.87 51.0045 105.605 64.4025 111.368 78.9775L121.845 105.478L113.775 113.647C106.985 120.521 105.372 121.687 103.602 121.001C102.446 120.553 90.475 115.833 77 110.513C63.525 105.193 51.092 100.783 49.372 100.714C47.651 100.645 45.176 101.302 43.872 102.174C42.567 103.045 37.337 110.992 32.25 119.834C22.476 136.819 21.381 140.444 24.772 144.592C25.723 145.754 36.459 154.646 48.631 164.35L70.762 181.995L68.381 190.185C67.071 194.69 65.993 199.073 65.985 199.927C65.947 203.718 64.2 204.219 35.894 208.547C20.306 210.93 6.548 213.417 5.321 214.074C0.848999 216.467 0 220.442 0 238.978C0 257.526 0.848 261.489 5.334 263.889C6.568 264.55 20.259 267.001 35.758 269.337C51.258 271.673 64.207 273.851 64.535 274.178C64.862 274.506 65.765 277.408 66.541 280.626C67.316 283.845 68.611 288.601 69.418 291.195L70.885 295.911L49.192 313.079C37.262 322.521 26.49 331.424 25.255 332.863C21.298 337.472 22.162 340.591 32.25 358.122C37.337 366.964 42.502 374.868 43.727 375.688C44.952 376.507 47.427 377.164 49.227 377.146C51.027 377.128 64.425 372.39 79 366.617L105.5 356.121L113.675 364.203L121.85 372.285L120.046 376.881C103.913 417.996 100.716 426.679 100.787 429.182C100.833 430.804 101.525 433.11 102.326 434.305C104.451 437.48 135.319 454.986 138.715 454.943C140.247 454.923 142.472 454.361 143.66 453.693C144.848 453.025 154.023 442.216 164.049 429.674C178.005 412.217 182.656 407.031 183.889 407.557C184.775 407.936 189.521 409.32 194.436 410.632C199.351 411.944 203.588 413.233 203.851 413.496C204.114 413.759 206.24 426.641 208.574 442.122C210.909 457.604 213.375 471.309 214.054 472.579C216.49 477.13 220.397 477.978 238.933 477.978C257.363 477.978 261.8 477.089 264.014 472.953C264.659 471.746 266.952 458.77 269.108 444.118C273.988 410.947 273.46 413.133 276.765 412.406C278.269 412.076 283.213 410.774 287.752 409.514L296.003 407.223L314.092 429.85C324.04 442.295 333.152 453.025 334.34 453.693C335.528 454.361 337.764 454.923 339.308 454.943C342.853 454.987 373.596 437.438 375.812 434.105C376.68 432.801 377.341 430.326 377.281 428.605C377.221 426.885 372.808 414.453 367.474 400.978C362.14 387.503 357.413 375.532 356.969 374.376C356.291 372.61 357.473 370.972 364.331 364.167L372.5 356.061L399 366.586C413.575 372.376 426.908 377.17 428.628 377.24C430.349 377.31 432.824 376.658 434.128 375.79C435.433 374.923 440.662 366.986 445.75 358.154C455.848 340.623 456.709 337.504 452.745 332.829C451.51 331.373 440.765 322.494 428.867 313.1L407.234 296.02L409.531 287.749C410.795 283.2 412.099 278.247 412.429 276.743C413.153 273.45 410.86 274.006 444.203 269.035C458.889 266.845 471.827 264.479 472.953 263.775C477.217 261.112 478 257.266 478 238.978C478 220.66 477.219 216.845 472.922 214.161C471.779 213.447 458.002 210.919 442.306 208.543C413.772 204.224 412.053 203.735 412.015 199.927C412.007 199.073 410.928 194.687 409.617 190.179L407.234 181.983L429.867 163.891C442.315 153.94 453.047 144.826 453.715 143.638C454.383 142.45 454.945 140.219 454.965 138.68C455.009 135.132 437.438 104.326 434.128 102.149C432.824 101.291 430.349 100.644 428.628 100.713C426.908 100.781 413.575 105.556 399 111.323L372.5 121.809L364.331 113.746C357.469 106.973 356.291 105.347 356.969 103.58C357.413 102.424 362.14 90.4525 367.474 76.9775C372.808 63.5025 377.221 51.0695 377.281 49.3495C377.341 47.6285 376.687 45.1535 375.829 43.8495C374.971 42.5445 367.031 37.3145 358.183 32.2275C340.633 22.1355 337.488 21.2655 332.908 25.2325C331.483 26.4675 322.597 37.2105 313.161 49.1055L296.007 70.7335L287.753 68.4415C283.214 67.1805 278.269 65.8785 276.765 65.5485C273.46 64.8215 273.988 67.0085 269.108 33.8375C266.952 19.1855 264.659 6.20951 264.014 5.00251C261.791 0.850513 257.378 -0.0244854 238.782 0.000514635C225.529 0.0175146 220.797 0.370514 218.483 1.51251ZM76.353 13.8615C67.72 19.2425 71.375 31.9775 81.552 31.9775C84.683 31.9775 86.359 31.3465 88.252 29.4535C96.581 21.1235 86.305 7.65851 76.353 13.8615ZM294.388 12.9195C293.227 13.4095 291.271 15.0855 290.043 16.6445C287.065 20.4225 287.738 26.4955 291.494 29.7255C297.674 35.0415 308 30.5655 308 22.5705C308 15.9465 300.245 10.4485 294.388 12.9195ZM432 13.5115C417.269 17.5865 406 32.0915 406 46.9775C406 62.2275 417.561 76.6535 432.901 80.5465C440.927 82.5825 447.654 81.8505 455.612 78.0735C469.401 71.5285 477.209 56.6185 474.821 41.3895C471.721 21.6225 451.134 8.21951 432 13.5115ZM247 21.7835C247 23.4275 255.03 75.4955 255.523 77.0485C256.697 80.7485 260.63 82.8805 270 84.8995C275.225 86.0255 284.084 88.3705 289.687 90.1095C298.577 92.8705 300.249 93.1165 302.83 92.0475C305.207 91.0635 326.085 66.2325 340.545 47.1945C341.4 46.0675 342.76 46.5025 348.045 49.5905C351.595 51.6645 354.601 53.4145 354.725 53.4785C354.849 53.5425 350.237 65.5605 344.475 80.1865C338.714 94.8125 334 107.949 334 109.378C334 113.096 364.817 143.978 368.527 143.978C369.917 143.978 383.062 139.273 397.739 133.523C412.416 127.774 424.467 123.161 424.52 123.273C424.573 123.386 426.313 126.383 428.387 129.933C431.506 135.27 431.916 136.569 430.757 137.433C429.986 138.008 419.856 146.074 408.245 155.357C394.415 166.416 386.716 173.249 385.92 175.171C384.863 177.722 385.117 179.434 387.868 188.291C389.607 193.894 391.952 202.753 393.078 207.978C395.095 217.339 397.243 221.305 400.908 222.434C402.459 222.911 454.687 230.978 456.226 230.978C456.652 230.978 457 234.578 457 238.978C457 243.378 456.637 246.978 456.194 246.978C454.55 246.978 402.482 255.008 400.929 255.501C397.06 256.729 395.123 260.611 392.479 272.438C391.009 279.016 388.724 287.396 387.403 291.059C384.675 298.62 384.546 299.887 386.145 303.396C386.774 304.778 397.34 313.884 409.625 323.632L431.96 341.357L428.333 347.917C426.338 351.526 424.643 354.569 424.565 354.682C424.487 354.795 412.516 350.193 397.962 344.456C383.408 338.718 370.262 334.013 368.75 334.001C364.855 333.969 334 364.657 334 368.562C334 369.985 338.55 382.696 344.11 396.812C349.671 410.929 354.396 422.928 354.611 423.478C354.827 424.028 351.954 426.136 348.228 428.163L341.454 431.846L323.647 409.536C313.853 397.265 304.73 386.72 303.373 386.102C299.844 384.494 298.035 384.677 290.869 387.372C287.366 388.69 279.1 390.977 272.5 392.454C261.014 395.023 257.877 396.471 255.935 400.1C255.252 401.376 247 453.271 247 456.29C247 456.668 243.4 456.978 239 456.978C234.6 456.978 231 456.565 231 456.059C231 452.894 222.79 401.454 222.07 400.109C220.149 396.519 217.06 394.999 207.481 392.926C201.991 391.738 193.609 389.464 188.852 387.872C179.184 384.636 178.132 384.505 174.627 386.102C173.27 386.72 164.147 397.265 154.353 409.536L136.546 431.846L129.772 428.163C126.046 426.136 123.178 424.028 123.398 423.478C135.062 394.386 144 370.547 144 368.531C144 364.726 113.251 333.978 109.446 333.978C108.007 333.978 95.281 338.527 81.165 344.087C67.049 349.648 55.05 354.374 54.5 354.589C53.95 354.805 51.829 351.909 49.787 348.155L46.075 341.329L68.393 323.618C80.668 313.878 91.226 304.778 91.855 303.396C93.475 299.842 93.349 298.815 90.106 289.126C88.514 284.369 86.24 275.987 85.052 270.497C82.972 260.882 81.462 257.831 77.821 255.882C76.41 255.127 25.36 246.978 22.042 246.978C21.406 246.978 21 243.859 21 238.978C21 234.245 21.413 230.978 22.013 230.978C25.083 230.978 76.641 222.706 77.955 222.002C81.323 220.199 83.003 217.09 84.474 209.931C85.317 205.832 87.636 196.97 89.629 190.239C92.77 179.626 93.093 177.616 92.055 175.112C91.278 173.234 83.032 165.976 68.478 154.361L46.097 136.497L49.695 129.988C51.675 126.407 53.368 123.375 53.459 123.249C53.55 123.123 65.647 127.736 80.341 133.499C95.035 139.263 108.184 143.978 109.56 143.978C111.458 143.978 115.916 140.123 128.031 128.009C141.082 114.957 143.995 111.531 143.974 109.259C143.96 107.729 139.251 94.5735 133.511 80.0245C127.77 65.4755 123.169 53.5245 123.286 53.4665C123.404 53.4085 126.411 51.6605 129.969 49.5815C136.234 45.9215 136.488 45.8615 137.969 47.6975C138.811 48.7405 146.849 58.8655 155.831 70.1975C166.75 83.9735 173.151 91.2115 175.145 92.0375C177.758 93.1195 179.388 92.8815 188.313 90.1095C193.916 88.3705 202.77 86.0265 207.988 84.9015C217.05 82.9485 220.168 81.3995 222.024 77.9325C222.728 76.6185 231 25.0605 231 21.9905C231 21.3905 234.267 20.9775 239 20.9775C243.4 20.9775 247 21.3405 247 21.7835ZM448.701 34.9375C457.378 40.2275 457.016 54.8155 448.094 59.4285C443.954 61.5695 437.177 61.3835 433.304 59.0215C428.666 56.1935 426.615 52.5015 426.615 46.9775C426.615 41.4535 428.666 37.7615 433.304 34.9335C437.492 32.3795 444.51 32.3815 448.701 34.9375ZM29.021 72.0725C25.152 73.6495 23.092 75.9685 22.431 79.4935C20.611 89.1925 32.694 95.3605 39.216 88.0615C42.961 83.8695 42.974 79.0645 39.25 75.0285C36.107 71.6235 32.605 70.6105 29.021 72.0725ZM392 72.7045C386.022 75.7325 384.841 83.5465 389.636 88.3415C396.927 95.6325 409.209 88.2025 405.99 78.4485C403.984 72.3675 397.732 69.8005 392 72.7045ZM223.5 113.586C169.807 121.475 128.803 158.614 115.971 210.978C112.984 223.167 112.271 245.285 114.439 258.475C124.561 320.032 177.121 364.97 239 364.97C293.104 364.97 341.258 330.291 358.404 278.978C375.589 227.551 358.156 171.044 315.119 138.677C300.032 127.33 286.833 121.013 268.5 116.365C260.35 114.298 255.54 113.766 242.5 113.487C233.7 113.299 225.15 113.343 223.5 113.586ZM265.206 136.346C283.558 141.063 298.595 149.603 312.841 163.4C341.947 191.589 352.272 233.998 339.405 272.518C333.844 289.168 326.199 301.134 312.596 314.478C297.67 329.119 281.05 338.148 260.546 342.753C250.827 344.937 227.001 344.88 217.214 342.65C195.785 337.768 180.155 329.114 164.509 313.469C149.082 298.041 141.447 284.683 135.877 263.372C133.89 255.77 133.563 252.154 133.623 238.478C133.684 224.617 134.036 221.192 136.256 212.859C147.289 171.447 181.377 140.67 223.585 134.015C233.879 132.391 254.263 133.533 265.206 136.346ZM232.4 153.378C229.101 156.677 229 157.015 229 164.764V172.751L224.75 173.39C219.893 174.119 206.704 179.628 202.292 182.77L199.324 184.884L194.912 180.351C192.485 177.857 189.208 175.139 187.629 174.309C179.469 170.024 170.04 179.435 174.322 187.59C175.157 189.178 177.853 192.438 180.315 194.833L184.79 199.188L181.327 205.001C177.57 211.307 173.055 223.119 173.021 226.728C173.001 228.874 172.627 228.978 164.9 228.978C157.022 228.978 156.707 229.071 153.4 232.378C148.787 236.991 148.787 240.965 153.4 245.578C156.707 248.885 157.022 248.978 164.9 248.978C172.198 248.978 173 249.167 173 250.882C173 254.325 177.781 267.002 181.319 272.941L184.79 278.768L180.315 283.122C177.853 285.517 175.157 288.778 174.322 290.366C170.04 298.521 179.469 307.932 187.629 303.647C189.208 302.817 192.474 300.11 194.886 297.632L199.272 293.125L203.361 295.706C209.317 299.466 216.696 302.547 223.25 304.012L229 305.296V313.237C229 320.935 229.104 321.282 232.4 324.578C234.85 327.028 236.694 327.978 239 327.978C241.306 327.978 243.15 327.028 245.6 324.578C248.896 321.282 249 320.935 249 313.237V305.296L254.75 304.012C261.304 302.547 268.683 299.466 274.639 295.706L278.728 293.125L283.114 297.632C285.526 300.11 288.792 302.817 290.371 303.647C298.531 307.932 307.96 298.521 303.678 290.366C302.843 288.778 300.132 285.504 297.654 283.092L293.147 278.706L295.728 274.617C299.488 268.661 302.569 261.282 304.034 254.728L305.318 248.978H313.259C320.957 248.978 321.304 248.874 324.6 245.578C329.213 240.965 329.213 236.991 324.6 232.378C321.293 229.071 320.978 228.978 313.1 228.978C305.802 228.978 305 228.789 305 227.074C305 223.631 300.219 210.954 296.681 205.015L293.21 199.188L297.685 194.833C300.147 192.438 302.839 189.186 303.669 187.607C307.954 179.447 298.543 170.018 290.388 174.3C288.8 175.135 285.515 177.857 283.088 180.351L278.676 184.884L275.708 182.77C271.296 179.628 258.107 174.119 253.25 173.39L249 172.751V164.764C249 157.015 248.899 156.677 245.6 153.378C243.15 150.928 241.306 149.978 239 149.978C236.694 149.978 234.85 150.928 232.4 153.378ZM249.913 193.519C273.393 199.054 289.207 222.648 285.18 246.135C281.679 266.548 266.57 281.657 246.157 285.158C215.555 290.405 187.647 262.453 192.812 231.728C195.918 213.252 209.281 198.424 227 193.792C235.146 191.663 241.707 191.585 249.913 193.519ZM27.5 386.905C21.445 387.883 14.549 391.628 10.451 396.164C-3.029 411.085 1.613 434.201 19.9 443.211C26.398 446.413 38.677 446.409 44.722 443.204C50.997 439.877 55.257 435.747 58.554 429.797C61.127 425.152 61.5 423.464 61.5 416.478C61.5 410.171 61.018 407.498 59.22 403.85C53.322 391.878 40.18 384.858 27.5 386.905ZM451.329 397.436C447.47 399.114 446 401.645 446 406.608C446 412.04 449.977 415.978 455.465 415.978C460.708 415.978 463.651 413.874 465.08 409.104C466.493 404.391 464.499 399.804 460.033 397.495C456.488 395.662 455.424 395.654 451.329 397.436ZM38.478 409.228C40.028 410.575 41.305 412.972 41.66 415.201C42.189 418.523 41.859 419.319 38.6 422.578C35.341 425.837 34.545 426.167 31.223 425.638C19.752 423.812 20.525 406.978 32.081 406.978C34.596 406.978 36.768 407.742 38.478 409.228ZM74.735 448.514C71.169 452.081 70.567 455.436 72.709 459.796C73.953 462.327 75.626 463.86 78.188 464.82C81.488 466.056 82.277 466.006 85.688 464.34C95.201 459.693 92.073 445.978 81.5 445.978C78.308 445.978 76.652 446.598 74.735 448.514ZM400.252 447.514C399.046 448.359 397.546 450.761 396.92 452.852C395.979 455.991 396.064 457.201 397.407 459.799C399.819 464.462 404.341 466.491 409.126 465.057C413.866 463.637 416 460.69 416 455.56C416 449.904 412.122 445.978 406.535 445.978C404.286 445.978 401.458 446.669 400.252 447.514Z" fill="url(#paint0_linear_839_231)"/>
<defs>
<linearGradient id="paint0_linear_839_231" x1="477.927" y1="51.1767" x2="103.329" y2="526.14" gradientUnits="userSpaceOnUse">
<stop stop-color="#BA6203"/>
<stop offset="1" stop-color="#EDCA92"/>
</linearGradient>
</defs>
</svg>
