<svg width="512" height="456" viewBox="0 0 512 456" fill="none" xmlns="http://www.w3.org/2000/svg">
<path fill-rule="evenodd" clip-rule="evenodd" d="M121 1.2925C92.151 6.4515 70.829 16.7035 49.781 35.5355C18.051 63.9255 0 106.64 0 153.337C0 209.259 24.768 256.26 85.644 315.86C105.917 335.709 124.591 352.299 187.5 406.347C243.367 454.345 244.609 455.231 256 455.231C267.391 455.231 268.633 454.345 324.5 406.347C386.805 352.817 405.987 335.79 425.873 316.358C487.022 256.607 512 209.329 512 153.337C512 106.64 493.949 63.9255 462.219 35.5355C433.925 10.2205 401.493 -1.3915 363.336 0.132497C342.508 0.964497 328.158 4.6815 309.919 13.9695C292.853 22.6605 273.114 39.0755 261.5 54.2365C258.75 57.8265 256.275 60.7635 256 60.7635C255.725 60.7635 253.25 57.8265 250.5 54.2365C247.75 50.6465 241.608 43.9415 236.85 39.3365C217.177 20.2915 197.332 9.1515 171.596 2.7045C161.111 0.0784976 132.286 -0.726503 121 1.2925Z" fill="#C21212"/>
</svg>
