<svg width="512" height="503" viewBox="0 0 512 503" fill="none" xmlns="http://www.w3.org/2000/svg">
<path fill-rule="evenodd" clip-rule="evenodd" d="M64.575 0.740684C35.222 6.54968 11.545 28.2067 2.343 57.6607L0 65.1607V210.161V355.161L2.343 362.661C10.725 389.49 29.834 408.764 57 417.786C63.876 420.07 64.929 420.12 116.605 420.636L169.21 421.161L193.984 452.661C221.525 487.679 226.503 493.256 233.728 497.188C251.745 506.995 274.673 503.258 288.173 488.315C290.278 485.986 303.134 469.833 316.743 452.42L341.485 420.759L394.243 420.439C446.389 420.123 447.081 420.092 454 417.79C480.992 408.81 500.329 389.417 508.471 363.161C511.171 354.455 512.251 339.468 510.55 334.314C505.772 319.836 486.009 315.949 476.235 327.564C473.236 331.128 472.098 334.781 470.654 345.48C468.296 362.958 455.654 376.439 438.614 379.647C435.399 380.252 411.79 380.661 380.075 380.661C326.944 380.661 326.922 380.662 322.462 382.911C318.674 384.821 313.506 390.895 288.247 423.123C271.883 444.002 257.794 461.477 256.937 461.956C256.08 462.436 254.799 462.606 254.09 462.334C253.381 462.062 240.295 445.937 225.009 426.5C209.724 407.064 195.819 389.66 194.109 387.826C187.602 380.845 191.015 381.216 128 380.638C76.818 380.168 70.541 379.936 66.5 378.361C55.233 373.968 45.596 364.197 41.799 353.317C40.1 348.449 40 340.427 40 209.661V71.1607L42.264 65.6607C45.6 57.5587 50.84 51.0437 57.467 46.7607C68.432 39.6727 53.765 40.1607 256 40.1607C429.609 40.1607 439.265 40.2527 444.156 41.9597C455.026 45.7527 464.766 55.3527 469.216 66.6607C470.849 70.8087 471.026 78.0367 471.493 159.161C471.951 238.571 472.162 247.454 473.655 250.161C482.096 265.463 505.711 263.353 510.529 246.866C511.281 244.294 511.519 215.798 511.306 153.661L510.999 64.1607L508.65 57.1607C499.58 30.1387 481.024 11.5817 454 2.51068L447 0.160684L258 0.0126847C153.206 -0.0693153 67.029 0.254684 64.575 0.740684ZM247 109.551C231.348 116.775 231.802 139.457 247.732 146.113C254.745 149.043 263.811 147.472 269.368 142.363C277.254 135.114 277.254 120.208 269.368 112.959C263.605 107.661 254.2 106.228 247 109.551ZM247 178.551C242.159 180.785 239.112 183.951 237.048 188.893C235.71 192.094 235.503 200.502 235.522 250.879C235.543 305.404 235.663 309.419 237.39 313.161C244.469 328.499 266.531 328.499 273.61 313.161C275.338 309.416 275.456 305.424 275.456 250.661C275.456 195.898 275.338 191.906 273.61 188.161C269.003 178.18 257.11 173.885 247 178.551Z" fill="url(#paint0_linear_844_7)"/>
<defs>
<linearGradient id="paint0_linear_844_7" x1="511.303" y1="53.8162" x2="119.015" y2="559.844" gradientUnits="userSpaceOnUse">
<stop stop-color="#BA6203"/>
<stop stop-color="#BA6203"/>
<stop stop-color="#BA6203"/>
<stop offset="0.0001" stop-color="#BA6203"/>
<stop offset="1" stop-color="#EDCA92"/>
</linearGradient>
</defs>
</svg>
