<svg width="512" height="512" viewBox="0 0 512 512" fill="none" xmlns="http://www.w3.org/2000/svg">
<path fill-rule="evenodd" clip-rule="evenodd" d="M42.848 2.372C32.945 5.304 25.085 10.021 17.553 17.553C9.908 25.198 5.283 32.988 2.324 43.202L0 51.227L0.015 204.363C0.031 373.895 -0.372 363.347 6.624 377.254C11.793 387.528 22.903 398.461 33.185 403.392C43.964 408.561 51.738 409.962 69.75 409.983L85 410V451.374C85 497.123 85.151 498.404 91.293 504.868C98.459 512.411 108.701 514.072 118.109 509.219C121.074 507.69 156.847 484.74 197.604 458.219L271.708 410L364.604 409.983C442.435 409.968 458.635 409.727 464.5 408.496C482.078 404.805 498.023 392.25 505.768 376C507.997 371.325 510.31 365.115 510.91 362.201C511.669 358.511 512 310.469 512 204.064V51.227L509.676 43.202C506.749 33.098 502.171 25.401 494.452 17.607C486.858 9.938 479.072 5.3 468.798 2.324L460.773 0L255.637 0.054L50.5 0.107L42.848 2.372ZM459.566 18.093C468.281 19.699 475.778 23.643 482.067 29.933C488.524 36.39 492.418 43.949 493.977 53.054C494.758 57.612 494.996 103.284 494.79 209L494.5 358.5L492.27 363.95C486.955 376.94 477.274 386.291 465.317 389.984C458.964 391.946 456.222 392 363.021 392H267.252L188 443.5C144.411 471.825 108.162 495 107.445 495C106.729 495 105.436 494.293 104.571 493.429C103.189 492.046 103 486.408 103 446.578C103 416.018 102.64 400.265 101.892 398.119C99.946 392.537 97.513 392 74.155 392C55.979 392 52.348 391.733 46.683 389.984C34.726 386.291 25.045 376.94 19.73 363.95L17.5 358.5L17.21 209C17.004 103.284 17.242 57.612 18.023 53.054C19.583 43.944 23.478 36.386 29.933 29.945C36.101 23.791 42.69 20.168 51 18.362C58.543 16.724 450.731 16.465 459.566 18.093ZM233.637 43.465C229.121 45.075 224.614 49.103 223.018 52.956C222.263 54.779 221.992 63.072 222.196 78.088C222.489 99.724 222.581 100.613 224.834 103.773C229.513 110.332 232.392 111 256 111C279.608 111 282.487 110.332 287.166 103.773C289.419 100.613 289.511 99.724 289.804 78.088C290.016 62.528 289.749 54.808 288.931 52.834C287.314 48.929 281.821 44.322 277.277 43.06C271.552 41.47 238.369 41.778 233.637 43.465ZM273 77V94H256H239V77V60H256H273V77ZM214.502 129.553C206.103 133.994 205 136.81 205 153.802C205 166.573 205.183 167.973 207.25 171.01C210.182 175.318 213.929 178.034 218.123 178.891L221.5 179.581L221.767 204.791C222.013 227.964 221.897 230 220.333 230C216.415 230 209.936 234.253 207.486 238.434C205.175 242.378 205 243.612 205 256C205 268.388 205.175 269.622 207.486 273.566C209.143 276.394 211.415 278.506 214.302 279.904C218.461 281.917 220.104 282 256 282C291.896 282 293.539 281.917 297.698 279.904C300.585 278.506 302.857 276.394 304.514 273.566C306.825 269.622 307 268.388 307 256C307 243.612 306.825 242.378 304.514 238.434C302.068 234.261 295.587 230 291.684 230C290.13 230 290 226.547 290 185.401C290 135.731 290.092 136.461 283.189 131.194L279.659 128.5L248.58 128.234C221.79 128.005 217.086 128.187 214.502 129.553ZM273 193.444V241.888L275.349 244.62C277.321 246.911 278.687 247.422 283.849 247.795L290 248.24V256.12V264H256H222V256.12V248.24L228.151 247.795C233.313 247.422 234.679 246.911 236.651 244.62L239 241.888V204.581V167.273L236.364 164.636C234.115 162.387 232.866 162 227.864 162H222V153.5V145H247.5H273V193.444ZM56.329 299.458C50.318 302.072 49.207 308.361 53.923 313.077L56.846 316H256H455.154L458.077 313.077C462.872 308.282 461.668 302.013 455.452 299.415C450.443 297.322 61.142 297.364 56.329 299.458ZM53.923 343.923C49.15 348.696 50.47 355.3 56.71 357.876C58.782 358.73 98.448 358.959 210.837 358.763L362.173 358.5L364.587 355.694C367.924 351.814 367.741 347.587 364.077 343.923L361.154 341H209H56.846L53.923 343.923Z" fill="url(#paint0_linear_835_141)"/>
<defs>
<linearGradient id="paint0_linear_835_141" x1="511.922" y1="54.8157" x2="110.69" y2="563.561" gradientUnits="userSpaceOnUse">
<stop stop-color="#BA6203"/>
<stop stop-color="#BA6203"/>
<stop stop-color="#BA6203"/>
<stop offset="0.0001" stop-color="#BA6203"/>
<stop offset="1" stop-color="#EDCA92"/>
</linearGradient>
</defs>
</svg>
