<svg width="382" height="512" viewBox="0 0 382 512" fill="none" xmlns="http://www.w3.org/2000/svg">
<path fill-rule="evenodd" clip-rule="evenodd" d="M98 15V30L71.25 30.012C42.387 30.025 38.603 30.513 28.293 35.558C21.292 38.983 11.456 48.211 7.105 55.436C5.238 58.537 2.876 64.085 1.855 67.766C0.0740033 74.189 0 83.21 0 293.228V512H191H382V293.228C382 83.21 381.926 74.189 380.145 67.766C375.465 50.891 361.073 36.525 344.144 31.83C338.504 30.266 333.646 30 310.772 30H284V15V0H191H98V15ZM254 45V60H191H128V45V30H191H254V45ZM98 75V90H191H284V75V60H307.841C335.241 60 339.039 60.68 345.186 66.682C352.51 73.833 352 57.786 352 281.182V482H191H30V281.182C30 57.748 29.488 73.835 36.827 66.669C42.907 60.732 46.203 60.143 73.75 60.067L98 60V75ZM98 149V164H191H284V149V134H191H98V149ZM189 238V253H251H313V238V223H251H189V238ZM121.252 243.24L105.025 259.467L98.741 253.238L92.456 247.01L81.731 257.769L71.005 268.527L88.007 285.507L105.009 302.487L132.012 275.484L159.015 248.481L148.247 237.747L137.48 227.012L121.252 243.24ZM189 298V313H251H313V298V283H251H189V298ZM69 388V433H114H159V388V343H114H69V388ZM189 358V373H251H313V358V343H251H189V358ZM129 388V403H114H99V388V373H114H129V388ZM189 418V433H251H313V418V403H251H189V418Z" fill="url(#paint0_linear_836_156)"/>
<defs>
<linearGradient id="paint0_linear_836_156" x1="381.942" y1="54.8195" x2="-30.0434" y2="444.536" gradientUnits="userSpaceOnUse">
<stop stop-color="#BA6203"/>
<stop stop-color="#BA6203"/>
<stop stop-color="#BA6203"/>
<stop offset="0.0001" stop-color="#BA6203"/>
<stop offset="1" stop-color="#EDCA92"/>
</linearGradient>
</defs>
</svg>
