<svg width="512" height="512" viewBox="0 0 512 512" fill="none" xmlns="http://www.w3.org/2000/svg">
<path fill-rule="evenodd" clip-rule="evenodd" d="M235.065 1.75C233.724 2.843 232.368 5.867 231.454 9.8C229.55 17.992 227.829 21.184 223.246 25.022C219.072 28.518 208.037 33.533 201.097 35.088C195.085 36.435 188.35 34.781 181.964 30.388C173.976 24.894 173.448 25.121 157.779 40.789C142.211 56.358 141.725 57.432 147.057 64.481C150.737 69.345 153.361 77.873 152.53 82.267C151.204 89.285 145.374 102.371 141.708 106.559C137.83 110.99 129.61 115 124.407 115C123.028 115 120.795 116.105 119.445 117.455C117.01 119.889 116.99 120.064 116.99 139C116.99 157.619 117.047 158.148 119.303 160.404C120.747 161.848 123.463 162.994 126.529 163.454C133.16 164.448 138.081 167.12 142.249 171.989C145.568 175.867 151.195 188.877 152.518 195.733C153.365 200.123 150.751 208.637 147.057 213.519C141.725 220.568 142.211 221.642 157.779 237.211C173.348 252.779 174.422 253.265 181.471 247.933C186.353 244.239 194.867 241.625 199.257 242.472C201.035 242.815 206.315 244.532 210.99 246.287C221.923 250.391 228.048 255.961 230.392 263.932C231.271 266.919 231.99 270.202 231.99 271.227C231.99 272.252 233.095 274.195 234.445 275.545C236.879 277.98 237.054 278 255.99 278C274.553 278 275.144 277.937 277.371 275.71C278.795 274.286 279.905 271.638 280.307 268.707C281.787 257.906 288.123 251.168 301.756 245.897C314.97 240.788 322.109 241.447 331.584 248.648C337.512 253.153 339.021 252.39 354.201 237.211C369.769 221.642 370.255 220.568 364.923 213.519C361.229 208.637 358.615 200.123 359.462 195.733C360.785 188.877 366.412 175.867 369.731 171.989C373.899 167.12 378.82 164.448 385.451 163.454C388.517 162.994 391.233 161.848 392.677 160.404C394.933 158.148 394.99 157.619 394.99 139C394.99 120.437 394.927 119.846 392.7 117.619C391.276 116.195 388.628 115.085 385.697 114.683C374.942 113.209 368.464 107.145 363.002 93.436C357.734 80.217 358.371 72.968 365.638 63.406C370.143 57.478 369.38 55.969 354.201 40.789C338.632 25.221 337.558 24.735 330.509 30.067C325.645 33.747 317.117 36.371 312.723 35.54C305.705 34.214 292.619 28.384 288.431 24.718C284 20.84 279.99 12.62 279.99 7.417C279.99 6.038 278.885 3.805 277.535 2.455C275.102 0.0209999 274.916 0 256.146 0C239.598 0 236.941 0.221 235.065 1.75ZM265 17.25C265.024 20.377 270.397 29.555 275.204 34.68C279.257 39.001 282.601 41.309 289.539 44.572C307.273 52.912 317.862 54.001 330.664 48.801L336.839 46.294L342.79 52.397L348.741 58.5L346.266 63.824C342.882 71.102 342.108 82.455 344.447 90.501C347.574 101.257 354.337 114.132 359.562 119.278C364.106 123.752 374.646 130 377.65 130C378.671 130 378.99 132.143 378.99 139C378.99 145.857 378.671 148 377.65 148C374.519 148 364.002 154.344 359.304 159.066C353.785 164.615 349.459 172.585 345.379 184.729C342.079 194.549 342.348 204.263 346.181 213.674L348.696 219.849L342.593 225.8L336.49 231.751L330.99 229.143C326.214 226.877 324.174 226.532 315.49 226.517C306.116 226.501 304.895 226.746 295.99 230.425C284.47 235.185 280.784 237.435 275.198 243.115C271.117 247.265 264.99 257.795 264.99 260.66C264.99 261.681 262.847 262 255.99 262C249.133 262 246.99 261.681 246.99 260.66C246.99 257.795 240.863 247.265 236.782 243.115C231.11 237.347 227.365 235.061 215.99 230.422C207.16 226.821 205.784 226.546 196.49 226.533C187.755 226.52 185.794 226.849 180.99 229.135L175.49 231.751L169.387 225.8L163.284 219.849L165.783 213.674C169.059 205.583 169.706 196.343 167.578 188.036C164.92 177.663 157.937 164.161 152.416 158.722C147.875 154.248 137.335 148 134.33 148C133.309 148 132.99 145.857 132.99 139C132.99 132.143 133.309 130 134.33 130C137.314 130 147.936 123.729 152.39 119.337C160.558 111.285 169.001 91.428 168.978 80.324C168.965 73.968 167.192 66.144 164.706 61.475L163.122 58.5L169.131 52.397L175.141 46.294L181.316 48.809C190.732 52.644 200.44 52.912 210.273 49.608C222.82 45.391 230.946 40.8 236.776 34.634C241.576 29.557 246.956 20.393 246.98 17.25C246.987 16.343 249.462 16 255.99 16C262.518 16 264.993 16.343 265 17.25ZM247.49 71.649C219.95 76.057 197.497 95.858 190.398 122C189.235 126.279 188.632 132.087 188.632 139C188.632 158.138 194.765 172.84 208.457 186.533C222.15 200.225 236.852 206.358 255.99 206.358C275.128 206.358 289.83 200.225 303.523 186.533C317.215 172.84 323.348 158.138 323.348 139C323.348 132.087 322.745 126.279 321.582 122C315.354 99.065 295.637 79.342 273.127 73.53C266.528 71.826 252.717 70.813 247.49 71.649ZM267.191 89.102C276.092 90.952 284.878 95.874 291.99 102.993C312.081 123.106 312.075 154.943 291.977 175C271.798 195.137 240.127 195.137 219.99 175C192.099 147.109 204.933 99.856 243.196 89.557C249.656 87.818 260.066 87.62 267.191 89.102ZM274.49 115.899C272.84 116.939 265.651 123.683 258.514 130.885L245.539 143.98L241.014 139.596C235.532 134.284 233.039 133.406 229.148 135.418C225.321 137.397 223.788 141.637 225.479 145.57C227.298 149.804 242.277 164 244.925 164C246.115 164 248.304 163.36 249.79 162.578C253.947 160.389 286.975 126.629 287.105 124.435C287.359 120.169 286.77 118.401 284.379 116.25C281.329 113.506 278.448 113.404 274.49 115.899ZM12.5774 126.032C6.98443 128.823 5.01843 130.837 2.35843 136.5L0.0104327 141.5L0.000432707 209.09C-0.00856729 272.63 0.106433 277.133 1.92243 284.234C4.41443 293.98 8.39243 301.787 18.1044 316C33.5474 338.599 52.5324 360.643 73.9764 380.874C91.5054 397.413 95.9344 405.465 97.5234 423.689L98.2224 431.704L93.3564 432.913C86.7634 434.55 81.4054 438.439 78.1774 443.93C75.5204 448.448 75.4864 448.743 75.1674 469.952C74.9484 484.445 75.2304 492.786 76.0354 495.661C77.5714 501.146 82.8404 507.265 88.3084 509.912C92.5404 511.96 93.7954 512 154.609 512H216.597L221.885 509.365C228.429 506.104 232.49 500.726 234.038 493.271C234.775 489.72 235.053 480.74 234.803 468.594C234.451 451.522 234.185 449.076 232.291 445.5C229.86 440.908 225.844 436.91 221.427 434.685L218.364 433.142L215.152 397.321C211.63 358.048 210.584 352.024 205.425 341.297C196.376 322.484 179.034 305.653 157.49 294.777C144.673 288.306 141.744 285.896 116.99 261.45C100.457 245.122 92.0084 237.501 88.4904 235.745C83.0774 233.042 74.9044 231 69.5024 231C66.2644 231 66.0894 230.81 65.5844 226.75C65.2934 224.412 64.5584 209.675 63.9514 194C62.7284 162.406 61.9554 155.927 58.4934 148.282C55.6914 142.094 48.6154 134.238 42.1424 130.129C32.6534 124.106 19.9624 122.347 12.5774 126.032ZM478.569 126.103C463.528 131.276 452.306 144.481 450.028 159.69C449.549 162.886 448.663 177.875 448.06 193C447.456 208.125 446.711 222.863 446.404 225.75L445.846 231H442.128C437.275 231 428.023 233.439 422.71 236.119C420.199 237.385 408.974 247.644 394.99 261.452C370.235 285.897 367.307 288.306 354.49 294.777C332.946 305.653 315.604 322.484 306.555 341.297C301.421 351.972 300.415 357.769 296.845 397.234L293.595 433.153L290.543 434.691C286.149 436.904 282.126 440.902 279.668 445.5C277.742 449.103 277.494 451.403 277.169 468.655C276.944 480.617 277.239 489.884 277.955 493.332C279.491 500.729 283.567 506.112 290.095 509.365L295.383 512H357.371C418.185 512 419.44 511.96 423.672 509.912C429.14 507.265 434.409 501.146 435.945 495.661C436.75 492.786 437.032 484.445 436.813 469.952C436.494 448.743 436.46 448.448 433.803 443.93C430.577 438.441 425.218 434.55 418.634 432.915L413.778 431.709L414.493 423.105C415.942 405.674 420.623 397.273 438.049 380.832C459.448 360.643 478.444 338.583 493.876 316C503.588 301.787 507.566 293.98 510.058 284.234C511.874 277.133 511.989 272.63 511.98 209.09L511.97 141.5L509.588 136.383C504.404 125.251 492.51 121.309 478.569 126.103ZM31.4554 142.698C35.8554 144.91 40.8644 149.915 43.1814 154.413C45.6434 159.193 46.3844 167.256 48.0114 207L49.2194 236.5L43.2774 242.536C38.6714 247.215 37.0594 249.67 36.1044 253.46C34.7594 258.801 35.3554 264.742 37.7134 269.5C39.5274 273.159 126.382 360.552 130.231 362.591C135.251 365.249 140.373 362.334 141.618 356.111C142.258 352.91 141.47 352.052 97.1304 307.64C56.7874 267.232 51.9904 262.094 51.9904 259.287C51.9904 253.471 61.3214 247.973 71.1064 248.022C79.5064 248.064 83.0764 250.712 107.99 275.379C120.915 288.176 132.84 299.557 134.49 300.67C136.14 301.784 141.99 305.07 147.49 307.972C158.802 313.942 160.978 315.348 169.731 322.346C181.767 331.967 192.453 348.403 194.863 361C195.442 364.025 197.054 379.775 198.446 396C199.837 412.225 201.176 426.962 201.42 428.75L201.864 432H157.927H113.99L113.973 424.75C113.941 411.375 109.683 397.682 102.156 386.741C100.528 384.376 89.3504 372.554 77.3154 360.47C55.0514 338.117 43.7624 324.659 29.3754 303.319C25.0344 296.878 20.7044 289.034 19.1644 284.819L16.4904 277.5L16.1934 212.072C15.8864 144.589 16.0324 141.72 19.8394 140.64C22.2824 139.947 28.0004 140.96 31.4554 142.698ZM493.582 142.501L496.083 145.002L495.786 211.251L495.49 277.5L492.816 284.819C486.276 302.722 455.938 341.268 427.741 367.5C421.829 373 414.902 380.2 412.347 383.5C403.071 395.482 398.043 409.946 398.007 424.75L397.99 432H354.053H310.116L310.56 428.75C310.804 426.962 312.143 412.225 313.534 396C314.926 379.775 316.538 364.025 317.117 361C319.527 348.403 330.213 331.967 342.249 322.346C350.867 315.456 353.061 314.042 364.49 308C369.99 305.093 375.84 301.799 377.49 300.68C379.14 299.561 391.065 288.176 403.99 275.379C428.904 250.712 432.474 248.064 440.874 248.022C450.659 247.973 459.99 253.471 459.99 259.287C459.99 262.094 455.193 267.232 414.85 307.64C370.51 352.052 369.722 352.91 370.362 356.111C371.607 362.334 376.729 365.249 381.749 362.591C385.598 360.552 472.453 273.159 474.267 269.5C476.625 264.742 477.221 258.801 475.876 253.46C474.92 249.666 473.312 247.219 468.695 242.536L462.746 236.5L463.96 206.5C465.543 167.409 466.309 159.256 468.867 154.24C471.565 148.954 478.306 143.279 483.959 141.536C490.21 139.609 490.743 139.662 493.582 142.501ZM215.99 451C217.853 452.863 217.99 454.333 217.99 472.427V491.855L215.355 493.927C212.758 495.97 211.89 496 155.105 495.985C110.683 495.974 96.9184 495.681 94.9904 494.707L92.4904 493.443L92.2194 473.073C91.9814 455.175 92.1514 452.48 93.6244 450.852C95.2204 449.089 98.1494 449 154.645 449C212.657 449 214.035 449.045 215.99 451ZM418.356 450.852C419.829 452.48 419.999 455.175 419.761 473.073L419.49 493.443L416.99 494.707C415.063 495.681 401.355 495.974 357.174 495.985C299.87 496 296.918 495.84 294.755 492.6C294.351 491.995 294.014 482.837 294.005 472.25C293.991 454.322 294.127 452.863 295.99 451C297.945 449.045 299.323 449 357.335 449C413.831 449 416.76 449.089 418.356 450.852Z" fill="url(#paint0_linear_839_256)"/>
<defs>
<linearGradient id="paint0_linear_839_256" x1="511.903" y1="54.8195" x2="110.632" y2="563.558" gradientUnits="userSpaceOnUse">
<stop stop-color="#BA6203"/>
<stop offset="1" stop-color="#EDCA92"/>
</linearGradient>
</defs>
</svg>
