<svg width="430" height="512" viewBox="0 0 430 512" fill="none" xmlns="http://www.w3.org/2000/svg">
<path d="M214.72 0C157.79 0.0677604 103.211 22.7147 62.9573 62.9724C22.7036 103.23 0.0621044 157.811 0 214.741C0 327.253 174.208 477.76 194.133 494.571L214.763 512L235.392 494.571C255.275 477.76 429.525 327.253 429.525 214.741C429.463 157.796 406.81 103.202 366.538 62.9423C326.266 22.6821 271.665 0.045174 214.72 0ZM214.72 427.584C149.333 368.021 63.9573 271.253 63.9573 214.741C63.9573 174.757 79.8412 136.41 108.115 108.136C136.388 79.8625 174.735 63.9787 214.72 63.9787C254.705 63.9787 293.052 79.8625 321.325 108.136C349.599 136.41 365.483 174.757 365.483 214.741C365.483 271.147 280.085 367.957 214.72 427.584Z" fill="url(#paint0_linear_839_189)"/>
<path d="M214.717 276.864C250.028 276.864 278.653 248.239 278.653 212.928C278.653 177.617 250.028 148.992 214.717 148.992C179.406 148.992 150.781 177.617 150.781 212.928C150.781 248.239 179.406 276.864 214.717 276.864Z" fill="url(#paint1_linear_839_189)"/>
<defs>
<linearGradient id="paint0_linear_839_189" x1="429.46" y1="54.8195" x2="17.6225" y2="492.864" gradientUnits="userSpaceOnUse">
<stop stop-color="#BA6203"/>
<stop stop-color="#BA6203"/>
<stop stop-color="#BA6203"/>
<stop offset="0.0001" stop-color="#BA6203"/>
<stop offset="1" stop-color="#EDCA92"/>
</linearGradient>
<linearGradient id="paint1_linear_839_189" x1="278.634" y1="162.683" x2="178.417" y2="289.744" gradientUnits="userSpaceOnUse">
<stop stop-color="#BA6203"/>
<stop stop-color="#BA6203"/>
<stop stop-color="#BA6203"/>
<stop offset="0.0001" stop-color="#BA6203"/>
<stop offset="1" stop-color="#EDCA92"/>
</linearGradient>
</defs>
</svg>
