<svg width="354" height="512" viewBox="0 0 354 512" fill="none" xmlns="http://www.w3.org/2000/svg">
<path fill-rule="evenodd" clip-rule="evenodd" d="M0.251999 218.75L0.503998 437.5L116.754 437.754L233.004 438.008V475.004C233.004 495.352 233.295 512 233.651 512C234.007 512 246.183 508.149 260.709 503.443L287.119 494.886L313.472 503.443C327.966 508.149 340.09 512 340.415 512C340.739 512 341.004 489.555 341.004 462.121V412.242L344.464 406.496C351.343 395.073 354.552 379.658 352.947 365.75C351.838 356.142 350.064 350.644 345.116 341.469L341.004 333.846V166.923V0H170.502H0L0.251999 218.75ZM310.004 170.318V310.636L303.254 308.876C294.739 306.655 279.48 306.479 271.464 308.51C268.186 309.34 261.679 311.879 257.004 314.15C250.113 317.499 246.89 319.911 239.978 326.89C226.622 340.378 220.726 354.478 220.698 373C220.683 383.331 222.514 392.06 226.546 400.871C227.898 403.825 229.004 406.412 229.004 406.621C229.004 406.829 184.454 407 130.004 407H31.004V218.5V30H170.504H310.004V170.318ZM105.004 80V95H170.504H236.004V80V65H170.504H105.004V80ZM71.004 141V156H170.504H270.004V141V126H170.504H71.004V141ZM71.004 202V217H170.504H270.004V202V187H170.504H71.004V202ZM71.004 262.5V278H170.504H270.004V262.5V247H170.504H71.004V262.5ZM94.598 321.057C78.2 323.803 64.626 337.89 62.345 354.529L61.762 358.779L66.633 359.356C69.312 359.673 76.118 360.221 81.757 360.574L92.011 361.216L92.638 358.078C93.37 354.42 97.245 351 100.657 351C101.968 351 107.553 353.265 113.069 356.033C118.585 358.801 125.889 361.78 129.299 362.654C144.152 366.459 159.498 360.639 168.776 347.681L172.049 343.111L167.776 340.659C165.427 339.311 159.454 335.913 154.504 333.107L145.504 328.007L143.671 330.503C140.993 334.15 136.044 333.799 128.004 329.392C114.409 321.941 104.335 319.427 94.598 321.057ZM301.47 340.356C309.09 343.844 315.427 350.081 319.254 357.86C322.192 363.831 322.504 365.33 322.504 373.482C322.504 381.422 322.155 383.211 319.585 388.446C315.867 396.018 309.455 402.429 302.2 405.83C297.28 408.136 295.21 408.5 287.004 408.5C278.798 408.5 276.728 408.136 271.808 405.83C264.541 402.424 257.58 395.463 254.174 388.196C251.9 383.346 251.504 381.164 251.504 373.5C251.504 365.694 251.886 363.673 254.384 358.266C258.836 348.626 268.476 340.614 278.738 338.025C284.808 336.494 295.409 337.581 301.47 340.356ZM275.004 438.522C285.011 440.744 296.983 439.998 308.144 436.456C309.908 435.896 310.004 436.752 310.004 453.04C310.004 466.361 309.724 470.11 308.754 469.749C308.067 469.493 302.854 467.845 297.171 466.087L286.838 462.89L276.169 466.445C270.301 468.4 265.164 470 264.752 470C264.341 470 264.004 462.298 264.004 452.883V435.767L266.254 436.422C267.492 436.783 271.429 437.728 275.004 438.522Z" fill="url(#paint0_linear_836_166)"/>
<defs>
<linearGradient id="paint0_linear_836_166" x1="353.3" y1="54.8195" x2="-55.6706" y2="412.673" gradientUnits="userSpaceOnUse">
<stop stop-color="#BA6203"/>
<stop stop-color="#BA6203"/>
<stop stop-color="#BA6203"/>
<stop offset="0.0001" stop-color="#BA6203"/>
<stop offset="1" stop-color="#EDCA92"/>
</linearGradient>
</defs>
</svg>
