<?xml version="1.0" encoding="utf-8"?>
<!-- Generator: Adobe Illustrator 23.1.0, SVG Export Plug-In . SVG Version: 6.00 Build 0)  -->
<svg version="1.1" id="Режим_изоляции"
	 xmlns="http://www.w3.org/2000/svg" xmlns:xlink="http://www.w3.org/1999/xlink" x="0px" y="0px" viewBox="0 0 318.6 247.2"
	 style="enable-background:new 0 0 318.6 247.2;" xml:space="preserve">
<style type="text/css">
	.st0{fill:#FF5F00;}
	.st1{fill:#EB001B;}
	.st2{fill:#F79E1B;}
</style>
<g>
	<g>
		<path d="M58,246.7v-16.4c0-6.3-3.8-10.4-10.4-10.4c-3.3,0-6.8,1.1-9.3,4.6c-1.9-3-4.6-4.6-8.8-4.6c-2.7,0-5.5,0.8-7.7,3.8v-3.3
			h-5.7v26.3h5.7v-14.5c0-4.6,2.5-6.8,6.3-6.8c3.8,0,5.7,2.5,5.7,6.8v14.5h5.7v-14.5c0-4.6,2.7-6.8,6.3-6.8c3.8,0,5.7,2.5,5.7,6.8
			v14.5H58L58,246.7z M143,220.4h-9.3v-7.9H128v7.9h-5.2v5.2h5.2v12c0,6,2.5,9.6,9,9.6c2.5,0,5.2-0.8,7.1-1.9l-1.6-4.9
			c-1.6,1.1-3.6,1.4-4.9,1.4c-2.7,0-3.8-1.6-3.8-4.4v-11.8h9.3V220.4L143,220.4z M191.7,219.9c-3.3,0-5.5,1.6-6.8,3.8v-3.3h-5.7
			v26.3h5.7v-14.8c0-4.4,1.9-6.8,5.5-6.8c1.1,0,2.5,0.3,3.6,0.5l1.6-5.5C194.4,219.9,192.8,219.9,191.7,219.9L191.7,219.9
			L191.7,219.9z M118.1,222.6c-2.7-1.9-6.6-2.7-10.7-2.7c-6.6,0-10.9,3.3-10.9,8.5c0,4.4,3.3,6.8,9,7.7l2.7,0.3
			c3,0.5,4.6,1.4,4.6,2.7c0,1.9-2.2,3.3-6,3.3c-3.8,0-6.8-1.4-8.8-2.7l-2.7,4.4c3,2.2,7.1,3.3,11.2,3.3c7.7,0,12-3.6,12-8.5
			c0-4.6-3.6-7.1-9-7.9l-2.7-0.3c-2.5-0.3-4.4-0.8-4.4-2.5c0-1.9,1.9-3,4.9-3c3.3,0,6.6,1.4,8.2,2.2L118.1,222.6L118.1,222.6z
			 M270.7,219.9c-3.3,0-5.5,1.6-6.8,3.8v-3.3h-5.7v26.3h5.7v-14.8c0-4.4,1.9-6.8,5.5-6.8c1.1,0,2.5,0.3,3.6,0.5l1.6-5.5
			C273.5,219.9,271.8,219.9,270.7,219.9L270.7,219.9L270.7,219.9z M197.4,233.5c0,7.9,5.5,13.7,13.9,13.7c3.8,0,6.6-0.8,9.3-3
			l-2.7-4.6c-2.2,1.6-4.4,2.5-6.8,2.5c-4.6,0-7.9-3.3-7.9-8.5c0-4.9,3.3-8.2,7.9-8.5c2.5,0,4.6,0.8,6.8,2.5l2.7-4.6
			c-2.7-2.2-5.5-3-9.3-3C202.9,219.9,197.4,225.6,197.4,233.5L197.4,233.5L197.4,233.5z M250.5,233.5v-13.1h-5.7v3.3
			c-1.9-2.5-4.6-3.8-8.2-3.8c-7.4,0-13.1,5.7-13.1,13.7c0,7.9,5.7,13.7,13.1,13.7c3.8,0,6.6-1.4,8.2-3.8v3.3h5.7V233.5z
			 M229.4,233.5c0-4.6,3-8.5,7.9-8.5c4.6,0,7.9,3.6,7.9,8.5c0,4.6-3.3,8.5-7.9,8.5C232.5,241.8,229.4,238.2,229.4,233.5L229.4,233.5
			z M160.8,219.9c-7.7,0-13.1,5.5-13.1,13.7s5.5,13.7,13.4,13.7c3.8,0,7.7-1.1,10.7-3.6l-2.7-4.1c-2.2,1.6-4.9,2.7-7.7,2.7
			c-3.6,0-7.1-1.6-7.9-6.3h19.4v-2.2C173.1,225.3,168.2,219.9,160.8,219.9L160.8,219.9L160.8,219.9z M160.8,224.8
			c3.6,0,6,2.2,6.6,6.3h-13.7C154.2,227.5,156.7,224.8,160.8,224.8L160.8,224.8z M303.3,233.5V210h-5.7v13.7
			c-1.9-2.5-4.6-3.8-8.2-3.8c-7.4,0-13.1,5.7-13.1,13.7c0,7.9,5.7,13.7,13.1,13.7c3.8,0,6.6-1.4,8.2-3.8v3.3h5.7V233.5z
			 M282.2,233.5c0-4.6,3-8.5,7.9-8.5c4.6,0,7.9,3.6,7.9,8.5c0,4.6-3.3,8.5-7.9,8.5C285.2,241.8,282.2,238.2,282.2,233.5L282.2,233.5
			z M90.2,233.5v-13.1h-5.7v3.3c-1.9-2.5-4.6-3.8-8.2-3.8c-7.4,0-13.1,5.7-13.1,13.7c0,7.9,5.7,13.7,13.1,13.7
			c3.8,0,6.6-1.4,8.2-3.8v3.3h5.7V233.5z M68.9,233.5c0-4.6,3-8.5,7.9-8.5c4.6,0,7.9,3.6,7.9,8.5c0,4.6-3.3,8.5-7.9,8.5
			C71.9,241.8,68.9,238.2,68.9,233.5z"/>
	</g>
	<g>
		<rect x="116.2" y="21.1" class="st0" width="86.1" height="154.8"/>
	</g>
	<g>
		<path class="st1" d="M121.7,98.5c0-31.4,14.8-59.3,37.5-77.4C142.5,7.9,121.4,0,98.5,0C44,0,0,44,0,98.5c0,54.4,44,98.5,98.5,98.5
			c23,0,44-7.9,60.7-21.1C136.5,158.1,121.7,129.9,121.7,98.5z"/>
	</g>
	<g>
		<path class="st2" d="M318.6,98.5c0,54.4-44,98.5-98.5,98.5c-23,0-44-7.9-60.7-21.1c23-18,37.5-45.9,37.5-77.4
			s-14.8-59.3-37.5-77.4C176.1,7.9,197.2,0,220.1,0C274.6,0,318.6,44.3,318.6,98.5z"/>
	</g>
</g>
</svg>
