<?xml version="1.0" encoding="utf-8"?>
<!-- Generator: Adobe Illustrator 23.1.0, SVG Export Plug-In . SVG Version: 6.00 Build 0)  -->
<svg version="1.1" id="Слой_1" xmlns="http://www.w3.org/2000/svg" xmlns:xlink="http://www.w3.org/1999/xlink" x="0px" y="0px"
	 viewBox="0 0 285.2 80.4" style="enable-background:new 0 0 285.2 80.4;" xml:space="preserve">
<style type="text/css">
	.st0{fill:#20AA4D;}
	.st1{fill:url(#SVGID_1_);}
</style>
<path class="st0" d="M158.8,8.5l-18,39h-1.8V0h-25.6v80.4h21.7c5.7,0,10.9-3.3,13.3-8.5l18-39h1.8v47.5h25.6V0h-21.7
	C166.3,0,161.2,3.3,158.8,8.5"/>
<path class="st0" d="M62.8,10.6l-10.7,37h-1.8l-10.7-37C37.8,4.3,32.1,0,25.6,0H0v80.4h25.6V32.9h1.8L42,80.4h18.3l14.6-47.5h1.8
	v47.5h25.6V0H76.8C70.3,0,64.6,4.3,62.8,10.6"/>
<path class="st0" d="M204.7,36.6v43.9h25.5V54.8h27.5c11.9,0,22.1-7.6,25.8-18.3H204.7z"/>
<linearGradient id="SVGID_1_" gradientUnits="userSpaceOnUse" x1="201.0802" y1="16.4541" x2="285.1706" y2="16.4541">
	<stop  offset="9.852219e-03" style="stop-color:#00A7E3"/>
	<stop  offset="0.3366" style="stop-color:#009EDC"/>
	<stop  offset="0.8748" style="stop-color:#0085C9"/>
	<stop  offset="1" style="stop-color:#007EC4"/>
</linearGradient>
<path class="st1" d="M257.8,0h-56.7c3.4,18.7,19.8,32.9,39.5,32.9h44c0.4-1.8,0.5-3.6,0.5-5.5C285.2,12.3,272.9,0,257.8,0"/>
</svg>
