<svg width="512" height="512" viewBox="0 0 512 512" fill="none" xmlns="http://www.w3.org/2000/svg">
<g clip-path="url(#clip0_822_51)">
<path d="M341.332 213.332C376.678 213.332 405.332 184.678 405.332 149.332C405.332 113.986 376.678 85.332 341.332 85.332C305.986 85.332 277.332 113.986 277.332 149.332C277.332 184.678 305.986 213.332 341.332 213.332Z" fill="url(#paint0_linear_822_51)"/>
<path d="M85.332 405.333C85.332 410.991 87.5796 416.417 91.5804 420.418C95.5812 424.418 101.007 426.666 106.665 426.666H426.665V396.501L237.247 207.082C225.245 195.084 208.969 188.344 191.999 188.344C175.028 188.344 158.752 195.084 146.751 207.082L85.332 268.501V405.333Z" fill="url(#paint1_linear_822_51)"/>
<path d="M447.999 511.999H341.332V469.332H447.999C453.657 469.332 459.083 467.084 463.084 463.084C467.084 459.083 469.332 453.657 469.332 447.999V341.332H511.999V447.999C511.999 464.973 505.256 481.251 493.254 493.254C481.251 505.256 464.973 511.999 447.999 511.999Z" fill="url(#paint2_linear_822_51)"/>
<path d="M42.6667 170.667H0V64C0 47.0261 6.74284 30.7475 18.7452 18.7452C30.7475 6.74284 47.0261 0 64 0L170.667 0V42.6667H64C58.342 42.6667 52.9158 44.9143 48.9151 48.9151C44.9143 52.9158 42.6667 58.342 42.6667 64V170.667Z" fill="url(#paint3_linear_822_51)"/>
<path d="M170.667 511.999H64C47.0261 511.999 30.7475 505.256 18.7452 493.254C6.74284 481.251 0 464.973 0 447.999L0 341.332H42.6667V447.999C42.6667 453.657 44.9143 459.083 48.9151 463.084C52.9158 467.084 58.342 469.332 64 469.332H170.667V511.999Z" fill="url(#paint4_linear_822_51)"/>
<path d="M511.999 170.667H469.332V64C469.332 58.342 467.084 52.9158 463.084 48.9151C459.083 44.9143 453.657 42.6667 447.999 42.6667H341.332V0H447.999C464.973 0 481.251 6.74284 493.254 18.7452C505.256 30.7475 511.999 47.0261 511.999 64V170.667Z" fill="url(#paint5_linear_822_51)"/>
</g>
<defs>
<linearGradient id="paint0_linear_822_51" x1="405.313" y1="99.0369" x2="304.996" y2="226.225" gradientUnits="userSpaceOnUse">
<stop stop-color="#BA6203"/>
<stop offset="1" stop-color="#EDCA92"/>
</linearGradient>
<linearGradient id="paint1_linear_822_51" x1="426.614" y1="213.861" x2="264.3" y2="508.604" gradientUnits="userSpaceOnUse">
<stop stop-color="#BA6203"/>
<stop offset="1" stop-color="#EDCA92"/>
</linearGradient>
<linearGradient id="paint2_linear_822_51" x1="511.973" y1="359.605" x2="378.217" y2="529.19" gradientUnits="userSpaceOnUse">
<stop stop-color="#BA6203"/>
<stop offset="1" stop-color="#EDCA92"/>
</linearGradient>
<linearGradient id="paint3_linear_822_51" x1="170.641" y1="18.2732" x2="36.885" y2="187.858" gradientUnits="userSpaceOnUse">
<stop stop-color="#BA6203"/>
<stop offset="1" stop-color="#EDCA92"/>
</linearGradient>
<linearGradient id="paint4_linear_822_51" x1="170.641" y1="359.605" x2="36.885" y2="529.19" gradientUnits="userSpaceOnUse">
<stop stop-color="#BA6203"/>
<stop offset="1" stop-color="#EDCA92"/>
</linearGradient>
<linearGradient id="paint5_linear_822_51" x1="511.973" y1="18.2732" x2="378.217" y2="187.858" gradientUnits="userSpaceOnUse">
<stop stop-color="#BA6203"/>
<stop offset="1" stop-color="#EDCA92"/>
</linearGradient>
<clipPath id="clip0_822_51">
<rect width="512" height="512" fill="white"/>
</clipPath>
</defs>
</svg>
