<svg width="504" height="499" viewBox="0 0 504 499" fill="none" xmlns="http://www.w3.org/2000/svg">
<path fill-rule="evenodd" clip-rule="evenodd" d="M145.878 1.77272C143.531 3.67172 143.494 3.98672 143 26.2807L142.5 48.8647L136.5 44.8467C100.811 20.9447 79.757 7.71172 76.601 7.19972C74.284 6.82372 71.344 7.23772 68.43 8.34972C64.092 10.0067 63.141 11.1947 48.089 33.7437C29.806 61.1337 29 62.5547 29 67.4257C29 75.6807 29.855 76.4437 66.299 100.736L100.266 123.377L62.044 123.877L23.822 124.377L21.911 126.738C20.049 129.038 20 132.92 20 278.882V428.665L11.902 429.033C0.481001 429.552 0 430.253 0 446.399C0 455.662 0.468 460.202 1.895 464.786C6.691 480.197 20.467 493.227 36.5 497.516C40.599 498.612 79.358 498.855 251.54 498.865C483.026 498.878 467.263 499.306 478.815 492.697C496.224 482.737 505.179 463.746 503.819 439.674C503.3 430.495 502.183 429.491 491.97 429.027L484 428.665V278.726V128.786L481.545 126.332L479.091 123.877H454.045H429V99.8267C429 80.8597 428.697 75.2067 427.565 73.0767C426.777 71.5917 410.349 54.6267 391.06 35.3767L355.99 0.376718L252.122 0.112718C150.917 -0.144282 148.194 -0.101282 145.878 1.77272ZM344 47.7657C344 77.6677 344.119 79.8027 345.911 82.0157L347.821 84.3767L379.911 84.6667L412 84.9567V217.917V350.877L323.75 350.87L235.5 350.863L233.807 343.844C228.907 323.521 212.848 303.285 193.734 293.347C189.755 291.278 186.319 289.433 186.099 289.246C185.878 289.06 187.82 286.639 190.414 283.866C199.565 274.083 203.989 260.056 202.001 247.135C199.085 228.184 184.133 212.447 165.485 208.702L160 207.601V184.768V161.935L192.75 183.56C210.762 195.454 229.093 207.479 233.484 210.281L241.468 215.377L275.879 215.665C310.204 215.952 310.296 215.947 312.645 213.741C313.948 212.517 315 210.366 315 208.927C315 207.496 308.813 192.386 301.25 175.351L287.5 144.377L255.754 123.377C238.294 111.827 209.381 92.7657 191.504 81.0197L159 59.6627V37.7697V15.8767H251.5H344V47.7657ZM85.987 31.1267C92.023 35.1137 96.785 38.8717 96.57 39.4777C96.1 40.7967 70.153 80.9757 68.917 82.2997C68.405 82.8467 63.384 80.1107 56.565 75.5697L45.074 67.9167L59.287 45.9267C67.104 33.8317 73.84 23.9227 74.256 23.9067C74.672 23.8897 79.951 27.1397 85.987 31.1267ZM401 68.1177C401 68.5347 392 68.8767 381 68.8767H361V48.1357V27.3957L381 47.3767C392 58.3667 401 67.6997 401 68.1177ZM157.5 78.1577C173.45 88.7387 204.162 109.062 225.75 123.32C247.338 137.579 264.999 149.5 264.998 149.811C264.994 150.948 249.843 159.992 248.45 159.689C247.66 159.518 214.013 137.557 173.68 110.888L100.346 62.3977L105.223 54.7167L110.1 47.0347L119.3 52.9777C124.36 56.2457 141.55 67.5767 157.5 78.1577ZM243 70.8767C240.126 73.7507 240.345 79.3127 243.455 82.4217L245.909 84.8767H276.899H307.888L310.644 82.5067C313.988 79.6297 314.418 74.1007 311.545 70.9267C309.748 68.9407 308.682 68.8767 277.345 68.8767C246.333 68.8767 244.918 68.9587 243 70.8767ZM187 139.317C215.875 158.439 239.604 174.18 239.731 174.296C240.039 174.576 237.019 193.192 236.597 193.613C236.226 193.985 85.274 94.3727 83.092 92.3167C81.892 91.1857 82.4 89.8947 86.525 83.5907L91.366 76.1927L112.933 90.3717C124.795 98.1697 158.125 120.195 187 139.317ZM467.753 283.627L467.5 428.377H252H36.5L36.247 284.127L35.993 139.877H80.93H125.867L134.921 145.627L143.975 151.377L143.988 180.426L144 209.475L140.25 210.787C126.858 215.473 114.356 229.693 111.061 243.989C107.748 258.359 112.411 274.975 122.549 284.925L126.902 289.197L121.784 291.568C113.797 295.269 105.027 302.006 96.766 310.788C83.681 324.697 75.905 343.682 75.637 362.377C75.519 370.61 75.761 371.834 78.475 376.741C85.08 388.683 102.175 397.143 127.5 401.005C140.769 403.028 174.868 402.741 187 400.504C199.189 398.257 213.04 393.651 219.86 389.578C227.023 385.3 233.797 377.665 235.25 372.232L236.407 367.907L330.176 367.642L423.945 367.377L426.222 365.099L428.5 362.822L428.763 250.849L429.026 138.877H448.516H468.007L467.753 283.627ZM326.975 142.749C323.768 145.955 323.455 147.314 324.994 151.36C326.785 156.071 330.849 156.877 352.819 156.877C373.377 156.877 378.246 156.154 380.021 152.838C381.734 149.637 381.17 144.341 378.897 142.282C376.977 140.543 374.757 140.351 353.372 140.075L329.949 139.774L326.975 142.749ZM285.704 181.127L293.839 199.377L283.17 199.696C277.301 199.872 267.973 199.722 262.44 199.363L252.38 198.71L254.176 187.584C255.165 181.464 256.092 176.114 256.237 175.695C256.587 174.68 275.212 162.947 276.535 162.908C277.104 162.891 281.23 171.09 285.704 181.127ZM342.455 214.332C340.907 215.879 340 217.929 340 219.877C340 221.825 340.907 223.875 342.455 225.422C344.854 227.822 345.264 227.877 360.766 227.877C375.342 227.877 376.8 227.712 378.811 225.838C382.065 222.807 381.835 216.679 378.365 213.95C375.958 212.056 374.396 211.877 360.32 211.877C345.291 211.877 344.848 211.938 342.455 214.332ZM168.739 226.434C179.131 231.613 185.176 241.361 185.176 252.938C185.176 264.806 178.89 274.807 168.172 279.989C161.781 283.079 150.468 283.167 143.851 280.178C125.263 271.783 120.621 247.333 134.799 232.507C140.51 226.536 147.013 223.898 156.054 223.887C162.164 223.879 164.588 224.366 168.739 226.434ZM256.114 285.627C254.955 286.589 253.727 288.821 253.386 290.587C252.867 293.273 253.262 294.293 255.806 296.837L258.846 299.877H317.288C374.898 299.877 375.768 299.847 378.365 297.804C381.727 295.16 382.058 288.935 379 285.877C377.045 283.922 375.667 283.877 317.611 283.877C262.519 283.877 258.069 284.004 256.114 285.627ZM171.391 301.849C194.316 307.712 212.165 325.561 218.028 348.486C220.607 358.571 220.615 366.204 218.05 369.807C215.211 373.794 205.377 378.643 194.57 381.384C157.856 390.698 105.089 384.221 93.282 368.952C92.612 368.086 92.049 364.517 92.032 361.021C91.901 334.85 112.931 309.044 140.216 301.896C149.872 299.366 161.612 299.348 171.391 301.849ZM487.782 452.627C486.917 464.631 480.03 474.625 469.086 479.757L463.5 482.377H252H40.5L34.914 479.757C23.97 474.625 17.083 464.631 16.218 452.627L15.731 445.877H252H488.269L487.782 452.627Z" fill="url(#paint0_linear_832_83)"/>
<defs>
<linearGradient id="paint0_linear_832_83" x1="503.877" y1="53.4141" x2="113.838" y2="552.968" gradientUnits="userSpaceOnUse">
<stop stop-color="#BA6203"/>
<stop offset="1" stop-color="#EDCA92"/>
</linearGradient>
</defs>
</svg>
