<svg width="494" height="484" viewBox="0 0 494 484" fill="none" xmlns="http://www.w3.org/2000/svg">
<path fill-rule="evenodd" clip-rule="evenodd" d="M29.3875 1.399C16.3695 5.516 5.7235 16.136 1.8655 28.854C-0.121498 35.405 -0.146498 37.582 0.118502 181.5L0.387502 327.5L3.6915 334.257C10.0715 347.303 21.8865 355.865 36.3875 357.953C40.5245 358.548 70.8125 358.968 110.435 358.98L177.482 359L177.139 365.75C176.253 383.176 171.695 406.309 166.262 420.968L163.656 428H147.453C128.069 428 123.328 429.1 116.39 435.207C101.013 448.742 104.647 472.925 123.367 481.642L128.387 483.98L246.977 483.99L365.569 484L371.633 480.97C381.413 476.082 386.834 467.189 386.855 456C386.871 447.556 383.831 440.881 377.385 435.207C370.444 429.097 365.71 428 346.279 428H330.033L327.035 420.226C321.465 405.782 317.001 384.411 315.551 365.25L315.078 359L382.733 358.967C419.943 358.949 453.422 358.543 457.13 358.065C471.516 356.21 483.631 347.449 490.1 334.222L493.388 327.5L493.654 176.83L493.92 26.159L491.75 20.361C488.827 12.549 481.356 5.067 473.569 2.154L467.812 0L250.6 0.0670004C78.3775 0.12 32.5595 0.396 29.3875 1.399ZM471.555 17.161C473.766 18.624 476.433 21.549 477.482 23.661C479.322 27.366 479.397 31.831 479.65 151.75L479.911 276H246.88H13.8485L14.1175 155.25L14.3875 34.5L16.7215 29.761C19.6885 23.737 26.8835 17.376 32.7965 15.55C36.7065 14.343 69.2835 14.16 252.46 14.316L467.534 14.5L471.555 17.161ZM144.982 38.75C141.781 41.384 117.91 105.087 117.908 111C117.906 117.321 122.586 125.219 128.592 129.028C135.38 133.333 139.254 134.304 147.524 133.773L154.887 133.3V190.015C154.887 245.878 154.918 246.77 156.96 249.365L159.033 252H246.887H334.743L336.815 249.365C338.857 246.77 338.888 245.878 338.888 190.015V133.3L346.398 133.782C354.858 134.325 360.014 132.865 366.677 128.038C371.523 124.528 375.892 116.224 375.877 110.554C375.862 105.05 351.782 41.21 348.793 38.75C346.799 37.109 340.438 37 246.887 37C153.337 37 146.976 37.109 144.982 38.75ZM170.549 54.25C170.245 55.487 167.682 66.625 164.856 79C162.029 91.375 159.59 101.627 159.436 101.782C159.282 101.937 153.778 101.937 147.204 101.782L135.253 101.5L144.531 77C149.634 63.525 153.827 52.388 153.848 52.25C153.87 52.112 157.761 52 162.495 52C170.92 52 171.092 52.048 170.549 54.25ZM204.434 56.25C203.662 61.945 199.887 98.732 199.887 100.557C199.887 101.737 197.613 102 187.387 102C179.413 102 174.887 101.624 174.887 100.962C174.887 99.891 184.552 56.873 185.494 53.75C185.948 52.243 187.342 52 195.516 52H205.01L204.434 56.25ZM239.887 77V102H226.868C213.892 102 213.85 101.992 214.324 99.75C214.586 98.513 215.807 87.263 217.035 74.75L219.27 52H229.578H239.887V77ZM276.741 74.75C277.969 87.263 279.189 98.513 279.451 99.75C279.925 101.992 279.883 102 266.907 102H253.887V77V52H264.197H274.506L276.741 74.75ZM308.797 55.75C310.371 61.735 318.888 99.948 318.888 101.024C318.888 101.607 313.854 102 306.388 102C296.162 102 293.888 101.737 293.888 100.557C293.888 98.732 290.113 61.945 289.341 56.25L288.765 52H298.288H307.811L308.797 55.75ZM343.288 61.25C345.243 66.338 349.506 77.588 352.76 86.25L358.676 102H346.282C339.465 102 333.888 101.74 333.888 101.421C333.888 100.959 325.521 63.409 323.377 54.25C322.862 52.053 323.048 52 331.291 52H339.733L343.288 61.25ZM152.91 117.474C151.115 119.636 145.253 120.426 140.833 119.102C133.918 117.03 135.287 116 144.951 116C152.926 116 153.972 116.194 152.91 117.474ZM194.404 116.972C192.393 120.227 180.45 120.589 177.865 117.474C176.803 116.194 177.849 116 185.824 116C191.516 116 194.777 116.369 194.404 116.972ZM235.404 116.972C234.353 118.673 227.206 120.282 223.658 119.617C221.776 119.264 219.369 118.32 218.311 117.519C216.584 116.213 217.393 116.06 226.197 116.032C232.304 116.012 235.778 116.367 235.404 116.972ZM276.405 116.972C275.354 118.673 268.206 120.282 264.658 119.617C262.776 119.264 260.37 118.32 259.312 117.519C257.585 116.213 258.393 116.06 267.197 116.032C273.304 116.012 276.779 116.367 276.405 116.972ZM315.388 117.575C311.342 120.633 304.393 120.607 300.312 117.519C298.584 116.212 299.358 116.064 307.888 116.064C316.58 116.064 317.218 116.192 315.388 117.575ZM357.405 116.972C355.394 120.227 343.451 120.589 340.866 117.474C339.804 116.194 340.85 116 348.825 116C354.517 116 357.778 116.369 357.405 116.972ZM213.887 131.552C215.965 132.612 220.493 133.522 225.031 133.791C231.758 134.19 233.316 133.933 238.031 131.648C240.977 130.22 244.174 128.479 245.137 127.781C246.552 126.753 247.222 126.753 248.637 127.781C249.599 128.479 252.798 130.22 255.744 131.648C260.461 133.934 262.015 134.19 268.745 133.788C276.445 133.328 283.039 130.932 285.816 127.585C286.981 126.182 287.397 126.226 289.928 128.028C298.591 134.197 309.364 135.711 318.877 132.096L323.888 130.192V184.096V238H280.888H237.887V191.039V144.078L235.699 142.039C233.612 140.094 232.296 140 207.154 140H180.796L178.342 142.455L175.887 144.909V191.455V238H172.887H169.887V184.096V130.192L174.898 132.096C184.46 135.729 196.207 133.971 204.387 127.681C206.203 126.285 206.571 126.31 208.387 127.955C209.487 128.951 211.962 130.57 213.887 131.552ZM248.523 142.073L245.887 144.145V186.073C245.887 226.667 245.951 228.064 247.887 230C249.803 231.916 251.221 232 281.815 232H313.743L315.815 229.365C317.835 226.797 317.888 225.694 317.888 185.82V144.909L315.433 142.455L312.979 140H282.068C252.311 140 251.059 140.077 248.523 142.073ZM223.887 196.5V238H207.387H190.887V196.5V155H207.387H223.887V196.5ZM302.888 186.5V218H281.388H259.888V186.5V155H281.388H302.888V186.5ZM479.888 304.818C479.888 315.059 479.426 321.193 478.393 324.672C476.607 330.685 470.361 338.165 464.516 341.292L460.388 343.5H246.887H33.3875L29.3425 341.334C27.1175 340.143 23.4355 337.148 21.1595 334.679C15.1865 328.2 13.8875 322.865 13.8875 304.818V290H246.887H479.888V304.818ZM223.061 312.314C220.344 315.207 220.269 319.382 222.887 322C224.766 323.879 226.22 324 246.887 324C267.554 324 269.009 323.879 270.888 322C273.586 319.302 273.444 314.871 270.574 312.174C268.345 310.081 267.457 310 246.747 310C225.554 310 225.203 310.034 223.061 312.314ZM301.72 371.75C303.188 387.354 306.805 405.497 310.839 417.5C312.503 422.45 313.869 426.837 313.876 427.25C313.883 427.663 283.601 428 246.585 428H179.283L182.122 419.288C186.121 407.019 189.611 388.839 191.055 372.75L192.288 359H246.404H300.52L301.72 371.75ZM366.751 444.899C372.884 449.273 374.566 457.192 370.618 463.102C365.677 470.498 374.712 469.997 246.387 469.995C133.398 469.993 131.33 469.958 128.128 468.005C124.169 465.592 120.897 460.487 120.892 456.718C120.883 450.246 125.897 443.872 131.9 442.727C133.268 442.465 185.912 442.308 248.887 442.376L363.388 442.5L366.751 444.899Z" fill="url(#paint0_linear_832_88)"/>
<defs>
<linearGradient id="paint0_linear_832_88" x1="493.844" y1="51.8215" x2="116.384" y2="540.2" gradientUnits="userSpaceOnUse">
<stop stop-color="#BA6203"/>
<stop offset="1" stop-color="#EDCA92"/>
</linearGradient>
</defs>
</svg>
