<svg width="513" height="513" viewBox="0 0 513 513" fill="none" xmlns="http://www.w3.org/2000/svg">
<path d="M512.004 213.333H448.004C447.959 173.742 432.211 135.784 404.216 107.789C376.22 79.793 338.263 64.0452 298.671 64V0C355.232 0.0621141 409.458 22.5582 449.452 62.5525C489.446 102.547 511.942 156.773 512.004 213.333ZM298.671 106.667V170.667C309.987 170.667 320.839 175.162 328.841 183.163C336.842 191.165 341.338 202.017 341.338 213.333H405.338C405.304 185.054 394.055 157.943 374.058 137.946C354.062 117.949 326.95 106.701 298.671 106.667ZM432.324 474.347L510.084 396.587L368.41 254.891L305.071 318.357C255.947 295.543 216.536 256.003 193.882 206.805L257.114 143.595L115.418 1.92L37.679 79.6587C25.6045 91.7742 16.0566 106.167 9.58917 122.002C3.1218 137.838 -0.136166 154.8 0.00435969 171.904C0.00435969 324.459 187.546 512 340.1 512C357.2 512.141 374.157 508.885 389.988 502.421C405.819 495.957 420.21 486.415 432.324 474.347ZM166.596 143.595L118.212 192L126.084 211.605C141.023 251.541 164.376 287.797 194.559 317.914C224.742 348.031 261.049 371.304 301.018 386.155L320.388 393.536L368.495 345.408L419.695 396.608L387.183 429.141C380.998 435.237 373.665 440.045 365.609 443.286C357.552 446.527 348.933 448.136 340.25 448.021C233.583 448 64.0044 297.259 64.0044 171.904C63.8969 163.22 65.5121 154.601 68.7564 146.545C72.0007 138.489 76.8098 131.156 82.9057 124.971L115.418 92.416L166.596 143.595Z" fill="url(#paint0_linear_839_187)"/>
<defs>
<linearGradient id="paint0_linear_839_187" x1="511.927" y1="54.82" x2="110.656" y2="563.578" gradientUnits="userSpaceOnUse">
<stop stop-color="#BA6203"/>
<stop stop-color="#BA6203"/>
<stop stop-color="#BA6203"/>
<stop offset="0.0001" stop-color="#BA6203"/>
<stop offset="1" stop-color="#EDCA92"/>
</linearGradient>
</defs>
</svg>
