<svg width="513" height="512" viewBox="0 0 513 512" fill="none" xmlns="http://www.w3.org/2000/svg">
<path fill-rule="evenodd" clip-rule="evenodd" d="M202.733 10.768L191.998 21.535L202.266 31.768C207.914 37.396 212.985 42.001 213.535 42.001C214.085 42.001 219.14 37.381 224.768 31.734L235 21.467L224.233 10.734L213.467 0L202.733 10.768ZM245.233 53.268L191.986 106.522L202.26 116.762C207.911 122.393 212.978 127.001 213.521 127.001C214.063 127.001 238.246 103.259 267.26 74.241L320.014 21.48L309.247 10.747L298.48 0.014L245.233 53.268ZM287 95.501L276.536 106.001L287 116.501C292.755 122.276 297.931 127.001 298.501 127.001C299.829 127.001 319 107.796 319 106.465C319 105.477 298.933 85.001 297.965 85.001C297.69 85.001 292.755 89.726 287 95.501ZM105 154.384V186.766L98.262 191.134C76.624 205.16 57.176 226.903 45.384 250.251L41.975 257.001H20.987H0V317.001V377.001H20.987H41.975L45.384 383.751C60.315 413.316 85.772 438.272 115.5 452.489C124.413 456.752 140.015 462.174 147.25 463.524L151 464.224V488.112V512.001H196H241V489.501V467.001H256H271V489.501V512.001H316H361V488.184V464.367L368.75 462.576C385.829 458.629 406.283 448.892 422 437.224C433.459 428.718 447.857 413.54 455.954 401.431C467.004 384.906 472.427 372.976 477.399 354.252C484.672 326.864 483.205 293.981 473.507 267.001C472.025 262.876 470.597 258.794 470.336 257.93C469.989 256.784 471.027 256.015 474.18 255.084C491.299 250.028 505.939 234.849 510.469 217.459C517.667 189.825 500.344 160.795 472.297 153.49C468.867 152.597 462.062 152.001 455.29 152.001H444V166.89V181.78L454.75 182.19C463.184 182.511 466.362 183.053 469.5 184.703C477.4 188.857 481.416 195.53 481.416 204.501C481.416 217.32 473.18 225.528 459.161 226.679L452.5 227.227L445.362 218.817C422.298 191.644 387.901 173.011 351.678 168.068C346.755 167.397 317.955 167.001 273.986 167.001H204.117L200.963 161.082C191.303 142.959 173.416 129.246 152.59 123.995C146.008 122.336 141.35 122.001 124.84 122.001H105V154.384ZM148.874 154.556C154.107 156.11 164.244 162.337 167.68 166.109C172.157 171.023 176.914 180.388 179.06 188.511L181.275 196.896L264.388 197.284C337.129 197.624 348.432 197.879 354.971 199.329C404.799 210.377 441.439 247.999 450.096 297.001C452.088 308.276 451.683 329.56 449.258 341.001C443.701 367.226 430.136 390.349 410.231 407.525C391.015 424.105 368.968 433.412 342.325 436.189L331 437.37V459.685V482.001H316H301V459.501V437.001H256H211V459.501V482.001H196H181V459.63V437.259L172.75 436.551C155.022 435.028 141.396 431.326 127.012 424.127C98.92 410.067 77.93 386.589 67.34 357.383L63.575 347.001H46.788H30V317.001V287.001H46.802H63.605L65.44 281.751C71.163 265.381 76.473 255.509 86.588 242.429C96.763 229.273 113.577 215.788 128.81 208.567L135 205.633V178.704V151.774L139.55 152.456C142.053 152.832 146.249 153.777 148.874 154.556ZM211 242.001V257.001H256H301V242.001V227.001H256H211V242.001ZM113 272.001V287.001H128.5H144V272.001V257.001H128.5H113V272.001Z" fill="url(#paint0_linear_841_296)"/>
<defs>
<linearGradient id="paint0_linear_841_296" x1="512.022" y1="54.8196" x2="110.773" y2="563.649" gradientUnits="userSpaceOnUse">
<stop stop-color="#BA6203"/>
<stop stop-color="#BA6203"/>
<stop stop-color="#BA6203"/>
<stop offset="0.0001" stop-color="#BA6203"/>
<stop offset="1" stop-color="#EDCA92"/>
</linearGradient>
</defs>
</svg>
