<svg width="400" height="470" viewBox="0 0 400 470" fill="none" xmlns="http://www.w3.org/2000/svg">
<path fill-rule="evenodd" clip-rule="evenodd" d="M182.957 0.283367C165.377 1.94737 140.153 8.04537 125.053 14.2824C58.0443 41.9584 11.3734 101.963 1.40336 173.257C-1.09964 191.155 -0.146639 222.688 3.40436 239.502C14.7114 293.035 45.9524 338.911 91.1944 368.42C108.317 379.588 131.934 389.831 151.523 394.584L160.59 396.784L175.936 431.331C189.18 461.147 191.705 466.136 194.369 467.761C198.283 470.147 201.631 470.147 205.545 467.761C208.209 466.136 210.73 461.154 223.943 431.411L239.253 396.944L249.534 394.34C303.606 380.648 350.026 344.03 377.176 293.651C387.417 274.648 395.308 250.003 398.503 227.045C400.611 211.893 400.075 179.919 397.474 165.651C384.872 96.5254 337.822 39.2464 272.294 13.2544C261.53 8.98537 244.312 4.35537 230.957 2.14037C221.644 0.595368 191.842 -0.557633 182.957 0.283367ZM214.497 144.169C229.178 147.908 243.855 159.316 250.737 172.337C254.842 180.105 257.957 192.104 257.957 200.151C257.957 208.198 254.842 220.197 250.737 227.965C245.95 237.022 235.218 247.349 225.957 251.809C216.19 256.513 210.439 257.81 199.445 257.787C169.176 257.725 144.399 234.462 142.256 204.092C140.33 176.812 158.513 151.37 185.029 144.242C192.217 142.309 207.051 142.273 214.497 144.169Z" fill="#C21212"/>
</svg>
