<svg width="480" height="448" viewBox="0 0 480 448" fill="none" xmlns="http://www.w3.org/2000/svg">
<path fill-rule="evenodd" clip-rule="evenodd" d="M290.626 2.283C288.95 3.959 287.321 8.682 284.504 20.033C282.393 28.54 278.716 41.331 276.333 48.458C271.434 63.108 271.083 67.474 274.143 75.653C276.204 81.16 284.417 91 286.952 91C287.669 91 288 107.682 288 143.852V196.704L290.274 200.078C291.524 201.934 294.066 204.476 295.922 205.726L299.296 208H376H452.704L456.078 205.726C457.934 204.476 460.476 201.934 461.726 200.078L464 196.704L464.012 144.102L464.025 91.5L467.513 89.24C474.401 84.778 480 73.922 480 65.027C480 63.041 478.05 55.585 475.667 48.458C473.284 41.331 469.607 28.54 467.496 20.033C464.679 8.682 463.05 3.959 461.374 2.283L459.091 0H376H292.909L290.626 2.283ZM451.33 23.25C452.263 27.237 453.02 30.838 453.013 31.25C453.006 31.662 418.35 32 376 32C333.65 32 298.994 31.662 298.987 31.25C298.98 30.838 299.737 27.237 300.67 23.25L302.366 16H376H449.634L451.33 23.25ZM80.128 47.303C77.858 50.788 76.007 54.058 76.016 54.57C76.029 55.351 82.911 60.169 97.006 69.267L99.743 71.034L103.872 64.697C106.142 61.212 107.993 57.942 107.984 57.43C107.971 56.649 101.089 51.831 86.994 42.733L84.257 40.966L80.128 47.303ZM223.772 48.755C217.321 53.015 212.034 56.919 212.022 57.43C212.01 57.942 213.858 61.212 216.128 64.697L220.257 71.034L223.014 69.267C235.357 61.357 243.919 55.349 243.956 54.57C243.991 53.824 236.114 40.986 235.633 41.005C235.56 41.008 230.222 44.496 223.772 48.755ZM319.84 58.458C319.521 67.074 319.088 69.409 317.384 71.708C310.757 80.654 299.51 81.554 292.198 73.726C288.196 69.44 288.028 66.413 291.256 56.75L294.179 48H307.203H320.227L319.84 58.458ZM368 57.288C368 69.206 365.738 74.372 359.038 77.75C353.427 80.58 350.573 80.58 344.962 77.75C338.262 74.372 336 69.206 336 57.288V48H352H368V57.288ZM416 57.288C416 69.206 413.738 74.372 407.038 77.75C401.427 80.58 398.573 80.58 392.962 77.75C386.262 74.372 384 69.206 384 57.288V48H400H416V57.288ZM460.786 56.841C463.526 65.009 463.65 65.98 462.415 69.591C460.829 74.227 456.967 77.623 451.616 79.087C444.63 80.998 437.398 77.519 434.071 70.647C432.437 67.272 432 64.43 432 57.184V48H444.911H457.821L460.786 56.841ZM153.5 55.412C149.28 57.287 146.214 60.925 144.061 66.611L142.209 71.5L135.7 72.072C128.408 72.713 124.826 74.598 121.955 79.304C117.254 87.012 118.63 94.043 126.235 101.16C131.207 105.812 131.213 105.825 129.993 109.522C128.356 114.482 129.157 122.994 131.567 126.252C137.133 133.776 147.311 134.989 155.504 129.104L159.935 125.922L165.08 129.461C171.549 133.911 177.208 134.24 183.532 130.534C190.661 126.356 192.257 120.069 189.503 107C189.067 104.93 189.677 104.021 193.053 101.713C197.321 98.796 200.939 92.519 200.978 87.962C201.009 84.394 197.013 76.991 193.788 74.642C192.038 73.367 188.719 72.459 184.433 72.083L177.791 71.5L175.939 66.611C174.921 63.922 173.056 60.602 171.794 59.232C167.253 54.303 159.594 52.703 153.5 55.412ZM162.025 77.591C162.74 80.144 164.417 83.531 165.751 85.116C168.052 87.85 168.592 88 176.147 88H184.115L177.808 92.755C170.573 98.209 169.822 100.495 172.387 109.246C173.223 112.096 173.723 114.61 173.5 114.833C173.277 115.057 170.875 113.61 168.163 111.62C161.824 106.966 158.283 106.896 152.119 111.302C149.579 113.118 146.963 114.928 146.308 115.325C145.569 115.772 145.881 113.779 147.126 110.092C150.295 100.71 149.625 98.359 142.192 92.755L135.885 88H143.853C151.445 88 151.939 87.861 154.297 85.058C155.659 83.441 157.318 79.842 157.985 77.061C158.653 74.28 159.542 72.217 159.962 72.477C160.382 72.736 161.311 75.037 162.025 77.591ZM331.89 89.032C343.342 98.235 360.683 98.215 372.168 88.985L376 85.906L379.832 88.985C391.343 98.236 408.657 98.236 420.168 88.985L424 85.906L427.832 88.985C432.28 92.56 440.705 96 445.011 96H448V144V192H428H408V162.455V132.909L405.545 130.455L403.091 128H376H348.909L346.455 130.455L344 132.909V162.455V192H324H304V144V96H306.962C311.332 96 320.045 92.452 324.021 89.054C325.935 87.419 327.639 86.063 327.809 86.041C327.978 86.018 329.815 87.364 331.89 89.032ZM72 96V104H88H104V96V88H88H72V96ZM216 96V104H232H248V96V88H232H216V96ZM87.772 128.755C81.321 133.015 76.034 136.919 76.022 137.43C76.01 137.942 77.861 141.216 80.135 144.707L84.27 151.053L86.885 149.353C88.323 148.417 93.858 144.756 99.185 141.217L108.87 134.781L104.289 127.891C101.768 124.101 99.66 121.002 99.603 121.005C99.546 121.008 94.222 124.496 87.772 128.755ZM216.25 127.551C213.912 131.087 212.007 134.322 212.016 134.74C212.029 135.376 219.53 140.568 232.985 149.254L235.702 151.007L240.286 144.113L244.87 137.219L235.185 130.783C229.858 127.244 224.375 123.622 223 122.735C220.507 121.127 220.487 121.141 216.25 127.551ZM392 168V192H376H360V168V144H376H392V168ZM138.455 178.455L136 180.909V212.332V243.755L122.518 253.877L109.035 264H102.518C97.306 264 96 263.69 96 262.455C96 261.605 94.895 259.805 93.545 258.455L91.091 256H48H4.909L2.455 258.455L0 260.909V352V443.091L2.455 445.545L4.909 448H48H91.091L93.545 445.545C95.561 443.53 96 442.1 96 437.545C96 432.046 96.025 432 99.012 432C100.778 432 108.628 435.307 118 440L133.976 448H209.951C285.285 448 285.973 447.982 291.681 445.846C311.475 438.441 318.376 412.495 304.985 395.832L301.906 392L304.985 388.168C306.679 386.061 308.95 382.006 310.032 379.158C313.886 369.016 311.848 356.372 304.985 347.832L301.906 344L304.985 340.168C314.236 328.657 314.236 311.343 304.985 299.832L301.906 296L304.985 292.168C318.376 275.505 311.475 249.559 291.681 242.154C286.116 240.071 284.499 240 242.962 240H200V221.038C200 198.057 198.851 193.72 190.565 185.435C182.508 177.378 177.667 176 157.417 176C141.223 176 140.862 176.047 138.455 178.455ZM175.04 194.303C178.016 195.877 180.123 197.984 181.697 200.96C183.907 205.139 184 206.239 184 228.203V251.091L186.455 253.545L188.909 256H235.743C282.322 256 282.6 256.012 287.038 258.25C291.841 260.672 296 267.053 296 272C296 276.947 291.841 283.328 287.038 285.75C282.8 287.887 281.433 288 259.743 288H236.909L234.455 290.455C231.207 293.702 231.207 298.298 234.455 301.545L236.909 304H259.743C281.433 304 282.8 304.113 287.038 306.25C291.841 308.672 296 315.053 296 320C296 324.947 291.841 331.328 287.038 333.75C282.8 335.887 281.433 336 259.743 336H236.909L234.455 338.455C231.207 341.702 231.207 346.298 234.455 349.545L236.909 352H259.743C281.433 352 282.8 352.113 287.038 354.25C291.841 356.672 296 363.053 296 368C296 372.947 291.841 379.328 287.038 381.75C282.8 383.887 281.433 384 259.743 384H236.909L234.455 386.455C232.907 388.002 232 390.052 232 392C232 393.948 232.907 395.998 234.455 397.545L236.909 400H259.743C281.433 400 282.8 400.113 287.038 402.25C291.841 404.672 296 411.053 296 416C296 420.947 291.841 427.328 287.038 429.75L282.576 432H210.276H137.976L122 424C108.399 417.189 105.278 416 101.012 416H96V348V280H105.458H114.916L132.806 266.618C142.645 259.258 150.989 252.471 151.348 251.536C151.707 250.601 152 236.823 152 220.918V192H161.343C169.168 192 171.393 192.374 175.04 194.303ZM80 352V432H48H16V352V272H48H80V352Z" fill="url(#paint0_linear_832_108)"/>
<defs>
<linearGradient id="paint0_linear_832_108" x1="479.927" y1="47.967" x2="135.185" y2="516.275" gradientUnits="userSpaceOnUse">
<stop stop-color="#BA6203"/>
<stop offset="1" stop-color="#EDCA92"/>
</linearGradient>
</defs>
</svg>
