<svg width="511" height="512" viewBox="0 0 511 512" fill="none" xmlns="http://www.w3.org/2000/svg">
<path fill-rule="evenodd" clip-rule="evenodd" d="M140.722 1.77136C134.505 4.01936 126.942 9.34536 123.677 13.7744C120.766 17.7234 116.523 26.7494 116.51 29.0204C116.501 30.6044 113.222 30.7524 72.25 31.0204L28 31.3094L21.497 34.3914C13.529 38.1674 6.557 44.9524 2.817 52.5714L0 58.3094V218.309V378.309L2.74 383.884C6.477 391.489 13.639 398.489 21.5 402.222L28 405.309L115.75 405.58L203.5 405.851V423.627V441.403L196.985 442.519C176.225 446.075 161.973 461.154 159.377 482.309C157.398 498.435 159.323 507.115 165.599 510.36C169.913 512.591 341.212 512.526 345.533 510.292C351.577 507.167 353.552 498.085 351.621 482.309C349.031 461.158 334.777 446.075 314.015 442.519L307.5 441.403V423.606V405.809H353.326H399.151L401.239 403.559C404.488 400.057 404.589 395.898 401.5 392.809C399.515 390.824 398.15 390.809 218.25 390.785C98.19 390.768 35.481 390.414 32.5 389.735C26.119 388.282 21.056 384.612 17.805 379.081L15 374.309L14.7 222.809C14.536 139.484 14.68 68.9494 15.021 66.0654C15.879 58.8234 20.506 52.1574 26.971 48.8514L31.941 46.3094L73.721 46.0084L115.5 45.7084V53.2584V60.8094H76.95C44.449 60.8094 37.94 61.0474 35.467 62.3264C29.096 65.6214 29.5 55.0504 29.5 218.309C29.5 381.568 29.096 370.997 35.467 374.292C38.063 375.634 63.402 375.809 255.5 375.809C447.598 375.809 472.937 375.634 475.533 374.292C481.904 370.997 481.5 381.568 481.5 218.309C481.5 55.0504 481.904 65.6214 475.533 62.3264C473.06 61.0474 466.551 60.8094 434.05 60.8094H395.5V53.2584V45.7084L437.279 46.0084L479.059 46.3094L484.02 48.8644C489.64 51.7574 494.169 57.4654 495.542 63.3834C496.749 68.5904 496.749 368.028 495.542 373.235C494.169 379.152 489.64 384.861 484.021 387.754C479.138 390.269 478.66 390.314 453.294 390.634L427.528 390.958L425.514 393.518C422.805 396.962 422.978 400.378 426.013 403.413L428.526 405.926L455.763 405.618L483 405.309L489.503 402.227C497.471 398.451 504.443 391.666 508.183 384.047L511 378.309V218.309V58.3094L508.193 52.5924C504.329 44.7234 497.791 38.3164 489.725 34.4954L483 31.3094L438.75 31.0204C397.774 30.7524 394.5 30.6044 394.499 29.0204C394.498 25.4674 388.416 14.6534 384.013 10.3734C381.494 7.92536 376.861 4.66036 373.717 3.11636L368 0.309362L257 0.0863624C149.986 -0.128638 145.81 -0.0676376 140.722 1.77136ZM368.772 18.1144C374.487 21.4734 378.047 26.5264 379.477 33.3094C380.198 36.7264 380.448 89.2694 380.266 199.309L380 360.309H255.5H131L130.746 247.869L130.491 135.429L128.321 133.119C125.443 130.055 121.102 130.116 117.955 133.264L115.5 135.718V248.264V360.809H80H44.5V218.309V75.8094H80H115.5V90.9954C115.5 105.21 115.639 106.328 117.674 108.495C120.174 111.156 125.065 111.578 128.059 109.391C129.905 108.042 130.024 106.125 130.5 70.1114L131 32.2494L133.555 27.2884C136.347 21.8664 142.18 17.1034 147.623 15.8004C149.48 15.3554 198.925 15.0634 257.5 15.1504L364 15.3094L368.772 18.1144ZM235.465 46.7514C217.088 50.6294 202.231 58.8934 187.892 73.2144C168.758 92.3234 159.5 114.364 159.5 140.809C159.5 167.246 168.752 189.277 187.892 208.417C207.032 227.557 229.063 236.809 255.5 236.809C281.937 236.809 303.968 227.557 323.108 208.417C342.248 189.277 351.5 167.246 351.5 140.809C351.5 114.372 342.248 92.3414 323.108 73.2014C312.141 62.2344 302.74 55.9894 289.5 50.8764C273.695 44.7724 252.508 43.1544 235.465 46.7514ZM266.178 60.8734C298.508 65.2694 325.122 88.8064 333.668 120.56C336.593 131.427 336.593 150.191 333.668 161.058C329.795 175.449 322.269 188.213 311.409 198.809C280.078 229.38 229.53 228.839 198.289 197.598C182.957 182.266 175.175 163.147 175.175 140.809C175.175 123.583 178.913 110.763 188.059 96.6164C199.261 79.2894 219.715 65.3514 239 61.9054C252.086 59.5664 255.589 59.4334 266.178 60.8734ZM466.5 218.309V360.809H431H395.5V218.309V75.8094H431H466.5V218.309ZM284.51 94.9344C279.154 96.5554 273.393 101.387 256.049 118.804L240.098 134.822L236.549 131.426C230.064 125.219 223.508 123.185 215.516 124.899C208.682 126.365 203.295 130.572 200.135 136.914C196.787 143.632 196.711 149.6 199.887 156.309C202.759 162.375 221.77 181.381 228.5 184.913C234.778 188.209 246.028 188.199 252.5 184.892C258.102 182.03 306.477 134.274 310.323 127.809C315.091 119.795 313.713 108.203 307.133 100.962C302.178 95.5094 291.773 92.7364 284.51 94.9344ZM295.671 111.464C296.798 112.484 297.5 114.501 297.5 116.721C297.5 120.098 295.944 121.873 272.75 144.961C259.137 158.511 247.017 170.095 245.816 170.703C244.614 171.311 241.735 171.809 239.416 171.809C235.402 171.809 234.684 171.299 224.351 161.117C214.379 151.29 213.5 150.12 213.5 146.673C213.5 143.931 214.098 142.504 215.723 141.366C219.707 138.575 222.366 139.454 229.159 145.809C235.091 151.358 235.922 151.809 240.212 151.809H244.851L266 130.809C285.072 111.872 287.478 109.809 290.496 109.809C292.337 109.809 294.665 110.554 295.671 111.464ZM163.573 273.444C162.433 274.893 161.5 277.082 161.5 278.309C161.5 279.536 162.433 281.725 163.573 283.174L165.645 285.809H255.5H345.355L347.427 283.174C348.567 281.725 349.5 279.536 349.5 278.309C349.5 277.082 348.567 274.893 347.427 273.444L345.355 270.809H255.5H165.645L163.573 273.444ZM163.573 318.444C162.433 319.893 161.5 322.082 161.5 323.309C161.5 324.536 162.433 326.725 163.573 328.174L165.645 330.809H255.5H345.355L347.427 328.174C348.567 326.725 349.5 324.536 349.5 323.309C349.5 322.082 348.567 319.893 347.427 318.444L345.355 315.809H255.5H165.645L163.573 318.444ZM291.5 423.809V441.809H255.5H219.5V423.809V405.809H255.5H291.5V423.809ZM317.705 459.363C323.856 461.459 330.019 466.942 333.223 473.171C335.361 477.328 335.95 480.076 336.302 487.559L336.739 496.809H255.5H174.261L174.698 487.559C175.216 476.557 177.97 470.131 184.595 464.459C192.336 457.834 190.818 457.975 255.072 457.888C305.112 457.82 313.775 458.024 317.705 459.363Z" fill="url(#paint0_linear_832_103)"/>
<defs>
<linearGradient id="paint0_linear_832_103" x1="510.922" y1="54.8196" x2="109.472" y2="562.81" gradientUnits="userSpaceOnUse">
<stop stop-color="#BA6203"/>
<stop offset="1" stop-color="#EDCA92"/>
</linearGradient>
</defs>
</svg>
