<svg width="512" height="512" viewBox="0 0 512 512" fill="none" xmlns="http://www.w3.org/2000/svg">
<path fill-rule="evenodd" clip-rule="evenodd" d="M238.709 6.25C227.516 21.91 211.763 32.45 192.726 37.014C185.666 38.706 180.917 38.987 159.223 38.993L133.946 39L134.238 142.25C134.568 258.648 133.929 249.179 142.655 266.962C146.553 274.906 148.758 277.891 156.399 285.566C161.405 290.594 167.706 295.981 170.401 297.537C173.097 299.094 193.471 308.789 215.676 319.082L256.051 337.796L293.694 320.364C344.977 296.615 343.769 297.291 355.088 286.035C363.317 277.852 365.337 275.153 369.332 267C378.074 249.163 377.432 258.661 377.762 142.25L378.054 39H353.092C325.426 39 319.085 38.175 306.507 32.938C293.541 27.541 281.918 18.193 273.323 6.25L268.824 0H256H243.176L238.709 6.25ZM260.547 38.085C279.625 57.803 310.077 70 340.224 70H348L347.98 150.75C347.968 199.578 347.562 234.267 346.953 238.5C344.719 254.019 335.312 266.583 320.14 274.313C315.388 276.734 299.039 284.45 283.81 291.46L256.12 304.205L226.31 290.489C209.914 282.945 193.493 275.209 189.818 273.299C176.694 266.474 167.143 253.056 165.047 238.5C164.438 234.267 164.032 199.578 164.02 150.75L164 70H171.776C201.923 70 232.375 57.803 251.453 38.085C253.627 35.838 255.673 34 256 34C256.327 34 258.373 35.838 260.547 38.085ZM264 120.5C253.286 131.225 244.075 140 243.533 140C242.991 140 239.27 136.744 235.264 132.765L227.981 125.531L217.248 136.263L206.516 146.995L224.498 164.998C234.388 174.899 242.937 183 243.496 183C244.055 183 258.229 169.278 274.994 152.506L305.476 122.012L295.006 111.506C289.247 105.728 284.298 101 284.008 101C283.718 101 274.714 109.775 264 120.5ZM215 233V248H256H297V233V218H256H215V233ZM0 324.254V422.508L44.754 467.254L89.508 512H150.319H211.131L210.766 467.75L210.402 423.5L207.697 413.5C204.288 400.896 195.855 383.583 188.152 373.371C184.887 369.042 175.739 359.16 167.824 351.412C155.853 339.692 152.179 336.71 145.967 333.672C134.646 328.136 127.536 326.681 114.519 327.236C104.054 327.683 102.098 328.134 91.75 332.479C90.111 333.167 90 331.663 90 308.767C90 287.709 89.727 283.251 88.028 276.609C81.892 252.618 63.323 234.093 39.234 227.932C33.33 226.422 28.221 226 15.84 226H0V324.254ZM472.373 227.979C448.408 234.262 430.082 252.719 423.932 276.766C422.284 283.211 422 287.878 422 308.56V332.8L414.75 330.214C405.255 326.828 389.479 326.009 379.932 328.406C366.548 331.766 359.824 336.092 344.176 351.412C336.261 359.16 327.113 369.042 323.848 373.371C316.145 383.583 307.712 400.896 304.303 413.5L301.598 423.5L301.234 467.75L300.869 512H361.681H422.492L467.246 467.254L512 422.508V324.254V226L495.75 226.055C483.228 226.097 477.865 226.539 472.373 227.979ZM38.5 259.851C49.09 264.88 56.417 274.211 58.876 285.799C59.602 289.221 60 305.344 60 331.306V371.513L88 399.5L116.001 427.487L126.743 416.745L137.485 406.003L117.135 385.635L96.784 365.266L100.142 362.793C105.552 358.808 109.988 357.499 118 357.521C129.085 357.551 133.015 359.734 147.264 373.774C165.746 391.987 172.214 401.766 177.647 419.712C180.174 428.059 180.33 429.842 180.76 455.25L181.213 482H141.861H102.51L66.255 445.755L30 409.51V333.255C30 272.917 30.261 257 31.25 257.001C31.938 257.001 35.2 258.284 38.5 259.851ZM482 333.245V409.49L445.755 445.745L409.51 482H370.149H330.787L331.24 455.25C331.67 429.842 331.826 428.059 334.353 419.712C339.786 401.766 346.254 391.987 364.736 373.774C378.985 359.734 382.915 357.551 394 357.521C402.012 357.499 406.448 358.808 411.858 362.793L415.216 365.266L394.865 385.635L374.515 406.003L385.257 416.745L395.999 427.487L423.943 399.557L451.886 371.627L452.193 328.063L452.5 284.5L455.595 278C457.297 274.425 460.672 269.52 463.095 267.1C467.125 263.074 477.74 257.003 480.75 257.001C481.739 257 482 272.915 482 333.245Z" fill="url(#paint0_linear_841_301)"/>
<defs>
<linearGradient id="paint0_linear_841_301" x1="511.922" y1="54.8195" x2="110.655" y2="563.573" gradientUnits="userSpaceOnUse">
<stop stop-color="#BA6203"/>
<stop stop-color="#BA6203"/>
<stop stop-color="#BA6203"/>
<stop offset="0.0001" stop-color="#BA6203"/>
<stop offset="1" stop-color="#EDCA92"/>
</linearGradient>
</defs>
</svg>
