<svg width="486" height="512" viewBox="0 0 486 512" fill="none" xmlns="http://www.w3.org/2000/svg">
<path fill-rule="evenodd" clip-rule="evenodd" d="M213.638 1.11147C168.754 6.83848 126.927 24.2815 91.9272 51.8685C81.7932 59.8545 64.2852 76.9585 55.2952 87.6525C39.3122 106.664 22.9432 135.061 14.1422 159.043C9.50523 171.68 4.31123 192.032 1.98323 206.686C-0.844774 224.492 -0.605774 264.723 2.42823 281.687C10.2282 325.286 26.5802 361.791 53.2692 395.186C82.6072 431.895 125.995 461.589 169.489 474.722L176.839 476.942L169.739 481.394C165.833 483.843 162.638 486.16 162.638 486.543C162.638 487.192 176.983 510.364 178.037 511.418C178.299 511.681 191.843 503.466 208.134 493.163C230.488 479.027 237.609 474.053 237.162 472.888C235.943 469.712 201.103 414.788 200.275 414.738C199.662 414.701 177.981 427.872 174.898 430.154C174.767 430.252 177.077 434.124 180.032 438.759C182.988 443.394 185.297 447.309 185.165 447.459C184.764 447.915 165.631 441.186 157.638 437.777C107.652 416.462 65.8992 373.38 45.1302 321.686C34.9202 296.272 30.3812 272.194 30.3332 243.186C30.2552 195.716 44.2172 153.093 72.0032 115.975C92.4532 88.6555 117.719 67.6825 148.786 52.2375C206.936 23.3285 274.595 22.7185 333.965 50.5695C380.9 72.5875 421.115 115.362 440.098 163.459C466.218 229.642 458.248 303.249 418.572 362.258C403.472 384.717 381.453 406.164 357.638 421.611C334.214 436.805 303.056 448.701 276.138 452.729C265.644 454.299 265.417 454.381 265.994 456.431C266.265 457.396 267.031 463.811 267.695 470.686C268.36 477.561 269.208 483.528 269.581 483.947C269.954 484.365 275.8 483.767 282.57 482.617C333.667 473.938 379.636 449.964 415.862 413.099C428.777 399.957 435.323 391.9 445.449 376.686C458.386 357.247 469.509 333.404 476.006 311.186C488.259 269.287 488.86 222.837 477.705 180.131C460.328 113.61 412.214 54.9805 350.138 24.6855C326.721 13.2565 307.201 6.99548 281.193 2.56947C265.582 -0.0875251 229.19 -0.872525 213.638 1.11147ZM135.638 228.686V335.686H242.638H349.638V228.686V121.686H242.638H135.638V228.686ZM197.638 181.686V211.686H242.638H287.638V181.686V151.686H303.638H319.638V228.686V305.686H242.638H165.638V228.686V151.686H181.638H197.638V181.686ZM257.638 166.686V181.686H242.638H227.638V166.686V151.686H242.638H257.638V166.686ZM197.638 258.686V273.686H212.638H227.638V258.686V243.686H212.638H197.638V258.686Z" fill="url(#paint0_linear_836_161)"/>
<defs>
<linearGradient id="paint0_linear_836_161" x1="485.581" y1="54.7579" x2="80.4241" y2="542.559" gradientUnits="userSpaceOnUse">
<stop stop-color="#BA6203"/>
<stop stop-color="#BA6203"/>
<stop stop-color="#BA6203"/>
<stop offset="0.0001" stop-color="#BA6203"/>
<stop offset="1" stop-color="#EDCA92"/>
</linearGradient>
</defs>
</svg>
