<svg width="370" height="513" viewBox="0 0 370 513" fill="none" xmlns="http://www.w3.org/2000/svg">
<path fill-rule="evenodd" clip-rule="evenodd" d="M169.798 36.076V72.152L160.287 73.397C99.6837 81.325 45.3907 120.661 18.6707 175.998C4.20572 205.957 -2.10628 238.914 0.619722 270.248C3.61672 304.69 13.0787 331.438 32.9727 361.71L42.1367 375.656L81.5287 336.264L120.92 296.873L117.441 288.935C111.92 276.338 110.452 269.497 110.479 256.498C110.516 239.446 114.607 226.526 124.253 213.009C134.077 199.242 151.786 187.103 166.548 184.018L169.798 183.339V218.168V252.996L233.047 189.747L296.296 126.498L233.047 63.249L169.798 0V36.076ZM226.546 153.246L199.798 179.993V165.746V151.498H187.429C180.626 151.498 171.289 152.158 166.679 152.966C122.227 160.751 87.2877 196.702 80.7547 241.38C79.0967 252.719 80.0187 271.775 82.7187 281.972L84.8307 289.946L66.5737 308.222C56.5337 318.274 48.0377 326.498 47.6947 326.498C45.6367 326.498 36.7687 301.819 33.6407 287.385C31.7287 278.567 31.3817 273.902 31.3437 256.498C31.2917 233.476 32.6767 224.702 39.4487 205.154C54.1957 162.58 90.0427 126.424 132.298 111.505C149.961 105.269 160.507 103.382 181.048 102.783L199.798 102.236V87.619V73.003L226.546 99.75L253.293 126.498L226.546 153.246ZM287.983 176.813L248.678 216.128L252.156 224.063C257.65 236.6 259.136 243.502 259.136 256.498C259.136 264.314 258.576 270.062 257.39 274.44C251.087 297.694 234.829 316.532 213.468 325.332C209.524 326.956 204.836 328.594 203.048 328.971L199.798 329.657V294.828V260L136.549 323.249L73.2997 386.498L136.549 449.747L199.798 512.996V476.92V440.844L209.548 439.578C261.369 432.853 309.287 402.65 338.978 357.998C361.266 324.48 372.374 281.803 368.976 242.748C365.982 208.337 356.514 181.553 336.675 151.365C331.663 143.738 327.501 137.498 327.425 137.498C327.35 137.498 309.601 155.19 287.983 176.813ZM325.542 193.248C329.635 202.418 334.276 217.203 336.463 228.034C337.847 234.888 338.276 241.705 338.286 256.998C338.296 274.294 337.985 278.397 335.982 287.342C325.235 335.333 295.815 373.434 253.298 394.425C230.42 405.721 215.18 409.436 188.548 410.213L169.798 410.76V425.377V439.993L143.05 413.246L116.303 386.498L143.05 359.75L169.798 333.003V347.25V361.498H182.167C188.97 361.498 198.307 360.838 202.917 360.03C247.369 352.245 282.308 316.294 288.841 271.616C290.499 260.277 289.577 241.221 286.877 231.024L284.765 223.05L303.022 204.774C313.062 194.722 321.56 186.498 321.904 186.498C322.248 186.498 323.886 189.535 325.542 193.248Z" fill="url(#paint0_linear_836_171)"/>
<defs>
<linearGradient id="paint0_linear_836_171" x1="369.522" y1="54.9261" x2="-42.2124" y2="431.009" gradientUnits="userSpaceOnUse">
<stop stop-color="#BA6203"/>
<stop stop-color="#BA6203"/>
<stop stop-color="#BA6203"/>
<stop offset="0.0001" stop-color="#BA6203"/>
<stop offset="1" stop-color="#EDCA92"/>
</linearGradient>
</defs>
</svg>
