<svg width="513" height="445" viewBox="0 0 513 445" fill="none" xmlns="http://www.w3.org/2000/svg">
<path fill-rule="evenodd" clip-rule="evenodd" d="M91.491 18.25C76.732 33.185 72.881 37.681 70.292 43C63.83 56.275 62.772 70.965 67.305 84.462C70.342 93.506 73.754 98.632 83.367 108.598C88.194 113.602 92.143 117.932 92.143 118.22C92.143 118.507 89.85 123.543 87.047 129.411L81.951 140.078L77.734 136.191C72.315 131.196 66.283 127.719 58.143 124.898C52.219 122.845 49.361 122.607 25.893 122.214L0.143 121.782V149.342C0.143 165.342 0.601 179.124 1.234 182.201C3.123 191.377 8.926 201.821 16.125 209C27.397 220.241 39.915 225 58.209 225H68.855L69.536 232.75C69.91 237.012 70.819 243.313 71.556 246.75L72.895 253H61.703C47.71 253 40.554 254.294 31.643 258.438C18.772 264.422 8.658 275.207 3.45 288.5C0.739 295.421 0.704 295.807 0.354 322.75L0 350L25.821 349.983C55.19 349.963 61.424 349.102 72.829 343.49C81.623 339.163 90.178 330.963 95.495 321.765L99.347 315.102L105.303 323.135C108.579 327.553 114.832 334.889 119.199 339.438L127.138 347.708L120.073 348.874C111.71 350.256 101.772 354.552 94.908 359.753C88.561 364.563 80.924 374.718 77.426 383C74.688 389.48 74.679 389.585 74.341 417.25L74.002 445H99.889C114.303 445 128.405 444.516 131.709 443.908C150.009 440.542 165.867 426.819 172.998 408.179C175.475 401.704 175.563 400.659 175.901 374L176.249 346.5L169.953 342.5C147.476 328.22 127.077 305.159 115.11 280.5C108.496 266.874 105.275 257.646 101.953 242.816C99.938 233.817 99.644 229.819 99.652 211.5C99.663 187.952 100.731 180.495 106.725 162.154C113.58 141.177 124.705 122.084 139.171 106.47C148.113 96.818 152.425 88.887 154.792 77.74C157.555 64.73 154.682 49.786 147.189 38.192C142.997 31.707 112.699 0 110.694 0C110.052 0 101.41 8.212 91.491 18.25ZM383.491 18.25C363.644 38.334 360.505 42.981 357.654 56.5C355.799 65.297 355.798 69.694 357.65 78.5C359.604 87.791 364.359 96.932 371.119 104.396C391.853 127.289 404.447 152.219 410.115 181.595C422.009 243.228 396.25 305.257 343.86 341.139L334.896 347.279L335.405 373.39C335.961 401.932 336.475 405.063 342.488 416.5C346.779 424.66 357.012 434.692 365.145 438.711C376.378 444.262 381.601 444.969 411.478 444.985L438.312 445L437.93 418.25C437.56 392.453 437.456 391.262 434.995 384.821C431.445 375.532 426.935 368.885 419.801 362.429C412.14 355.496 403.821 351.364 393.382 349.308L385.244 347.704L392.796 339.602C396.949 335.146 403.098 327.727 406.459 323.116C411.754 315.852 412.71 314.971 413.607 316.521C422.142 331.261 429.655 338.915 440.731 344.156C451.189 349.105 457.929 349.963 486.465 349.983L512.286 350L511.932 322.75C511.582 295.807 511.547 295.421 508.836 288.5C502.116 271.348 486.786 258.152 469.265 254.438C465.623 253.666 457.307 253.027 450.785 253.017C438.997 253 438.929 252.987 439.468 250.75C440.321 247.206 441.933 237.045 442.64 230.75L443.287 225H454.005C472.377 225 484.873 220.257 496.161 209C503.36 201.821 509.163 191.377 511.052 182.201C511.685 179.124 512.143 165.342 512.143 149.342V121.782L486.393 122.214C462.925 122.607 460.067 122.845 454.143 124.898C445.927 127.745 439.98 131.193 434.301 136.402C431.409 139.054 429.678 140.049 429.395 139.222C429.154 138.518 426.792 133.515 424.145 128.103L419.334 118.264L427.288 110.382C442.318 95.49 447.502 84.46 447.443 67.5C447.405 56.459 445.458 48.692 440.621 40.286C438.22 36.114 403.707 0 402.121 0C401.794 0 393.41 8.212 383.491 18.25ZM116.976 49.481C120.693 53.454 123.443 57.42 124.085 59.731C126.88 69.795 123.936 79.045 115.259 87.462L110.143 92.425L105.027 87.462C96.238 78.936 93.356 69.696 96.36 59.671C97.481 55.93 108.171 43 110.143 43C110.567 43 113.642 45.916 116.976 49.481ZM408.812 49.305C420.537 61.839 419.971 75.172 407.19 87.5L402.006 92.5L395.802 85.981C387.553 77.314 385.391 69.848 388.201 59.731C389.168 56.249 400.208 43 402.143 43C402.567 43 405.568 45.837 408.812 49.305ZM246.643 88.58C232.659 90.516 227.401 91.591 219.143 94.205C195.355 101.735 173.874 117.035 158.342 137.512C151.234 146.882 141.763 166.329 138.729 177.784C129.427 212.895 135.253 247.833 155.438 278C162.443 288.469 178.762 304.531 189.447 311.475C200.186 318.454 213.244 324.228 226.036 327.654C239.033 331.134 263.188 332.051 276.643 329.574C320.991 321.41 356.986 290.415 371.123 248.218C377.061 230.495 378.814 207.845 375.652 189.71C366.822 139.076 327.08 99.031 276.762 90.067C270.123 88.884 251.196 87.95 246.643 88.58ZM279.053 121.888C288.635 124.468 302.999 131.473 310.797 137.371C336.191 156.577 350.074 189.197 346.175 220.5C341.483 258.174 314.224 288.998 277.444 298.22C265.297 301.266 245.256 301.219 233.643 298.117C201.618 289.562 177.136 265.413 167.925 233.289C166.051 226.756 165.687 223 165.667 210C165.647 196.774 165.978 193.342 167.93 186.605C177.716 152.817 203.619 128.215 237.143 120.869C248.203 118.445 268.055 118.928 279.053 121.888ZM51.143 155.081C56.713 157.602 60.682 161.285 63.448 166.5C65.196 169.795 65.639 172.688 65.964 182.905L66.357 195.31L57.255 194.72C46.212 194.005 39.55 190.906 35.076 184.402C31.379 179.03 30.198 173.697 30.167 162.25L30.143 153L38.393 153.022C44.518 153.038 47.802 153.569 51.143 155.081ZM482.119 162.25C482.088 173.697 480.907 179.03 477.21 184.402C472.736 190.906 466.074 194.005 455.031 194.72L445.929 195.31L446.322 182.905C446.647 172.688 447.09 169.795 448.838 166.5C453.757 157.227 461.513 153.055 473.893 153.022L482.143 153L482.119 162.25ZM265.398 195.24L239.159 221.48L228.645 211.002L218.131 200.524L207.394 211.26L196.658 221.997L217.641 242.998C229.182 254.549 239.081 264 239.639 264C240.197 264 257.191 247.458 277.404 227.239L314.155 190.478L303.383 179.739C297.458 173.833 292.392 169 292.124 169C291.857 169 279.83 180.808 265.398 195.24ZM72.143 290.557C72.143 301.058 70.522 305.657 64.725 311.598C58.487 317.992 55.262 318.987 40.754 318.994L29.866 319L30.366 310.232C30.927 300.377 32.865 295.515 38.305 290.303C43.754 285.083 47.283 284.083 60.393 284.039L72.143 284V290.557ZM466.925 285.551C476.302 289.462 481.197 297.55 481.926 310.336L482.432 319.208L469.538 318.825C455.432 318.405 452.956 317.635 447.379 311.93C442.441 306.88 440.817 302.458 440.334 292.75L439.898 284H451.553C459.817 284 464.289 284.451 466.925 285.551ZM145.92 387.768C145.359 397.622 143.422 402.483 137.981 407.699C132.553 412.902 128.645 414 115.553 414H103.898L104.334 405.25C104.819 395.517 106.435 391.136 111.439 385.991C116.979 380.296 121.119 379.047 134.532 379.022L146.42 379L145.92 387.768ZM391.285 380.161C396.471 381.715 402.497 387.035 405.055 392.318C406.681 395.677 407.143 398.553 407.143 405.316V414L395.893 413.99C386.167 413.982 383.966 413.661 379.643 411.623C370.087 407.116 366.199 400.085 366.165 387.25L366.143 379H376.777C382.626 379 389.154 379.522 391.285 380.161Z" fill="url(#paint0_linear_841_316)"/>
<defs>
<linearGradient id="paint0_linear_841_316" x1="512.208" y1="47.6458" x2="177.779" y2="535.77" gradientUnits="userSpaceOnUse">
<stop stop-color="#BA6203"/>
<stop stop-color="#BA6203"/>
<stop stop-color="#BA6203"/>
<stop offset="0.0001" stop-color="#BA6203"/>
<stop offset="1" stop-color="#EDCA92"/>
</linearGradient>
</defs>
</svg>
