<svg width="512" height="512" viewBox="0 0 512 512" fill="none" xmlns="http://www.w3.org/2000/svg">
<path fill-rule="evenodd" clip-rule="evenodd" d="M169.075 0.7895C139.13 7.0825 116.795 27.3745 106.916 57.2635C104.734 63.8665 104.581 66.0645 104.227 96.0135L103.851 127.763H74.38C44.913 127.763 44.909 127.764 42.596 130.077C41.208 131.465 40.032 134.165 39.655 136.827C38.359 145.981 0 501.048 0 503.888C0 505.704 0.952 507.807 2.455 509.309L4.909 511.763H70.455H136V503.763V495.763H76.392H16.783L17.289 493.513C17.567 492.275 26.267 413.076 36.623 317.513L55.451 143.764H79.726H104V147.764C104 150.705 103.591 151.764 102.455 151.764C101.605 151.764 99.805 152.869 98.455 154.219C96.02 156.653 96 156.828 96 175.764C96 194.7 96.02 194.875 98.455 197.309L100.909 199.764H124H147.091L149.545 197.309C151.98 194.875 152 194.7 152 175.764C152 156.828 151.98 156.653 149.545 154.219C148.195 152.869 146.395 151.764 145.545 151.764C144.409 151.764 144 150.705 144 147.764V143.764H184H224V147.764C224 150.705 223.591 151.764 222.455 151.764C221.605 151.764 219.805 152.869 218.455 154.219C216.02 156.653 216 156.828 216 175.764C216 194.7 216.02 194.875 218.455 197.309L220.909 199.764H244H267.091L269.545 197.309C271.98 194.875 272 194.7 272 175.764C272 156.828 271.98 156.653 269.545 154.219C268.195 152.869 266.395 151.764 265.545 151.764C264.409 151.764 264 150.705 264 147.764V143.764H296.295H328.59L330.854 165.514C332.099 177.477 333.357 188.525 333.65 190.066L334.182 192.867L341.341 192.197C345.278 191.828 348.877 191.18 349.338 190.757C349.8 190.333 349.003 179.024 347.569 165.626C344.024 132.509 344.063 132.736 341.404 130.077L339.091 127.763H301.62H264.149L263.773 96.0135C263.42 66.1435 263.262 63.8495 261.099 57.2635C252.285 30.4215 232.955 11.1215 206.5 2.7475C198.611 0.2505 177.016 -0.8795 169.075 0.7895ZM202.836 18.9025C225.573 25.7995 243.554 46.7835 246.969 70.4065C247.514 74.1775 247.969 94.0255 247.98 114.513L248 151.764H244H240V111.973C240 79.6805 239.714 71.0605 238.482 66.2235C233.422 46.3565 217.407 30.3415 197.54 25.2815C168.073 17.7765 137.11 36.4135 129.518 66.2235C128.286 71.0605 128 79.6805 128 111.973V151.764H123.923H119.846L120.196 110.013L120.545 68.2635L123.346 60.2735C126.93 50.0505 131.596 42.4105 138.605 35.2885C148.181 25.5585 161.083 18.7935 173.927 16.7685C181.737 15.5375 194.959 16.5135 202.836 18.9025ZM198.301 42.8105C208.9 46.8505 216.789 54.8385 221.37 66.1695C223.244 70.8045 223.462 73.8105 223.796 99.5135L224.163 127.763H184.081H144V102.899C144 89.2255 144.456 75.6125 145.014 72.6495C147.978 56.9045 160.511 44.0405 176.045 40.7995C182.134 39.5295 192.038 40.4245 198.301 42.8105ZM136 175.764V183.764H124H112V175.764V167.764H124H136V175.764ZM256 175.764V183.764H244H232V175.764V167.764H244H256V175.764ZM330.385 209.997C321.249 217.069 273.124 258.998 272.612 260.332C271.402 263.485 272.041 266.894 274.25 269.076C275.488 270.298 286.261 276.69 298.19 283.281L319.881 295.263L297.85 295.763C276.186 296.255 275.788 296.302 273.91 298.624C272.154 300.794 272 302.837 272 323.919V346.854L274.455 349.309C275.805 350.659 277.605 351.763 278.455 351.763C279.72 351.763 280 353.214 280 359.763V367.763H214.455H148.909L146.455 370.218C144.02 372.652 144 372.827 144 391.763C144 410.699 144.02 410.875 146.455 413.309C147.805 414.659 149.605 415.763 150.455 415.763C151.826 415.763 152 420.896 152 461.309V506.854L154.455 509.309L156.909 511.763H328H499.091L501.545 509.309L504 506.854V429.309C504 360.033 504.165 351.763 505.545 351.763C506.395 351.763 508.195 350.659 509.545 349.309L512 346.854V323.919C512 302.837 511.846 300.794 510.09 298.624C508.212 296.302 507.814 296.255 486.15 295.763L464.119 295.263L485.81 283.281C497.739 276.69 508.512 270.298 509.75 269.076C511.985 266.869 512.597 263.482 511.348 260.229C510.99 259.295 495.455 247.109 476.826 233.148C442.52 207.438 440.605 206.299 435.915 208.81C434.773 209.421 428.128 221.516 419.927 237.911L405.892 265.965L402.361 265.303C397.32 264.357 384.054 264.552 380.402 265.626L377.303 266.536L359.916 238.542C350.353 223.145 341.634 209.921 340.542 209.156C337.64 207.123 333.673 207.452 330.385 209.997ZM152.478 230.635C144.374 234.316 139.195 241.473 138.29 250.24C137.485 258.045 139.983 264.538 145.933 270.103C151.504 275.315 156.946 277.181 164.698 276.538C183.543 274.975 192.678 251.419 180.193 236.581C174.247 229.514 161.136 226.702 152.478 230.635ZM347 248.881C353.875 259.931 359.669 269.432 359.875 269.994C360.082 270.556 354.277 266.219 346.976 260.356C339.674 254.493 333.367 249.824 332.961 249.98C332.554 250.135 330.089 252.891 327.484 256.102C323.517 260.991 322.971 262.146 324.124 263.215C324.881 263.917 333.262 270.675 342.75 278.232C354.18 287.337 360 292.612 360 293.868C360 298.01 354.422 295.714 325.5 279.671C309.55 270.824 296.119 263.223 295.654 262.779C294.937 262.095 332.547 228.74 333.995 228.777C334.273 228.784 340.125 237.831 347 248.881ZM466.437 245.831C478.297 254.729 488 262.296 488 262.647C488 264.053 429.322 295.763 426.719 295.763C420.742 295.763 423.658 292.245 441.25 278.232C450.738 270.675 459.104 263.932 459.843 263.248C460.951 262.223 460.354 260.935 456.433 255.885C453.818 252.519 451.359 249.764 450.968 249.764C450.576 249.764 443.805 254.921 435.921 261.223C428.036 267.526 421.43 272.526 421.239 272.336C420.377 271.473 442.59 228.776 443.683 229.196C444.338 229.447 454.578 236.933 466.437 245.831ZM177.732 279.531L132.973 324.299L139 330.263L145.027 336.227L189.514 291.749C213.981 267.287 234 246.805 234 246.234C234 245.233 223.927 234.764 222.964 234.764C222.704 234.764 202.35 254.909 177.732 279.531ZM165.932 246.229C171.236 248.972 170.715 257.397 165.098 259.723C157.154 263.014 150.864 252.718 157.389 247.105C160.56 244.377 162.057 244.225 165.932 246.229ZM404.25 283.068C407.942 284.636 408 284.747 408 290.212V295.763H391.95H375.9L376.2 290.013L376.5 284.263L381.5 282.496C387.502 280.376 398.566 280.654 404.25 283.068ZM199.168 295.366C188.521 300.672 183.694 312.308 187.229 324.147C189.001 330.081 197.238 338.248 202.992 339.777C218.262 343.834 232.709 333.932 233.814 318.651C234.582 308.036 229.708 299.399 220.541 295.13C213.528 291.864 206.03 291.947 199.168 295.366ZM213.932 310.228C219.236 312.971 218.715 321.397 213.098 323.723C205.154 327.014 198.864 316.718 205.389 311.105C208.56 308.377 210.057 308.224 213.932 310.228ZM352 323.763V335.763H320H288V323.763V311.763H320H352V323.763ZM416 323.763V335.763H392H368V323.763V311.763H392H416V323.763ZM496 323.763V335.763H464H432V323.763V311.763H464H496V323.763ZM360 423.763V495.763H328H296V423.763V351.763H328H360V423.763ZM408 423.763V495.763H392H376V423.763V351.763H392H408V423.763ZM488 423.763V495.763H456H424V423.763V351.763H456H488V423.763ZM280 391.763V399.763H220H160V391.763V383.763H220H280V391.763ZM280 455.763V495.763H224H168V491.763V487.763H196H224V479.763V471.763H196H168V467.763V463.763H204H240V455.763V447.763H204H168V431.763V415.763H224H280V455.763Z" fill="url(#paint0_linear_839_251)"/>
<defs>
<linearGradient id="paint0_linear_839_251" x1="511.922" y1="54.7942" x2="110.884" y2="563.493" gradientUnits="userSpaceOnUse">
<stop stop-color="#BA6203"/>
<stop offset="1" stop-color="#EDCA92"/>
</linearGradient>
</defs>
</svg>
