<svg width="512" height="512" viewBox="0 0 512 512" fill="none" xmlns="http://www.w3.org/2000/svg">
<path fill-rule="evenodd" clip-rule="evenodd" d="M0 256V512H256H512V256V0H256H0V256ZM482 75V120H256H30V75V30H256H482V75ZM60 75V90H75H90V75V60H75H60V75ZM120 75V90H135H150V75V60H135H120V75ZM180 75V90H195H210V75V60H195H180V75ZM392 75V90H422H452V75V60H422H392V75ZM482 316V482H256H30V316V150H256H482V316ZM98 195V210H114.758H131.516L146.786 271.25C155.184 304.938 162.043 332.795 162.028 333.155C162.013 333.515 160.081 334.934 157.736 336.309C152.43 339.419 143.876 348.36 141.221 353.573C134.014 367.722 134.422 384.807 142.288 398.228C145.416 403.566 154.346 412.117 159.573 414.779C164.868 417.476 173.622 420 177.682 420H181V435V450H196H211V435V420H263.5H316V435V450H331H346V420.017V390.033L261.073 389.767C177.066 389.503 176.116 389.478 173.385 387.438C168.436 383.743 166.5 380.245 166.5 375C166.5 369.755 168.436 366.257 173.385 362.562C176.115 360.523 177.082 360.497 259.539 360.233L342.932 359.966L343.919 356.233C347.319 343.372 380 211.834 380 211.011C380 210.336 343.962 210 271.547 210H163.094L162.202 206.75C161.711 204.963 160.022 198.213 158.449 191.75L155.588 180H126.794H98V195ZM341 241.019C341 241.861 323.206 313.784 319.913 326.25L318.923 330H256H193.077L192.087 326.25C188.794 313.784 171 241.861 171 241.019C171 240.335 198.952 240 256 240C313.048 240 341 240.335 341 241.019Z" fill="url(#paint0_linear_841_306)"/>
<defs>
<linearGradient id="paint0_linear_841_306" x1="511.922" y1="54.8195" x2="110.655" y2="563.573" gradientUnits="userSpaceOnUse">
<stop stop-color="#BA6203"/>
<stop stop-color="#BA6203"/>
<stop stop-color="#BA6203"/>
<stop offset="0.0001" stop-color="#BA6203"/>
<stop offset="1" stop-color="#EDCA92"/>
</linearGradient>
</defs>
</svg>
