<svg width="481" height="481" viewBox="0 0 481 481" fill="none" xmlns="http://www.w3.org/2000/svg">
<path fill-rule="evenodd" clip-rule="evenodd" d="M98.069 1.69114C78.53 6.83314 62.589 22.9301 57.587 42.5721C56.292 47.6581 56.069 60.3211 56.069 128.865V209.199L50.63 214.405C45.405 219.407 44.404 221.325 25.188 263.165C14.186 287.12 4.157 310.07 2.902 314.165L0.618 321.612L0.309 400.862L0 480.112H7.989H15.977L16.329 402.862C16.649 332.402 16.836 325.085 18.456 319.612C19.433 316.312 28.183 296.322 37.901 275.191L55.569 236.77L56.084 296.691C56.59 355.497 56.64 356.721 58.815 362.463C61.528 369.626 64.591 374.715 66.671 375.513C69.211 376.488 73.449 376.14 75.192 374.813C76.084 374.134 85.233 358.96 95.521 341.095C106.28 322.413 115.556 307.447 117.352 305.869C127.898 296.61 145.28 306.513 142.692 320.305C142.343 322.168 133.51 338.511 123.063 356.622C112.224 375.414 104.069 390.628 104.069 392.057C104.069 393.451 108.522 401.997 114.109 411.324C119.63 420.543 124.882 430.004 125.778 432.349C127.043 435.66 127.503 441.471 127.836 458.362L128.265 480.112H136.167H144.069V458.822C144.069 431.341 142.987 427.083 131.038 407.561C128.855 403.995 127.069 400.86 127.069 400.594C127.069 400.329 161.399 400.112 203.359 400.112C287.355 400.112 284.845 400.279 298.034 393.831C306.804 389.544 317.501 378.847 321.788 370.077C327.425 358.546 328.069 354.221 328.069 327.902V304.112H320.069H312.069V324.976C312.069 336.45 311.613 348.263 311.055 351.226C308.028 367.304 295.141 380.146 279.058 383.11C275.563 383.753 246.633 384.031 199.996 383.869L126.445 383.612L139.007 361.884L151.569 340.157L152.165 346.119C152.952 353.978 156.993 360.552 163.517 364.586L168.412 367.612H192.069H215.726L220.621 364.586C223.655 362.71 226.667 359.698 228.543 356.664C231.221 352.331 231.569 350.889 231.569 344.112C231.569 337.335 231.221 335.893 228.543 331.56C226.667 328.526 223.655 325.514 220.621 323.638L215.726 320.612H192.059H168.392L163.471 323.671L158.549 326.731L158.914 319.505C159.115 315.531 158.738 310.554 158.077 308.445C153.403 293.543 136.994 283.281 122.295 286.069C115.263 287.403 108.141 291.182 103.988 295.784C102.089 297.89 94.735 309.737 87.646 322.112C80.557 334.487 74.144 345.28 73.394 346.095C72.243 347.348 72.073 324.272 72.3 197.595C72.568 47.9451 72.574 47.6011 74.664 42.5181C79.358 31.1031 86.916 23.4681 98.069 18.8761L103.569 16.6121L188.418 16.3301C244.162 16.1441 275.205 16.4041 278.918 17.0891C289.091 18.9631 298.82 25.1511 304.698 33.4861L306.725 36.3611L313.397 32.5231C317.067 30.4131 320.069 28.1471 320.069 27.4891C320.069 25.4651 312.318 16.3561 307.061 12.2001C301.085 7.47614 293.302 3.66814 285.437 1.62014C276.977 -0.583858 106.467 -0.518857 98.069 1.69114ZM128.069 40.1121V48.1121H136.069H144.069V40.1121V32.1121H136.069H128.069V40.1121ZM160.069 40.1121V48.1121H192.069H224.069V40.1121V32.1121H192.069H160.069V40.1121ZM329.624 41.7261C303.856 46.3771 280.361 58.7481 261.533 77.5761C242.407 96.7021 230.206 120.112 225.615 146.493C222.393 165.006 224.179 189.373 230.059 207.112L232.877 215.612L218.973 239.184C209.42 255.38 205.069 263.697 205.069 265.76C205.069 269.532 209.019 273.449 212.811 273.436C214.328 273.431 227.077 271.261 241.143 268.614L266.717 263.802L272.187 268.258C288.478 281.527 310.176 291.174 331.511 294.635C394.112 304.788 455.297 266.929 474.493 206.164C481.947 182.568 481.903 153.675 474.377 129.731C462.173 90.9071 431.427 59.5121 393.069 46.7081C387.294 44.7811 378.573 42.5081 373.688 41.6581C362.644 39.7351 340.459 39.7701 329.624 41.7261ZM376.133 59.0381C399.501 64.2371 422.407 77.9651 437.069 95.5591C464.94 129.002 471.411 173.173 454.261 212.902C441.016 243.584 413.097 267.529 380.662 276.025C344.825 285.411 306.97 276.584 278.612 252.228C271.33 245.973 271.485 245.982 248.069 250.524C238.444 252.392 230.399 253.755 230.192 253.555C229.984 253.355 234.372 245.492 239.942 236.083C246.404 225.166 250.069 217.944 250.069 216.126C250.069 214.56 249.135 211.103 247.993 208.445C246.852 205.787 244.743 198.887 243.307 193.112C239.838 179.155 239.631 158.468 242.82 144.553C253.583 97.6011 290.412 63.8551 338.245 57.1161C347.243 55.8481 366.093 56.8051 376.133 59.0381ZM340.104 82.3141C328.025 86.9511 320.069 99.1971 320.069 113.15V120.112H306.524C293.438 120.112 292.894 120.196 290.498 122.592L288.018 125.072L288.294 178.421L288.569 231.771L291.595 236.665C293.471 239.698 296.484 242.71 299.517 244.586L304.412 247.612H352.069H399.726L404.621 244.586C407.654 242.71 410.667 239.698 412.543 236.665L415.569 231.771L415.844 178.421L416.12 125.072L413.64 122.592C411.244 120.196 410.7 120.112 397.614 120.112H384.069V113.15C384.069 89.5591 361.841 73.9691 340.104 82.3141ZM359.107 98.3621C364.823 101.244 368.069 107.207 368.069 114.824V120.112H352.069H336.069V114.824C336.069 107.207 339.315 101.244 345.031 98.3621C347.485 97.1251 350.652 96.1121 352.069 96.1121C353.486 96.1121 356.653 97.1251 359.107 98.3621ZM156.504 112.157L150.478 118.183L144.524 115.418C139.223 112.956 137.413 112.65 128.048 112.632C118.216 112.613 117.102 112.821 111.037 115.807C102.619 119.951 95.608 126.947 91.689 135.112C88.778 141.177 88.569 142.349 88.572 152.612C88.575 162.655 88.821 164.114 91.402 169.377C95.123 176.967 102.248 184.139 110.164 188.264C116.289 191.456 117.05 191.602 127.569 191.607C137.835 191.612 139.003 191.404 145.069 188.492C153.234 184.573 160.23 177.562 164.374 169.144C167.36 163.079 167.568 161.965 167.549 152.133C167.531 142.773 167.224 140.956 164.769 135.669L162.009 129.727L168.041 123.64L174.073 117.554L168.302 111.842L162.53 106.131L156.504 112.157ZM134.35 129.439L138.131 130.612L126.107 142.59L114.082 154.567L119.803 160.348L125.523 166.129L137.694 153.987L149.866 141.845L151.088 147.307C153.713 159.038 146.553 171.109 134.921 174.563C128.465 176.481 127.674 176.481 121.236 174.569C108.74 170.858 101.825 158.296 105.453 145.899C109.285 132.806 121.951 125.592 134.35 129.439ZM184.069 136.112V144.112H200.069H216.069V136.112V128.112H200.069H184.069V136.112ZM320.069 144.112V152.112H328.069H336.069V144.112V136.112H352.069H368.069V144.112V152.112H376.069H384.069V144.112V136.112H392.069H400.069V168.112V200.112H352.069H304.069V168.112V136.112H312.069H320.069V144.112ZM184.069 168.112V176.112H200.069H216.069V168.112V160.112H200.069H184.069V168.112ZM400.069 221.189C400.069 225.467 399.609 226.726 397.146 229.189L394.223 232.112H352.069H309.915L306.992 229.189C304.529 226.726 304.069 225.467 304.069 221.189V216.112H352.069H400.069V221.189ZM213.146 339.035C214.754 340.643 216.069 342.927 216.069 344.112C216.069 345.297 214.754 347.581 213.146 349.189L210.223 352.112H192.069H173.915L170.992 349.189C169.384 347.581 168.069 345.297 168.069 344.112C168.069 342.927 169.384 340.643 170.992 339.035L173.915 336.112H192.069H210.223L213.146 339.035Z" fill="url(#paint0_linear_832_78)"/>
<defs>
<linearGradient id="paint0_linear_832_78" x1="479.98" y1="51.4053" x2="103.693" y2="528.428" gradientUnits="userSpaceOnUse">
<stop stop-color="#BA6203"/>
<stop offset="1" stop-color="#EDCA92"/>
</linearGradient>
</defs>
</svg>
