<svg display="none" xmlns="http://www.w3.org/2000/svg">

	<symbol id="youtube" viewBox="0 0 512 360">
		<g>
			<path class="st0" d="M435.1,5.1c10,1.1,32,1.1,51.4,21.7c0,0,15.7,15.4,20.3,50.9c5.4,41.4,5.1,82.9,5.1,82.9v38.9
		c0,0,0.3,41.4-5.1,82.9c-4.6,35.1-20.3,50.9-20.3,50.9c-19.4,20.3-41.4,20.3-51.4,21.4c0,0-71.4,5.4-179.1,5.4
		c-133.1-1.1-174-5.1-174-5.1c-11.4-2-37.1-1.4-56.6-21.7c0,0-15.7-15.7-20.3-50.9C-0.3,240.8,0,199.4,0,199.4v-38.9
		c0,0-0.3-41.4,5.1-82.9c4.6-35.4,20.3-50.9,20.3-50.9C44.9,6.3,66.9,6.3,76.9,5.1c0,0,71.4-5.1,179.1-5.1S435.1,5.1,435.1,5.1z
		 M341.4,174.8l-138.3-72.3v143.7L341.4,174.8z" />
		</g>
	</symbol>

	<symbol id="tg" viewBox="0 0 624.5 624.5">
		<g>
			<path class="st0" d="M624.2,26.1l-89.2,535.3c-1,6.6-5.2,12.2-11.2,15.7c-3.1,1.7-7,2.8-10.8,2.8c-2.8,0-5.6-0.7-8.4-1.7
		l-157.9-64.5l-84.3,102.8c-4.2,5.2-10.4,8-17.1,8c-2.4,0-5.2-0.4-7.7-1.4C229,620,223,611.6,223,602.2V480.6l301.1-369.1
		L151.6,433.9L14,377.4c-8-3.1-13.2-10.5-13.9-19.2c-0.4-8.4,3.8-16.4,11.2-20.5L591,3.1c3.5-2.1,7.3-3.1,11.2-3.1
		c4.5,0,9.1,1.4,12.5,3.8C622.1,9.1,625.6,17.4,624.2,26.1z" />
		</g>
	</symbol>

	<symbol id="vk" viewBox="0 0 624.5 356.3">
		<g>
			<path class="st0" d="M574.8,121.4c-63.1,83.9-69.9,76.1-17.9,124.5c50.1,46.5,60.5,68.9,62.1,71.8c0,0,20.8,36.4-23.1,36.7
		l-83.2,1.3c-17.9,3.6-41.6-12.7-41.6-12.7c-31.2-21.4-60.5-77.1-83.2-69.9c0,0-23.4,7.5-22.8,57.5c0.3,10.7-4.9,16.6-4.9,16.6
		s-5.8,6.2-17.2,7.2h-37.4c-82.2,5.2-154.7-70.6-154.7-70.6S71.5,202,1.9,38.5c-4.6-10.7,0.3-15.9,0.3-15.9s4.9-6.2,18.5-6.2
		l89.1-0.6c8.5,1.3,14.3,5.8,14.3,5.8s5.2,3.6,7.8,10.4c14.6,36.4,33.5,69.6,33.5,69.6c32.5,67,54.6,78.4,67.3,71.5
		c0,0,16.6-10.1,13-91c-1.3-29.3-9.4-42.6-9.4-42.6c-7.5-10.1-21.5-13-27.6-14c-4.9-0.7,3.2-12.4,14-17.6
		c15.9-7.8,44.2-8.1,77.7-7.8c26.3,0.3,33.8,1.9,43.9,4.2c30.9,7.5,20.5,36.1,20.5,105c0,22.1-4.2,53,11.7,63.1
		c6.8,4.6,23.7,0.7,65.4-70.2c0,0,19.5-33.8,34.8-73.2c2.6-7.1,8.1-10.1,8.1-10.1S490,16,497.1,17l93.6-0.7
		c28.3-3.6,32.8,9.4,32.8,9.4C628.5,39.1,613.2,70.3,574.8,121.4z" />
		</g>
	</symbol>

	<symbol id="twitter" viewBox="0 0 768.9 624.5">
		<g>
			<path class="st0" d="M689.9,155.6c0.5,6.8,0.5,13.7,0.5,20.5c0,208.3-158.6,448.3-448.3,448.3c-89.3,0-172.2-25.9-242-70.7
		c12.7,1.5,24.9,1.9,38.1,1.9c73.7,0,141.5-24.9,195.6-67.3c-69.3-1.5-127.3-46.8-147.3-109.3c9.8,1.5,19.5,2.4,29.8,2.4
		c14.1,0,28.3-2,41.5-5.4C85.4,361.5,31.2,298.1,31.2,221.5c0-0.5,0-1.5,0-1.9c21,11.7,45.4,19,71.2,20
		C60,211.2,32.2,163,32.2,108.3c0-29.3,7.8-56.1,21.5-79.5c77.6,95.6,194.2,158.1,324.9,164.9c-2.4-11.7-3.9-23.9-3.9-36.1
		C374.7,70.7,445,0,532.3,0c45.4,0,86.3,19,115.1,49.8c35.6-6.8,69.8-20,100-38.1c-11.7,36.6-36.6,67.3-69.3,86.8
		c31.7-3.4,62.4-12.2,90.7-24.4C747.4,105.4,720.6,133.2,689.9,155.6z" />
		</g>
	</symbol>

	<symbol id="search" viewBox="0 0 24 24">
		<path
			d="M23.707,22.293l-5.969-5.969a10.016,10.016,0,1,0-1.414,1.414l5.969,5.969a1,1,0,0,0,1.414-1.414ZM10,18a8,8,0,1,1,8-8A8.009,8.009,0,0,1,10,18Z" />
	</symbol>

	<symbol id="location" viewBox="-76 0 512 512">
		<path
			d="m180 0c-99.257812 0-180 81.742188-180 181 0 35.304688 10.226562 69.507812 29.574219 98.890625l150.425781 232.109375 150.425781-232.109375c19.347657-29.382813 29.574219-63.585937 29.574219-98.890625 0-99.257812-80.742188-181-180-181zm0 271c-49.628906 0-90-40.371094-90-90s40.371094-91 90-91 90 41.371094 90 91-40.371094 90-90 90zm0 0" />
	</symbol>

	<symbol id="basket" viewBox="0 0 24 24">
		<path
			d="M22.713,4.077A2.993,2.993,0,0,0,20.41,3H4.242L4.2,2.649A3,3,0,0,0,1.222,0H1A1,1,0,0,0,1,2h.222a1,1,0,0,1,.993.883l1.376,11.7A5,5,0,0,0,8.557,19H19a1,1,0,0,0,0-2H8.557a3,3,0,0,1-2.82-2h11.92a5,5,0,0,0,4.921-4.113l.785-4.354A2.994,2.994,0,0,0,22.713,4.077ZM21.4,6.178l-.786,4.354A3,3,0,0,1,17.657,13H5.419L4.478,5H20.41A1,1,0,0,1,21.4,6.178Z" />
		<circle cx="7" cy="22" r="2" />
		<circle cx="17" cy="22" r="2" />
	</symbol>

	<symbol id="heart" viewBox="0 0 24 24">
		<g id="_01_align_center" data-name="01 align center">
			<path
				d="M17.5.917a6.4,6.4,0,0,0-5.5,3.3A6.4,6.4,0,0,0,6.5.917,6.8,6.8,0,0,0,0,7.967c0,6.775,10.956,14.6,11.422,14.932l.578.409.578-.409C13.044,22.569,24,14.742,24,7.967A6.8,6.8,0,0,0,17.5.917ZM12,20.846c-3.253-2.43-10-8.4-10-12.879a4.8,4.8,0,0,1,4.5-5.05A4.8,4.8,0,0,1,11,7.967h2a4.8,4.8,0,0,1,4.5-5.05A4.8,4.8,0,0,1,22,7.967C22,12.448,15.253,18.416,12,20.846Z" />
		</g>
	</symbol>

	<symbol id="balance" viewBox="0 0 24 24">
		<path
			d="M23.938,10.654l-3.071-8.335c-.423-1.151-1.634-1.781-2.824-1.465l-5.043,1.345V1c0-.552-.448-1-1-1s-1,.448-1,1v1.732l-5.254,1.401c-1.255,.335-2.273,1.263-2.723,2.482L.062,14.654c-.041,.111-.062,.647-.062,.647,0,2.506,2,4.698,4.503,4.698,1.158,0,2.249-.434,3.094-1.236,.891-.846,1.402-2.036,1.402-3.264,0,0-.021-.732-.06-.842L5.87,6.216c.124-.063,.255-.114,.392-.15l4.738-1.264V22H5c-.552,0-1,.448-1,1s.448,1,1,1h14c.552,0,1-.448,1-1s-.448-1-1-1h-6V4.268l4.896-1.306-2.834,7.691c-.041,.111-.062,.647-.062,.647,0,2.506,1.871,4.567,4.26,4.692,1.249,.066,2.434-.371,3.338-1.229,.891-.846,1.402-2.036,1.402-3.264,0,0-.021-.735-.062-.846ZM4.364,17.997c-1.081-.057-1.986-.902-2.266-1.997H6.95c-.1,.499-.35,.954-.729,1.313-.502,.478-1.165,.725-1.856,.683Zm2.208-3.997H2.434l2.083-5.653,2.056,5.653ZM19.5,4.393l2.066,5.607h-4.132l2.066-5.607Zm-.136,9.604c-1.081-.057-1.986-.902-2.266-1.997h4.851c-.1,.499-.35,.954-.729,1.313-.502,.478-1.165,.719-1.856,.683Z" />
	</symbol>

	<symbol id="prev" viewBox="0 0 270 512">
		<path d="M269.8,466.8L66.9,263.6c-4.2-4.2-4.2-10.9,0-15.1L270,45.2L224.9,0L21.8,203.3c-29.1,29.2-29.1,76.4,0,105.6L224.6,512
	L269.8,466.8z" />
	</symbol>

	<symbol id="next" viewBox="0 0 270 512">
		<path d="M45.4,512l202.8-203.1c29.1-29.2,29.1-76.4,0-105.6L45.1,0L0,45.2l203.1,203.3c4.2,4.2,4.2,10.9,0,15.1L0.2,466.8L45.4,512z
	" />
	</symbol>

	<symbol id="user" viewBox="0 0 24 24">
		<path d="M12,12A6,6,0,1,0,6,6,6.006,6.006,0,0,0,12,12ZM12,2A4,4,0,1,1,8,6,4,4,0,0,1,12,2Z" />
		<path d="M12,14a9.01,9.01,0,0,0-9,9,1,1,0,0,0,2,0,7,7,0,0,1,14,0,1,1,0,0,0,2,0A9.01,9.01,0,0,0,12,14Z" />
	</symbol>

	<symbol id="arrow-right" viewBox="0 0 24 24">
		<path
			d="M23.124,9.879,18.538,5.293,17.124,6.707l4.262,4.263L0,11l0,2,21.446-.03-4.323,4.323,1.414,1.414,4.587-4.586A3.007,3.007,0,0,0,23.124,9.879Z" />
	</symbol>
</svg>