<svg display="none" xmlns="http://www.w3.org/2000/svg">

	<symbol id="youtube" viewBox="0 0 512 360">
		<g>
			<path class="st0" d="M435.1,5.1c10,1.1,32,1.1,51.4,21.7c0,0,15.7,15.4,20.3,50.9c5.4,41.4,5.1,82.9,5.1,82.9v38.9
		c0,0,0.3,41.4-5.1,82.9c-4.6,35.1-20.3,50.9-20.3,50.9c-19.4,20.3-41.4,20.3-51.4,21.4c0,0-71.4,5.4-179.1,5.4
		c-133.1-1.1-174-5.1-174-5.1c-11.4-2-37.1-1.4-56.6-21.7c0,0-15.7-15.7-20.3-50.9C-0.3,240.8,0,199.4,0,199.4v-38.9
		c0,0-0.3-41.4,5.1-82.9c4.6-35.4,20.3-50.9,20.3-50.9C44.9,6.3,66.9,6.3,76.9,5.1c0,0,71.4-5.1,179.1-5.1S435.1,5.1,435.1,5.1z
		 M341.4,174.8l-138.3-72.3v143.7L341.4,174.8z" />
		</g>
	</symbol>

	<symbol id="tg" viewBox="0 0 624.5 624.5">
		<g>
			<path class="st0" d="M624.2,26.1l-89.2,535.3c-1,6.6-5.2,12.2-11.2,15.7c-3.1,1.7-7,2.8-10.8,2.8c-2.8,0-5.6-0.7-8.4-1.7
		l-157.9-64.5l-84.3,102.8c-4.2,5.2-10.4,8-17.1,8c-2.4,0-5.2-0.4-7.7-1.4C229,620,223,611.6,223,602.2V480.6l301.1-369.1
		L151.6,433.9L14,377.4c-8-3.1-13.2-10.5-13.9-19.2c-0.4-8.4,3.8-16.4,11.2-20.5L591,3.1c3.5-2.1,7.3-3.1,11.2-3.1
		c4.5,0,9.1,1.4,12.5,3.8C622.1,9.1,625.6,17.4,624.2,26.1z" />
		</g>
	</symbol>

	<symbol id="vk" viewBox="0 0 624.5 356.3">
		<g>
			<path class="st0" d="M574.8,121.4c-63.1,83.9-69.9,76.1-17.9,124.5c50.1,46.5,60.5,68.9,62.1,71.8c0,0,20.8,36.4-23.1,36.7
		l-83.2,1.3c-17.9,3.6-41.6-12.7-41.6-12.7c-31.2-21.4-60.5-77.1-83.2-69.9c0,0-23.4,7.5-22.8,57.5c0.3,10.7-4.9,16.6-4.9,16.6
		s-5.8,6.2-17.2,7.2h-37.4c-82.2,5.2-154.7-70.6-154.7-70.6S71.5,202,1.9,38.5c-4.6-10.7,0.3-15.9,0.3-15.9s4.9-6.2,18.5-6.2
		l89.1-0.6c8.5,1.3,14.3,5.8,14.3,5.8s5.2,3.6,7.8,10.4c14.6,36.4,33.5,69.6,33.5,69.6c32.5,67,54.6,78.4,67.3,71.5
		c0,0,16.6-10.1,13-91c-1.3-29.3-9.4-42.6-9.4-42.6c-7.5-10.1-21.5-13-27.6-14c-4.9-0.7,3.2-12.4,14-17.6
		c15.9-7.8,44.2-8.1,77.7-7.8c26.3,0.3,33.8,1.9,43.9,4.2c30.9,7.5,20.5,36.1,20.5,105c0,22.1-4.2,53,11.7,63.1
		c6.8,4.6,23.7,0.7,65.4-70.2c0,0,19.5-33.8,34.8-73.2c2.6-7.1,8.1-10.1,8.1-10.1S490,16,497.1,17l93.6-0.7
		c28.3-3.6,32.8,9.4,32.8,9.4C628.5,39.1,613.2,70.3,574.8,121.4z" />
		</g>
	</symbol>

	<symbol id="twitter" viewBox="0 0 768.9 624.5">
		<g>
			<path class="st0" d="M689.9,155.6c0.5,6.8,0.5,13.7,0.5,20.5c0,208.3-158.6,448.3-448.3,448.3c-89.3,0-172.2-25.9-242-70.7
		c12.7,1.5,24.9,1.9,38.1,1.9c73.7,0,141.5-24.9,195.6-67.3c-69.3-1.5-127.3-46.8-147.3-109.3c9.8,1.5,19.5,2.4,29.8,2.4
		c14.1,0,28.3-2,41.5-5.4C85.4,361.5,31.2,298.1,31.2,221.5c0-0.5,0-1.5,0-1.9c21,11.7,45.4,19,71.2,20
		C60,211.2,32.2,163,32.2,108.3c0-29.3,7.8-56.1,21.5-79.5c77.6,95.6,194.2,158.1,324.9,164.9c-2.4-11.7-3.9-23.9-3.9-36.1
		C374.7,70.7,445,0,532.3,0c45.4,0,86.3,19,115.1,49.8c35.6-6.8,69.8-20,100-38.1c-11.7,36.6-36.6,67.3-69.3,86.8
		c31.7-3.4,62.4-12.2,90.7-24.4C747.4,105.4,720.6,133.2,689.9,155.6z" />
		</g>
	</symbol>

	<symbol id="search" viewBox="0 0 24 24">
		<path
			d="M23.707,22.293l-5.969-5.969a10.016,10.016,0,1,0-1.414,1.414l5.969,5.969a1,1,0,0,0,1.414-1.414ZM10,18a8,8,0,1,1,8-8A8.009,8.009,0,0,1,10,18Z" />
	</symbol>

	<symbol id="location" viewBox="-76 0 512 512">
		<path
			d="m180 0c-99.257812 0-180 81.742188-180 181 0 35.304688 10.226562 69.507812 29.574219 98.890625l150.425781 232.109375 150.425781-232.109375c19.347657-29.382813 29.574219-63.585937 29.574219-98.890625 0-99.257812-80.742188-181-180-181zm0 271c-49.628906 0-90-40.371094-90-90s40.371094-91 90-91 90 41.371094 90 91-40.371094 90-90 90zm0 0" />
	</symbol>

	<symbol id="basket" viewBox="0 0 24 24">
		<path
			d="M22.713,4.077A2.993,2.993,0,0,0,20.41,3H4.242L4.2,2.649A3,3,0,0,0,1.222,0H1A1,1,0,0,0,1,2h.222a1,1,0,0,1,.993.883l1.376,11.7A5,5,0,0,0,8.557,19H19a1,1,0,0,0,0-2H8.557a3,3,0,0,1-2.82-2h11.92a5,5,0,0,0,4.921-4.113l.785-4.354A2.994,2.994,0,0,0,22.713,4.077ZM21.4,6.178l-.786,4.354A3,3,0,0,1,17.657,13H5.419L4.478,5H20.41A1,1,0,0,1,21.4,6.178Z" />
		<circle cx="7" cy="22" r="2" />
		<circle cx="17" cy="22" r="2" />
	</symbol>

	<symbol id="heart" viewBox="0 0 24 24">
		<g id="_01_align_center" data-name="01 align center">
			<path
				d="M17.5.917a6.4,6.4,0,0,0-5.5,3.3A6.4,6.4,0,0,0,6.5.917,6.8,6.8,0,0,0,0,7.967c0,6.775,10.956,14.6,11.422,14.932l.578.409.578-.409C13.044,22.569,24,14.742,24,7.967A6.8,6.8,0,0,0,17.5.917ZM12,20.846c-3.253-2.43-10-8.4-10-12.879a4.8,4.8,0,0,1,4.5-5.05A4.8,4.8,0,0,1,11,7.967h2a4.8,4.8,0,0,1,4.5-5.05A4.8,4.8,0,0,1,22,7.967C22,12.448,15.253,18.416,12,20.846Z" />
		</g>
	</symbol>

	<symbol id="heart-1" viewBox="0 0 512 456">
		<path fill-rule="evenodd" clip-rule="evenodd"
			d="M121 1.2925C92.151 6.4515 70.829 16.7035 49.781 35.5355C18.051 63.9255 0 106.64 0 153.337C0 209.259 24.768 256.26 85.644 315.86C105.917 335.709 124.591 352.299 187.5 406.347C243.367 454.345 244.609 455.231 256 455.231C267.391 455.231 268.633 454.345 324.5 406.347C386.805 352.817 405.987 335.79 425.873 316.358C487.022 256.607 512 209.329 512 153.337C512 106.64 493.949 63.9255 462.219 35.5355C433.925 10.2205 401.493 -1.3915 363.336 0.132497C342.508 0.964497 328.158 4.6815 309.919 13.9695C292.853 22.6605 273.114 39.0755 261.5 54.2365C258.75 57.8265 256.275 60.7635 256 60.7635C255.725 60.7635 253.25 57.8265 250.5 54.2365C247.75 50.6465 241.608 43.9415 236.85 39.3365C217.177 20.2915 197.332 9.1515 171.596 2.7045C161.111 0.0784976 132.286 -0.726503 121 1.2925Z" />
	</symbol>


	<symbol id="balance" viewBox="0 0 24 24">
		<path
			d="M23.938,10.654l-3.071-8.335c-.423-1.151-1.634-1.781-2.824-1.465l-5.043,1.345V1c0-.552-.448-1-1-1s-1,.448-1,1v1.732l-5.254,1.401c-1.255,.335-2.273,1.263-2.723,2.482L.062,14.654c-.041,.111-.062,.647-.062,.647,0,2.506,2,4.698,4.503,4.698,1.158,0,2.249-.434,3.094-1.236,.891-.846,1.402-2.036,1.402-3.264,0,0-.021-.732-.06-.842L5.87,6.216c.124-.063,.255-.114,.392-.15l4.738-1.264V22H5c-.552,0-1,.448-1,1s.448,1,1,1h14c.552,0,1-.448,1-1s-.448-1-1-1h-6V4.268l4.896-1.306-2.834,7.691c-.041,.111-.062,.647-.062,.647,0,2.506,1.871,4.567,4.26,4.692,1.249,.066,2.434-.371,3.338-1.229,.891-.846,1.402-2.036,1.402-3.264,0,0-.021-.735-.062-.846ZM4.364,17.997c-1.081-.057-1.986-.902-2.266-1.997H6.95c-.1,.499-.35,.954-.729,1.313-.502,.478-1.165,.725-1.856,.683Zm2.208-3.997H2.434l2.083-5.653,2.056,5.653ZM19.5,4.393l2.066,5.607h-4.132l2.066-5.607Zm-.136,9.604c-1.081-.057-1.986-.902-2.266-1.997h4.851c-.1,.499-.35,.954-.729,1.313-.502,.478-1.165,.719-1.856,.683Z" />
	</symbol>

	<symbol id="prev" viewBox="0 0 270 512">
		<path d="M269.8,466.8L66.9,263.6c-4.2-4.2-4.2-10.9,0-15.1L270,45.2L224.9,0L21.8,203.3c-29.1,29.2-29.1,76.4,0,105.6L224.6,512
	L269.8,466.8z" />
	</symbol>

	<symbol id="next" viewBox="0 0 270 512">
		<path d="M45.4,512l202.8-203.1c29.1-29.2,29.1-76.4,0-105.6L45.1,0L0,45.2l203.1,203.3c4.2,4.2,4.2,10.9,0,15.1L0.2,466.8L45.4,512z
	" />
	</symbol>

	<symbol id="user" viewBox="0 0 24 24">
		<path d="M12,12A6,6,0,1,0,6,6,6.006,6.006,0,0,0,12,12ZM12,2A4,4,0,1,1,8,6,4,4,0,0,1,12,2Z" />
		<path d="M12,14a9.01,9.01,0,0,0-9,9,1,1,0,0,0,2,0,7,7,0,0,1,14,0,1,1,0,0,0,2,0A9.01,9.01,0,0,0,12,14Z" />
	</symbol>

	<symbol id="arrow-right" viewBox="0 0 24 24">
		<path
			d="M23.124,9.879,18.538,5.293,17.124,6.707l4.262,4.263L0,11l0,2,21.446-.03-4.323,4.323,1.414,1.414,4.587-4.586A3.007,3.007,0,0,0,23.124,9.879Z" />
	</symbol>

	<symbol id="delete" viewBox="0 0 22 24">
		<path d="M16,4V2.5C16,1.1,14.9,0,13.5,0h-5C7.1,0,6,1.1,6,2.5V4H0v1h1.6l1.8,16.8C3.5,23,4.6,24,5.8,24h10.3c1.3,0,2.3-1,2.5-2.2
	L20.4,5H22V4H16z M7,2.5C7,1.7,7.7,1,8.5,1h5C14.3,1,15,1.7,15,2.5V4H7V2.5z M17.6,21.7c-0.1,0.8-0.7,1.3-1.5,1.3H5.8
	c-0.8,0-1.4-0.6-1.5-1.3L2.6,5h16.9L17.6,21.7z" />
	</symbol>

	<symbol id="tab-list" viewBox="0 0 513 386">
		<path fill-rule="evenodd" clip-rule="evenodd"
			d="M26.4434 0.542403C15.9604 3.2434 5.83139 12.3194 2.04339 22.4054C-4.06761 38.6794 3.98939 57.9774 20.0604 65.5584C27.5164 69.0744 41.0664 69.2674 48.2774 65.9584C55.3364 62.7194 62.3394 55.6334 65.6434 48.3864C69.6034 39.7034 69.7024 28.7364 65.8974 20.5324C60.2604 8.3814 49.1264 0.676404 36.3194 0.0624037C32.6024 -0.115596 28.1574 0.100403 26.4434 0.542403ZM133.504 9.0264C125.1 12.9394 118.06 23.4814 118.06 32.1524C118.06 40.7524 125.505 52.1024 133.56 55.7814C137.386 57.5284 145.3 57.6094 315.06 57.6204L492.56 57.6324L497.601 55.2854C503.305 52.6294 507.465 48.2034 510.34 41.7324C514.485 32.4034 510.878 18.4294 502.719 12.2064C494.98 6.3034 506.794 6.65141 314.684 6.66241L138.56 6.6724L133.504 9.0264ZM28.7104 158.716C17.7664 160.518 8.12939 167.886 2.92039 178.436C0.976387 182.373 0.591387 184.722 0.591387 192.652C0.591387 204.134 2.70939 209.364 10.5524 217.248C27.0724 233.854 55.2674 228.522 65.7274 206.813C69.1704 199.666 69.6364 187.781 66.7504 180.732C60.2984 164.975 44.8844 156.055 28.7104 158.716ZM137.425 167.741C135.7 168.241 132.138 170.113 129.509 171.901C114.951 181.801 114.929 203.487 129.467 213.375C132.073 215.148 135.86 217.058 137.883 217.619C140.32 218.296 200.081 218.643 315.128 218.646C512.313 218.653 495.744 219.382 504.581 210.308C509.97 204.774 512.06 199.841 512.06 192.652C512.06 185.463 509.97 180.53 504.581 174.996C495.738 165.916 512.4 166.64 314.628 166.742C213.512 166.795 139.246 167.213 137.425 167.741ZM24.5604 317.992C9.94439 322.83 0.983387 334.5 0.249387 349.652C-0.230613 359.543 2.36239 366.633 9.19039 374.104C16.4704 382.069 23.1984 385.045 34.0604 385.105C41.2154 385.145 43.4494 384.735 48.1804 382.517C56.0854 378.81 61.5074 373.522 65.3004 365.815C68.1764 359.975 68.5564 358.248 68.5234 351.173C68.4924 344.538 67.9944 342.074 65.6434 336.918C62.3194 329.627 55.2744 322.525 48.2774 319.412C42.4454 316.817 30.3054 316.09 24.5604 317.992ZM133.56 329.523C125.505 333.202 118.06 344.552 118.06 353.152C118.06 361.823 125.1 372.365 133.504 376.278L138.56 378.632L314.684 378.642C506.794 378.653 494.98 379.001 502.719 373.098C510.878 366.875 514.485 352.901 510.34 343.572C507.465 337.101 503.305 332.675 497.601 330.019L492.56 327.672L315.06 327.684C145.3 327.695 137.386 327.776 133.56 329.523Z" />
	</symbol>

	<symbol id="tab-block" viewBox="0 0 325 325">
		<path fill-rule="evenodd" clip-rule="evenodd"
			d="M45.3476 1.34985C24.2956 6.44785 5.53455 25.7278 1.22055 46.6998C-6.27345 83.1308 21.7096 117.891 58.6136 117.992C69.0186 118.02 75.0006 116.801 83.6306 112.895C99.8116 105.571 112.097 90.9738 116.733 73.5618C119.043 64.8858 118.543 50.3078 115.617 41.0448C109.604 22.0118 93.1516 6.58885 73.4006 1.47085C66.2206 -0.390149 52.7726 -0.447151 45.3476 1.34985ZM249.631 1.79385C229.827 7.57285 214.063 22.9728 208.211 42.2558C205.733 50.4218 205.403 65.5778 207.529 73.5618C212.165 90.9738 224.45 105.571 240.631 112.895C249.261 116.801 255.243 118.02 265.648 117.992C297.751 117.904 324.05 91.4598 324.116 59.1998C324.137 49.2388 322.619 42.7999 317.94 33.0019C310.486 17.3909 294.041 4.42785 277.332 0.990848C269.574 -0.605152 256.559 -0.227151 249.631 1.79385ZM53.1306 205.973C38.8146 207.233 25.9826 213.787 15.5696 225.159C-5.89644 248.601 -5.02444 283.843 17.5826 306.449C29.1346 318.002 43.3356 323.919 59.4296 323.886C85.0516 323.834 108.033 306.821 115.768 282.18C118.068 274.853 118.302 272.732 117.918 262.68C117.274 245.822 112.414 234.418 101.014 223.018C88.2056 210.21 71.7106 204.338 53.1306 205.973ZM258.131 206.044C236.303 208.236 216.843 223.833 208.941 245.469C207.36 249.798 206.658 254.448 206.344 262.68C205.96 272.732 206.194 274.853 208.494 282.18C217.592 311.162 247.666 328.913 277.332 322.811C294.041 319.374 310.486 306.411 317.94 290.8C322.619 281.002 324.137 274.563 324.116 264.602C324.086 249.661 318.449 235.59 308.035 224.458C294.93 210.449 277.675 204.082 258.131 206.044Z" />
	</symbol>

	<symbol id="clear" viewBox="0 0 449 481">
		<path fill-rule="evenodd" clip-rule="evenodd"
			d="M148.093 2.16177C140.614 5.03277 133.048 12.6988 130.212 20.2788C128.285 25.4288 128.058 28.0318 128.058 44.9978V63.9598H69.706H11.354L7.98 66.2338C-2.66 73.4038 -2.66 86.5158 7.98 93.6858C11.185 95.8458 12.273 95.9598 29.706 95.9598H48.058L48.073 263.21C48.089 448.747 47.657 436.695 54.78 450.251C61.876 463.754 76.293 474.918 91.161 478.423C100.789 480.692 347.327 480.692 356.955 478.423C371.823 474.918 386.24 463.754 393.336 450.251C400.459 436.695 400.027 448.747 400.043 263.21L400.058 95.9598H418.41C435.843 95.9598 436.931 95.8458 440.136 93.6858C450.776 86.5158 450.776 73.4038 440.136 66.2338L436.762 63.9598H378.41H320.058V44.9978C320.058 28.0318 319.831 25.4288 317.904 20.2788C314.998 12.5108 307.507 5.01977 299.739 2.11377C294.041 -0.0182302 293.27 -0.0392294 223.77 0.0117706C154.931 0.0627706 153.451 0.10477 148.093 2.16177ZM288.058 47.9598V63.9598H224.058H160.058V47.9598V31.9598H224.058H288.058V47.9598ZM368.058 260.778C368.058 446.145 368.628 432.443 360.584 440.486C352.643 448.427 361.178 447.96 224.058 447.96C86.938 447.96 95.473 448.427 87.532 440.486C79.488 432.443 80.058 446.145 80.058 260.778V95.9598H224.058H368.058V260.778ZM163.058 162.058C161.133 163.186 158.658 165.313 157.558 166.785C155.588 169.419 155.558 171.018 155.558 271.96C155.558 372.899 155.588 374.501 157.558 377.142C162.547 383.834 172.761 386.003 179.068 381.71C180.886 380.472 183.315 378.19 184.466 376.637C186.556 373.815 186.558 373.739 186.558 271.96C186.558 170.181 186.556 170.105 184.466 167.283C179.087 160.024 170.22 157.859 163.058 162.058ZM269.048 162.21C267.23 163.448 264.801 165.73 263.65 167.283C261.56 170.105 261.558 170.181 261.558 271.96C261.558 373.739 261.56 373.815 263.65 376.637C264.801 378.19 267.23 380.472 269.048 381.71C275.887 386.365 286.685 383.527 290.94 375.956L293.058 372.188V271.96V171.732L290.94 167.964C286.685 160.393 275.887 157.555 269.048 162.21Z" />
	</symbol>

	<symbol id="boy" viewBox="0 0 456 510">
		<path fill-rule="evenodd" clip-rule="evenodd"
			d="M142.424 1.69642C127.279 4.54342 110.633 17.2184 103.538 31.3064C96.7811 44.7244 96.8231 44.1684 97.1401 116.837C97.4241 181.97 97.4261 182.038 99.6881 187.533C100.934 190.558 103.532 195.179 105.462 197.803C109.63 203.466 119.572 211.048 124.942 212.657C128.585 213.748 128.808 214.056 129.466 218.919C130.614 227.403 134.741 240.286 139.141 249.121C144.329 259.54 150.68 268.061 159.824 276.877L166.924 283.721V292.088V300.456L163.174 301.451C161.112 301.999 135.996 308.061 107.361 314.923C78.7261 321.785 53.3481 328.18 50.9661 329.133C27.4531 338.541 9.55407 359.482 2.75907 385.533C0.624074 393.717 0.528074 396.083 0.179074 449.08C-0.181926 503.971 -0.176926 504.134 1.94307 506.83L4.06908 509.533H227.924H451.779L453.911 506.822C456.04 504.115 456.043 504.012 455.687 448.572C455.341 394.859 455.256 392.77 453.111 385.033C445.939 359.173 428.806 338.846 406.562 329.808C403.248 328.461 376.436 321.56 346.98 314.473C317.524 307.385 292.412 301.341 291.174 301.041C289.062 300.528 288.924 299.978 288.924 292.073V283.652L294.046 279.343C301.922 272.716 311.474 260.081 316.96 249.033C321.568 239.753 326.924 222.533 326.924 216.999C326.924 215.174 328.218 214.116 333.433 211.676C341.272 208.007 349.587 200.406 353.376 193.444C358.769 183.535 358.899 182.033 358.912 129.595L358.924 81.1574L363.287 75.5954C370.995 65.7694 377.975 54.3584 384.427 41.0334C392.706 23.9374 398.127 9.19042 397.318 5.96542C395.874 0.214419 403.267 0.523419 269.951 0.645419C198.244 0.710419 145.35 1.14642 142.424 1.69642ZM379.445 18.2704C379.06 20.3264 377.203 25.8304 375.319 30.5024C364.025 58.5114 338.125 87.0324 312.706 99.4514C283.557 113.692 246.912 114.049 205.918 100.491C185.934 93.8814 158.585 80.6904 142.437 69.8744C136.34 65.7894 132.812 65.5894 129.997 69.1684C128.005 71.7004 127.924 72.9684 127.924 101.668C127.924 126.085 127.678 131.533 126.573 131.533C124.647 131.533 115.847 136.314 113.127 138.839L110.83 140.97L111.127 94.5024C111.421 48.5384 111.449 47.9714 113.747 42.2814C119.563 27.8754 132.684 17.6104 147.924 15.5424C150.949 15.1314 204.437 14.7364 266.785 14.6644L380.147 14.5334L379.445 18.2704ZM170.79 101.581C218.792 124.527 265.668 130.55 302.176 118.462C307.263 116.778 311.987 115.168 312.674 114.883C314.267 114.225 314.447 200.323 312.882 213.987C310.314 236.406 298.696 257.795 281.778 271.248C237.368 306.564 173.775 291.665 150.017 240.377C142.26 223.63 142.552 226.899 142.171 152.717L141.831 86.4004L151.127 91.5134C156.241 94.3254 165.089 98.8564 170.79 101.581ZM344.924 116.631V139.729L341.674 137.56C339.886 136.368 336.061 134.304 333.174 132.975L327.924 130.558V118.637V106.717L335.674 100.19C339.936 96.6004 343.761 93.6334 344.174 93.5984C344.587 93.5624 344.924 103.927 344.924 116.631ZM337.96 153.338C346.708 163.215 347.262 178.201 339.303 189.703C337 193.03 330.343 198.533 328.62 198.533C328.237 198.533 327.924 186.583 327.924 171.976V145.42L331.035 147.226C332.746 148.22 335.862 150.97 337.96 153.338ZM127.924 172.533C127.924 186.833 127.586 198.52 127.174 198.505C125.66 198.449 118.652 192.554 116.28 189.341C110.099 180.97 109.414 167.658 114.682 158.279C117.348 153.533 124.689 146.533 127.002 146.533C127.541 146.533 127.924 157.327 127.924 172.533ZM186.379 169.988C183.076 173.29 183.24 177.003 186.847 180.61C190.298 184.06 193.638 184.332 197.289 181.46C200.651 178.816 200.982 172.591 197.924 169.533C195.05 166.659 189.488 166.878 186.379 169.988ZM257.924 169.533C254.866 172.591 255.197 178.816 258.559 181.46C262.21 184.332 265.55 184.06 269.001 180.61C272.608 177.003 272.772 173.29 269.469 169.988C266.36 166.878 260.798 166.659 257.924 169.533ZM209.639 234.542C207.645 236.111 206.924 237.573 206.924 240.049C206.924 245.914 208.954 246.533 228.192 246.533C244.892 246.533 245.034 246.514 247.565 243.983C249.55 241.998 249.969 240.833 249.454 238.733C248.13 233.331 247.207 233.058 229.106 232.72C213.262 232.424 212.207 232.522 209.639 234.542ZM203.924 301.625C211.195 303.644 214.665 303.983 227.924 303.967C247.32 303.943 250.561 303.225 273.674 293.827C274.633 293.438 274.924 296.1 274.924 305.245C274.924 323.335 271.168 333.588 260.838 343.696C242.45 361.689 213.398 361.689 195.01 343.696C184.615 333.525 180.924 323.363 180.924 304.917V292.663L188.174 295.964C192.162 297.78 199.249 300.327 203.924 301.625ZM166.924 317.981C166.924 323.318 172.104 336.634 177.064 344.051C189.029 361.94 210.448 372.677 231.149 371.164C250.849 369.724 268.812 358.98 279.305 342.361C283.137 336.291 287.924 323.358 287.924 319.075C287.924 317.643 288.54 316.234 289.294 315.945C290.047 315.656 300.059 317.694 311.544 320.474C323.028 323.254 345.699 328.714 361.924 332.607C378.149 336.5 394.395 340.708 398.026 341.958C412.553 346.957 425.947 359.415 433.308 374.773C440.928 390.671 440.924 390.637 440.924 446.847V496.533H403.46H365.996L365.71 460.444L365.424 424.355L363.063 422.444C360.766 420.584 357.145 420.533 227.924 420.533C98.7031 420.533 95.0821 420.584 92.7851 422.444L90.4241 424.355L90.1381 460.444L89.8521 496.533H51.8881H13.9241V448.491C13.9241 408.621 14.1931 399.138 15.5041 392.741C19.8171 371.706 32.6811 353.977 50.1131 345.046C56.2591 341.897 65.7871 339.266 109.924 328.53C138.799 321.507 163.436 315.709 164.674 315.647C166.426 315.558 166.924 316.075 166.924 317.981ZM351.688 465.283L351.424 496.033H227.924H104.424L104.16 465.283L103.895 434.533H227.924H351.953L351.688 465.283Z" />
	</symbol>

	<symbol id="girl" viewBox="0 0 419 510">
		<path fill-rule="evenodd" clip-rule="evenodd"
			d="M197.408 0.50208C145.133 6.41708 103.383 45.3941 94.6181 96.4631C93.2451 104.46 93.0001 115.357 93.0001 168.33V230.77L90.7501 230.067C89.5131 229.679 83.4811 229.122 77.3481 228.828C63.1651 228.147 54.2481 230.015 41.6881 236.296C34.2421 240.019 30.8641 242.525 23.8701 249.512C16.6211 256.755 14.5111 259.647 10.6801 267.586C-0.432882 290.62 0.745119 315.908 13.8791 336.228L17.6911 342.127L13.9841 346.305C11.9441 348.603 8.65212 353.574 6.66612 357.352C-0.112882 370.254 0.000117618 368.841 0.000117618 440.675V505.392L2.63512 507.464L5.27012 509.537H208.588C357.567 509.537 412.569 509.235 414.385 508.407C415.749 507.786 417.367 506.065 417.981 504.583C418.773 502.67 419.01 483.362 418.798 437.963L418.5 374.037L416.175 367.537C413.294 359.483 409.907 353.447 404.82 347.297L400.898 342.558L404.891 335.797C407.088 332.079 410.121 325.437 411.633 321.037C414.097 313.863 414.382 311.644 414.388 299.537C414.395 287.647 414.086 285.11 411.795 278.259C408.151 267.359 401.839 257.266 393.536 249.058C385.061 240.681 378.057 236.365 366.261 232.251C358.642 229.593 356.067 229.185 346.5 229.116C340.45 229.073 333.137 229.417 330.25 229.881L325 230.725V168.262C325 99.8181 324.785 96.6461 318.98 79.3191C307.479 44.9891 280.185 17.6891 245.571 5.89508C231.768 1.19208 211.434 -1.08492 197.408 0.50208ZM224 15.0221C246.915 18.5751 265.528 28.1621 281.616 44.6961C294.632 58.0741 302.425 71.5421 307.736 89.8371L310.407 99.0371L310.954 171.368C311.483 241.481 311.56 243.743 313.441 245.118C316.078 247.045 318.974 246.904 326.111 244.5C345.573 237.943 368.679 243.35 383.46 257.92C401.827 276.025 405.955 301.441 394.306 324.711C391.845 329.626 389.532 333.49 389.166 333.297C378.308 327.588 372.822 325.923 336.942 317.446C315.799 312.451 296.123 307.296 293.219 305.991C290.314 304.687 285.234 301.04 281.929 297.888C271.709 288.14 268.023 277.42 268.008 257.401C268 247.799 268.014 247.744 272.05 241.699C276.738 234.68 280.337 226.278 282.737 216.751C284.202 210.937 284.433 203.828 284.464 163.708C284.499 118.98 284.433 117.33 282.559 115.958C279.598 113.791 275.062 114.252 271.328 117.101C263.206 123.295 251.087 126.225 241.168 124.391C231.991 122.694 224.979 118.476 217.366 110.07C209.768 101.681 207.289 100.794 203.674 105.168C193.026 118.049 186.196 122.656 175.096 124.444C165.104 126.053 155.822 123.84 145.925 117.489C140.628 114.09 136.068 113.7 133.593 116.435C132.009 118.184 131.904 122.024 132.242 165.685C132.561 206.825 132.836 213.824 134.336 219.037C136.468 226.445 142.271 238.893 145.668 243.347C148.179 246.638 148.203 246.847 147.842 262.356C147.491 277.442 147.36 278.284 144.391 284.537C142.694 288.112 139.187 293.381 136.597 296.246C128.686 304.998 123.208 307.07 80.3741 317.508C52.9711 324.187 40.5651 327.669 35.5001 330.104L28.5001 333.468L26.6451 331.262C17.5621 320.46 13.9961 298.076 18.8831 282.537C24.5311 264.577 38.9671 250.142 57.0001 244.422C67.0001 241.251 81.1031 241.473 91.5291 244.966C100.519 247.978 104.511 247.507 105.465 243.322C105.752 242.065 106.119 209.537 106.281 171.037L106.576 101.037L109.219 91.3311C114.384 72.3651 122.975 57.4031 136.421 43.9581C159.946 20.4331 191.552 9.99008 224 15.0221ZM214.817 127.19C229.048 138.841 249.236 142.62 265.079 136.598C268.061 135.465 270.613 134.538 270.75 134.538C270.887 134.537 271 151.542 271 172.327C271 213.714 270.722 216.267 264.94 228.002C254.366 249.466 233.222 262.507 209 262.507C182.569 262.507 160.998 247.61 150.401 222.037L147.5 215.037L147.198 174.787C147.031 152.65 147.031 134.537 147.198 134.538C147.364 134.538 149.939 135.465 152.921 136.598C168.748 142.614 189.202 138.793 203 127.244C206.025 124.712 208.643 122.617 208.817 122.588C208.992 122.56 211.692 124.631 214.817 127.19ZM173.455 167.992C168.494 172.952 172.009 181.537 179 181.537C180.948 181.537 182.998 180.63 184.545 179.082C186.093 177.535 187 175.485 187 173.537C187 171.589 186.093 169.539 184.545 167.992C182.998 166.444 180.948 165.537 179 165.537C177.052 165.537 175.002 166.444 173.455 167.992ZM233.455 167.992C228.494 172.952 232.009 181.537 239 181.537C243.111 181.537 247 177.648 247 173.537C247 169.426 243.111 165.537 239 165.537C237.052 165.537 235.002 166.444 233.455 167.992ZM191 221.537C188.667 223.87 188.395 228.326 190.417 231.096C191.704 232.858 193.363 233.066 208.396 233.354C224.955 233.671 224.957 233.671 227.478 231.149C230.658 227.97 230.678 225.125 227.545 221.992C225.143 219.589 224.748 219.537 209.045 219.537C194.333 219.537 192.834 219.703 191 221.537ZM176.703 269.124C188.181 274.59 194.832 276.006 209 276.001C219.262 275.997 222.836 275.58 228.965 273.672C236.597 271.297 246.41 266.758 251.154 263.41C252.614 262.38 254.077 261.537 254.404 261.537C254.732 261.537 255.005 264.799 255.012 268.787C255.026 277.46 256.808 284.658 261.127 293.492C265.473 302.379 277.145 313.969 286 318.189C292.968 321.511 294.188 321.838 339 332.406C355.225 336.232 370.914 340.316 373.864 341.48C385.113 345.921 395.093 355.291 400.315 366.314L403.5 373.037L403.779 434.287L404.059 495.537H371.01H337.962L338.46 493.287C345.481 461.581 350.337 445.43 356.973 431.713C361.921 421.485 362.039 418.913 357.75 414.855C343.294 401.18 320.873 391.153 298.679 388.437C269.504 384.867 236.913 395.447 215.833 415.333L209 421.779L202.103 415.273C189.605 403.483 173.493 395.092 154.207 390.329C141.854 387.278 120.146 387.278 107.793 390.329C89.9081 394.746 73.9461 402.71 62.2501 413.05C55.8571 418.702 55.7311 420.059 60.6381 430.383C65.5451 440.71 73.2111 464.361 76.4061 479.037C77.8431 485.637 79.2491 492.049 79.5291 493.287L80.0381 495.537H46.5191H13.0001V438.086C13.0001 399.639 13.3691 378.883 14.1161 375.336C16.7621 362.773 26.6021 350.061 38.5001 343.836C45.2281 340.317 47.9131 339.583 92.6441 329.04C114.575 323.872 126.436 320.585 130.713 318.49C150.404 308.849 162.947 288.137 162.992 265.189L163 261.341L166.25 263.517C168.037 264.714 172.742 267.237 176.703 269.124ZM149.792 403.117C167.329 406.712 182.181 414.905 197.182 429.26C203.331 435.144 207.671 438.537 209.05 438.537C210.434 438.537 213.818 435.876 218.362 431.216C237.289 411.802 256.785 402.841 282.378 401.791C296.554 401.209 304.988 402.292 316.331 406.149C324.391 408.891 336.666 415.313 342.153 419.658L345.968 422.68L344.106 426.358C338.643 437.151 330.045 464.713 326.58 482.537C325.671 487.212 324.71 492.051 324.443 493.291L323.96 495.545L208.801 495.291L93.6431 495.037L90.8591 481.537C87.3881 464.711 82.2251 447.319 76.4851 433.121C71.4331 420.622 70.8071 422.496 82.5001 415.093C90.9161 409.764 101.986 405.222 111.5 403.193C120.97 401.173 140.126 401.135 149.792 403.117Z" />
	</symbol>

	<symbol id="unisex" viewBox="0 0 495 510">
		<path fill-rule="evenodd" clip-rule="evenodd"
			d="M234.711 0.562795C180.028 5.5958 131.266 46.3258 112.498 102.644C105.798 122.749 104.494 131.418 104.468 156.037C104.449 175.057 104.75 179.484 106.691 188.72C113.411 220.696 126.847 246.661 148.561 269.638C161.372 283.194 165.1 289.976 165.054 299.643C165.02 306.687 161.84 314.391 157.205 318.663C154.543 321.116 152.709 321.438 115.421 325.991C68.6793 331.698 64.2783 332.47 53.5323 336.851C33.3233 345.09 17.4043 360.424 8.01431 380.693C0.478308 396.962 0.578307 396.039 0.171307 453.106C-0.182693 502.701 -0.136693 504.244 1.77531 506.606L3.74431 509.037H247.421H491.098L493.067 506.606C494.979 504.244 495.025 502.697 494.677 453.106C494.33 403.732 494.244 401.794 492.095 394.711C486.16 375.155 475.325 359.056 460.62 347.947C452.652 341.927 438.974 335.253 430.259 333.131C426.498 332.215 404.376 329.086 381.099 326.178L338.777 320.889L336.42 317.963C331.539 311.904 329.453 306.385 329.457 299.537C329.463 289.711 332.628 283.903 345.222 270.606C371.117 243.269 385.522 212.114 389.876 174.037C393.272 144.329 387.67 111.588 374.491 84.1308C359.811 53.5428 333.668 26.9968 304.529 13.0868C283.146 2.8798 258.184 -1.5982 234.711 0.562795ZM269.921 16.0008C293.422 20.9418 313.306 31.4788 331.183 48.4618C360.465 76.2828 376.064 113.845 376.064 156.537C376.064 198.409 362.19 232.402 332.347 263.647C325.485 270.831 322.191 275.235 319.295 281.095C315.53 288.713 315.422 289.229 315.441 299.485C315.459 308.716 315.785 310.726 318.042 315.537C319.462 318.562 322.438 323.32 324.656 326.111L328.689 331.184L287.651 395.364C252.281 450.679 246.45 459.301 245.429 457.79C244.777 456.826 226.321 427.97 204.414 393.665C177.184 351.024 164.875 330.914 165.503 330.091C174.947 317.723 178.355 309.302 178.273 298.537C178.174 285.738 172.656 275.266 158.248 260.537C136.657 238.466 123.079 210.491 118.334 178.302C116.176 163.667 116.871 139.381 119.845 125.46C132.66 65.4808 176.311 22.2858 231.921 14.5538C240.786 13.3208 260.8 14.0828 269.921 16.0008ZM228.921 107.633C211.71 109.554 192.323 115.325 176.421 123.26C165.267 128.826 151.285 137.988 149.848 140.673C149.113 142.046 148.901 154.481 149.18 179.861C149.64 221.797 150.194 225.788 157.814 242.049C167.951 263.681 183.254 279.289 204.421 289.585C220.243 297.281 228.302 299.035 247.421 298.941C266.274 298.849 273.837 297.214 288.871 289.978C315.387 277.216 334.678 253.81 342.069 225.43C344.082 217.701 344.287 214.095 344.662 179.861C344.941 154.481 344.729 142.046 343.994 140.673C342.557 137.988 328.575 128.826 317.421 123.26C290.431 109.792 259.12 104.263 228.921 107.633ZM268.604 122.087C287.987 124.965 304.559 130.906 321.671 141.112L330.921 146.629V179.018C330.921 214.589 330.366 219.599 324.914 233.214C315.863 255.817 296.587 273.828 272.921 281.794C263.774 284.873 262.807 284.993 246.921 285.013C230.831 285.033 230.185 284.951 220.921 281.743C191.484 271.549 170.66 248.197 164.379 218.337C163.275 213.091 162.921 203.58 162.921 179.206V147.005L167.727 143.859C197.046 124.665 233.288 116.843 268.604 122.087ZM207.557 169.173C199.508 177.223 211.315 189.016 219.671 181.273C221.258 179.803 221.921 178.047 221.921 175.317C221.921 167.31 213.166 163.565 207.557 169.173ZM274.376 168.992C271.084 172.283 270.984 178.32 274.171 181.273C279.832 186.519 288.921 182.788 288.921 175.219C288.921 167.675 279.658 163.709 274.376 168.992ZM221.478 241.76C219.354 244.791 219.523 248.139 221.921 250.537C223.805 252.421 225.254 252.537 246.921 252.537C268.588 252.537 270.037 252.421 271.921 250.537C274.319 248.139 274.488 244.791 272.364 241.76C270.83 239.568 270.471 239.537 246.921 239.537C223.371 239.537 223.012 239.568 221.478 241.76ZM195.928 405.091C220.399 443.345 241.226 475.52 242.21 476.591C244.51 479.093 249.331 479.093 251.632 476.592C252.616 475.522 273.221 443.721 297.421 405.924C321.621 368.126 341.694 336.791 342.028 336.291C342.953 334.905 422.014 344.992 430.421 347.569C448.779 353.195 464.32 366.519 472.957 384.037C480.32 398.972 480.286 398.677 480.679 449.787L481.032 495.537H246.913H12.7953L13.1453 449.287C13.4873 404.125 13.5503 402.872 15.8073 396.037C23.8833 371.579 41.8403 353.773 65.2243 347.036C70.0463 345.647 140.793 336.025 148.928 335.652C151.187 335.548 155.844 342.428 195.928 405.091Z" />
	</symbol>

	<symbol id="quarz" viewBox="0 0 342 512">
		<path fill-rule="evenodd" clip-rule="evenodd"
			d="M162.5 1.45203C158.442 2.94003 161.718 0.421028 79.7562 65.082C39.7472 96.646 6.05624 123.814 4.88724 125.456C-0.116761 132.483 0.000238422 129.36 0.000238422 256.297C0.000238422 383.264 -0.117758 380.109 4.89624 387.15C7.32024 390.555 153.999 506.723 159.755 509.797C162.544 511.286 165.415 511.797 171 511.797C176.585 511.797 179.456 511.286 182.245 509.797C188.001 506.723 334.68 390.555 337.104 387.15C342.118 380.109 342 383.264 342 256.297C342 129.33 342.118 132.485 337.104 125.444C334.659 122.01 187.936 5.82603 182.245 2.81703C177.885 0.512026 167.095 -0.233974 162.5 1.45203ZM205.751 76.825L240.002 128.297H171H101.998L136.249 76.825C155.087 48.516 170.725 25.354 171 25.354C171.275 25.354 186.913 48.516 205.751 76.825ZM110 84.797L80.9892 128.297H54.7942C33.8422 128.297 28.8492 128.047 29.8442 127.047C32.2102 124.67 137.503 41.471 138.256 41.384C138.671 41.336 125.956 60.872 110 84.797ZM311.385 126.054L314.27 128.297H287.798H261.327L232.663 85.299C216.898 61.65 204 42.09 204 41.832C204 41.574 227.512 59.914 256.25 82.587C284.988 105.261 309.798 124.821 311.385 126.054ZM77.0002 256.297V367.297H47.5002H18.0002V256.297V145.297H47.5002H77.0002V256.297ZM247.5 256.297V366.797H171H94.5002L94.2422 257.297C94.1012 197.072 94.2002 147.232 94.4632 146.541C94.8432 145.544 110.727 145.338 171.221 145.541L247.5 145.797V256.297ZM324 256.297V367.297H294.5H265V256.297V145.297H294.5H324V256.297ZM122.812 173.028C116.823 178.93 111.666 184.78 111.353 186.028C109.934 191.679 114.169 196.682 120.226 196.51C122.802 196.436 125.207 194.563 134.082 185.715C139.989 179.826 145.017 173.986 145.256 172.737C145.836 169.704 143.646 164.713 141.147 163.376C136.257 160.759 134.12 161.884 122.812 173.028ZM175.5 163.444C172.383 165.137 114.045 223.463 112.434 226.497C110.289 230.537 110.68 233.131 113.923 236.374C115.976 238.427 117.831 239.297 120.156 239.297C123.167 239.297 126.375 236.387 155.733 207.03C186.282 176.48 188 174.569 188 171.119C188 164.849 180.918 160.501 175.5 163.444ZM110 427.797C125.956 451.722 138.8 471.297 138.541 471.297C137.963 471.297 33.2792 388.802 30.5282 386.178C28.5952 384.334 29.0772 384.297 54.7722 384.297H80.9892L110 427.797ZM205.751 435.769C186.913 464.078 171.275 487.24 171 487.24C170.725 487.24 155.087 464.078 136.249 435.769L101.998 384.297H171H240.002L205.751 435.769ZM311.472 386.178C308.563 388.952 204 471.313 204 470.83C204 470.604 216.812 451.041 232.471 427.358L260.943 384.297H287.194C312.922 384.297 313.405 384.334 311.472 386.178Z" />
	</symbol>

	<symbol id="cog-wheel" viewBox="0 0 466 461">
		<path fill-rule="evenodd" clip-rule="evenodd"
			d="M209.678 1.36767C206.628 1.73567 202.934 2.82267 201.467 3.78367C198.421 5.78067 198.628 5.12067 191.745 35.0367C188.962 47.1367 186.303 57.9397 185.837 59.0437C185.292 60.3297 183.232 61.5187 180.105 62.3507C177.421 63.0647 171.283 65.2237 166.465 67.1467C161.602 69.0887 157.154 70.3107 156.465 69.8927C155.783 69.4797 145.735 62.0307 134.138 53.3397C108.915 34.4357 109.951 34.7277 98.1225 43.1827C86.8195 51.2617 76.3235 60.1897 67.9735 68.8257C62.3035 74.6897 60.7235 76.9667 60.7235 79.2767C60.7235 81.0797 65.5635 91.7337 73.1495 106.633L85.5765 131.037L80.7635 138.805C78.1165 143.077 74.6615 149.038 73.0865 152.052C70.2705 157.442 70.1495 157.533 65.7235 157.57C63.2485 157.59 50.9355 158.217 38.3605 158.961C12.6715 160.483 11.3525 160.894 8.9015 168.133C4.6405 180.719 -1.0515 215.803 0.167495 221.971C0.486495 223.585 1.42449 225.654 2.25249 226.569C3.08049 227.484 15.2255 233.129 29.2405 239.113L54.7235 249.993L54.7375 253.515C54.7455 255.452 55.7795 262.111 57.0355 268.313L59.3195 279.589L41.9915 295.725C18.7355 317.381 17.3655 318.944 18.0335 323.059C18.7355 327.388 28.1835 346.132 35.9815 358.669C43.6645 371.021 48.5595 376.537 51.8385 376.537C53.1705 376.537 65.9395 373.016 80.2145 368.712L106.167 360.887L114.195 367.826C118.61 371.642 123.877 375.951 125.896 377.401C128.807 379.49 129.478 380.555 129.134 382.537C128.896 383.912 127.378 396.206 125.763 409.856C122.755 435.268 122.801 437.616 126.358 440.602C131.922 445.271 168.689 459.035 178.796 460.232C181.331 460.532 184.298 460.299 185.391 459.715C186.484 459.13 194.093 448.289 202.3 435.623L217.223 412.594L232.723 412.593L248.223 412.592L262.976 435.397C271.514 448.595 278.759 458.754 280.176 459.512C281.745 460.352 284.219 460.604 287.064 460.214C297.357 458.803 334.111 444.988 339.088 440.659C342.646 437.564 342.691 435.266 339.683 409.856C338.068 396.206 336.55 383.912 336.312 382.537C335.968 380.555 336.639 379.49 339.55 377.401C341.57 375.951 346.857 371.623 351.299 367.784L359.375 360.804L385.221 368.671C399.436 372.997 412.184 376.537 413.549 376.537C416.893 376.537 421.724 371.113 429.465 358.669C437.263 346.132 446.711 327.388 447.413 323.059C448.081 318.944 446.711 317.381 423.455 295.725L406.127 279.589L408.411 268.313C409.667 262.111 410.701 255.452 410.709 253.515L410.723 249.993L436.206 239.113C450.221 233.129 462.366 227.484 463.194 226.569C464.022 225.654 464.96 223.585 465.279 221.971C466.498 215.803 460.806 180.719 456.545 168.133C454.094 160.894 452.775 160.483 427.086 158.961C414.511 158.217 402.198 157.59 399.723 157.57C395.297 157.533 395.176 157.442 392.36 152.052C390.785 149.038 387.332 143.077 384.687 138.805L379.877 131.037L392.3 106.701C400.084 91.4527 404.723 81.2367 404.723 79.3437C404.723 76.9507 403.218 74.7667 397.473 68.8257C389.123 60.1897 378.628 51.2617 367.324 43.1827C355.495 34.7277 356.531 34.4357 331.308 53.3397C319.711 62.0307 309.664 69.4797 308.981 69.8927C308.292 70.3107 303.845 69.0887 298.981 67.1467C294.164 65.2237 288.026 63.0647 285.341 62.3507C282.214 61.5177 280.154 60.3297 279.611 59.0437C279.145 57.9397 276.224 46.0117 273.122 32.5367C270.019 19.0617 267.072 7.25367 266.572 6.29667C264.301 1.94767 260.374 1.23267 237.223 0.958671C225.123 0.815671 212.729 0.99967 209.678 1.36767ZM243.835 19.1637L251.248 19.7897L257.236 45.8837C261.519 64.5497 263.792 72.5977 265.223 74.1587C266.48 75.5307 271.683 77.7147 279.223 80.0357C285.823 82.0687 294.549 85.2627 298.614 87.1337C302.679 89.0057 307.44 90.5367 309.195 90.5367C311.764 90.5367 316.649 87.3397 334.254 74.1387L356.123 57.7397L359.673 60.3577C365.911 64.9567 378.124 75.2387 381.195 78.4767L384.167 81.6097L371.945 106.079C365.223 119.537 359.723 131.396 359.723 132.433C359.723 133.47 362.432 138.444 365.744 143.488C369.056 148.531 374.004 157.119 376.74 162.572C379.477 168.025 382.73 173.122 383.969 173.898C385.582 174.909 393.842 175.735 413.017 176.801C427.754 177.621 439.994 178.475 440.218 178.698C441.033 179.513 445.61 204.188 445.912 209.397L446.223 214.757L421.723 225.168C408.248 230.893 396.451 236.501 395.505 237.629C393.711 239.771 393.63 240.151 391.689 255.537C391.031 260.762 389.654 268.187 388.631 272.037C385.003 285.686 384.061 283.944 406.473 305.048C417.336 315.277 426.374 324.074 426.559 324.598C426.991 325.825 417.74 343.15 412.647 350.649L408.722 356.429L403.574 354.9C400.743 354.059 389.606 350.677 378.825 347.384C368.044 344.091 357.767 341.383 355.987 341.367C353.316 341.342 351.309 342.681 344.487 349.04C339.942 353.277 332.243 359.706 327.378 363.326C322.513 366.947 318.13 370.967 317.638 372.26C317.042 373.827 317.782 383.254 319.856 400.535C321.567 414.793 322.729 427.078 322.439 427.834C321.679 429.816 289.479 441.73 288.348 440.447C288.15 440.222 281.464 430.089 273.492 417.931C265.52 405.772 258.373 395.423 257.61 394.932C256.847 394.441 245.556 393.988 232.518 393.926C209.6 393.816 208.749 393.882 206.865 395.925C205.794 397.086 198.74 407.487 191.192 419.037C183.643 430.587 177.303 440.222 177.102 440.447C175.961 441.727 143.768 429.817 143.007 427.834C142.717 427.078 143.88 414.793 145.59 400.535C147.665 383.254 148.404 373.827 147.809 372.26C147.316 370.967 142.934 366.947 138.068 363.326C133.203 359.706 125.504 353.277 120.959 349.04C114.12 342.666 112.136 341.344 109.459 341.377C107.679 341.399 97.4485 344.094 86.7235 347.365C75.9985 350.637 64.8395 354.021 61.9255 354.886L56.6275 356.458L51.2835 348.247C48.3445 343.732 44.2155 336.546 42.1085 332.279L38.2775 324.522L41.2505 321.691C42.8855 320.135 51.9865 311.548 61.4735 302.61C81.1165 284.103 80.4085 285.55 76.6875 271.558C75.5935 267.444 74.2205 260.019 73.6355 255.058C71.9405 240.68 71.7515 239.789 69.9415 237.64C68.9965 236.518 57.1985 230.885 43.7235 225.123L19.2235 214.646L19.5345 209.341C19.8405 204.132 24.4225 179.504 25.2385 178.689C25.4675 178.46 37.7075 177.619 52.4395 176.819C71.9975 175.758 79.8315 174.978 81.4775 173.926C82.7165 173.134 85.9695 168.025 88.7065 162.572C91.4425 157.119 96.3905 148.531 99.7025 143.488C103.014 138.444 105.723 133.464 105.723 132.42C105.723 131.375 100.296 119.672 93.6615 106.413C87.0265 93.1527 81.8215 81.7247 82.0925 81.0167C82.6995 79.4357 98.1185 65.8767 104.627 61.2007L109.383 57.7847L131.303 74.2337C156.695 93.2877 154.705 92.6937 170.223 85.8427C175.173 83.6577 183.644 80.5847 189.048 79.0147C195.496 77.1417 199.449 75.4257 200.548 74.0217C201.483 72.8267 204.872 60.3447 208.223 45.7547L214.223 19.6267L219.223 19.2667C228.846 18.5737 236.482 18.5417 243.835 19.1637ZM222.723 136.15C193.038 139.774 166.991 155.718 151.214 179.921C139.87 197.324 135.347 212.606 135.347 233.537C135.347 244.043 135.829 248.983 137.522 255.811C146.54 292.19 174.07 319.72 210.449 328.738C222.809 331.802 242.637 331.802 254.997 328.738C291.376 319.72 318.906 292.19 327.924 255.811C330.965 243.545 330.987 223.59 327.974 211.537C318.807 174.867 291.225 147.171 255.223 138.484C247.358 136.586 229.596 135.311 222.723 136.15ZM255.223 157.536C281.602 165.942 300.54 185.017 308.881 211.58C310.886 217.965 311.223 221.121 311.223 233.537C311.223 245.944 310.885 249.12 308.88 255.537C300.527 282.276 281.462 301.341 254.723 309.694C248.306 311.699 245.13 312.037 232.723 312.037C220.316 312.037 217.141 311.699 210.723 309.694C183.984 301.341 164.919 282.276 156.566 255.537C154.561 249.12 154.223 245.944 154.223 233.537C154.223 221.13 154.561 217.954 156.566 211.537C165.66 182.427 188.257 161.771 217.798 155.563C225.774 153.886 247.339 155.023 255.223 157.536Z" />
	</symbol>

	<symbol id="stopwatch" viewBox="0 0 352 449">
		<path fill-rule="evenodd" clip-rule="evenodd"
			d="M75.959 2.89215C73.187 4.18915 69.631 6.77715 68.058 8.64315C62.802 14.8762 62.088 17.7942 62.042 33.2032C62.002 46.8472 62.089 47.4652 64.424 49.9532C67.655 53.3962 72.676 53.4512 76.045 50.0812C78.398 47.7282 78.5 47.0922 78.5 34.6922C78.5 23.4482 78.75 21.4492 80.411 19.3972L82.323 17.0362L150.832 16.7662L219.342 16.4962L222.171 18.9282L225 21.3602L225.298 46.9482L225.596 72.5362H129.73C24.221 72.5362 28.364 72.3072 18.303 78.6952C11.787 82.8312 6.828 88.6262 3.138 96.4132L0 103.036V224.536V346.036L3.103 352.583C8.457 363.882 15.925 370.637 27.301 374.469C32.339 376.166 35.932 376.536 47.384 376.536H61.331L61.691 403.286C62.086 432.565 62.312 433.836 68.368 440.732C70.082 442.686 73.73 445.249 76.473 446.429C81.44 448.566 81.757 448.574 153.309 448.305L225.158 448.036L230.053 445.01C233.083 443.136 236.1 440.12 237.974 437.091L241 432.198L241.294 404.453L241.588 376.707L257.794 376.371C273.492 376.047 274.204 375.939 280.503 372.954C292.554 367.243 301.314 355.578 303.454 342.391C304.101 338.405 304.488 305.938 304.492 255.286L304.5 174.536H317.5C329.167 174.536 330.705 174.741 332.5 176.536C334.442 178.478 334.5 179.869 334.5 224.345C334.5 259.414 334.207 270.554 333.25 271.862C332.563 272.801 329.75 274.124 327 274.803C322.893 275.816 321.702 276.632 320.333 279.375C319.034 281.976 318.892 283.363 319.691 285.655C323.131 295.523 340.868 291.274 348.183 278.828L351 274.036L351.287 226.781C351.476 195.617 351.212 178.179 350.51 175.573C348.962 169.823 343.707 163.519 338.022 160.591C333.513 158.269 331.761 158.005 318.781 157.692L304.5 157.348L304.48 135.692C304.469 123.781 304.019 110.986 303.48 107.258C301.533 93.7882 292.792 81.9422 280.503 76.1182C274.204 73.1332 273.492 73.0252 257.794 72.7012L241.588 72.3652L241.294 44.6192L241 16.8742L237.974 11.9812C236.1 8.95216 233.083 5.93616 230.053 4.06216L225.158 1.03616L153.079 0.785156L81 0.535156L75.959 2.89215ZM274.143 91.2522C279.382 94.0542 284.837 100.379 286.339 105.394C287.999 110.932 287.999 338.14 286.339 343.678C284.837 348.693 279.382 355.018 274.143 357.82L270 360.036L154.076 360.306C26.724 360.603 31.893 360.831 24.374 354.6C22.38 352.947 19.792 349.561 18.624 347.076L16.5 342.558V224.536V106.514L18.624 101.996C19.792 99.5112 22.38 96.1262 24.374 94.4742C31.709 88.3982 26.123 88.6412 153.5 88.8472L270 89.0362L274.143 91.2522ZM36.944 186.91C34.152 188.21 30.225 191.208 28.172 193.606C22.591 200.127 21.5 205.183 21.5 224.536C21.5 243.889 22.591 248.945 28.172 255.466C40.12 269.424 62.207 266.925 70.707 250.654L73.5 245.308V224.536V203.764L70.707 198.418C64.263 186.083 49.516 181.056 36.944 186.91ZM100.944 186.91C98.152 188.21 94.225 191.208 92.172 193.606C86.591 200.127 85.5 205.183 85.5 224.536C85.5 243.889 86.591 248.945 92.172 255.466C104.12 269.424 126.207 266.925 134.707 250.654L137.5 245.308V224.536V203.764L134.707 198.418C128.263 186.083 113.516 181.056 100.944 186.91ZM180.944 186.91C178.152 188.21 174.225 191.208 172.172 193.606C166.591 200.127 165.5 205.183 165.5 224.536C165.5 243.889 166.591 248.945 172.172 255.466C184.12 269.424 206.207 266.925 214.707 250.654L217.5 245.308V224.536V203.764L214.707 198.418C208.263 186.083 193.516 181.056 180.944 186.91ZM244.944 186.91C242.152 188.21 238.225 191.208 236.172 193.606C230.591 200.127 229.5 205.183 229.5 224.536C229.5 243.889 230.591 248.945 236.172 255.466C248.12 269.424 270.207 266.925 278.707 250.654L281.5 245.308V224.536V203.764L278.707 198.418C272.263 186.083 257.516 181.056 244.944 186.91ZM145.955 194.991C143.931 197.015 143.5 198.431 143.5 203.067C143.5 207.948 143.886 209.075 146.423 211.613C149.988 215.178 153.44 215.352 157.157 212.154C159.602 210.051 159.93 209.068 159.963 203.737C159.994 198.697 159.6 197.276 157.576 195.119C154.344 191.676 149.324 191.621 145.955 194.991ZM54.75 204.549L57.5 207.568V224.475C57.5 241.099 57.458 241.433 54.973 244.386C53.583 246.038 51.141 247.676 49.546 248.026C46.178 248.766 41.094 246.515 39.53 243.591C38.175 241.06 38.171 208.02 39.525 205.489C41.074 202.596 45.597 200.468 49 201.033C50.65 201.307 53.238 202.889 54.75 204.549ZM118.75 204.549L121.5 207.568V224.475C121.5 241.099 121.458 241.433 118.973 244.386C117.583 246.038 115.141 247.676 113.546 248.026C110.178 248.766 105.094 246.515 103.53 243.591C102.175 241.06 102.171 208.02 103.525 205.489C105.074 202.596 109.597 200.468 113 201.033C114.65 201.307 117.238 202.889 118.75 204.549ZM198.75 204.549L201.5 207.568V224.475C201.5 241.099 201.458 241.433 198.973 244.386C197.583 246.038 195.141 247.676 193.546 248.026C190.178 248.766 185.094 246.515 183.53 243.591C182.175 241.06 182.171 208.02 183.525 205.489C185.074 202.596 189.597 200.468 193 201.033C194.65 201.307 197.238 202.889 198.75 204.549ZM262.75 204.549L265.5 207.568V224.475C265.5 241.099 265.458 241.433 262.973 244.386C261.583 246.038 259.141 247.676 257.546 248.026C254.178 248.766 249.094 246.515 247.53 243.591C246.175 241.06 246.171 208.02 247.525 205.489C249.074 202.596 253.597 200.468 257 201.033C258.65 201.307 261.238 202.889 262.75 204.549ZM146.423 237.459C143.886 239.997 143.5 241.124 143.5 246.005C143.5 252.912 146.349 256.536 151.78 256.536C157.261 256.536 160.009 252.775 159.963 245.335C159.93 240.004 159.602 239.021 157.157 236.918C153.44 233.72 149.988 233.894 146.423 237.459ZM225.298 402.124L225 427.712L222.194 430.124L219.388 432.536H152.395C81.498 432.536 80.85 432.496 79.121 427.991C78.78 427.101 78.5 415.159 78.5 401.454V376.536H152.048H225.596L225.298 402.124Z" />
	</symbol>

	<symbol id="sapphire" viewBox="0 0 510 511">
		<path fill-rule="evenodd" clip-rule="evenodd"
			d="M233.415 1.75828C217.035 4.77428 199.112 11.7583 186.044 20.2163C173.997 28.0153 134.874 59.5423 134.273 61.9373C132.858 67.5743 138.092 73.2523 143.215 71.6383C144.425 71.2573 154.64 63.6763 165.915 54.7923C194.582 32.2053 200.748 28.2213 215.88 22.5103C223.739 19.5443 237.977 16.2803 243.184 16.2503L246.953 16.2283L246.684 38.3913L246.415 60.5543L240.046 61.8523C232.475 63.3963 222.531 67.8813 215.5 72.9243C205.718 79.9403 79.3771 179.527 75.3001 183.435L71.1841 187.38L50.3001 180.659C38.8131 176.962 29.0851 173.65 28.6811 173.299C27.6271 172.382 34.7971 161.786 41.4111 154.487C44.5211 151.055 59.1911 138.721 74.0111 127.079C101.406 105.558 102.846 104.074 101.509 98.7463C100.739 95.6803 95.6491 92.8613 92.6151 93.8213C88.9761 94.9733 35.5221 137.729 29.9421 143.951C14.4841 161.186 4.23112 183.14 0.855118 206.226C-0.911882 218.311 0.145118 237.396 3.23712 249.228C8.26312 268.457 62.2331 436.992 65.8701 444.811C79.0691 473.192 104.07 495.315 133.915 505.023C147.995 509.603 155.018 510.228 192.415 510.228C225.394 510.228 227.844 510.106 230.004 508.357C233.215 505.757 233.215 499.699 230.004 497.099C227.854 495.358 225.461 495.228 195.554 495.222C160.492 495.216 150.054 494.25 137.111 489.814C128.158 486.745 115.619 480.158 110.417 475.791L106.543 472.539L118.844 455.633C125.61 446.335 131.523 438.321 131.984 437.824C132.471 437.3 134.3 438.047 136.34 439.603C141.266 443.361 151.344 447.968 157.377 449.22C160.803 449.931 193.69 450.187 257.942 450.003L353.415 449.728L359.061 447.445C362.166 446.19 367.469 443.377 370.845 441.195C374.22 439.013 377.14 437.228 377.333 437.228C377.525 437.228 383.444 445.173 390.485 454.883L403.287 472.538L399.414 475.79C394.211 480.158 381.673 486.745 372.719 489.814C359.776 494.25 349.338 495.216 314.276 495.222C284.369 495.228 281.976 495.358 279.826 497.099C276.615 499.699 276.615 505.757 279.826 508.357C281.986 510.106 284.438 510.228 317.49 510.228C348.223 510.228 354.123 509.978 362.63 508.316C392.641 502.452 418.074 485.686 434.995 460.609C437.859 456.366 441.893 449.257 443.96 444.811C447.597 436.992 501.567 268.457 506.593 249.228C509.685 237.396 510.742 218.311 508.975 206.226C505.201 180.414 493.708 157.695 475.448 139.949C464.305 129.12 331.016 24.4543 320.097 17.9593C310.064 11.9913 294.57 5.75628 283.224 3.12128C271.399 0.374277 244.87 -0.351723 233.415 1.75828ZM278.915 18.1583C293.147 21.3163 305.82 26.7173 317.415 34.5673C331.383 44.0223 463.147 148.669 468.439 154.51C475.056 161.812 482.197 172.379 481.149 173.317C480.745 173.678 471.016 176.989 459.527 180.674L438.64 187.375L434.527 183.418C430.071 179.131 306.913 82.0713 295.393 73.7673C286.92 67.6603 278.017 63.5313 269.638 61.8223L263.415 60.5543L263.146 38.3913L262.877 16.2283L266.646 16.2503C268.719 16.2623 274.24 17.1203 278.915 18.1583ZM112.826 77.0993C107.648 81.2923 111.112 90.2283 117.915 90.2283C122.275 90.2283 125.315 87.1473 125.315 82.7283C125.315 78.3093 122.275 75.2283 117.915 75.2283C116.387 75.2283 114.097 76.0703 112.826 77.0993ZM270.963 78.1623C274.512 79.2593 279.533 81.5003 282.122 83.1433C288.33 87.0823 417.196 188.321 422.606 193.509C431.448 201.989 436.332 216.548 434.086 227.733C432.468 235.785 377.313 409.528 374.827 414.401C370.024 423.816 360.303 431.457 350.062 433.868C341.8 435.812 168.03 435.812 159.768 433.868C149.527 431.457 139.806 423.816 135.003 414.401C132.846 410.173 77.8291 237.373 75.8871 228.728C73.3841 217.58 78.1301 202.239 86.6121 194.062C95.2341 185.751 225.755 84.0153 231.415 81.1933C243.707 75.0663 257.518 74.0073 270.963 78.1623ZM48.1071 196.216L63.7991 201.305L62.1661 205.516C60.9791 208.58 60.5351 213 60.5411 221.728L60.5481 233.728L89.3421 324.228C105.179 374.003 119.146 416.865 120.379 419.477L122.622 424.227L109.19 442.727C101.802 452.903 95.4181 461.228 95.0041 461.228C93.5321 461.228 85.6391 449.597 81.4081 441.192C78.3021 435.024 69.1611 407.571 48.4441 342.192C32.6781 292.437 19.1241 249.253 18.3251 246.228C14.2141 230.663 14.4421 212.029 18.9481 195.331L21.0831 187.416L26.7491 189.272C29.8651 190.292 39.4761 193.417 48.1071 196.216ZM492.134 200.228C494.745 210.893 494.965 231.133 492.585 241.728C491.721 245.578 477.899 290.108 461.871 340.684C440.771 407.262 431.541 434.999 428.426 441.184C424.182 449.615 416.298 461.228 414.819 461.228C414.4 461.228 408.023 452.89 400.646 442.699L387.234 424.171L389.464 419.449C390.69 416.853 404.651 374.003 420.488 324.228L449.282 233.728L449.289 221.728C449.295 212.977 448.852 208.582 447.656 205.494L446.015 201.26L467.215 194.418C491.625 186.539 488.612 185.837 492.134 200.228ZM249.826 497.099C244.648 501.292 248.112 510.228 254.915 510.228C259.275 510.228 262.315 507.147 262.315 502.728C262.315 498.309 259.275 495.228 254.915 495.228C253.387 495.228 251.097 496.07 249.826 497.099Z" />
	</symbol>

	<symbol id="gem" viewBox="0 0 335 513">
		<path fill-rule="evenodd" clip-rule="evenodd"
			d="M165.489 31.0732C128.439 50.5722 106.362 62.7582 104.368 64.8102C99.4659 69.8562 1.74192 191.723 0.322922 194.561C-0.745078 196.696 0.554924 214.793 8.51292 308.561C13.7159 369.864 18.2359 421.559 18.5579 423.438C19.0479 426.304 26.0109 433.752 61.8149 469.706C101.502 509.558 104.728 512.556 107.901 512.54C112.038 512.518 299.718 425.512 302.836 422.17C303.939 420.989 305.09 418.897 305.395 417.522C305.7 416.147 308.243 393.711 311.046 367.665C316.614 315.93 316.614 315.931 310.898 312.975C306.534 310.718 302.419 311.165 298.95 314.272L295.88 317.022L293.415 339.522C292.059 351.897 290.846 362.356 290.719 362.764C290.593 363.172 282.916 338.321 273.661 307.54L256.832 251.574L283.14 217.611C297.609 198.931 309.611 183.81 309.81 184.01C310.009 184.209 308.983 195.34 307.529 208.746C305.577 226.748 305.154 233.827 305.913 235.821C307.044 238.798 312.362 242.515 315.489 242.515C319.304 242.515 323.823 238.827 324.917 234.82C325.487 232.731 327.98 211.93 330.457 188.596C334.391 151.525 334.788 145.825 333.598 143.44C331.161 138.556 236.856 7.11822 233.387 3.77222C230.976 1.44622 229.091 0.526222 226.754 0.535222C224.422 0.545222 206.919 9.26922 165.489 31.0732ZM269.111 87.6432L311.792 147.263L302.572 159.143C297.501 165.676 282.287 185.305 268.763 202.761L244.175 234.5L224.195 216.065L204.216 197.629L166.004 136.637C144.988 103.092 127.785 75.2952 127.776 74.8662C127.767 74.4372 149.283 62.7482 175.591 48.8912C223.045 23.8942 223.434 23.7122 224.926 25.8582C225.754 27.0482 245.637 54.8512 269.111 87.6432ZM148.843 147.776L185.956 207.03L181.512 252.404C179.067 277.359 176.937 297.9 176.778 298.051C176.619 298.201 164.114 289.322 148.989 278.319C133.864 267.316 120.139 257.462 118.489 256.422C114.123 253.668 109.602 253.978 106.08 257.272C104.323 258.915 89.7449 285.119 69.8549 322.385C45.1039 368.759 36.3849 384.271 35.8509 382.885C35.4559 381.861 31.9309 342.547 28.0179 295.522C24.1049 248.497 20.6629 208.215 20.3679 206.006L19.8319 201.989L65.4899 145.256C90.6019 114.052 111.28 88.5222 111.44 88.5222C111.6 88.5222 128.432 115.186 148.843 147.776ZM228.694 248.194L236.899 256.022L259.983 332.9C272.679 375.183 282.937 409.902 282.778 410.053C281.731 411.053 129.531 481.397 129.178 481.045C128.935 480.802 143.821 444.247 162.258 399.813L195.78 319.022L199.922 275.022C202.2 250.822 204.289 229.977 204.564 228.7C205.029 226.535 205.587 226.852 212.776 233.372C217.018 237.219 224.181 243.889 228.694 248.194ZM304.139 269.049C296.914 275.128 300.875 286.522 310.213 286.522C315.145 286.522 318.6 284.23 319.983 280.041C321.44 275.625 320.41 272.054 316.803 269.019C312.874 265.713 308.091 265.724 304.139 269.049ZM144.818 300.599C160.037 311.642 172.489 320.983 172.489 321.358C172.489 322.075 105.894 482.689 105.269 483.479C105.07 483.731 90.5129 469.542 72.9199 451.949L40.9319 419.961L78.2099 350.251C98.7139 311.91 115.862 280.536 116.318 280.531C116.774 280.526 129.599 289.557 144.818 300.599Z" />
	</symbol>

	<symbol id="watch-glass" viewBox="0 0 512 453">
		<path fill-rule="evenodd" clip-rule="evenodd"
			d="M220.729 1.64609C185.119 5.71709 153.649 14.1811 124.784 27.4501C107.108 35.5761 101.187 39.1401 100.063 42.3321C98.6513 46.3461 100.103 50.0171 103.801 51.7801C107.076 53.3421 107.16 53.3161 120.025 46.8781C136.268 38.7491 153.144 32.0611 168.746 27.5701C250.538 4.02809 342.764 15.4961 409.725 57.5351C434.263 72.9411 456.598 94.2361 471.205 116.153C482.002 132.353 490.792 153.852 494.101 172.153C496.396 184.84 496.383 207.528 494.074 219.653C485.607 264.124 458.069 302.606 413.457 332.31C400.334 341.048 374.877 353.636 358.457 359.508C333.985 368.259 294.823 376.068 274.957 376.16C265.968 376.201 260.879 380.929 263.365 386.93C265.401 391.847 268.424 392.501 283.134 391.207C355.485 384.842 417.909 357.34 461.314 312.708L471.671 302.058L467.179 310.502C449.235 344.234 420.815 375.169 387.457 397.278C375.269 405.356 351.188 417.508 337.321 422.577C300.065 436.198 254.966 440.285 215.878 433.583C149.819 422.257 92.1093 384.731 54.8263 328.859C51.2313 323.472 46.2453 315.22 43.7453 310.521L39.2003 301.977L48.5653 311.658C92.6713 357.249 154.686 384.777 227.78 391.207C242.056 392.463 245.367 391.842 247.327 387.538C248.952 383.972 248.748 382.602 246.135 379.565C243.98 377.059 243.028 376.807 232.885 376.045C181.945 372.218 133.458 356.445 96.4623 331.667C60.4733 307.563 33.6593 274.75 22.3373 240.955C9.52431 202.71 13.2523 163.405 33.1623 126.818C42.9873 108.765 60.8843 88.0321 79.6193 73.0011C90.4043 64.3491 91.5123 62.0351 87.3843 56.7881C82.6423 50.7591 74.7943 55.0251 54.5973 74.6081C26.9823 101.383 9.68031 131.413 2.24531 165.465C0.311312 174.325 0.0183115 178.651 0.000311527 198.653C-0.0226885 224.061 1.21931 235.09 6.57631 257.04C15.2673 292.65 32.7773 328.05 56.0953 357.153C64.8433 368.07 83.5723 386.795 94.4573 395.506C172.601 458.041 278.802 469.965 367.957 426.214C394.245 413.314 415.699 397.962 436.483 377.179C457.266 356.395 472.618 334.941 485.518 308.653C503.699 271.604 512.471 231.603 511.158 191.731C510.321 166.287 506.37 150.211 495.412 127.653C485.567 107.387 474.082 91.8321 456.148 74.4791C416.403 36.0201 362.891 11.6331 298.457 2.61609C282.317 0.357093 236.954 -0.208908 220.729 1.64609Z" />
	</symbol>

	<symbol id="pencil" viewBox="0 0 24 24">
		<path
			d="M22.853,1.148a3.626,3.626,0,0,0-5.124,0L1.465,17.412A4.968,4.968,0,0,0,0,20.947V23a1,1,0,0,0,1,1H3.053a4.966,4.966,0,0,0,3.535-1.464L22.853,6.271A3.626,3.626,0,0,0,22.853,1.148ZM5.174,21.122A3.022,3.022,0,0,1,3.053,22H2V20.947a2.98,2.98,0,0,1,.879-2.121L15.222,6.483l2.3,2.3ZM21.438,4.857,18.932,7.364l-2.3-2.295,2.507-2.507a1.623,1.623,0,1,1,2.295,2.3Z" />
	</symbol>

	<symbol id="view" viewBox="0 0 24 24">
		<path
			d="M23.271,9.419C21.72,6.893,18.192,2.655,12,2.655S2.28,6.893.729,9.419a4.908,4.908,0,0,0,0,5.162C2.28,17.107,5.808,21.345,12,21.345s9.72-4.238,11.271-6.764A4.908,4.908,0,0,0,23.271,9.419Zm-1.705,4.115C20.234,15.7,17.219,19.345,12,19.345S3.766,15.7,2.434,13.534a2.918,2.918,0,0,1,0-3.068C3.766,8.3,6.781,4.655,12,4.655s8.234,3.641,9.566,5.811A2.918,2.918,0,0,1,21.566,13.534Z" />
		<path d="M12,7a5,5,0,1,0,5,5A5.006,5.006,0,0,0,12,7Zm0,8a3,3,0,1,1,3-3A3,3,0,0,1,12,15Z" />
	</symbol>

	<symbol id="noview" viewBox="0 0 24 24">
		<path
			d="M23.271,9.419A15.866,15.866,0,0,0,19.9,5.51l2.8-2.8a1,1,0,0,0-1.414-1.414L18.241,4.345A12.054,12.054,0,0,0,12,2.655C5.809,2.655,2.281,6.893.729,9.419a4.908,4.908,0,0,0,0,5.162A15.866,15.866,0,0,0,4.1,18.49l-2.8,2.8a1,1,0,1,0,1.414,1.414l3.052-3.052A12.054,12.054,0,0,0,12,21.345c6.191,0,9.719-4.238,11.271-6.764A4.908,4.908,0,0,0,23.271,9.419ZM2.433,13.534a2.918,2.918,0,0,1,0-3.068C3.767,8.3,6.782,4.655,12,4.655A10.1,10.1,0,0,1,16.766,5.82L14.753,7.833a4.992,4.992,0,0,0-6.92,6.92l-2.31,2.31A13.723,13.723,0,0,1,2.433,13.534ZM15,12a3,3,0,0,1-3,3,2.951,2.951,0,0,1-1.285-.3L14.7,10.715A2.951,2.951,0,0,1,15,12ZM9,12a3,3,0,0,1,3-3,2.951,2.951,0,0,1,1.285.3L9.3,13.285A2.951,2.951,0,0,1,9,12Zm12.567,1.534C20.233,15.7,17.218,19.345,12,19.345A10.1,10.1,0,0,1,7.234,18.18l2.013-2.013a4.992,4.992,0,0,0,6.92-6.92l2.31-2.31a13.723,13.723,0,0,1,3.09,3.529A2.918,2.918,0,0,1,21.567,13.534Z" />
	</symbol>

	<symbol id="close" viewBox="0 0 512.021 512.021">
		<g>
			<path
				d="M301.258,256.01L502.645,54.645c12.501-12.501,12.501-32.769,0-45.269c-12.501-12.501-32.769-12.501-45.269,0l0,0   L256.01,210.762L54.645,9.376c-12.501-12.501-32.769-12.501-45.269,0s-12.501,32.769,0,45.269L210.762,256.01L9.376,457.376   c-12.501,12.501-12.501,32.769,0,45.269s32.769,12.501,45.269,0L256.01,301.258l201.365,201.387   c12.501,12.501,32.769,12.501,45.269,0c12.501-12.501,12.501-32.769,0-45.269L301.258,256.01z" />
		</g>
	</symbol>
</svg>