<svg width="480" height="475" viewBox="0 0 480 475" fill="none" xmlns="http://www.w3.org/2000/svg">
<path fill-rule="evenodd" clip-rule="evenodd" d="M2 2.003C0.011 3.992 0 5.336 0 237.003C0 468.67 0.011 470.014 2 472.003C3.985 473.988 5.33301 474.003 179.427 474.003H354.855L356.927 471.368C358.78 469.013 359 467.369 359 455.868V443.003H392.864C428.466 443.003 434.04 442.505 442.679 438.549C448.908 435.698 458.409 427.083 461.063 421.879C462.866 418.345 463.105 418.229 469.403 417.828C479.734 417.17 480 416.696 480 398.937C480 377.629 476.91 368.883 465.605 358.19C455.091 348.247 444.39 345.024 421.844 345.011L409.188 345.003L406.112 340.358C399.456 330.309 396.543 317.045 398.047 303.631C398.83 296.653 399.187 295.813 403.065 291.817C420.37 273.985 426.351 247.661 418.604 223.425C411.683 201.775 391.979 185.101 367.75 180.391L359 178.69V134.182V89.673L314.25 44.837L269.5 0L136.75 0.000999451C5.334 0.00299945 3.98 0.0230002 2 2.003ZM259 54.548V95.094L261.455 97.548L263.909 100.003H304.455H345V139.278V178.552L336.519 180.298C314.694 184.791 297.687 196.887 289.114 214.015C283.518 225.196 281.645 234.521 282.217 248.351C282.933 265.628 288.093 278.085 300 291.277L305.5 297.37L305.472 310.437C305.44 325.092 303.826 331.315 297.74 340.245L294.5 344.999L283 345.009C261.419 345.026 250.643 348.499 240.11 358.829C229.783 368.957 226 380.165 226 400.631C226 411.029 226.181 412.102 228.365 414.641C230.401 417.007 231.646 417.449 237.29 417.809C243.506 418.205 243.916 418.387 245.117 421.286C247.105 426.085 256.905 435.373 263 438.234C271.897 442.411 278.062 443.003 312.684 443.003H345V451.503V460.003H179.5H14V237.003V14.003H136.5H259V54.548ZM304.5 55.003L335.488 86.003H304.244H273V55.003C273 37.953 273.115 24.003 273.256 24.003C273.397 24.003 287.457 37.953 304.5 55.003ZM54.513 99.399C51.486 102.426 51.28 106.283 54 109.003C55.869 110.872 57.333 111.003 76.427 111.003H96.855L98.984 108.296C100.472 106.405 100.926 104.824 100.491 103.046C99.183 97.704 98.473 97.527 76.979 97.195L57.025 96.887L54.513 99.399ZM54.455 128.458C51.374 131.538 51.322 135.017 54.314 137.829C56.609 139.985 56.958 140.003 95.814 140.003C133.667 140.003 135.068 139.935 137 138.003C138.111 136.892 139 134.67 139 133.003C139 131.336 138.111 129.114 137 128.003C135.068 126.071 133.667 126.003 95.955 126.003H56.909L54.455 128.458ZM54.174 158.317C51.326 161.35 51.422 164.516 54.455 167.548L56.909 170.003H124.955C191.667 170.003 193.039 169.964 195 168.003C197.878 165.125 197.985 160.807 195.255 157.753C193.793 156.119 189.157 156.003 125.019 156.003H56.349L54.174 158.317ZM57.333 193.1C55.591 193.605 53.004 195.399 51.583 197.087L49 200.156V231.445C49 274.028 46.018 271.003 88 271.003C117.867 271.003 120.376 270.662 124.5 266.036C126.412 263.891 126.5 262.379 126.5 231.479V199.164L124.074 196.582C122.74 195.162 120.04 193.553 118.074 193.007C113.61 191.767 61.663 191.847 57.333 193.1ZM366.912 194.544C393.39 200.785 409.9 223.019 407.665 249.423C406.54 262.716 401.784 272.96 392.074 283.008C384.803 290.531 383.47 294.857 383.601 310.503C383.699 322.21 385.296 330.093 389.493 339.584L391.89 345.003H351.945C329.975 345.003 312 344.76 312 344.463C312 344.166 312.928 342.105 314.062 339.882C319.566 329.094 321.708 307.895 318.621 294.777C317.504 290.03 316.242 287.948 311.246 282.607C304.422 275.311 298.726 264.817 296.951 256.266C295.336 248.49 296.272 234.016 298.86 226.725C302.917 215.299 312.394 204.801 323.847 199.047C335.109 193.39 353.746 191.441 366.912 194.544ZM113 232.003V257.003H88H63V232.003V207.003H88H113V232.003ZM155.153 213.753C151.964 216.452 151.526 220.13 154.016 223.296L156.145 226.003H196.418C233.533 226.003 236.808 225.866 238.193 224.253C241.733 220.131 240.913 215.196 236.343 213.113C234.692 212.361 221.534 212.003 195.564 212.003C160.502 212.003 157.045 212.153 155.153 213.753ZM91.057 223.445C85.091 229.465 84.538 229.793 82.614 228.445C77.841 225.102 71 228.165 71 233.646C71 235.474 72.498 237.787 75.857 241.146C79.901 245.19 81.328 246.003 84.383 246.003C87.66 246.003 89.062 245.017 97.527 236.753C105.655 228.818 107.002 227.041 107.001 224.253C107 220.232 103.98 217.003 100.221 217.003C98.131 217.003 95.86 218.6 91.057 223.445ZM153.073 239.638C150.351 243.098 150.456 245.55 153.455 248.548L155.909 251.003H190.5H225.091L227.545 248.548C230.544 245.55 230.649 243.098 227.927 239.638L225.855 237.003H190.5H155.145L153.073 239.638ZM53.017 293.289C49.494 295.071 48.154 299.406 50.071 302.821L51.576 305.503L115.951 305.76C174.787 305.996 180.484 305.875 182.163 304.355C184.969 301.816 184.564 296.592 181.365 294.076C178.764 292.029 177.947 292.003 117.115 292.018C69.661 292.029 54.929 292.321 53.017 293.289ZM51.635 324.076C48.411 326.611 48.122 331.125 51 334.003C52.931 335.934 54.333 336.003 91.5 336.003C128.667 336.003 130.069 335.934 132 334.003C134.703 331.3 134.518 327.431 131.545 324.458L129.091 322.003H91.68C55.347 322.003 54.194 322.063 51.635 324.076ZM57.333 355.072C55.591 355.592 53.004 357.399 51.583 359.087L49 362.156V393.594V425.032L52.422 428.768L55.844 432.503L86.715 432.793C117.576 433.083 117.586 433.082 121.028 430.763C126.904 426.803 126.971 426.389 126.971 393.503C126.971 361.239 126.857 360.447 121.679 356.599C118.981 354.594 117.586 354.495 89.679 354.315C73.63 354.212 59.075 354.553 57.333 355.072ZM446.102 361.769C452.82 364.487 459.874 371.127 463.065 377.735C464.871 381.474 465.46 384.714 465.797 392.753L466.227 403.003H352.963H239.698L240.33 393.384C241.033 382.692 243.45 375.977 248.782 369.904C252.837 365.286 260.967 360.946 267.361 359.986C270.187 359.562 310.3 359.28 356.5 359.359L440.5 359.503L446.102 361.769ZM113 394.003V419.003H88H63V394.003V369.003H88H113V394.003ZM91.153 385.424C85.033 391.33 84.344 391.731 82.559 390.424C77.957 387.056 71 390.199 71 395.646C71 397.474 72.498 399.787 75.857 403.146C79.939 407.228 81.313 408.003 84.463 408.003C87.849 408.003 89.119 407.107 97.606 398.73C105.608 390.831 107 388.979 107 386.23C107 382.303 103.987 379.003 100.403 379.003C98.567 379.003 95.855 380.885 91.153 385.424ZM446 418.884C446 419.369 444.425 420.967 442.5 422.436C434.877 428.25 438.824 428.004 353.282 427.993L274.5 427.983L269.5 425.626C266.75 424.329 263.409 422.083 262.076 420.635L259.651 418.003H352.826C405.91 418.003 446 418.382 446 418.884Z" fill="url(#paint0_linear_839_241)"/>
<defs>
<linearGradient id="paint0_linear_839_241" x1="479.927" y1="50.7512" x2="109.553" y2="526.277" gradientUnits="userSpaceOnUse">
<stop stop-color="#BA6203"/>
<stop offset="1" stop-color="#EDCA92"/>
</linearGradient>
</defs>
</svg>
