<svg width="512" height="489" viewBox="0 0 512 489" fill="none" xmlns="http://www.w3.org/2000/svg">
<path fill-rule="evenodd" clip-rule="evenodd" d="M93.3396 1.4246C86.7206 4.3666 82.2366 12.5086 83.3066 19.6446C83.8136 23.0186 86.5286 27.4656 96.1606 40.6886C102.877 49.9106 109.894 58.4806 111.754 59.7336C115.797 62.4576 124.325 62.8476 128.838 60.5136C136.282 56.6646 140.115 45.3126 136.398 38.1256C134.435 34.3276 116.72 9.7826 112.952 5.6396C108.093 0.295602 99.8606 -1.4734 93.3396 1.4246ZM404.34 1.4296C402.69 2.1666 400.164 4.0616 398.728 5.6406C394.964 9.7786 377.247 34.3256 375.282 38.1256C371.565 45.3126 375.398 56.6646 382.842 60.5136C387.355 62.8476 395.883 62.4576 399.926 59.7336C401.786 58.4806 408.803 49.9106 415.519 40.6886C425.151 27.4656 427.866 23.0186 428.373 19.6446C430.324 6.6316 416.373 -3.9414 404.34 1.4296ZM248.49 27.0276C241.357 28.2746 233.023 32.7346 227.493 38.2646C223.265 42.4916 219.969 48.5286 202.618 83.8256C191.617 106.204 182.467 124.675 182.284 124.874C182.101 125.072 162.167 128.101 137.986 131.604C109.38 135.748 92.0556 138.709 88.3956 140.078C80.5276 143.022 71.8026 151.312 67.6076 159.831C64.5446 166.05 64.3396 167.125 64.3396 176.989C64.3396 186.433 64.6296 188.142 67.1706 193.638C70.0656 199.905 72.9826 202.95 125.018 254.046L136.696 265.513L129.212 308.513C120.744 357.162 120.428 362.065 125.107 372.285C128.72 380.176 136.681 388.317 144.596 392.214C152.906 396.304 164.633 397.239 172.958 394.474C175.902 393.496 195.75 383.52 217.065 372.305L255.82 351.915L294.779 372.367C316.206 383.615 336.063 393.591 338.906 394.535C347.039 397.236 358.859 396.263 367.084 392.214C374.999 388.317 382.96 380.176 386.573 372.285C391.252 362.065 390.936 357.162 382.468 308.513L374.982 265.513L385.661 255.043C440.082 201.684 441.02 200.707 444.226 194.013C447.102 188.01 447.34 186.709 447.34 176.989C447.34 167.125 447.135 166.05 444.072 159.831C439.87 151.298 431.153 143.022 423.257 140.068C419.578 138.691 402.251 135.717 373.621 131.549C349.43 128.026 329.515 125.002 329.364 124.828C329.214 124.655 320.29 106.616 309.533 84.7416C298.776 62.8676 288.549 43.1706 286.806 40.9706C278.37 30.3186 262.566 24.5676 248.49 27.0276ZM258.742 61.9306C259.514 62.4196 270.314 83.2246 282.742 108.166L305.34 153.513L309.84 155.802C313.493 157.66 323.377 159.39 362.329 164.989C405.906 171.251 410.48 172.086 412.079 174.06C413.048 175.256 413.84 176.851 413.84 177.605C413.84 178.359 403.378 189.208 390.59 201.713C341.845 249.385 341.098 250.165 339.892 254.734C338.753 259.051 338.502 257.407 355.21 354.918C355.482 356.507 354.818 358.125 353.253 359.69C351.004 361.94 350.709 361.985 347.373 360.591C345.442 359.784 325.294 349.312 302.601 337.321C263.208 316.504 261.091 315.518 255.84 315.536C250.618 315.554 248.254 316.656 209.133 337.317C186.47 349.286 166.322 359.749 164.361 360.569C160.959 361.99 160.686 361.95 158.427 359.69C156.86 358.124 156.198 356.508 156.472 354.918C171.946 265.001 172.881 258.878 171.779 254.702C170.587 250.18 169.033 248.556 120.59 201.216C107.305 188.234 97.8396 178.222 97.8396 177.154C97.8396 172.603 99.7706 172.149 149.994 164.868C188.706 159.255 199.137 157.426 202.34 155.686C206.179 153.601 207.252 151.684 228.957 108.154C241.397 83.2066 252.197 62.4006 252.957 61.9186C254.727 60.7986 256.961 60.8026 258.742 61.9306ZM27.7936 281.301C17.5936 284.719 8.03659 288.309 6.55659 289.279C-0.577406 293.953 -2.23441 306.294 3.29759 313.547C6.59759 317.873 11.1356 320.013 17.0106 320.013C21.9916 320.013 56.9716 308.749 61.1126 305.811C64.7376 303.239 67.8396 297.042 67.8396 292.369C67.8396 287.201 64.5456 280.971 60.2896 278.09C53.8716 273.745 48.8706 274.239 27.7936 281.301ZM453.34 277.008C442.337 282.492 440.755 298.914 450.567 305.786C452.092 306.854 461.822 310.544 472.188 313.986C493.798 321.161 498.787 321.579 505.127 316.743C514.17 309.846 513.854 294.65 504.55 288.978C500.088 286.258 464.759 275.013 460.68 275.014C458.843 275.014 455.54 275.912 453.34 277.008ZM247.747 421.338C245.024 422.775 242.476 425.162 241.078 427.588C238.885 431.395 238.824 432.207 239.078 454.513C239.332 476.801 239.412 477.614 241.674 480.786C244.656 484.967 250.627 488.013 255.84 488.013C261.053 488.013 267.024 484.967 270.006 480.786C272.268 477.614 272.348 476.801 272.602 454.513C272.856 432.207 272.795 431.395 270.602 427.588C267.913 422.923 261.183 419.013 255.84 419.013C253.813 419.013 250.171 420.059 247.747 421.338Z" fill="url(#paint0_linear_839_200)"/>
<defs>
<linearGradient id="paint0_linear_839_200" x1="511.645" y1="52.2512" x2="133.78" y2="554.609" gradientUnits="userSpaceOnUse">
<stop stop-color="#BA6203"/>
<stop stop-color="#BA6203"/>
<stop stop-color="#BA6203"/>
<stop offset="0.0001" stop-color="#BA6203"/>
<stop offset="1" stop-color="#EDCA92"/>
</linearGradient>
</defs>
</svg>
