<svg width="481" height="368" viewBox="0 0 481 368" fill="none" xmlns="http://www.w3.org/2000/svg">
<path fill-rule="evenodd" clip-rule="evenodd" d="M90.0001 0.559562C56.6171 5.95856 29.5031 24.3556 13.4751 52.4816C-4.12994 83.3736 -4.51195 122.635 12.4911 153.568C46.1251 214.758 128.129 226.594 177.483 177.383C197.431 157.492 207.97 132.062 207.992 103.764C208.032 53.6976 172.433 10.8196 123.049 1.45156C115.492 0.0175601 96.5151 -0.494438 90.0001 0.559562ZM125.732 18.9726C156.95 27.0156 180.673 50.9556 189.064 82.8836C191.876 93.5836 192.141 111.65 189.648 122.707C182.178 155.836 155.953 182.061 122.824 189.531C111.767 192.024 93.7011 191.759 83.0011 188.947C50.8221 180.49 27.2381 156.934 18.8631 124.883C16.0531 114.132 15.8101 95.0166 18.3501 84.5536C27.0341 48.7806 56.3711 21.8996 92.1931 16.8926C101.068 15.6516 116.574 16.6136 125.732 18.9726ZM90.0001 33.4616C70.4611 38.6036 54.5201 54.7006 49.5181 74.3426C47.5781 81.9596 47.5791 92.8136 49.5211 100.423C54.0171 118.04 72.7591 147.095 93.5081 168.615C99.5751 174.908 100.983 175.883 104 175.883C107.017 175.883 108.425 174.908 114.492 168.615C135.306 147.027 153.771 118.379 158.451 100.412C165.923 71.7236 147.126 40.9356 117.54 33.4006C110.143 31.5166 97.2831 31.5446 90.0001 33.4616ZM117.184 50.4316C119.558 51.2596 123.866 53.5576 126.759 55.5376C141.994 65.9686 147.456 85.2166 140.238 103.037C135.026 115.904 124.605 131.88 110.905 148.01C107.461 152.065 104.509 155.559 104.346 155.775C104.003 156.228 102.621 154.645 92.6551 142.383C83.0211 130.53 76.0981 120.195 71.2211 110.383C64.7641 97.3936 63.2531 90.3846 64.9391 81.2376C68.6991 60.8356 86.4151 46.9246 106.684 48.4566C110.085 48.7146 114.81 49.6026 117.184 50.4316ZM93.1581 66.4506C84.1151 71.0246 79.4411 79.4836 80.1961 89.9116C80.7511 97.5916 84.8171 104.257 91.4481 108.357C95.7811 111.035 97.2231 111.383 104 111.383C110.777 111.383 112.219 111.035 116.552 108.357C119.586 106.481 122.598 103.469 124.474 100.435C127.152 96.1016 127.5 94.6596 127.5 87.8826C127.5 81.1056 127.152 79.6636 124.474 75.3306C117.893 64.6876 104.278 60.8266 93.1581 66.4506ZM109.077 82.8056C110.685 84.4136 112 86.6976 112 87.8826C112 90.6666 106.784 95.8826 104 95.8826C102.815 95.8826 100.531 94.5676 98.923 92.9596C97.315 91.3516 96.0001 89.0676 96.0001 87.8826C96.0001 86.6976 97.315 84.4136 98.923 82.8056C100.531 81.1976 102.815 79.8826 104 79.8826C105.185 79.8826 107.469 81.1976 109.077 82.8056ZM224 103.883V111.883H244H264V171.883V231.883H272H280V171.852V111.821L322.493 112.102L364.986 112.383L372.735 120.133L380.484 127.883H359.89C340.125 127.883 339.16 127.975 335.922 130.157C334.066 131.407 331.524 133.949 330.274 135.805C328.001 139.177 328 139.201 328 179.883C328 220.565 328.001 220.589 330.274 223.961C331.524 225.817 334.066 228.359 335.922 229.609L339.296 231.883H401.648H464V264.96V298.037L461.039 300.998C458.134 303.903 457.904 303.954 448.901 303.671L439.723 303.383L438.337 297.955C433.263 278.096 417.42 262.536 396.928 257.286C388.19 255.047 373.76 255.784 365.5 258.89C357.257 261.99 346.935 268.991 341.577 275.117C336.425 281.006 331.663 290.134 329.661 297.955L328.272 303.383H272H215.728L214.339 297.955C209.254 278.087 193.419 262.536 172.928 257.286C164.19 255.047 149.76 255.784 141.5 258.89C133.257 261.99 122.935 268.991 117.577 275.117C112.423 281.008 107.66 290.138 105.663 297.955L104.277 303.383L95.0991 303.671C86.0961 303.954 85.8661 303.903 82.9611 300.998L80.0001 298.037V260.96V223.883H71.9671H63.9341L64.2171 263.713L64.5001 303.543L67.5261 308.437C69.3991 311.464 72.4181 314.484 75.4441 316.357C79.9971 319.174 81.1601 319.417 92.3071 319.883L104.279 320.383L105.652 325.763C107.401 332.613 111.082 339.959 116.11 346.633L120.065 351.883H60.0321H5.47e-05V359.895V367.907L198.25 367.645L396.5 367.383L403.377 364.63C420.668 357.708 433.981 342.87 438.387 325.608L439.721 320.383L451.693 319.883C462.84 319.417 464.003 319.174 468.556 316.357C471.583 314.484 474.601 311.464 476.474 308.436L479.5 303.542L479.778 253.992L480.055 204.442L426.778 151.323C381.04 105.722 372.918 98.0406 369.384 97.0436C366.436 96.2116 345.222 95.8826 294.634 95.8826H224V103.883ZM430.245 177.627C454.634 202.009 464 211.998 464 213.627V215.883H404H344V179.883V143.883H370.245H396.489L430.245 177.627ZM24.0001 223.883V231.883H32.0001H40.0001V223.883V215.883H32.0001H24.0001V223.883ZM16.0001 255.883V263.883H28.0001H40.0001V255.883V247.883H28.0001H16.0001V255.883ZM304 255.883V263.883H320H336V255.883V247.883H320H304V255.883ZM174.301 274.93C200.976 285.096 208.253 320.137 187.824 340.051C164.736 362.556 126.504 350.019 120.881 318.098C117.318 297.872 131.587 277.188 152.045 272.919C158.134 271.649 168.038 272.544 174.301 274.93ZM398.301 274.93C424.95 285.086 432.205 319.582 411.952 339.835C389.116 362.672 350.53 350.167 344.881 318.098C341.318 297.872 355.587 277.188 376.045 272.919C382.134 271.649 392.038 272.544 398.301 274.93ZM5.47e-05 287.883V295.883H20.0001H40.0001V287.883V279.883H20.0001H5.47e-05V287.883ZM152 311.883V319.883H160H168V311.883V303.883H160H152V311.883ZM376 311.883V319.883H384H392V311.883V303.883H384H376V311.883ZM329.649 325.763C331.403 332.617 335.085 339.963 340.11 346.633L344.065 351.883H272H199.935L203.89 346.633C208.606 340.373 212.36 333.053 214.019 326.883C214.684 324.408 215.389 321.817 215.586 321.125C215.869 320.129 227.657 319.92 272.108 320.125L328.272 320.383L329.649 325.763Z" fill="url(#paint0_linear_832_118)"/>
<defs>
<linearGradient id="paint0_linear_832_118" x1="479.982" y1="39.3915" x2="217.458" y2="473.697" gradientUnits="userSpaceOnUse">
<stop stop-color="#BA6203"/>
<stop offset="1" stop-color="#EDCA92"/>
</linearGradient>
</defs>
</svg>
