<svg width="492" height="406" viewBox="0 0 492 406" fill="none" xmlns="http://www.w3.org/2000/svg">
<path fill-rule="evenodd" clip-rule="evenodd" d="M23.451 1.08511C14.197 3.59511 7.234 9.80712 2.601 19.6841L0 25.2301V180.73C0 328.54 0.0899997 336.488 1.82 341.45C4.117 348.036 11.198 356.003 17.892 359.535L23 362.23L54.607 362.531L86.214 362.832L87.471 367.031C89.635 374.263 94.189 382.229 99.454 387.989C126.705 417.806 175.814 407.865 189.1 369.843L191.41 363.23L266.795 362.974L342.18 362.718L343.453 366.974C345.634 374.261 350.175 382.213 355.454 387.989C382.704 417.805 431.834 407.86 445.096 369.843L447.403 363.23L457.701 362.661C470.152 361.974 475.813 359.512 482.787 351.756C491.394 342.183 491 346.597 491 259.709V183.187L487.798 176.709C484.977 171.001 479.74 165.396 443.798 129.613C408.11 94.0841 402.374 88.7671 398 87.1641C393.575 85.5411 388.835 85.2881 356.804 84.9631L320.607 84.5961L320.304 54.4131C320.017 25.9401 319.878 23.9651 317.839 19.5541C314.779 12.9321 308.224 6.23311 301.642 3.00011L296 0.230113L162 0.0401146C58.34 -0.106885 26.97 0.130113 23.451 1.08511ZM293.355 23.1551C294.871 23.9391 296.648 25.7601 297.305 27.2021C298.207 29.1801 298.5 54.9741 298.5 132.277V234.73H159.986H21.472L21.736 131.148L22 27.5661L25.266 24.6481L28.532 21.7301H159.565C271.019 21.7301 291.011 21.9431 293.355 23.1551ZM390.104 107.77C392.778 108.786 410.5 125.359 410.5 126.842C410.5 127.255 400.44 127.736 388.144 127.911L365.789 128.23L358.932 131.73C351.269 135.641 345.623 141.999 343.011 149.658C340.769 156.229 340.826 207.326 343.084 216.086C347.668 233.864 361.12 247.856 379.5 253.962C385.657 256.008 388.205 256.142 427.75 256.503L469.5 256.884V266.726V276.568L451.75 276.899C432.342 277.261 430.943 277.636 427.901 283.284C425.57 287.613 426.673 292.856 430.611 296.17C433.628 298.708 433.805 298.73 451.577 298.73H469.5V315.329C469.5 338.783 468.146 341.08 454.645 340.528L447.34 340.23L445.429 334.793C435.791 307.377 406.231 292.48 378.802 301.214C374.511 302.581 369.001 305.034 366.557 306.666C356.136 313.626 347.335 324.767 344.079 335.119L342.314 340.73H331.407H320.5V223.73V106.73H353.935C374.654 106.73 388.41 107.125 390.104 107.77ZM450.154 166.98C459.577 176.468 467.784 185.213 468.393 186.414C469.107 187.824 469.5 196.799 469.5 211.716V234.834L428.75 234.5C392.491 234.203 387.483 233.968 383.305 232.373C377.051 229.984 370.6 224.145 366.966 217.585L364 212.23L363.692 184.394C363.358 154.317 363.582 152.845 368.808 150.74C370.014 150.254 384.955 149.828 402.011 149.793L433.021 149.73L450.154 166.98ZM298.5 298.739V340.747L244.923 340.489L191.346 340.23L189.432 334.793C179.775 307.368 150.231 292.48 122.802 301.214C118.511 302.581 113.001 305.034 110.557 306.666C100.136 313.626 91.335 324.767 88.079 335.119L86.314 340.73H57.095C28.813 340.73 27.805 340.663 25.627 338.634C24.39 337.481 22.955 335.427 22.439 334.069C21.914 332.69 21.5 315.073 21.5 294.165V256.73H160H298.5V298.739ZM149.816 322.322C155.858 324.381 163.891 331.644 167.291 338.122C170.88 344.96 171.148 357.694 167.853 364.852C164.803 371.478 159.185 377.246 152.661 380.45C147.807 382.833 145.788 383.228 138.5 383.216C131.234 383.204 129.259 382.813 124.892 380.521C118.414 377.121 111.151 369.088 109.092 363.046C106.851 356.469 107.056 346.991 109.586 340.229C112.3 332.976 119.563 325.613 126.714 322.865C133.231 320.361 143.362 320.123 149.816 322.322ZM405.816 322.322C411.858 324.381 419.891 331.644 423.291 338.122C426.88 344.96 427.148 357.694 423.853 364.852C420.803 371.478 415.185 377.246 408.661 380.45C403.807 382.833 401.788 383.228 394.5 383.216C387.234 383.204 385.259 382.813 380.892 380.521C374.414 377.121 367.151 369.088 365.092 363.046C362.851 356.469 363.056 346.991 365.586 340.229C368.3 332.976 375.563 325.613 382.714 322.865C389.231 320.361 399.362 320.123 405.816 322.322ZM134.5 342.476C124.158 347.659 127.309 362.73 138.735 362.73C141.911 362.73 143.377 362.053 146.1 359.33C150.712 354.718 150.899 348.975 146.577 344.653C144.969 343.045 142.981 341.73 142.159 341.73C141.336 341.73 140.064 341.503 139.332 341.226C138.599 340.949 136.425 341.511 134.5 342.476ZM390.5 342.476C380.158 347.659 383.309 362.73 394.735 362.73C397.911 362.73 399.377 362.053 402.1 359.33C406.712 354.718 406.899 348.975 402.577 344.653C400.969 343.045 398.981 341.73 398.159 341.73C397.336 341.73 396.064 341.503 395.332 341.226C394.599 340.949 392.425 341.511 390.5 342.476Z" fill="url(#paint0_linear_704_16)"/>
<defs>
<linearGradient id="paint0_linear_704_16" x1="490.928" y1="43.4095" x2="192.09" y2="502.263" gradientUnits="userSpaceOnUse">
<stop stop-color="#BA6203"/>
<stop offset="1" stop-color="#EDCA92"/>
</linearGradient>
</defs>
</svg>
