<?xml version="1.0" encoding="utf-8"?>
<!-- Generator: Adobe Illustrator 23.1.0, SVG Export Plug-In . SVG Version: 6.00 Build 0)  -->
<svg version="1.1" id="Режим_изоляции"
	 xmlns="http://www.w3.org/2000/svg" xmlns:xlink="http://www.w3.org/1999/xlink" x="0px" y="0px" viewBox="0 0 389.4 243.6"
	 style="enable-background:new 0 0 389.4 243.6;" xml:space="preserve">
<style type="text/css">
	.st0{fill:#CE0E2D;}
	.st1{fill:#002856;}
	.st2{fill:#007078;}
	.st3{fill-rule:evenodd;clip-rule:evenodd;fill:#FFFFFF;}
	.st4{fill:#FFFFFF;}
</style>
<g>
	<g>
		<path class="st0" d="M76.3,0h97.2c13.6,0,22,11.1,18.8,24.7L147,218.9c-3.2,13.6-16.8,24.6-30.4,24.6H19.5
			c-13.5,0-22-11.1-18.8-24.6L45.9,24.7C49.1,11.1,62.7,0,76.3,0z"/>
	</g>
	<g>
		<path class="st1" d="M165.4,0h111.8c13.6,0,7.4,11.1,4.3,24.7l-45.2,194.3c-3.2,13.6-2.2,24.6-15.8,24.6H108.6
			c-13.6,0-22-11.1-18.8-24.6L135,24.7C138.2,11.1,151.8,0,165.4,0z"/>
	</g>
	<g>
		<path class="st2" d="M272.7,0h97.2c13.6,0,22,11.1,18.8,24.7l-45.2,194.3c-3.2,13.6-16.8,24.6-30.4,24.6H216
			c-13.6,0-22-11.1-18.8-24.6l45.3-194.3C245.5,11.1,259.1,0,272.7,0z"/>
	</g>
	<g>
		<path class="st3" d="M256.5,182.7h9.2l2.6-8.8h-9.1L256.5,182.7z M263.8,158.4l-3.1,10.4c0,0,3.5-1.8,5.3-2.3
			c1.9-0.4,4.8-0.8,4.8-0.8l2.2-7.3H263.8 M268.4,143.4l-3,10c0,0,3.4-1.5,5.3-2.1c1.9-0.5,4.7-0.7,4.7-0.7l2.2-7.3H268.4
			 M288.6,143.4l-11.9,39.2h3.2l-2.5,8.1h-3.2l-0.7,2.5h-11.3l0.8-2.5h-22.9l2.3-7.5h2.3l12-39.8l2.4-8h11.5l-1.2,4c0,0,3.1-2.2,6-3
			c2.9-0.8,19.6-1,19.6-1l-2.5,8H288.6"/>
	</g>
	<g>
		<path class="st4" d="M293.7,135.5H306l0.1,4.6c-0.1,0.8,0.6,1.1,2,1.1h2.5l-2.3,7.6h-6.6c-5.7,0.4-7.9-2.1-7.8-4.8L293.7,135.5z"
			/>
	</g>
	<g>
		<path class="st4" d="M295.3,171.3h-11.7l2-6.7H299l1.9-6.1h-13.2l2.2-7.6h36.7l-2.3,7.6h-12.3l-1.9,6.1h12.4l-2.1,6.7h-13.4
			l-2.4,2.8h5.4l1.3,8.5c0.1,0.8,0.1,1.4,0.4,1.8c0.3,0.3,1.9,0.5,2.9,0.5h1.6l-2.5,8.2h-4.2c-0.6,0-1.6,0-2.9-0.1
			c-1.2-0.1-2.1-0.8-3-1.3c-0.8-0.4-1.9-1.3-2.2-2.9l-1.3-8.4l-6.1,8.3c-1.9,2.6-4.5,4.6-8.9,4.6h-8.5l2.2-7.4h3.2
			c0.9,0,1.8-0.4,2.4-0.7c0.6-0.3,1.2-0.6,1.8-1.5L295.3,171.3z"/>
	</g>
	<g>
		<path class="st4" d="M167.2,152.9h31l-2.3,7.4h-12.4l-1.9,6.3h12.7l-2.3,7.6h-12.7l-3.1,10.3c-0.4,1.1,3,1.3,4.2,1.3l6.3-0.9
			l-2.5,8.4h-14.3c-1.2,0-2-0.2-3.2-0.4c-1.2-0.3-1.7-0.8-2.3-1.7c-0.5-0.8-1.3-1.5-0.8-3.3l4.1-13.6h-7l2.3-7.8h7.1l1.9-6.3h-7
			L167.2,152.9z"/>
	</g>
	<g>
		<path class="st4" d="M188,139.6h12.7l-2.3,7.7h-17.4l-1.9,1.6c-0.8,0.8-1.1,0.5-2.1,1c-1,0.5-3,1.5-5.7,1.5h-5.6l2.2-7.4h1.7
			c1.4,0,2.4-0.1,2.9-0.4c0.6-0.4,1.2-1.1,1.9-2.4l3.2-5.8h12.6L188,139.6z"/>
	</g>
	<g>
		<path class="st3" d="M212.4,152.3c0,0,3.5-3.2,9.4-4.2c1.4-0.2,9.8-0.2,9.8-0.2l1.3-4.3H215L212.4,152.3z M229.2,155.5h-17.7
			l-1.1,3.6h15.4c1.8-0.2,2.2,0,2.3,0L229.2,155.5 M206.2,135.5H217l-1.6,5.5c0,0,3.4-2.7,5.8-3.7c2.4-0.9,7.8-1.7,7.8-1.7l17.5-0.1
			l-6,19.9c-1,3.4-2.2,5.6-2.9,6.6c-0.7,1-1.4,1.9-3,2.7c-1.5,0.8-2.8,1.2-4.1,1.4c-1.2,0.1-2.9,0.1-5.4,0.1h-16.9l-4.7,15.7
			c-0.5,1.6-0.7,2.3-0.4,2.7c0.2,0.4,0.8,0.8,1.6,0.8l7.4-0.7l-2.6,8.6h-8.3c-2.7,0-4.6-0.1-5.9-0.2c-1.3-0.1-2.6,0-3.5-0.7
			c-0.8-0.7-2-1.6-1.9-2.5c0.1-0.9,0.4-2.3,1-4.2L206.2,135.5"/>
	</g>
	<g>
		<path class="st4" d="M237.8,167.5l-1,4.8c-0.4,1.5-0.8,2.6-1.9,3.6c-1.2,1-2.6,2.1-5.8,2.1l-6,0.2l0,5.4c-0.1,1.5,0.3,1.4,0.6,1.6
			c0.3,0.3,0.5,0.4,0.8,0.5l1.9-0.1l5.7-0.3l-2.4,7.9H223c-4.6,0-8-0.1-9.1-1c-1.1-0.7-1.3-1.6-1.2-3.1l0.4-21h10.5l-0.1,4.3h2.5
			c0.9,0,1.5-0.1,1.8-0.3c0.3-0.2,0.6-0.6,0.7-1.1l1.1-3.4H237.8z"/>
	</g>
	<g>
		<path class="st4" d="M87.8,62c-0.4,1.7-7.1,32.8-7.1,32.9c-1.5,6.3-2.5,10.8-6.1,13.7c-2,1.7-4.4,2.5-7.2,2.5
			c-4.4,0-7-2.2-7.4-6.4l-0.1-1.4c0,0,1.4-8.4,1.4-8.5c0,0,7.1-28.4,8.3-32.1c0.1-0.2,0.1-0.3,0.1-0.4c-13.8,0.1-16.2,0-16.4-0.2
			c-0.1,0.3-0.4,2.1-0.4,2.1l-7.2,32L45,98.8l-1.2,8.9c0,2.6,0.5,4.8,1.5,6.6c3.3,5.8,12.7,6.6,18,6.6c6.8,0,13.3-1.5,17.6-4.1
			c7.5-4.5,9.5-11.4,11.3-17.6L93,96c0,0,7.3-29.4,8.5-33.3c0-0.2,0.1-0.3,0.1-0.4C91.6,62.4,88.7,62.3,87.8,62z"/>
	</g>
	<g>
		<path class="st4" d="M128.1,120.5c-4.9-0.1-6.6-0.1-12.3,0.2l-0.2-0.4c0.5-2.2,1-4.3,1.5-6.5l0.7-3c1.1-4.6,2.1-10,2.2-11.6
			c0.1-1,0.5-3.4-2.4-3.4c-1.2,0-2.4,0.6-3.7,1.2c-0.7,2.5-2.1,9.4-2.7,12.5c-1.4,6.6-1.5,7.4-2.1,10.7l-0.4,0.4
			c-5-0.1-6.8-0.1-12.6,0.2l-0.3-0.5c1-3.9,1.9-7.9,2.9-11.9c2.4-10.7,3-14.8,3.7-20.2l0.5-0.3c5.7-0.8,7-1,13.1-2.2l0.5,0.6
			l-0.9,3.4c1-0.6,2-1.2,3.1-1.8c2.9-1.4,6.1-1.8,7.9-1.8c2.7,0,5.6,0.7,6.8,3.8c1.2,2.8,0.4,6.2-1.1,12.9l-0.8,3.4
			c-1.6,7.4-1.8,8.8-2.7,13.9L128.1,120.5z"/>
	</g>
	<g>
		<path class="st4" d="M148,120.5c-3,0-4.9-0.1-6.7,0c-1.8,0-3.6,0.1-6.4,0.2l-0.1-0.2l-0.2-0.3c0.7-2.8,1.2-3.8,1.5-4.8
			c0.4-1,0.7-2,1.4-4.9c0.9-3.7,1.4-6.4,1.7-8.7c0.4-2.2,0.6-4.1,0.9-6.3l0.2-0.2l0.2-0.2c2.9-0.4,4.8-0.7,6.7-1
			c1.9-0.2,3.9-0.6,6.9-1.2l0.1,0.3l0.1,0.3c-0.6,2.3-1.1,4.6-1.7,7c-0.5,2.4-1.1,4.7-1.6,7c-1.1,4.9-1.5,6.8-1.8,8.1
			c-0.3,1.2-0.3,1.9-0.7,4.5l-0.3,0.2L148,120.5z"/>
	</g>
	<g>
		<path class="st4" d="M179.1,103.2c-0.2,1.3-1.4,6-2.9,8c-1,1.5-2.3,2.4-3.7,2.4c-0.4,0-2.8,0-2.9-3.6c0-1.8,0.3-3.6,0.8-5.6
			c1.3-5.7,2.8-10.5,6.7-10.5C180.2,93.9,180.4,97.4,179.1,103.2z M191.9,103.7c1.7-7.5,0.4-11-1.3-13.2c-2.5-3.3-7-4.3-11.7-4.3
			c-2.8,0-9.5,0.3-14.7,5.1c-3.7,3.5-5.5,8.2-6.5,12.7c-1.1,4.6-2.3,12.9,5.3,16c2.4,1,5.7,1.3,7.9,1.3c5.6,0,11.3-1.5,15.6-6.1
			C189.8,111.5,191.3,106,191.9,103.7"/>
	</g>
	<g>
		<path class="st4" d="M311.4,121c-5.9,0-7.6,0-13,0.2l-0.3-0.4c1.5-5.6,3-11.2,4.3-16.9c1.7-7.4,2.1-10.5,2.7-14.8l0.4-0.4
			c5.9-0.8,7.5-1.1,13.6-2.2l0.2,0.5c-1.1,4.6-2.2,9.2-3.3,13.9c-2.2,9.7-3.1,14.6-3.9,19.7L311.4,121z"/>
	</g>
	<g>
		<path class="st4" d="M302.5,103.8c-0.3,1.2-1.4,6-2.9,8c-1,1.4-3.4,2.3-4.7,2.3c-0.4,0-2.8,0-2.9-3.5c0-1.8,0.3-3.6,0.8-5.6
			c1.3-5.6,2.8-10.3,6.7-10.3C302.5,94.6,303.8,98.1,302.5,103.8z M314.2,104.4c1.7-7.5-5.2-0.7-6.3-3.1c-1.7-3.8-0.6-11.6-7.4-14.3
			c-2.6-1-8.7,0.3-14,5.1c-3.7,3.4-5.5,8.1-6.5,12.6c-1.1,4.5-2.3,12.8,5.3,15.8c2.4,1,4.6,1.3,6.8,1.2c7.6-0.4,13.4-11.9,17.7-16.5
			C313.1,101.6,313.7,106.6,314.2,104.4"/>
	</g>
	<g>
		<path class="st4" d="M225.3,120.5c-4.9-0.1-6.6-0.1-12.3,0.2l-0.2-0.4c0.5-2.2,1-4.3,1.6-6.5l0.7-3c1.1-4.6,2.1-10,2.2-11.6
			c0.1-1,0.5-3.4-2.4-3.4c-1.2,0-2.4,0.6-3.7,1.2c-0.7,2.5-2.1,9.4-2.8,12.5c-1.4,6.6-1.5,7.4-2.1,10.7l-0.4,0.4
			c-5-0.1-6.8-0.1-12.6,0.2l-0.3-0.5c1-3.9,1.9-7.9,2.9-11.9c2.4-10.7,3-14.8,3.7-20.2l0.4-0.3c5.6-0.8,7-1,13.2-2.2l0.5,0.6
			l-0.9,3.4c1-0.6,2-1.2,3.1-1.8c2.9-1.4,6.1-1.8,7.9-1.8c2.7,0,5.6,0.7,6.9,3.8c1.1,2.8,0.4,6.2-1.2,12.9l-0.8,3.4
			c-1.6,7.4-1.8,8.8-2.7,13.9L225.3,120.5z"/>
	</g>
	<g>
		<path class="st4" d="M267.6,62c0,0-4.1,0-4.1,0c-10.6,0.1-14.8,0.1-16.5-0.1c-0.1,0.8-0.4,2.1-0.4,2.1s-3.8,17.5-3.8,17.6
			c0,0-9.1,37.3-9.5,39.1c9.2-0.1,13-0.1,14.6,0.1c0.4-1.8,2.5-12.2,2.5-12.2c0,0,1.8-7.6,1.9-7.9c0,0,0.6-0.8,1.1-1.1h0.8
			c8,0,16.9,0,24-5.2c4.8-3.6,8.1-8.8,9.5-15.2c0.4-1.6,0.7-3.4,0.7-5.3c0-2.4-0.5-4.9-1.9-6.7C283,62.1,275.9,62,267.6,62z
			 M272.9,80.3c-0.9,3.9-3.4,7.2-6.6,8.8c-2.7,1.3-6,1.5-9.3,1.5h-2.2l0.2-0.9c0,0,4-17.5,4-17.4l0.1-0.9l0.1-0.7l1.6,0.2
			c0,0,8.3,0.7,8.5,0.7C272.5,72.7,273.8,76,272.9,80.3"/>
	</g>
	<g>
		<path class="st4" d="M359.7,86.5l-0.5-0.5c-6,1.2-7.1,1.4-12.7,2.2l-0.4,0.4c0,0.1,0,0.2-0.1,0.3l0-0.1c-4.1,9.5-4,7.5-7.4,15
			c0-0.3,0-0.6,0-0.9l-0.8-16.2l-0.5-0.5c-6.3,1.2-6.5,1.4-12.3,2.2l-0.5,0.4c-0.1,0.2-0.1,0.4-0.1,0.6l0,0.1
			c0.7,3.7,0.6,2.9,1.3,8.8c0.3,2.9,0.8,5.8,1.1,8.6c0.6,4.8,0.9,7.1,1.6,14.4c-3.9,6.5-4.9,9-8.7,14.7l0.2,0.5
			c5.7-0.2,7-0.2,11.2-0.2l0.9-1C335.4,128.2,359.7,86.5,359.7,86.5z"/>
	</g>
	<g>
		<path class="st4" d="M153.3,90.5c3.2-2.2,3.6-5.3,0.9-7c-2.8-1.6-7.6-1.1-10.9,1.1c-3.2,2.2-3.6,5.3-0.9,7
			C145.2,93.3,150.1,92.8,153.3,90.5z"/>
	</g>
	<g>
		<path class="st4" d="M331.7,135.6l-4.7,8.1c-1.5,2.8-4.3,4.9-8.7,4.9l-7.6-0.1l2.2-7.3h1.5c0.8,0,1.3,0,1.7-0.2
			c0.4-0.1,0.7-0.4,1-0.9l2.8-4.4H331.7z"/>
	</g>
</g>
</svg>
