<?xml version="1.0" encoding="utf-8"?>
<!-- Generator: Adobe Illustrator 23.1.0, SVG Export Plug-In . SVG Version: 6.00 Build 0)  -->
<svg version="1.1" id="Режим_изоляции"
	 xmlns="http://www.w3.org/2000/svg" xmlns:xlink="http://www.w3.org/1999/xlink" x="0px" y="0px" viewBox="0 0 424.8 137.8"
	 style="enable-background:new 0 0 424.8 137.8;" xml:space="preserve">
<style type="text/css">
	.st0{fill:#005CA8;}
	.st1{fill:#F6A723;}
</style>
<g>
	<g>
		<g>
			<polygon class="st0" points="184.2,135.5 149.5,135.5 171.2,2.4 205.8,2.4 			"/>
		</g>
		<g>
			<path class="st0" d="M120.3,2.4L87.3,94l-3.9-19.7l0,0L71.7,14.4c0,0-1.4-12-16.4-12H0.6L0,4.6c0,0,16.7,3.5,36.3,15.2
				l30.1,115.7h36.1L157.6,2.4H120.3z"/>
		</g>
		<g>
			<path class="st0" d="M393,135.5h31.8L397,2.4h-27.9c-12.9,0-16,9.9-16,9.9l-51.7,123.2h36.1l7.2-19.8h44.1L393,135.5z
				 M354.8,88.4L373,38.6l10.2,49.8H354.8z"/>
		</g>
		<g>
			<path class="st0" d="M304.2,34.4l4.9-28.6c0,0-15.3-5.8-31.2-5.8c-17.2,0-58,7.5-58,44.1c0,34.4,47.9,34.8,47.9,52.9
				c0,18.1-43,14.8-57.2,3.4l-5.2,29.9c0,0,15.5,7.5,39.1,7.5c23.7,0,59.3-12.3,59.3-45.6c0-34.6-48.4-37.8-48.4-52.9
				C255.6,24.3,289.4,26.2,304.2,34.4z"/>
		</g>
	</g>
	<g>
		<path class="st1" d="M83.4,74.2L71.7,14.4c0,0-1.4-12-16.4-12H0.6L0,4.6c0,0,26.3,5.4,51.4,25.8C75.5,50,83.4,74.2,83.4,74.2z"/>
	</g>
</g>
</svg>
