<svg width="513" height="512" viewBox="0 0 513 512" fill="none" xmlns="http://www.w3.org/2000/svg">
<path fill-rule="evenodd" clip-rule="evenodd" d="M242.16 1.51838C230.164 4.74338 229.921 4.96138 156.539 78.1264L86.522 147.935H68.838C48.21 147.935 43.454 148.731 32.316 154.048C17.063 161.33 4.52801 177.289 1.14501 193.734C-0.376994 201.134 -0.383994 458.687 1.13801 466.136C3.06501 475.569 9.67201 487.483 17.089 494.901C24.507 502.318 36.421 508.925 45.854 510.852C49.368 511.57 75.428 511.935 123.181 511.935H195.209L198.132 509.012C200.424 506.719 201.055 505.193 201.055 501.935C201.055 498.677 200.424 497.151 198.132 494.858L195.209 491.935H125.681C78.638 491.935 54.44 491.576 50.854 490.826C35.622 487.639 24.426 476.438 21.179 461.136C19.603 453.707 19.588 206.263 21.164 198.734C22.672 191.525 27.525 182.646 32.331 178.305C34.518 176.328 39.289 173.299 42.932 171.573L49.555 168.435H236.055H422.555L429.178 171.573C437.69 175.606 442.994 180.451 446.797 187.667C451.648 196.87 452.055 200.918 452.055 239.984V275.935H411.265C366.29 275.935 364.109 276.168 352.636 282.189C344.867 286.268 334.396 296.725 330.362 304.435C321.954 320.507 321.954 339.363 330.362 355.435C334.385 363.123 344.867 373.605 352.555 377.628C364.088 383.661 366.644 383.935 411.449 383.935H452.055V419.886C452.055 442.696 451.644 457.774 450.931 461.136C447.684 476.438 436.488 487.639 421.256 490.826C417.67 491.576 393.472 491.935 346.429 491.935H276.901L273.978 494.858C269.862 498.974 269.862 504.896 273.978 509.012L276.901 511.935H348.929C396.682 511.935 422.742 511.57 426.256 510.852C435.689 508.925 447.603 502.318 455.021 494.901C462.438 487.483 469.045 475.569 470.972 466.136C471.639 462.875 472.055 446.046 472.055 422.386V383.935L480.305 383.925C494.072 383.909 503.549 378.168 509.176 366.435L512.053 360.435L512.054 330.363C512.055 294.704 511.831 293.563 503.129 284.861C496.282 278.014 490.867 275.935 479.877 275.935H472.055V237.484C472.055 213.639 471.641 197.02 470.965 193.734C466.979 174.359 451.132 156.955 431.555 150.453L426.555 148.793L403.555 108.707C390.905 86.6604 379.044 66.6304 377.197 64.1974C367.199 51.0234 347.64 43.2944 330.88 45.8944L323.698 47.0094L305.626 29.1244C295.687 19.2884 285.47 9.83638 282.921 8.11938C275.551 3.15638 264.584 -0.0766193 255.379 0.00138073C251.076 0.0373807 245.127 0.720381 242.16 1.51838ZM267.862 22.9684C270.904 24.3144 277.457 30.0194 288.425 40.8724C297.278 49.6334 304.304 56.9794 304.038 57.1974C303.773 57.4154 268.305 77.9204 225.221 102.764L146.887 147.935H131.224H115.561L176.558 86.8684C210.399 52.9894 239.218 24.9354 241.289 23.8564C249.544 19.5564 259.404 19.2264 267.862 22.9684ZM351.799 69.3924C354.61 70.9224 358.042 73.3574 359.427 74.8044C362.148 77.6484 402.46 146.864 401.787 147.537C401.563 147.761 353.515 147.83 295.014 147.69L188.648 147.435L256.882 108.057C294.411 86.3994 326.79 68.0544 328.835 67.2904C334.833 65.0514 345.641 66.0414 351.799 69.3924ZM488.783 299.208L491.555 301.98V329.935V357.89L488.782 360.662L486.009 363.435H428.282H370.555L364.555 360.634C343.155 350.645 337.744 323.316 353.857 306.599C357.912 302.392 364.956 298.405 370.801 297.008C372.866 296.515 399.633 296.184 430.283 296.273L486.011 296.435L488.783 299.208ZM371.475 321.08C368.912 322.323 366.055 326.991 366.055 329.935C366.055 333.036 368.961 337.571 371.767 338.85C377.531 341.476 383.205 339.214 385.674 333.304C389.135 325.021 379.842 317.02 371.475 321.08ZM228.978 494.858C222.537 501.3 226.944 511.935 236.055 511.935C239.313 511.935 240.839 511.304 243.132 509.012C249.573 502.57 245.166 491.935 236.055 491.935C232.797 491.935 231.271 492.566 228.978 494.858Z" fill="url(#paint0_linear_832_93)"/>
<defs>
<linearGradient id="paint0_linear_832_93" x1="511.976" y1="54.8126" x2="110.781" y2="563.592" gradientUnits="userSpaceOnUse">
<stop stop-color="#BA6203"/>
<stop offset="1" stop-color="#EDCA92"/>
</linearGradient>
</defs>
</svg>
