<svg width="484" height="513" viewBox="0 0 484 513" fill="none" xmlns="http://www.w3.org/2000/svg">
<path fill-rule="evenodd" clip-rule="evenodd" d="M7.984 1.854C6.068 2.874 3.495 5.461 2.266 7.604L0.033 11.5L0.0159998 255.912L0 500.324L2.466 504.532C7.247 512.69 -10.736 512 197.167 512C375.75 512 382.659 511.932 386.016 510.146C387.932 509.126 390.505 506.539 391.734 504.396L393.967 500.5L393.984 438.333L394 376.166L401.75 370.718C441.48 342.786 470.077 298.96 479.893 250.964C484.667 227.621 485.073 201.972 481.038 178.606C478.924 166.361 476.921 161.611 472.807 159.083C471.538 158.303 453.4 152.202 432.5 145.524L394.5 133.382L394 71.941C393.519 12.776 393.426 10.375 391.5 7.113C390.4 5.25 387.932 2.888 386.016 1.863C382.652 0.0650001 376.073 0 197 0C18.255 0 11.341 0.068 7.984 1.854ZM362.992 81.75L362.985 133.5L337.777 141.5L312.57 149.5L273.535 150C236.478 150.475 234.365 150.601 231.834 152.5C225.61 157.17 223.806 164.357 227.206 170.941C231.472 179.201 232.294 179.457 255.648 179.808L276.156 180.116L275.436 184.308C275.04 186.614 274.443 193.225 274.108 199L273.5 209.5L172 210L70.5 210.5L67.373 212.73C60.737 217.464 59.193 227.25 64.016 234.022C68.475 240.285 63.217 240 174.468 240H276L276.009 242.25C276.017 244.256 279.877 261.936 281.576 267.75L282.233 270H177.503H72.772L69.004 272.118C58.504 278.019 58.559 292.288 69.105 298.5C72.437 300.463 74.551 300.505 183.639 300.771L294.779 301.042L300.487 310.608C314.987 334.906 338.4 359.961 358.435 372.618L362.996 375.5L362.998 428.75L363 482H197H31V256V30H197H363L362.992 81.75ZM72.5 89.702C69.024 90.574 63.84 95.138 62.394 98.6C61.297 101.225 61 109.002 61 135.082C61 166.99 61.079 168.368 63.118 171.996C64.283 174.069 66.931 176.717 69.004 177.882C72.718 179.97 73.582 180 129 180C184.418 180 185.282 179.97 188.996 177.882C191.069 176.717 193.734 174.038 194.92 171.929C197.028 168.178 197.069 167.341 196.788 133.619C196.512 100.596 196.413 99.027 194.438 96.384C193.304 94.866 191.134 92.696 189.616 91.562C186.91 89.541 185.738 89.497 130.678 89.35C99.78 89.268 73.6 89.426 72.5 89.702ZM235.5 90.483C228.176 93.117 224.096 100.929 226.12 108.444C227.433 113.32 232.86 118.702 237.279 119.508C239.051 119.832 259.03 119.962 281.678 119.798C321.652 119.509 322.938 119.439 325.678 117.408C330.947 113.502 333.23 109.056 332.729 103.676C332.252 98.555 330.121 94.927 325.616 91.562C322.944 89.566 321.529 89.493 281.178 89.272C247.013 89.086 238.779 89.304 235.5 90.483ZM166.777 134.75L166.5 149.5H129H91.5L91.223 134.75L90.947 120H129H167.053L166.777 134.75ZM421.72 174.06L450.94 183.414L451.72 187.957C452.149 190.456 452.471 201.95 452.436 213.5C452.381 231.185 452.029 236.049 450.206 244.314C441.894 281.976 422.113 314.989 393.829 338.401C378.084 351.434 380.036 351.059 369.47 343.072C338.039 319.312 315.573 283.558 307.327 244.174C305.073 233.409 304.661 228.863 304.587 214C304.539 204.375 304.863 193.575 305.308 190L306.115 183.5L342.308 171.94L378.5 160.38L385.5 162.543C389.35 163.733 405.649 168.915 421.72 174.06ZM407.5 219.577C406.95 219.713 405.171 220.121 403.546 220.483C401.518 220.934 395.167 226.51 383.286 238.269L365.98 255.397L361.74 251.315C356.197 245.979 354.11 244.999 348.316 245.007C338.345 245.02 331.541 253.856 334.117 263.445C334.954 266.557 337.683 270.021 345.853 278.336C351.709 284.296 357.788 289.846 359.361 290.67C363.185 292.67 370.458 292.568 373.798 290.468C375.284 289.534 386.733 278.426 399.24 265.785C423.387 241.378 424.997 239.126 423.603 231.698C422.866 227.771 419.918 223.561 416.696 221.837C414.207 220.505 408.957 219.215 407.5 219.577ZM68.859 332.158C66.856 333.319 64.268 335.957 63.109 338.021C61.08 341.631 61 343.046 61 375.5C61 408.322 61.059 409.332 63.184 413.114C64.585 415.607 66.867 417.726 69.55 419.024C73.619 420.994 75.254 421.041 130.293 420.774C185.9 420.505 186.902 420.465 189.677 418.408C191.23 417.257 193.512 414.828 194.75 413.01C196.974 409.742 197 409.316 197 375.738C197 342.671 196.942 341.67 194.816 337.886C193.424 335.41 191.133 333.275 188.5 332C184.518 330.072 182.351 330.001 128.434 330.023C73.352 330.046 72.445 330.078 68.859 332.158ZM167 375.5V390H129H91V375.5V361H129H167V375.5ZM236.315 391.081C231.87 392.396 227.252 397.349 225.946 402.202C224.063 409.194 228.341 417.291 235.315 419.933C237.143 420.626 252.551 421 279.249 421C318.325 421 320.574 420.901 324.5 419C335.472 413.689 335.693 398.86 324.895 392.5C321.664 390.596 319.524 390.491 280.5 390.319C257.154 390.216 238.129 390.544 236.315 391.081Z" fill="url(#paint0_linear_839_205)"/>
<defs>
<linearGradient id="paint0_linear_839_205" x1="483.721" y1="54.821" x2="77.7299" y2="541.193" gradientUnits="userSpaceOnUse">
<stop stop-color="#BA6203"/>
<stop stop-color="#BA6203"/>
<stop stop-color="#BA6203"/>
<stop offset="0.0001" stop-color="#BA6203"/>
<stop offset="1" stop-color="#EDCA92"/>
</linearGradient>
</defs>
</svg>
