<svg width="366" height="512" viewBox="0 0 366 512" fill="none" xmlns="http://www.w3.org/2000/svg">
<path fill-rule="evenodd" clip-rule="evenodd" d="M93.3175 1.41276C89.6395 3.04676 86.3035 6.56876 84.8845 10.3158C84.2395 12.0188 83.8175 22.3928 83.8175 36.5658V60.0008L74.5675 60.0228C67.7405 60.0388 64.2515 60.5288 61.2465 61.8938C56.3745 64.1068 51.4985 69.7248 50.0405 74.8068C49.4575 76.8388 46.8505 94.0258 44.2485 113.001L39.5165 147.501L34.3075 154.501C4.85447 194.077 -6.16352 241.728 3.31148 288.559C8.48648 314.135 18.2085 335.743 34.3305 357.501L39.5165 364.501L44.2485 399.001C46.8505 417.976 49.4575 435.163 50.0405 437.195C51.4985 442.277 56.3745 447.895 61.2465 450.108C64.2465 451.47 67.7395 451.963 74.5185 451.979L83.7195 452.001L84.0185 476.93C84.3475 504.357 84.3375 504.313 91.2025 509.439C93.9225 511.47 95.0295 511.505 165.64 511.783C205.062 511.939 238.341 511.815 239.592 511.508C243.77 510.484 249.501 504.314 250.701 499.546C251.351 496.967 251.817 486.106 251.817 473.558V452.001L261.067 451.992C269.45 451.983 270.794 451.709 275.407 449.063C284.238 443.998 285.027 441.468 290.788 399.734L295.726 363.967L300.282 358.047C313.192 341.268 324.035 319.51 329.287 299.838L331.067 293.176L341.359 292.838C350.9 292.526 351.968 292.281 355.984 289.495C358.819 287.528 361.268 284.614 363.067 281.065C365.78 275.716 365.817 275.384 365.817 256.688C365.817 235.842 365.156 232.081 360.496 226.428C355.896 220.848 350.972 219.049 340.224 219.023L331.131 219.001L328.882 210.796C323.476 191.071 313.358 171.003 300.127 153.768L295.726 148.035L290.788 112.268C285.027 70.5338 284.238 68.0038 275.407 62.9388C270.794 60.2928 269.45 60.0188 261.067 60.0098L251.817 60.0008L251.811 38.2508C251.805 14.6888 251.124 10.0968 246.974 5.66176C241.494 -0.19424 243.67 0.000760258 183.821 0.000760258H128.726L126.272 2.45576C124.922 3.80576 123.817 6.07576 123.817 7.50076C123.817 8.92576 124.922 11.1958 126.272 12.5458L128.726 15.0008H182.272H235.817V37.5008V60.0008H167.298H98.7795L99.0485 37.7638C99.3065 16.4228 99.3985 15.5128 101.317 15.1638C104.743 14.5428 107.817 10.9178 107.817 7.50076C107.817 1.12376 100.695 -1.86724 93.3175 1.41276ZM83.8175 92.8618V110.723L77.5255 114.792C74.0645 117.03 68.3345 121.113 64.7925 123.866C61.2515 126.618 58.2035 128.721 58.0215 128.539C57.8395 128.356 59.2925 117.023 61.2495 103.354C65.4525 74.0078 64.9205 75.0008 76.4285 75.0008H83.8175V92.8618ZM235.817 88.9648V102.93L231.422 101.046C212.467 92.9208 191.032 88.8408 167.317 88.8448C144.616 88.8478 125.32 92.3978 106.648 100.007C102.616 101.65 99.2045 102.996 99.0675 102.998C98.9305 102.999 98.8175 96.7008 98.8175 89.0008V75.0008H167.317H235.817V88.9648ZM268.282 76.3508C269.8 77.4618 270.78 82.2598 273.796 103.351C275.813 117.459 277.353 129.001 277.218 129.001C277.083 129.001 273.111 126.089 268.392 122.529C263.672 118.969 258.016 115.032 255.822 113.779L251.832 111.501L251.825 93.2508L251.817 75.0008H259.126C263.684 75.0008 267.13 75.5088 268.282 76.3508ZM195.817 106.498C259.214 118.975 306.896 168.361 317.953 233.001C320.058 245.305 319.575 270.517 316.981 283.696C302.204 358.776 236.735 410.938 161.317 407.72C122.65 406.07 87.5765 390.7 60.3475 363.472C39.4085 342.533 26.1355 318.537 19.1575 289.001C16.0975 276.05 14.9075 250.393 16.7305 236.712C20.1825 210.818 30.4245 185.621 46.1295 164.388C53.0325 155.057 68.6855 139.768 78.5855 132.689C98.8015 118.233 123.573 108.471 148.817 105.012C158.5 103.685 185.932 104.553 195.817 106.498ZM156.317 126.091C98.7035 130.916 51.8785 173.071 39.2285 231.501C36.8225 242.614 36.8225 269.388 39.2285 280.501C50.9925 334.836 91.7685 374.841 145.31 384.578C156.875 386.681 178.302 386.647 190.313 384.508C211.599 380.716 237.45 368.701 250.204 356.673C254.379 352.735 254.823 349.55 251.744 345.636C248.672 341.73 244.299 342.088 238.211 346.743C221.274 359.692 201.539 367.645 179.567 370.373L174.817 370.963V362.554C174.817 354.585 174.674 354.034 172.083 351.995C170.089 350.427 168.531 350.002 166.333 350.426C161.234 351.408 159.817 354.17 159.817 363.124V371.025L155.567 370.438C146.432 369.176 139.998 367.768 132.422 365.373C106.416 357.152 82.9585 338.442 68.5205 314.404C61.1965 302.209 55.1215 284.385 53.3015 269.751L52.5875 264.001H60.1465C66.5445 264.001 68.1075 263.655 70.3215 261.751C74.0185 258.571 74.0615 253.468 70.4185 250.334C68.1025 248.342 66.6185 248.001 60.2615 248.001C51.4725 248.001 51.7935 248.84 54.8475 233.856C59.8435 209.337 70.1655 190.543 88.0785 173.346C107.18 155.007 127.518 145.429 155.567 141.563L159.817 140.977V148.878C159.817 157.832 161.234 160.594 166.333 161.576C168.531 162 170.089 161.575 172.083 160.007C174.676 157.967 174.817 157.42 174.817 149.417V140.977L179.067 141.554C203.701 144.896 221.643 152.309 239.753 166.629C261.94 184.174 279.005 214.652 281.466 241.13L282.104 248.001L275.211 248.016C267.287 248.033 263.732 249.457 262.44 253.132C260.008 260.047 264.726 264.001 275.411 264.001H282.104L281.466 270.872C280.146 285.075 273.318 303.889 264.349 318.036C257.964 328.109 257.348 331.7 261.452 334.928C266.663 339.027 270.007 337.507 276.119 328.26C285.096 314.681 291.753 298.881 295.398 282.501C297.84 271.531 298.338 247.495 296.373 235.503C285.295 167.916 224.451 120.385 156.317 126.091ZM115.58 166.566C110.545 169.298 110.663 176.836 115.782 179.483C119.666 181.492 121.039 181.401 124.182 178.928C126.215 177.33 126.817 175.974 126.817 173.001C126.817 170.028 126.215 168.672 124.182 167.074C121.094 164.644 119.315 164.539 115.58 166.566ZM211.58 166.543C206.546 169.317 206.663 176.836 211.782 179.483C215.666 181.492 217.039 181.401 220.182 178.928C222.197 177.344 222.817 175.968 222.817 173.083C222.817 166.949 216.993 163.559 211.58 166.543ZM162.272 188.456L159.817 190.91V224.97V259.03L163.067 262.401C175.314 275.1 188.878 287.001 191.105 287.001C195.252 287.001 198.815 283.392 198.83 279.178C198.841 275.778 197.938 274.636 186.817 264.001L174.792 252.501L174.804 221.425L174.817 190.35L172.503 188.175C169.432 185.291 165.324 185.404 162.272 188.456ZM81.1465 201.505C76.1425 203.609 75.2255 209.5 79.2725 213.546C82.2715 216.546 85.6875 216.678 89.1825 213.928C91.9785 211.729 92.6875 207.496 90.8385 204.04C89.3165 201.195 84.7335 199.996 81.1465 201.505ZM244.811 203.735C242.229 207.018 242.715 211.581 245.931 214.251C249.062 216.851 252.565 216.407 255.996 212.976C258.445 210.527 258.892 209.431 258.341 207.226C257.266 202.916 254.926 201.001 250.735 201.001C247.816 201.001 246.476 201.62 244.811 203.735ZM347.594 235.558C349.758 237.073 349.817 237.618 349.817 256.001C349.817 274.384 349.758 274.929 347.594 276.444C346.234 277.397 343.229 278.001 339.844 278.001H334.317V256.001V234.001H339.844C343.229 234.001 346.234 234.605 347.594 235.558ZM79.2725 298.456C75.2255 302.502 76.1425 308.393 81.1465 310.497C84.7335 312.006 89.3165 310.807 90.8385 307.962C92.6875 304.506 91.9785 300.273 89.1825 298.074C85.6875 295.324 82.2715 295.456 79.2725 298.456ZM245.931 297.751C240.381 302.359 243.514 311.001 250.735 311.001C254.926 311.001 257.266 309.086 258.341 304.776C258.892 302.571 258.445 301.475 255.996 299.026C252.565 295.595 249.062 295.151 245.931 297.751ZM116.317 332.156C109.556 335.854 110.852 344.717 118.432 346.619C125.266 348.334 129.893 337.566 124.234 333.114C121.248 330.765 119.292 330.528 116.317 332.156ZM211.58 332.566C206.496 335.325 206.671 342.84 211.881 345.534C217.336 348.355 222.817 345.039 222.817 338.919C222.817 336.034 222.197 334.658 220.182 333.074C217.094 330.644 215.315 330.539 211.58 332.566ZM68.8325 391.058C72.9495 394.114 78.0055 397.638 80.0675 398.889L83.8175 401.164V419.083V437.001H76.4285C64.9415 437.001 65.4475 437.934 61.3145 409.114C59.3915 395.701 57.8175 384.313 57.8175 383.807C57.8175 383.301 58.6115 383.476 59.5825 384.194C60.5535 384.913 64.7155 388.001 68.8325 391.058ZM273.796 408.651C270.78 429.742 269.8 434.54 268.282 435.651C267.13 436.493 263.684 437.001 259.126 437.001H251.817L251.837 418.751L251.857 400.501L256.83 397.548C259.565 395.924 265.069 392.024 269.06 388.88C273.051 385.737 276.575 383.128 276.89 383.083C277.205 383.038 275.813 394.543 273.796 408.651ZM106.817 412.076C116.07 415.861 133.498 420.435 144.817 422.05C158.046 423.937 182.273 423.491 195.928 421.109C207.248 419.133 222.568 414.751 231.422 410.956L235.817 409.072V423.037V437.001H167.317H98.8175V423.001C98.8175 415.301 98.9305 409.003 99.0675 409.004C99.2045 409.006 102.692 410.388 106.817 412.076ZM235.817 474.508V497.015L167.567 496.758L99.3175 496.501L99.0485 474.251L98.7795 452.001H167.298H235.817V474.508Z" fill="url(#paint0_linear_832_73)"/>
<defs>
<linearGradient id="paint0_linear_832_73" x1="365.762" y1="54.8034" x2="-44.7435" y2="426.779" gradientUnits="userSpaceOnUse">
<stop stop-color="#BA6203"/>
<stop offset="1" stop-color="#EDCA92"/>
</linearGradient>
</defs>
</svg>
