<svg width="336" height="512" viewBox="0 0 336 512" fill="none" xmlns="http://www.w3.org/2000/svg">
<path fill-rule="evenodd" clip-rule="evenodd" d="M71.35 2.25C69.532 3.488 67.103 5.77 65.952 7.322C63.893 10.1 63.855 11.081 63.559 69.322L63.258 128.5L59.214 131.5C51.689 137.082 33.836 156.48 27.485 165.975C14.944 184.722 7.299 202.866 2.656 224.898C0.330998 235.929 0 239.807 0 256C0 272.193 0.330998 276.071 2.656 287.102C7.299 309.134 14.944 327.278 27.485 346.025C33.836 355.52 51.689 374.918 59.214 380.5L63.258 383.5L63.559 442.678C63.855 500.919 63.893 501.9 65.952 504.678C67.103 506.23 69.532 508.512 71.35 509.75L74.656 512H159.36H244.064L247.408 509.747C249.247 508.507 251.676 505.92 252.806 503.997C254.798 500.605 254.875 498.741 255.36 441.914L255.86 383.328L261.86 378.296C283.527 360.124 301.175 334.667 309.82 309.116L312.059 302.5L318.181 302.849C325.878 303.288 330.689 300.688 333.456 294.595C335.154 290.856 335.316 287.5 335.316 256C335.316 224.5 335.154 221.144 333.456 217.405C330.689 211.312 325.878 208.712 318.181 209.151L312.059 209.5L309.82 202.884C301.175 177.333 283.527 151.876 261.86 133.704L255.86 128.672L255.36 70.086C254.875 13.259 254.798 11.395 252.806 8.003C251.676 6.08 249.247 3.493 247.408 2.253L244.064 0H159.36H74.656L71.35 2.25ZM224.36 69.955V109.91L217.61 107.314C197.893 99.731 181.341 96.721 159.36 96.721C137.379 96.721 120.827 99.731 101.11 107.314L94.36 109.91V69.955V30H159.36H224.36V69.955ZM180.36 128.548C207.372 132.925 232.748 146.312 252.172 166.431C266.306 181.071 275.697 196.616 281.962 215.742C297.443 263.002 284.72 314.259 248.929 348.812C224.446 372.448 193.392 384.992 159.36 384.992C125.328 384.992 94.274 372.448 69.791 348.812C50.772 330.45 38.284 307.954 32.684 281.966C30.118 270.058 30.118 241.942 32.684 230.034C41.083 191.058 66.822 157.736 102.189 140.056C111.07 135.616 127.526 130.276 137.457 128.612C148.862 126.701 168.779 126.671 180.36 128.548ZM151.601 194.995C149.808 196.088 147.448 198.448 146.355 200.241C144.494 203.292 144.367 205.322 144.367 232C144.367 258.678 144.494 260.708 146.355 263.759C147.448 265.552 149.808 267.912 151.601 269.005C154.652 270.866 156.682 270.993 183.36 270.993C210.038 270.993 212.068 270.866 215.119 269.005C224.778 263.116 224.778 248.884 215.119 242.995C212.174 241.199 210.056 241.007 193.11 241.004L174.36 241L174.356 222.25C174.353 205.304 174.161 203.186 172.365 200.241C168.124 193.285 158.425 190.834 151.601 194.995ZM115.86 409.577C130.622 413.811 141.816 415.279 159.36 415.279C181.341 415.279 197.893 412.269 217.61 404.686L224.36 402.09V442.045V482H159.36H94.36V442.045V402.09L101.11 404.686C104.823 406.113 111.46 408.314 115.86 409.577Z" fill="url(#paint0_linear_839_215)"/>
<defs>
<linearGradient id="paint0_linear_839_215" x1="335.265" y1="54.8195" x2="-70.3268" y2="391.6" gradientUnits="userSpaceOnUse">
<stop stop-color="#BA6203"/>
<stop stop-color="#BA6203"/>
<stop stop-color="#BA6203"/>
<stop offset="0.0001" stop-color="#BA6203"/>
<stop offset="1" stop-color="#EDCA92"/>
</linearGradient>
</defs>
</svg>
