<svg width="290" height="480" viewBox="0 0 290 480" fill="none" xmlns="http://www.w3.org/2000/svg">
<path fill-rule="evenodd" clip-rule="evenodd" d="M64.785 2.028C63.588 3.143 62.393 5.055 62.131 6.278C61.868 7.5 60.037 34.939 58.062 67.253L54.47 126.006L44.414 135.753C22.386 157.106 8.872 181.402 2.388 211.312C-0.796 226.001 -0.796 253.999 2.388 268.688C5.372 282.451 9.683 294.397 16.251 307.098C23.352 320.832 31.929 332.145 44.414 344.247L54.47 353.994L58.062 412.747C60.037 445.061 61.868 472.5 62.131 473.722C62.393 474.945 63.588 476.857 64.785 477.972C66.932 479.973 67.991 480 144.338 480C191.961 480 222.407 479.63 223.513 479.038C224.501 478.509 225.803 476.822 226.407 475.288C227.01 473.755 229.141 445.784 231.142 413.131L234.781 353.762L244.773 344.172C266.603 323.219 280.291 298.622 286.78 268.688C289.964 253.999 289.964 226.001 286.78 211.312C283.796 197.549 279.485 185.603 272.917 172.902C265.767 159.075 257.108 147.667 244.773 135.828L234.781 126.238L231.142 66.869C229.141 34.216 227.01 6.245 226.407 4.712C225.803 3.178 224.501 1.491 223.513 0.962C222.407 0.37 191.961 0 144.338 0C67.991 0 66.932 0.027 64.785 2.028ZM211.603 18.25C211.613 19.487 212.931 41.419 214.532 66.987C216.133 92.555 217.296 113.621 217.117 113.8C216.938 113.98 213.257 112.35 208.937 110.179C198.474 104.919 185.697 100.493 173.272 97.824C159.651 94.898 131.621 94.645 118.238 97.327C106.093 99.762 90.558 104.985 80.655 109.964C76.102 112.254 72.24 113.985 72.073 113.813C71.906 113.641 73.063 93.25 74.645 68.5C76.226 43.75 77.534 21.813 77.552 19.75L77.584 16H144.584H211.584L211.603 18.25ZM114.219 40.073C110.699 42.841 110.54 48.671 113.898 51.826C116.159 53.95 116.852 54 143.817 54C158.999 54 172.149 53.72 173.039 53.379C174.81 52.699 177.584 47.968 177.584 45.626C177.584 44.816 176.419 42.769 174.995 41.077L172.406 38H144.63C118.044 38 116.741 38.089 114.219 40.073ZM167.045 113.596C192.724 117.828 218.72 131.86 237.711 151.738C254.785 169.609 266.818 193.33 271.071 217.504C273.13 229.208 273.13 250.792 271.071 262.496C264.248 301.274 238.718 335.83 203.473 353.992C184.215 363.917 166.841 368.07 144.584 368.07C108.806 368.07 78.779 355.544 53.577 330.105C28.596 304.89 16.514 275.518 16.514 240C16.514 213.099 23.463 190.084 38.379 167.579C44.589 158.208 62.212 140.539 71.592 134.277C100.703 114.846 132.642 107.925 167.045 113.596ZM121.084 125.032C87.923 132 59.608 152.658 42.314 182.5C22.63 216.466 22.63 263.534 42.314 297.5C50.964 312.426 65.104 327.846 78.456 336.913C87.962 343.368 104.153 350.74 115.247 353.663C128.539 357.166 151.702 358.038 165.084 355.541C189.059 351.066 208.39 340.992 226.439 323.566C249.66 301.148 261.584 272.795 261.584 240C261.584 208.444 250.753 181.44 229.162 159.166C211.542 140.989 191.544 129.851 167.927 125.06C154.509 122.339 133.961 122.326 121.084 125.032ZM170.032 142.44C205.696 151.565 233.682 180.218 242.854 217C245.903 229.226 245.863 250.923 242.768 263.375C233.352 301.258 204.281 329.782 166.084 338.616C155.074 341.162 134.094 341.162 123.084 338.616C84.748 329.75 55.866 301.302 46.314 263C43.307 250.945 43.307 229.055 46.314 217C56.481 176.231 88.807 146.561 130.169 140.036C140.215 138.451 158.83 139.574 170.032 142.44ZM142.584 156.716C141.759 157.012 140.072 158.176 138.834 159.302L136.584 161.349V202.22V243.091L139.039 245.545L141.493 248H173.364H205.235L207.576 245.508C208.963 244.032 209.917 241.786 209.917 240C209.917 238.214 208.963 235.968 207.576 234.492L205.235 232H178.91H152.584V196.674V161.349L150.334 159.289C147.757 156.931 144.759 155.936 142.584 156.716ZM80.78 370.099C90.569 375.02 106.143 380.248 118.238 382.673C131.621 385.355 159.651 385.102 173.272 382.176C185.697 379.507 198.474 375.081 208.937 369.821C213.257 367.65 216.938 366.02 217.117 366.2C217.296 366.379 216.133 387.445 214.532 413.013C212.931 438.581 211.613 460.512 211.603 461.75L211.584 464H144.584H77.584V461.128C77.584 457.379 72.826 380.376 72.093 372.25C71.782 368.813 71.776 366 72.078 366C72.381 366 76.297 367.844 80.78 370.099ZM114.219 423.073C110.699 425.841 110.54 431.671 113.898 434.826C116.159 436.95 116.852 437 143.817 437C158.999 437 172.149 436.72 173.039 436.379C174.81 435.699 177.584 430.968 177.584 428.626C177.584 427.816 176.419 425.769 174.995 424.077L172.406 421H144.63C118.044 421 116.741 421.089 114.219 423.073Z" fill="url(#paint0_linear_704_26)"/>
<defs>
<linearGradient id="paint0_linear_704_26" x1="289.124" y1="51.3933" x2="-84.0794" y2="336.448" gradientUnits="userSpaceOnUse">
<stop stop-color="#BA6203"/>
<stop offset="1" stop-color="#EDCA92"/>
</linearGradient>
</defs>
</svg>
