<svg width="350" height="512" viewBox="0 0 350 512" fill="none" xmlns="http://www.w3.org/2000/svg">
<path fill-rule="evenodd" clip-rule="evenodd" d="M157.493 1.85069C147.305 5.45269 137.524 13.7697 132.965 22.7057C131.814 24.9597 130.654 26.8047 130.385 26.8047C130.116 26.8047 128.015 25.4417 125.715 23.7757C123.416 22.1097 118.415 19.7997 114.602 18.6417C94.8195 12.6327 73.7345 22.2547 64.1315 41.6737L60.4135 49.1917L60.1025 75.4987L59.7925 101.805H49.9895C44.5975 101.805 37.7625 102.257 34.7995 102.81C21.5845 105.277 9.69752 114.706 3.61452 127.546L0.413524 134.305L0.120525 186.235C-0.159475 236.055 -0.089478 238.438 1.86252 244.864C3.10352 248.947 5.55952 253.75 8.15552 257.164C10.4975 260.245 28.7265 277.409 48.6635 295.307L84.9135 327.848V404.721C84.9135 479.984 84.9575 481.737 87.0135 488.392C88.7865 494.133 90.0685 496.145 95.2635 501.335C99.7575 505.826 102.988 508.068 107.26 509.664L113.106 511.849L197.76 511.577L282.414 511.305L287.414 508.854C294.69 505.289 302.126 497.437 305.01 490.274L307.414 484.305L307.709 404.998L308.004 325.692L327.129 295.038C339.778 274.764 346.883 262.366 348.11 258.422C349.868 252.775 349.951 247.794 349.69 163.883L349.414 75.3047L346.199 68.5167C335.423 45.7677 309.927 36.2517 288.189 46.8657C284.765 48.5377 281.662 49.9057 281.292 49.9067C280.923 49.9077 279.833 47.6697 278.87 44.9347C273.308 29.1417 258.563 18.1227 241.572 17.0627C231.677 16.4457 225.173 18.0597 216.514 23.2807C213.27 25.2377 210.57 26.7187 210.514 26.5717C207.232 17.8417 198.612 8.75369 189.207 4.10469C182.461 0.770691 180.741 0.354691 172.549 0.0726909C165.254 -0.179309 162.221 0.179691 157.493 1.85069ZM177.792 18.3607C184.374 20.3157 190.49 25.7237 193.561 32.3047C195.589 36.6497 195.896 38.8507 195.904 49.1047C195.915 62.3427 197.057 66.0077 201.634 67.4857C208.347 69.6547 212.611 66.0247 213.878 57.0617C214.877 49.9927 216.671 46.2017 221.124 41.7487C227.845 35.0277 239.691 32.5077 247.987 36.0357C252.97 38.1547 258.632 43.3657 261.214 48.2097C263.16 51.8617 263.451 54.2887 263.905 70.6437L264.414 88.9817L267.22 91.3937C271.101 94.7287 275.328 94.5447 278.991 90.8817C281.075 88.7977 281.914 86.9827 281.914 84.5597C281.914 78.5877 284.956 71.6887 289.566 67.2087C302.175 54.9537 321.732 58.5527 329.6 74.5747L332.414 80.3047V166.305C332.414 248.098 332.323 252.476 330.561 255.805C329.542 257.73 320.992 271.775 311.561 287.016L294.414 314.727L279.712 314.766L265.01 314.805L260.334 307.575C237.883 272.869 192.49 262.576 156.154 283.95C148.618 288.383 135.142 301.855 131.042 309.055L127.767 314.805L112.091 314.777L96.4135 314.749L59.5565 281.527C30.2045 255.07 22.1605 247.287 20.0565 243.305L17.4135 238.305V188.805C17.4135 140.654 17.4705 139.182 19.5085 134.805C20.6605 132.33 23.1355 128.804 25.0085 126.969C31.0025 121.097 33.2125 120.4 47.1635 119.984L59.9135 119.604V159.75V199.896L62.3685 202.35C65.5465 205.529 69.9415 205.545 73.6075 202.392L76.4135 199.979L76.9135 126.642L77.4135 53.3047L80.4975 47.8047C89.7165 31.3637 111.957 29.8377 122.867 44.8977C125.45 48.4637 126.346 51.2627 128.515 62.5417C129.505 67.6857 138.359 69.8017 142.324 65.8417C144.163 64.0047 144.483 62.1657 144.992 50.5297C145.659 35.2537 147.186 30.6827 153.714 24.4267C157.595 20.7067 165.988 16.9087 170.482 16.8377C171.62 16.8197 174.909 17.5047 177.792 18.3607ZM187.914 296.491C187.914 303.745 190.352 306.805 196.134 306.805C202.084 306.805 204.914 303.43 204.914 296.331C204.914 290.78 204.921 290.768 207.664 291.376C213.364 292.638 217.582 294.166 222.914 296.901C231.967 301.545 231.75 301.137 227.599 305.731C224.856 308.768 223.914 310.691 223.914 313.252C223.914 317.161 227.262 321.597 230.414 321.865C234.654 322.226 236.037 321.688 239.938 318.165C242.154 316.163 244.101 314.7 244.264 314.915C248.455 320.414 252.763 330.062 254.374 337.555L255.073 340.805H250.07C240.428 340.805 235.582 348.82 241.245 355.403C243.134 357.6 244.647 358.201 249.245 358.583C252.363 358.841 254.914 359.365 254.914 359.747C254.914 363.853 245.777 384.805 243.986 384.805C243.612 384.805 241.814 383.265 239.99 381.383C235.896 377.159 232.802 376.295 228.935 378.294C222.766 381.484 222.276 386.986 227.633 392.916L231.352 397.032L228.883 399.064C225.492 401.855 217.513 405.438 210.914 407.133L205.414 408.546L204.914 402.702C204.349 396.094 202.273 393.227 197.343 392.241C194.929 391.758 193.603 392.196 191.096 394.305C188.224 396.722 187.914 397.524 187.914 402.53V408.077L183.518 407.474C178.891 406.84 169.956 403.23 164.186 399.664L160.76 397.547L164.27 393.926C168.636 389.421 169.576 385.985 167.526 382.021C164.388 375.953 157.516 375.936 151.249 381.98L148.084 385.032L144.989 379.669C142.049 374.574 137.914 363.196 137.914 360.2C137.914 359.236 139.167 358.805 141.964 358.805C152.304 358.805 157.458 350.196 150.991 343.728C148.528 341.265 147.269 340.805 142.991 340.805C138.724 340.805 137.914 340.511 137.914 338.962C137.914 334.641 145.495 316.8 147.985 315.261C148.595 314.884 150.76 316.202 152.796 318.19C157.748 323.025 162.549 323.216 166.325 318.728C169.972 314.394 169.625 311.532 164.821 306.32L160.728 301.879L165.571 298.806C169.889 296.067 183.392 290.975 186.664 290.852C187.523 290.82 187.914 292.584 187.914 296.491ZM192.414 324.96C188.355 327.18 187.914 328.784 187.914 341.322C187.914 352.626 188.068 353.598 190.164 355.525C193.75 358.822 210.576 366.805 213.939 366.805C220.24 366.805 224.248 358.582 220.532 353.278C219.772 352.193 215.947 349.756 212.032 347.862L204.914 344.419V337.035C204.914 330.207 204.694 329.431 201.991 326.728C198.943 323.68 195.811 323.102 192.414 324.96ZM120.117 338.055C119.202 344.887 119.224 353.865 120.173 361.055L120.931 366.805H111.923H102.914V349.805V332.805H111.867H120.82L120.117 338.055ZM289.914 349.805V366.805H281.164H272.414V349.805V332.805H281.164H289.914V349.805ZM130.914 390.011C135.193 397.526 146.328 409.052 154.414 414.337C177.111 429.173 207.462 430.506 231.887 417.74C244.149 411.331 257.492 398.433 262.971 387.693L264.954 383.805H277.434H289.914V432.337C289.914 471.064 289.637 481.529 288.549 484.134C286.78 488.367 281.835 492.48 276.924 493.802C274.315 494.505 246.798 494.761 193.72 494.578L114.414 494.305L110.633 491.954C108.553 490.661 105.966 487.867 104.883 485.744C103.004 482.06 102.914 479.653 102.914 432.845V383.805L115.164 383.835L127.414 383.864L130.914 390.011Z" fill="url(#paint0_linear_832_113)"/>
<defs>
<linearGradient id="paint0_linear_832_113" x1="349.747" y1="54.8033" x2="-58.5516" y2="408.58" gradientUnits="userSpaceOnUse">
<stop stop-color="#BA6203"/>
<stop offset="1" stop-color="#EDCA92"/>
</linearGradient>
</defs>
</svg>
