<svg width="512" height="350" viewBox="0 0 512 350" fill="none" xmlns="http://www.w3.org/2000/svg">
<path fill-rule="evenodd" clip-rule="evenodd" d="M266.399 1.83027C263.019 2.91327 257.74 5.71027 254.668 8.04527C251.597 10.3803 234.44 28.6043 216.542 48.5413L184.001 84.7913H107.128C31.865 84.7913 30.112 84.8353 23.457 86.8913C17.716 88.6643 15.704 89.9463 10.514 95.1413C6.023 99.6353 3.781 102.865 2.185 107.137L0 112.983L0.272 197.637L0.544 282.291L2.995 287.291C6.56 294.567 14.412 302.003 21.575 304.887L27.544 307.291L106.851 307.586L186.157 307.881L216.811 327.006C237.085 339.655 249.483 346.76 253.427 347.987C259.074 349.745 264.055 349.828 347.966 349.567L436.544 349.291L443.332 346.076C466.081 335.3 475.597 309.804 464.983 288.066C463.311 284.642 462.075 281.492 462.236 281.066C462.397 280.64 464.634 279.55 467.207 278.643C482.697 273.188 493.734 258.303 494.786 241.449C495.403 231.554 493.789 225.05 488.568 216.391C486.611 213.147 485.13 210.447 485.277 210.391C493.997 207.113 503.096 198.488 507.731 189.11C510.948 182.602 511.49 180.469 511.843 172.952C512.489 159.198 508.085 148.614 497.752 139.089C495.272 136.803 491.398 133.992 489.143 132.842C486.889 131.691 485.044 130.531 485.044 130.262C485.044 129.993 486.407 127.892 488.073 125.592C489.739 123.293 492.049 118.292 493.207 114.479C499.297 94.4323 489.213 72.9243 469.303 63.4923L462.544 60.2913L436.294 59.9803L410.044 59.6703V49.8673C410.044 44.4753 409.592 37.6403 409.039 34.6773C406.572 21.4623 397.143 9.57527 384.303 3.49227L377.544 0.291271L325.044 0.0762748C275.232 -0.127725 272.229 -0.0387274 266.399 1.83027ZM377.044 19.3863C379.519 20.5383 383.045 23.0133 384.88 24.8863C390.752 30.8803 391.449 33.0903 391.865 47.0413L392.245 59.7913H352.099H311.953L309.499 62.2463C306.32 65.4243 306.304 69.8193 309.457 73.4853L311.87 76.2913L385.207 76.7913L458.544 77.2913L464.044 80.3753C480.485 89.5943 482.011 111.834 466.951 122.744C463.385 125.327 460.586 126.223 449.307 128.392C444.163 129.382 442.047 138.236 446.007 142.201C447.844 144.04 449.683 144.36 461.319 144.869C471.513 145.314 475.575 145.909 479.044 147.464C485.301 150.269 491.544 157.369 493.477 163.878C495.416 170.406 495.416 171.174 493.488 177.669C491.533 184.251 486.125 190.367 479.544 193.438C475.199 195.466 472.998 195.773 462.744 195.781C449.506 195.792 445.841 196.934 444.363 201.511C442.194 208.224 445.824 212.488 454.787 213.755C461.856 214.754 465.647 216.548 470.1 221.001C476.821 227.722 479.341 239.568 475.813 247.864C473.694 252.847 468.483 258.509 463.639 261.091C459.987 263.037 457.56 263.328 441.205 263.782L422.867 264.291L420.455 267.097C417.12 270.978 417.304 275.205 420.967 278.868C423.051 280.952 424.866 281.791 427.289 281.791C433.261 281.791 440.16 284.833 444.64 289.443C456.895 302.052 453.296 321.609 437.274 329.477L431.544 332.291H345.544C263.751 332.291 259.373 332.2 256.044 330.438C254.119 329.419 240.074 320.869 224.833 311.438L197.122 294.291L197.083 279.589L197.044 264.888L204.274 260.211C238.98 237.76 249.273 192.367 227.899 156.031C223.466 148.495 209.994 135.019 202.794 130.919L197.044 127.644L197.072 111.968L197.1 96.2913L230.322 59.4373C263.951 22.1313 266.865 19.4123 275.044 17.7063C276.969 17.3043 299.694 17.0463 325.544 17.1333C370.983 17.2863 372.693 17.3613 377.044 19.3863ZM128.014 115.041L127.985 127.291L121.838 130.791C114.323 135.07 102.797 146.205 97.512 154.291C82.676 176.988 81.343 207.339 94.109 231.764C100.518 244.026 113.416 257.369 124.156 262.848L128.044 264.832V277.311V289.791H79.512C40.785 289.791 30.32 289.515 27.715 288.427C23.482 286.658 19.369 281.713 18.047 276.802C17.344 274.193 17.088 246.675 17.271 193.597L17.544 114.291L19.892 110.515C21.183 108.438 23.883 105.87 25.892 104.809C29.353 102.98 32.12 102.877 78.794 102.835L128.044 102.791L128.014 115.041ZM179.044 111.744V120.697L173.794 119.994C166.962 119.079 157.984 119.101 150.794 120.05L145.044 120.808V111.8V102.791H162.044H179.044V111.744ZM153.044 141.841C153.044 152.181 161.653 157.335 168.121 150.868C170.584 148.405 171.044 147.146 171.044 142.868C171.044 138.601 171.338 137.791 172.887 137.791C177.208 137.791 195.049 145.372 196.588 147.862C196.965 148.472 195.647 150.637 193.659 152.673C188.824 157.625 188.633 162.426 193.121 166.202C197.455 169.849 200.317 169.502 205.529 164.698L209.97 160.605L213.042 165.448C215.675 169.599 221.044 183.954 221.044 186.843C221.044 187.364 218.486 187.791 215.358 187.791C208.104 187.791 205.044 190.229 205.044 196.011C205.044 201.961 208.419 204.791 215.518 204.791C221.069 204.791 221.081 204.798 220.473 207.541C219.211 213.241 217.683 217.459 214.948 222.791C210.304 231.844 210.712 231.627 206.118 227.476C203.081 224.733 201.158 223.791 198.597 223.791C194.688 223.791 190.252 227.139 189.984 230.291C189.623 234.531 190.161 235.914 193.684 239.815C195.686 242.031 197.149 243.978 196.934 244.141C191.435 248.332 181.787 252.64 174.294 254.251L171.044 254.95V249.947C171.044 240.305 163.029 235.459 156.446 241.122C154.249 243.011 153.648 244.524 153.266 249.122C153.008 252.24 152.484 254.791 152.102 254.791C147.996 254.791 127.044 245.654 127.044 243.863C127.044 243.489 128.584 241.691 130.466 239.867C134.69 235.773 135.554 232.679 133.555 228.812C130.365 222.643 124.863 222.153 118.933 227.51L114.817 231.229L112.785 228.76C109.994 225.369 106.411 217.39 104.716 210.791L103.303 205.291L109.147 204.791C115.755 204.226 118.622 202.15 119.608 197.22C120.091 194.806 119.653 193.48 117.544 190.973C115.127 188.101 114.325 187.791 109.319 187.791H103.772L104.375 183.395C105.009 178.768 108.619 169.833 112.185 164.063L114.302 160.637L117.923 164.147C122.428 168.513 125.864 169.453 129.828 167.403C135.89 164.268 135.913 157.393 129.884 151.141L126.846 147.991L131.695 145.141C136.756 142.166 148.276 137.861 151.294 137.817C152.677 137.796 153.044 138.641 153.044 141.841ZM156.324 190.041C153.027 193.627 145.044 210.453 145.044 213.816C145.044 220.117 153.267 224.125 158.571 220.409C159.656 219.649 162.093 215.824 163.987 211.909L167.43 204.791H174.814C181.642 204.791 182.418 204.571 185.121 201.868C186.729 200.26 188.044 197.988 188.044 196.818C188.044 193.92 185.476 189.171 183.499 188.412C182.609 188.071 176.596 187.791 170.137 187.791C159.237 187.791 158.244 187.953 156.324 190.041ZM179.044 281.041V289.791H162.044H145.044V281.041V272.291H162.044H179.044V281.041Z" fill="url(#paint0_linear_809_21)"/>
<defs>
<linearGradient id="paint0_linear_809_21" x1="511.827" y1="37.4398" x2="276.483" y2="474.255" gradientUnits="userSpaceOnUse">
<stop stop-color="#BA6203"/>
<stop offset="1" stop-color="#EDCA92"/>
</linearGradient>
</defs>
</svg>
