<svg width="512" height="512" viewBox="0 0 512 512" fill="none" xmlns="http://www.w3.org/2000/svg">
<path fill-rule="evenodd" clip-rule="evenodd" d="M229.142 0.665017C169.123 7.87302 116.682 33.049 75.1242 74.607C8.76823 140.963 -15.8598 236.949 10.2152 327.584C34.2402 411.09 102.209 478.353 186.592 502.13C222.302 512.192 263.511 514.356 299.845 508.075C402.528 490.326 484.933 411.036 506.612 309.125C510.909 288.925 511.642 281.127 511.642 255.625C511.642 224.487 509.38 208.374 501.168 181.007C478.98 107.063 422.864 46.238 350.142 17.306C332.205 10.17 315.157 5.59202 293.181 2.00802C281.923 0.173017 240.479 -0.696983 229.142 0.665017ZM285.553 98.653C301.612 101.753 311.009 104.957 326.642 112.661C390.961 144.358 425.177 213.96 411.607 285.496C409.373 297.273 404.89 310.389 398.669 323.354C377.274 367.938 337.095 399.186 287.52 409.797C278.123 411.808 273.851 412.124 256.142 412.114C229.511 412.1 215.675 409.412 193.46 399.936L185.278 396.446L144.218 406.156C104.865 415.461 103.053 415.797 100.65 414.222C98.9802 413.128 98.1422 411.661 98.1422 409.831C98.1422 408.32 101.742 389.636 106.142 368.312C110.542 346.987 114.142 328.419 114.142 327.049C114.142 325.679 113.071 322.436 111.763 319.842C110.455 317.248 107.96 310.965 106.22 305.881C86.5502 248.413 101.132 185.524 144.087 142.57C170.023 116.633 202.773 100.867 239.642 96.568C250.76 95.271 273.352 96.297 285.553 98.653ZM242.785 130.72C202.093 135.014 165.346 160.09 146.259 196.589C136.544 215.166 132.142 233.108 132.142 254.125C132.142 274.527 136.331 292.139 145.917 312.039L150.693 321.954L145.606 346.539C142.809 360.061 140.772 371.215 141.081 371.326C141.389 371.436 152.442 368.921 165.642 365.737L189.642 359.947L198.142 364.17C218.574 374.321 234.107 378.041 256.142 378.057C278.468 378.075 293.801 374.436 313.142 364.53C365.552 337.688 391.792 276.805 375.546 219.737C372.414 208.737 362.699 189.143 355.91 180.134C334.839 152.174 303.023 134.252 268.091 130.668C256.822 129.511 254.189 129.517 242.785 130.72ZM210.541 180.151C212.176 181.222 215.43 187.308 220.684 199.125C229.809 219.644 229.836 220.183 222.214 230.127C215.436 238.97 215.333 242.336 221.573 251.081C226.822 258.436 243.099 274.158 253.818 282.225C264.717 290.428 270.836 293.585 275.873 293.607C279.718 293.623 280.735 293.031 286.994 287.126C291.053 283.296 295.101 280.383 296.848 280.034C298.821 279.639 305.637 281.045 317.227 284.236C332.148 288.344 335.108 289.489 337.892 292.228C340.48 294.774 341.142 296.236 341.142 299.411C341.142 307.697 326.384 324.43 315.237 328.782C310.576 330.601 307.638 330.962 297.642 330.945C287.505 330.927 284.245 330.502 276.642 328.209C259.056 322.903 240.553 311.726 221.928 295.157C195.688 271.814 180.25 247.808 176.994 225.287C174.669 209.211 178.187 199.082 190.481 186.452C199.057 177.642 204.231 176.016 210.541 180.151Z" fill="#29A71A"/>
</svg>
